<svg width="100" height="100" viewBox="0 0 100 100" fill="none" xmlns="http://www.w3.org/2000/svg">
<path d="M77.718 10.5H26.7437C23.0367 10.5 19.9616 13.7814 19.9616 17.9192V81.273C19.9616 85.4108 23.0367 88.6922 26.7437 88.6922H77.718C81.4249 88.6922 84.5 85.4108 84.5 81.273V17.9192C84.5 13.7814 81.4249 10.5 77.718 10.5Z" fill="#549E8C" stroke="#306F5F"/>
<path d="M23.9231 31.1634C23.9231 31.7595 23.7699 32.2522 23.575 32.5641C23.3711 32.8903 23.2179 32.8942 23.2163 32.8942H15.7067C15.7052 32.8942 15.5519 32.8903 15.3481 32.5641C15.1532 32.2522 15 31.7595 15 31.1634C15 30.5674 15.1532 30.0746 15.3481 29.7628C15.5519 29.4366 15.7052 29.4327 15.7067 29.4327H23.2163C23.2179 29.4327 23.3711 29.4366 23.575 29.7628C23.7699 30.0746 23.9231 30.5674 23.9231 31.1634Z" fill="#256555" stroke="white" stroke-width="2"/>
<path d="M23.9231 60.3553C23.9231 60.9514 23.7699 61.4441 23.575 61.756C23.3711 62.0822 23.2179 62.0861 23.2163 62.0861H15.7067C15.7052 62.0861 15.5519 62.0822 15.3481 61.756C15.1532 61.4441 15 60.9514 15 60.3553C15 59.7593 15.1532 59.2665 15.3481 58.9547C15.5519 58.6285 15.7052 58.6246 15.7067 58.6246H23.2163C23.2179 58.6246 23.3711 58.6285 23.575 58.9547C23.7699 59.2665 23.9231 59.7593 23.9231 60.3553Z" fill="#256555" stroke="white" stroke-width="2"/>
<path d="M42.1333 48.9845C45.1732 54.9587 50.0602 59.8458 56.0451 62.8857L60.6894 58.2308C61.2699 57.6503 62.1038 57.4814 62.8321 57.7136C65.1965 58.4947 67.7403 58.9169 70.3685 58.9169C71.5402 58.9169 72.4796 59.8564 72.4796 61.028V68.4167C72.4796 69.5883 71.5402 70.5277 70.3685 70.5277C50.5458 70.5277 34.4807 54.4626 34.4807 34.6399C34.4807 33.4683 35.4307 32.5288 36.5918 32.5288H43.9804C45.1521 32.5288 46.0915 33.4683 46.0915 34.6399C46.0915 37.2681 46.5137 39.812 47.2948 42.1763C47.527 42.9046 47.3581 43.7385 46.7776 44.319L42.1333 48.9845Z" fill="white"/>
<path d="M74.4322 40.8506C74.4322 40.8506 73.5359 42.1417 69.3347 43.3712C65.1336 44.6008 65.3576 49.888 65.3576 49.888C65.3576 49.888 67.3182 46.8755 70.175 46.0148C70.175 46.0148 66.1979 49.0887 65.1336 50.9946L62.6129 54.8677L61.7166 51.5479C61.1005 48.4739 57.0674 42.3876 57.0674 42.3876C60.4843 44.9082 61.8287 49.888 61.8287 49.888C61.8287 49.888 64.3494 42.9409 59.252 39.1907C54.1545 35.4405 53.4824 33.2888 53.4824 33.2888C53.4824 33.2888 50.1774 38.5759 51.5218 43.2483C52.194 45.523 53.8745 47.2444 55.667 48.4739C56.3952 48.9658 57.1794 49.3961 57.9636 49.765C58.2997 49.888 58.6358 50.0109 58.9159 50.2568C59.532 50.6872 60.0362 51.4249 60.4843 52.0397C60.9884 52.7774 61.3805 53.5767 61.7166 54.3759C62.0527 55.298 62.2768 56.2817 62.3888 57.2654C62.3888 57.2654 62.3888 57.8187 62.3888 58.1261L54.6027 64.5813L54.6587 64.6428L61.7727 67.4708C62.8369 67.9011 63.5652 68.3929 64.0693 69.0077L68.5505 67.1019L72.0235 65.2575L63.2291 58.0646L62.8369 56.0973C63.005 55.6669 63.3411 54.8062 63.3411 54.7447C63.6212 54.13 64.0133 53.5152 64.4054 52.9619C64.7975 52.47 65.2456 52.0397 65.6937 51.6708C66.1419 51.3634 66.59 50.9946 67.1501 50.8716C67.3742 50.8101 67.6543 50.8101 67.9344 50.8101C68.5505 50.7486 69.1667 50.6872 69.7269 50.5027C71.1833 50.1339 72.6957 49.3961 73.6479 48.0436C75.5525 45.2771 74.4322 40.8506 74.4322 40.8506Z" fill="white"/>
</svg>
