<svg width="14" height="12" viewBox="0 0 14 12" fill="none" xmlns="http://www.w3.org/2000/svg">
<path d="M6.66666 11.3333C6.11111 11.3333 5.63888 11.1389 5.24999 10.75C4.86111 10.3611 4.66666 9.88889 4.66666 9.33333H5.99999C5.99999 9.52222 6.06399 9.68044 6.19199 9.808C6.31955 9.936 6.47777 10 6.66666 10C6.85555 10 7.01399 9.936 7.14199 9.808C7.26955 9.68044 7.33333 9.52222 7.33333 9.33333C7.33333 9.14444 7.26955 8.98622 7.14199 8.85867C7.01399 8.73067 6.85555 8.66667 6.66666 8.66667H0.333328V7.33333H6.66666C7.22222 7.33333 7.69444 7.52778 8.08333 7.91667C8.47222 8.30556 8.66666 8.77778 8.66666 9.33333C8.66666 9.88889 8.47222 10.3611 8.08333 10.75C7.69444 11.1389 7.22222 11.3333 6.66666 11.3333ZM0.333328 4.66667V3.33333H9.33333C9.62222 3.33333 9.86111 3.23889 10.05 3.05C10.2389 2.86111 10.3333 2.62222 10.3333 2.33333C10.3333 2.04444 10.2389 1.80556 10.05 1.61667C9.86111 1.42778 9.62222 1.33333 9.33333 1.33333C9.04444 1.33333 8.80555 1.42778 8.61666 1.61667C8.42777 1.80556 8.33333 2.04444 8.33333 2.33333H6.99999C6.99999 1.67778 7.22488 1.12489 7.67466 0.674667C8.12488 0.224889 8.67777 0 9.33333 0C9.98888 0 10.5418 0.224889 10.992 0.674667C11.4418 1.12489 11.6667 1.67778 11.6667 2.33333C11.6667 2.98889 11.4418 3.54156 10.992 3.99133C10.5418 4.44156 9.98888 4.66667 9.33333 4.66667H0.333328ZM11.3333 10V8.66667C11.6222 8.66667 11.8611 8.57222 12.05 8.38333C12.2389 8.19444 12.3333 7.95555 12.3333 7.66667C12.3333 7.37778 12.2389 7.13889 12.05 6.95C11.8611 6.76111 11.6222 6.66667 11.3333 6.66667H0.333328V5.33333H11.3333C11.9889 5.33333 12.5418 5.55822 12.992 6.008C13.4418 6.45822 13.6667 7.01111 13.6667 7.66667C13.6667 8.32222 13.4418 8.87511 12.992 9.32533C12.5418 9.77511 11.9889 10 11.3333 10Z" fill="#1C1B1F"/>
</svg>
