<svg width="100" height="100" viewBox="0 0 100 100" fill="none" xmlns="http://www.w3.org/2000/svg">
<path fill-rule="evenodd" clip-rule="evenodd" d="M50.0542 8C17.66 22.7 16.82 24.0142 8 48.74C15.14 71.42 23.54 81.08 50.0542 92C77.72 81.08 84.02 71 92 48.32C82.34 25.2742 82.76 23.12 50.0542 8Z" fill="#B5EAF5"/>
<path d="M76.1531 59.24C76.1531 59.24 75.4706 53.3878 76.0086 52.162H71.0312C71.5737 53.3878 70.8867 59.24 70.8867 59.24" fill="#CCCCCC"/>
<path d="M76.1531 59.24C76.1531 59.24 75.4706 53.3878 76.0086 52.162H71.0312C71.5737 53.3878 70.8867 59.24 70.8867 59.24" stroke="black" stroke-linejoin="round"/>
<path d="M78.56 50.4495C78.56 52.7146 76.3033 54.1235 73.52 54.1235C70.7367 54.1235 68.48 52.7146 68.48 50.4495C68.48 48.7012 69.4093 47.9817 69.7971 46.9123C70.2112 45.7687 71.2929 43.28 73.52 43.28C75.7471 43.28 76.8288 45.7676 77.2428 46.9111C77.6296 47.9817 78.56 48.7012 78.56 50.4495Z" fill="#CCCCCC" stroke="black" stroke-linejoin="round"/>
<path d="M73.52 48.2621C73.9534 48.2621 74.447 47.8392 74.7894 48.1022C74.9566 48.2308 74.9498 49.7463 75.3092 50.9466C75.6811 52.2014 76.0144 53.3021 75.9962 53.6381C75.9587 54.2939 74.2559 56.2716 73.52 56.2716C72.7841 56.2716 71.0813 54.2939 71.0438 53.6381C71.0244 53.3021 71.3532 52.2025 71.7262 50.9431C72.0857 49.7428 72.0789 48.2273 72.2461 48.0987C72.593 47.8357 73.0866 48.2621 73.52 48.2621Z" fill="#BF7D47" stroke="black" stroke-width="0.5" stroke-miterlimit="10" stroke-linecap="round"/>
<path d="M76.5208 47.6434C76.3536 48.0871 76.0737 48.1729 75.7245 48.1358C75.4004 48.101 75.1558 47.9041 75.3264 47.4615C75.4971 47.0189 75.9384 46.589 76.2364 46.7072C76.5344 46.8254 76.688 47.2008 76.5208 47.6434Z" fill="#EDDBAE" stroke="black" stroke-width="0.5" stroke-miterlimit="10" stroke-linecap="round"/>
<path d="M75.8812 47.9898C76.0276 47.9898 76.1463 47.7823 76.1463 47.5263C76.1463 47.2704 76.0276 47.0629 75.8812 47.0629C75.7349 47.0629 75.6162 47.2704 75.6162 47.5263C75.6162 47.7823 75.7349 47.9898 75.8812 47.9898Z" fill="black"/>
<path d="M70.5196 47.6434C70.6868 48.0871 70.9666 48.1729 71.3158 48.1358C71.6399 48.101 71.8845 47.9041 71.7139 47.4615C71.5433 47.0189 71.1019 46.589 70.8039 46.7072C70.5059 46.8254 70.3524 47.2008 70.5196 47.6434Z" fill="#EDDBAE" stroke="black" stroke-width="0.5" stroke-miterlimit="10" stroke-linecap="round"/>
<path d="M71.1591 47.9898C71.3054 47.9898 71.4241 47.7823 71.4241 47.5263C71.4241 47.2704 71.3054 47.0629 71.1591 47.0629C71.0127 47.0629 70.894 47.2704 70.894 47.5263C70.894 47.7823 71.0127 47.9898 71.1591 47.9898Z" fill="black"/>
<path d="M72.7524 50.6384C72.6819 50.8921 72.6887 51.1111 72.7672 51.1285C72.8457 51.1459 72.9674 50.9547 73.0379 50.701C73.1084 50.4472 73.1016 50.2282 73.0231 50.2109C72.9446 50.1935 72.8229 50.3847 72.7524 50.6384Z" fill="black"/>
<path d="M74.2879 50.6384C74.3584 50.8921 74.3516 51.1111 74.2731 51.1285C74.1946 51.1459 74.0729 50.9547 74.0024 50.701C73.9319 50.4472 73.9387 50.2282 74.0172 50.2109C74.0957 50.1935 74.2174 50.3847 74.2879 50.6384Z" fill="black"/>
<path d="M75.1603 54.7724C74.6177 55.4339 73.8875 56.0978 73.5201 56.0978C73.1527 56.0978 72.4224 55.4339 71.8799 54.7724C72.0896 54.5429 72.3434 54.3599 72.6256 54.2347C72.9078 54.1096 73.2123 54.045 73.5201 54.045C73.8278 54.045 74.1323 54.1096 74.4145 54.2347C74.6967 54.3599 74.9506 54.5429 75.1603 54.7724Z" fill="#E2A350"/>
<path d="M29.4424 58.1533C30.0728 57.703 30.536 57.071 30.766 56.3508L29.4424 58.1533ZM29.4424 58.1533C28.8119 58.6036 28.0477 58.8483 27.2613 58.8502M29.4424 58.1533L27.2613 58.8502M27.2613 58.8502C27.2612 58.8502 27.261 58.8502 27.2609 58.8502M27.2613 58.8502L27.2609 58.8502M27.2609 58.8502L18.1974 58.8502C18.1974 58.8502 18.1973 58.8502 18.1973 58.8502C17.6117 58.8499 17.0349 58.7146 16.5151 58.4561C15.9953 58.1976 15.5479 57.8234 15.2094 57.3655C14.871 56.9076 14.6513 56.379 14.5677 55.8238C14.4842 55.2688 14.5391 54.7024 14.7281 54.1715C14.7281 54.1715 14.7281 54.1714 14.7282 54.1713L17.3237 46.9113C18.1242 46.7642 18.8626 46.387 19.4407 45.826C19.4409 45.8258 19.4411 45.8256 19.4413 45.8254L21.3688 43.9778H24.0445L25.9589 45.8256C26.5526 46.4005 27.3155 46.78 28.1396 46.9146L30.7305 54.171C30.7305 54.171 30.7305 54.171 30.7305 54.1711C30.9804 54.8759 30.9929 55.6387 30.766 56.3507L27.2609 58.8502Z" fill="#D37B93" stroke="black" stroke-width="0.5"/>
<path d="M29.4424 58.1533C30.0728 57.703 30.536 57.071 30.766 56.3508L29.4424 58.1533ZM29.4424 58.1533C28.8119 58.6036 28.0477 58.8483 27.2613 58.8502M29.4424 58.1533L27.2613 58.8502M27.2613 58.8502C27.2612 58.8502 27.261 58.8502 27.2609 58.8502M27.2613 58.8502L27.2609 58.8502M27.2609 58.8502L18.1974 58.8502C18.1974 58.8502 18.1973 58.8502 18.1973 58.8502C17.6117 58.8499 17.0349 58.7146 16.5151 58.4561C15.9953 58.1976 15.5479 57.8234 15.2094 57.3655C14.871 56.9076 14.6513 56.379 14.5677 55.8238C14.4842 55.2688 14.5391 54.7024 14.7281 54.1715C14.7281 54.1715 14.7281 54.1714 14.7282 54.1713L17.3237 46.9113C18.1242 46.7642 18.8626 46.387 19.4407 45.826C19.4409 45.8258 19.4411 45.8256 19.4413 45.8254L21.3688 43.9778H24.0445L25.9589 45.8256C26.5526 46.4005 27.3155 46.78 28.1396 46.9146L30.7305 54.171C30.7305 54.171 30.7305 54.171 30.7305 54.1711C30.9804 54.8759 30.9929 55.6387 30.766 56.3507L27.2609 58.8502Z" fill="#D37B93" stroke="black" stroke-width="0.5"/>
<path d="M19.7106 50.2444C19.7106 50.3749 19.5984 50.4956 19.4412 50.4956C19.284 50.4956 19.1719 50.3749 19.1719 50.2444C19.1719 50.1138 19.284 49.9931 19.4412 49.9931C19.5984 49.9931 19.7106 50.1138 19.7106 50.2444Z" fill="#2D2D2D" stroke="black" stroke-width="0.5"/>
<path d="M26.2882 50.2444C26.2882 50.3749 26.176 50.4956 26.0189 50.4956C25.8617 50.4956 25.7495 50.3749 25.7495 50.2444C25.7495 50.1138 25.8617 49.9931 26.0189 49.9931C26.176 49.9931 26.2882 50.1138 26.2882 50.2444Z" fill="#2D2D2D" stroke="black" stroke-width="0.5"/>
<path d="M15.2085 46.2112C14.8575 46.0709 14.533 45.8776 14.2467 45.6394L16.252 43.7039L16.2525 43.7034C16.5828 43.3828 16.976 43.1279 17.4097 42.9538C17.8434 42.7797 18.3088 42.69 18.779 42.69C19.2492 42.69 19.7145 42.7797 20.1482 42.9538C20.5006 43.0953 20.8263 43.2901 21.1132 43.5301L21.0953 43.5474L21.0947 43.548L19.0942 45.4656L19.0935 45.4662C18.7634 45.7849 18.371 46.0382 17.9385 46.2112C17.506 46.3842 17.0422 46.4733 16.5735 46.4733C16.1049 46.4733 15.641 46.3842 15.2085 46.2112Z" fill="#EDCAD4" stroke="black" stroke-width="0.5"/>
<path d="M24.3009 43.5306C24.5872 43.2925 24.9117 43.0992 25.2627 42.9588C25.6952 42.7859 26.1591 42.6967 26.6277 42.6967C27.0964 42.6967 27.5602 42.7859 27.9927 42.9588C28.4252 43.1318 28.8176 43.3851 29.1477 43.7039L29.1477 43.7039L31.153 45.6394C30.8668 45.8776 30.5422 46.0709 30.1913 46.2112C29.7588 46.3842 29.2949 46.4733 28.8263 46.4733C28.3576 46.4733 27.8937 46.3842 27.4612 46.2112C27.0287 46.0383 26.6364 45.785 26.3063 45.4662L26.3062 45.4662L24.3189 43.548L24.1453 43.7279L24.3189 43.548L24.3009 43.5306Z" fill="#EDCAD4" stroke="black" stroke-width="0.5"/>
<path d="M20.9992 53.0007H24.4615C24.9489 53.0007 25.4147 53.1877 25.7568 53.5179C26.0986 53.8478 26.2888 54.2932 26.2888 54.7558C26.2888 55.4843 25.9891 56.1847 25.4526 56.7026C24.9157 57.2208 24.1857 57.5134 23.4228 57.5134H22.0379C21.275 57.5134 20.545 57.2208 20.0082 56.7026C19.4716 56.1847 19.1719 55.4843 19.1719 54.7558C19.1719 54.2932 19.3622 53.8478 19.7039 53.5179C20.046 53.1877 20.5118 53.0007 20.9992 53.0007Z" fill="#EDCAD4" stroke="black" stroke-width="0.5"/>
<path d="M21.4411 55.4242C21.4411 55.647 21.2514 55.8425 20.9986 55.8425C20.7458 55.8425 20.5562 55.647 20.5562 55.4242C20.5562 55.2014 20.7458 55.0058 20.9986 55.0058C21.2514 55.0058 21.4411 55.2014 21.4411 55.4242Z" fill="#9D5B6E" stroke="black" stroke-width="0.5"/>
<path d="M24.9035 55.4242C24.9035 55.647 24.7138 55.8425 24.461 55.8425C24.2082 55.8425 24.0186 55.647 24.0186 55.4242C24.0186 55.2014 24.2082 55.0058 24.461 55.0058C24.7138 55.0058 24.9035 55.2014 24.9035 55.4242Z" fill="#9D5B6E" stroke="black" stroke-width="0.5"/>
<path d="M56.0334 29.0037L56.0334 29.7087C56.0334 30.3441 55.7809 30.9536 55.3316 31.4029C54.8822 31.8522 54.2728 32.1047 53.6374 32.1047H45.523C44.8875 32.1047 44.2781 31.8522 43.8287 31.4029C43.3794 30.9536 43.127 30.3441 43.127 29.7087V29.0034C43.1287 28.3684 43.3818 27.7599 43.8308 27.3109C44.2798 26.8619 44.8883 26.6088 45.5233 26.6071H53.637C54.272 26.6088 54.8805 26.8619 55.3295 27.3109C55.7785 27.7599 56.0316 28.3684 56.0334 29.0034C56.0334 29.0035 56.0334 29.0036 56.0334 29.0037Z" fill="#EDCAD4" stroke="black" stroke-width="0.5"/>
<path d="M47.2132 29.3559C47.2132 29.7049 46.9303 29.9879 46.5812 29.9879C46.2322 29.9879 45.9492 29.7049 45.9492 29.3559C45.9492 29.0068 46.2322 28.7239 46.5812 28.7239C46.9303 28.7239 47.2132 29.0068 47.2132 29.3559Z" fill="#9D5B6E" stroke="black" stroke-width="0.5"/>
<path d="M53.2108 29.3559C53.2108 29.7049 52.9278 29.9879 52.5788 29.9879C52.2297 29.9879 51.9468 29.7049 51.9468 29.3559C51.9468 29.0068 52.2297 28.7239 52.5788 28.7239C52.9278 28.7239 53.2108 29.0068 53.2108 29.3559Z" fill="#9D5B6E" stroke="black" stroke-width="0.5"/>
<path d="M42.8769 21.5207H42.8766H41.0184C41.0785 20.6491 41.4515 19.825 42.0732 19.2033C42.7541 18.5224 43.6776 18.1399 44.6406 18.1399H45.5728C45.0733 18.5565 44.6563 19.0635 44.3438 19.6347C44.0417 20.1871 43.8428 20.7894 43.7565 21.4121C43.4691 21.4846 43.1737 21.5211 42.8769 21.5207Z" fill="#AEADB3" stroke="black" stroke-width="0.5"/>
<path d="M42.8769 21.5207H42.8766H41.0184C41.0785 20.6491 41.4515 19.825 42.0732 19.2033C42.7541 18.5224 43.6776 18.1399 44.6406 18.1399H45.5728C45.0733 18.5565 44.6563 19.0635 44.3438 19.6347C44.0417 20.1871 43.8428 20.7894 43.7565 21.4121C43.4691 21.4846 43.1737 21.5211 42.8769 21.5207Z" fill="#AEADB3" stroke="black" stroke-width="0.5"/>
<path d="M54.8162 19.6347C54.5038 19.0635 54.0868 18.5565 53.5873 18.1399H54.5195C55.4824 18.1399 56.4059 18.5224 57.0868 19.2033C57.7086 19.825 58.0815 20.6491 58.1417 21.5207L56.2835 21.5207L56.2831 21.5207C55.9863 21.5211 55.6909 21.4846 55.4036 21.4121C55.3172 20.7894 55.1183 20.1871 54.8162 19.6347Z" fill="#AEADB3" stroke="black" stroke-width="0.5"/>
<path d="M46.2268 17.6755C46.2037 17.6893 46.1807 17.7032 46.1578 17.7174L46.5349 15.4615L46.5349 15.4615L46.5351 15.46C46.5571 15.3233 46.6271 15.1989 46.7325 15.1091C46.8379 15.0193 46.9718 14.97 47.1103 14.97C47.2488 14.97 47.3827 15.0193 47.4881 15.1091C47.5935 15.1989 47.6635 15.3233 47.6855 15.46L47.6855 15.46L47.6858 15.4616L47.9475 17.023C47.3401 17.1353 46.7572 17.3561 46.2268 17.6755Z" fill="#3E2C27" stroke="black" stroke-width="0.5"/>
<path d="M44.21 26.4231C44.6141 26.2155 45.0641 26.1061 45.523 26.1071H45.5229V26.3571L45.5234 26.1071H53.6367C53.6368 26.1071 53.637 26.1071 53.6371 26.1071H53.6373V26.3571C54.0999 26.356 54.5527 26.4779 54.9502 26.7078L44.21 26.4231ZM44.21 26.4231V22.1235C44.21 21.9463 44.2105 21.7861 44.2318 21.646L44.2321 21.646L44.2333 21.6345C44.2982 21.0173 44.485 20.4191 44.7828 19.8746C45.0806 19.3302 45.4836 18.8502 45.9683 18.4626L45.9686 18.4624C46.1319 18.3314 46.304 18.2118 46.4837 18.1045L46.4844 18.104C47.0302 17.7754 47.6376 17.5623 48.269 17.4779L48.269 17.4779L48.2713 17.4776C48.4789 17.4479 48.6884 17.4334 48.8981 17.4343H48.8992L50.261 17.4343L50.262 17.4343C50.4717 17.4334 50.6812 17.4479 50.8888 17.4776L50.8888 17.4776L50.8911 17.4779C51.5226 17.5623 52.13 17.7754 52.6757 18.104L52.6765 18.1045C52.8562 18.2118 53.0283 18.3314 53.1915 18.4624L53.1918 18.4626C53.6765 18.8502 54.0795 19.3302 54.3773 19.8746C54.6748 20.4185 54.8615 21.0159 54.9266 21.6323C54.9402 21.7894 54.9502 21.9609 54.9502 22.1235V26.4231H44.21Z" fill="#EAEAEA" stroke="black" stroke-width="0.5"/>
<path d="M47.5662 22.6527C47.5662 22.8069 47.4412 22.9319 47.287 22.9319C47.1328 22.9319 47.0078 22.8069 47.0078 22.6527C47.0078 22.4985 47.1328 22.3735 47.287 22.3735C47.4412 22.3735 47.5662 22.4985 47.5662 22.6527Z" fill="#2D2D2D" stroke="black" stroke-width="0.5"/>
<path d="M52.1526 22.6527C52.1526 22.8069 52.0276 22.9319 51.8734 22.9319C51.7192 22.9319 51.5942 22.8069 51.5942 22.6527C51.5942 22.4985 51.7192 22.3735 51.8734 22.3735C52.0276 22.3735 52.1526 22.4985 52.1526 22.6527Z" fill="#2D2D2D" stroke="black" stroke-width="0.5"/>
<path d="M51.2125 17.023C51.8199 17.1353 52.4029 17.3561 52.9333 17.6755C52.9335 17.6756 52.9336 17.6756 52.9337 17.6757L52.8047 17.8899C52.891 17.9414 52.9756 17.9956 53.0584 18.0523L51.2125 17.023ZM51.2125 17.023L51.4743 15.4616L51.4743 15.4616L51.4745 15.46C51.4966 15.3233 51.5665 15.1989 51.6719 15.1091C51.7773 15.0193 51.9113 14.97 52.0497 14.97C52.1882 14.97 52.3222 15.0193 52.4276 15.1091C52.533 15.1989 52.6029 15.3233 52.625 15.46L52.6249 15.46L52.6252 15.4615L53.0023 17.7174L51.2125 17.023Z" fill="#3E2C27" stroke="black" stroke-width="0.5"/>
<path d="M48.3026 88.7272C47.9093 88.3948 47.5734 88.0015 47.3072 87.5634C47.4237 87.5767 47.541 87.5835 47.6586 87.5836H47.6588L49.9701 87.5836L49.9703 87.5836C50.0869 87.5835 50.2032 87.5768 50.3188 87.5636C50.0534 88.0015 49.7185 88.3947 49.3262 88.7273L48.8145 89.1546L48.3026 88.7272Z" fill="#AEADB3" stroke="black" stroke-width="0.5"/>
<path d="M53.573 81.3873V81.3875C53.5733 81.7448 53.516 82.0998 53.4034 82.4389C53.4034 82.4389 53.4033 82.439 53.4033 82.4391L52.4553 85.2759L52.4425 85.3144V85.335C52.2654 85.8404 51.9371 86.2796 51.5018 86.5925C51.0557 86.9132 50.5198 87.085 49.9704 87.0836H49.9697H47.6585H47.6585C47.1102 87.0837 46.5758 86.9112 46.131 86.5906C45.6969 86.2778 45.3696 85.8394 45.1929 85.335V85.3144L45.18 85.2759L44.2319 82.4386L44.2315 82.4376C44.1167 82.099 44.0571 81.7441 44.0552 81.3866V79.1047C44.0552 79.1047 44.0552 79.1047 44.0552 79.1047C44.0552 78.6621 44.1436 78.2241 44.315 77.8161C44.4862 77.4087 44.7368 77.0395 45.0522 76.73C45.1241 76.6616 45.1887 76.6004 45.2587 76.5432L45.2587 76.5432L45.2607 76.5415C45.7649 76.12 46.3842 75.8598 47.038 75.7947C47.1016 75.7941 47.1635 75.7894 47.2167 75.7854L47.2215 75.7851C47.2823 75.7805 47.333 75.7768 47.383 75.7768H50.2452C50.3701 75.7768 50.4692 75.7773 50.5656 75.7919L50.5655 75.7922L50.5777 75.7934C50.6885 75.8047 50.7985 75.8223 50.9072 75.8462L50.9072 75.8462L50.9133 75.8474C50.9801 75.8603 51.0485 75.8766 51.1185 75.8963L51.1517 75.9056H51.1862H51.1967C51.2511 75.9204 51.3048 75.9376 51.3577 75.957L51.444 75.9915L51.4439 75.9918L51.4551 75.9957C51.5061 76.0133 51.5557 76.0347 51.6035 76.0597L51.6112 76.0637L51.6191 76.0672C51.7238 76.1129 51.8254 76.1654 51.9234 76.2242L51.9232 76.2244L51.9333 76.2298C51.977 76.2534 52.0191 76.2799 52.0593 76.309L52.0591 76.3093L52.071 76.3169C52.169 76.3797 52.2624 76.4493 52.3507 76.5251L52.3506 76.5251L52.3553 76.5289C52.4254 76.5863 52.4901 76.6476 52.5623 76.7162C52.8819 77.0262 53.1361 77.3973 53.3097 77.8073C53.4835 78.2178 53.573 78.6589 53.573 79.1047V81.3873Z" fill="#D8D9DD" stroke="black" stroke-width="0.5"/>
<path d="M56.029 70.5648L56.029 70.5648L56.0273 70.5657C55.0821 71.0328 54.2685 71.7285 53.6603 72.5898C53.0522 73.4509 52.6687 74.4502 52.5445 75.497C52.5237 75.6681 52.5102 75.8399 52.5039 76.012C52.4572 75.978 52.4096 75.9453 52.361 75.914C52.3064 75.8748 52.2494 75.8391 52.1903 75.8069C52.0779 75.7397 51.9615 75.6796 51.8416 75.6268C51.7761 75.593 51.7084 75.5638 51.6388 75.5395L51.5547 75.5058L51.5547 75.5057L51.5484 75.5034C51.4688 75.474 51.3877 75.4487 51.3055 75.4277L51.275 75.42H51.2436H51.2353C51.1661 75.4009 51.096 75.3847 51.0251 75.3713C50.8989 75.3437 50.7712 75.3234 50.6427 75.3103L50.6301 75.309H50.6175C50.5694 75.309 50.5199 75.3054 50.4586 75.3008L50.4562 75.3006C50.3986 75.2963 50.3304 75.2912 50.2597 75.2912H50.2324C50.4489 73.981 51.1069 72.7807 52.1015 71.8924C53.1662 70.9415 54.5427 70.4141 55.9702 70.4101H55.9949C56.0168 70.4101 56.0379 70.4188 56.0534 70.4344C56.0684 70.4494 56.0771 70.4696 56.0776 70.4908C56.077 70.506 56.0723 70.5208 56.0641 70.5336C56.0555 70.5471 56.0434 70.5579 56.029 70.5648Z" fill="#464548" stroke="black" stroke-width="0.5"/>
<path d="M41.6012 70.5656L41.6013 70.5655L41.5924 70.5615C41.5756 70.554 41.562 70.541 41.5538 70.5246C41.5456 70.5082 41.5433 70.4895 41.5474 70.4716C41.5514 70.4538 41.5616 70.4378 41.5761 70.4266C41.5905 70.4154 41.6085 70.4095 41.6268 70.41L41.6268 70.4101H41.6337H41.6587C41.6587 70.4101 41.6588 70.4101 41.6588 70.4101C43.0866 70.4103 44.4648 70.9343 45.5322 71.8827C46.529 72.7686 47.1901 73.9672 47.4099 75.2768H47.3833H47.3757C47.2609 75.2768 47.1293 75.2768 46.9948 75.2965C46.3182 75.3636 45.6737 75.6118 45.1283 76.0131C45.1221 75.8406 45.1085 75.6684 45.0876 75.497C44.9632 74.4498 44.5791 73.4502 43.9703 72.589C43.3614 71.7278 42.5471 71.0323 41.6012 70.5656Z" fill="#464548" stroke="black" stroke-width="0.5"/>
<path d="M48.8143 87.4414C48.7857 87.4414 48.7583 87.43 48.7381 87.4098C48.7179 87.3896 48.7065 87.3622 48.7065 87.3336V85.5447C48.7065 85.5161 48.7179 85.4887 48.7381 85.4685C48.7583 85.4483 48.7857 85.4369 48.8143 85.4369C48.8429 85.4369 48.8703 85.4483 48.8905 85.4685C48.9107 85.4887 48.9221 85.5161 48.9221 85.5447V87.3336C48.9221 87.3622 48.9107 87.3896 48.8905 87.4098C48.8703 87.43 48.8429 87.4414 48.8143 87.4414Z" fill="#AEADB3" stroke="black" stroke-width="0.5"/>
<path d="M41.8434 81.8073C41.2698 81.7856 40.7219 81.5759 40.2822 81.2141L43.8386 77.6603C43.6517 78.1188 43.5555 78.6093 43.5554 79.1046V79.1047V81.2513C43.0696 81.6328 42.4631 81.8307 41.8434 81.8073Z" fill="#AEADB3" stroke="black" stroke-width="0.5"/>
<path d="M54.0733 79.1047V79.1046C54.0733 78.6093 53.9771 78.1188 53.7902 77.6603L57.3466 81.2141C56.9069 81.5759 56.3589 81.7856 55.7854 81.8073C55.1657 81.8307 54.5591 81.6328 54.0733 81.2513V79.1047Z" fill="#AEADB3" stroke="black" stroke-width="0.5"/>
<path d="M49.6379 84.6379L49.6378 84.6379L49.6377 84.6445C49.6374 84.6822 49.6301 84.7195 49.6161 84.7545L49.6161 84.7545L49.6153 84.7565C49.5918 84.817 49.5482 84.8676 49.4919 84.8998L48.8144 85.2613L48.1369 84.8998C48.0806 84.8676 48.0369 84.817 48.0134 84.7565L48.0134 84.7565L48.0126 84.7545C47.9987 84.7195 47.9914 84.6822 47.991 84.6445L47.9911 84.6445L47.9909 84.6379C47.9897 84.603 47.9953 84.5683 48.0075 84.5356C48.0197 84.503 48.0382 84.4731 48.062 84.4476C48.0858 84.4221 48.1143 84.4015 48.1461 84.3871C48.1767 84.3732 48.2097 84.3652 48.2433 84.3636H49.3855C49.4191 84.3652 49.4521 84.3732 49.4827 84.3871C49.5144 84.4015 49.543 84.4221 49.5668 84.4476C49.5905 84.4731 49.6091 84.503 49.6213 84.5356C49.6335 84.5683 49.6391 84.603 49.6379 84.6379Z" fill="#3E2C27" stroke="black" stroke-width="0.5"/>
<path d="M51.4269 81.0724C51.4269 81.2308 51.2985 81.3591 51.1402 81.3591C50.9819 81.3591 50.8535 81.2308 50.8535 81.0724C50.8535 80.9141 50.9819 80.7858 51.1402 80.7858C51.2985 80.7858 51.4269 80.9141 51.4269 81.0724Z" fill="#2D2D2D" stroke="black" stroke-width="0.5"/>
<path d="M46.7755 81.0724C46.7755 81.2308 46.6471 81.3591 46.4888 81.3591C46.3305 81.3591 46.2021 81.2308 46.2021 81.0724C46.2021 80.9141 46.3305 80.7858 46.4888 80.7858C46.6471 80.7858 46.7755 80.9141 46.7755 81.0724Z" fill="#2D2D2D" stroke="black" stroke-width="0.5"/>
<path d="M58.2195 50.2189V61.51H55.6396V55.1295V54.8795H55.3896H44.6098H44.3598V55.1295V61.51H41.7798V50.2189L44.2859 45.5012L49.9997 43.3333L55.7134 45.5012L58.2195 50.2189ZM48.9164 55.7695L47.3047 57.905L45.693 55.7695H48.9164ZM45.693 61.51L47.3047 59.3746L48.9164 61.51H45.693ZM51.0829 61.51L52.6946 59.3746L54.3063 61.51H51.0829ZM54.3063 55.7695L52.6946 57.905L51.0829 55.7695H54.3063ZM54.7546 56.6477V60.6318L53.2504 58.6398L54.7546 56.6477ZM50.6347 60.6318V56.6477L52.1388 58.6398L50.6347 60.6318ZM49.3647 60.6318L47.8605 58.6398L49.3647 56.6477V60.6318ZM46.7489 58.6398L45.2448 60.6318V56.6477L46.7489 58.6398ZM59.8129 48.8124L59.8132 48.8129C59.8533 48.8887 59.818 48.9799 59.7437 49.0099L59.7437 49.0099L59.2567 49.2069L59.2564 49.207C59.195 49.2319 59.1227 49.2069 59.0897 49.1445L59.0895 49.1441L56.7206 44.691C56.6476 44.5456 56.5247 44.4446 56.3864 44.3898L56.3865 44.3897L56.3831 44.3885L50.2232 42.0483L50.2232 42.0483L50.2208 42.0474C50.0804 41.9957 49.919 41.9957 49.7785 42.0474L49.7785 42.0474L49.7761 42.0483L43.6163 44.3885L43.6163 44.3884L43.6129 44.3898C43.4747 44.4446 43.3518 44.5456 43.2787 44.691L40.9103 49.1441C40.9103 49.1441 40.9103 49.1441 40.9103 49.1442C40.8769 49.2068 40.8047 49.2317 40.7429 49.2068L40.2562 49.0099C40.1823 48.98 40.1465 48.8885 40.1865 48.8123L42.7285 43.9793C42.7439 43.9501 42.7687 43.9278 42.7981 43.9158C42.7982 43.9157 42.7983 43.9157 42.7983 43.9157L49.9506 41.0196C49.9506 41.0195 49.9506 41.0195 49.9507 41.0195C49.9821 41.0068 50.0172 41.0068 50.0487 41.0195C50.0487 41.0195 50.0488 41.0195 50.0488 41.0196L57.2015 43.9159L57.202 43.9161C57.2307 43.9276 57.2555 43.9498 57.2704 43.9785L57.2708 43.9792L59.8129 48.8124ZM49.8647 48.499V48.249H49.6147H46.5347H46.2847V48.499V51.6193V51.8693H46.5347H49.6147H49.8647V51.6193V48.499ZM53.7146 48.499V48.249H53.4646H50.3847H50.1347V48.499V51.6193V51.8693H50.3847H53.4646H53.7146V51.6193V48.499Z" fill="#CB7C55" stroke="black" stroke-width="0.5"/>
<path d="M45.2437 60.6085V56.6451L46.7342 58.6268L45.2437 60.6085Z" fill="#762C07" stroke="black" stroke-width="0.5"/>
<path d="M49.3721 60.6085V56.6451L47.8816 58.6268L49.3721 60.6085Z" fill="#762C07" stroke="black" stroke-width="0.5"/>
<path d="M48.9091 61.4848L47.3121 59.3768L45.7151 61.4848L48.9091 61.4848Z" fill="#762C07" stroke="black" stroke-width="0.5"/>
<path d="M48.9091 55.7688L47.3121 57.8768L45.7151 55.7688L48.9091 55.7688Z" fill="#762C07" stroke="black" stroke-width="0.5"/>
<path d="M50.6279 60.6085V56.6451L52.1184 58.6268L50.6279 60.6085Z" fill="#762C07" stroke="black" stroke-width="0.5"/>
<path d="M54.7563 60.6085V56.6451L53.2658 58.6268L54.7563 60.6085Z" fill="#762C07" stroke="black" stroke-width="0.5"/>
<path d="M54.2938 61.4848L52.6969 59.3768L51.0999 61.4848L54.2938 61.4848Z" fill="#762C07" stroke="black" stroke-width="0.5"/>
<path d="M54.2938 55.7688L52.6969 57.8768L51.0999 55.7688L54.2938 55.7688Z" fill="#762C07" stroke="black" stroke-width="0.5"/>
</svg>
