<svg width="109" height="148" viewBox="0 0 109 148" fill="none" xmlns="http://www.w3.org/2000/svg">
<g clip-path="url(#clip0_396_701)">
<path d="M96.0973 147.761H49.0766C42.2373 147.761 36.6738 142.191 36.6738 135.344V12.4168C36.6738 5.56977 42.2373 0 49.0766 0H96.0973C102.937 0 108.5 5.56977 108.5 12.4168V135.344C108.5 142.191 102.937 147.761 96.0973 147.761Z" fill="#DADBDC"/>
<path d="M96.1318 144.4H49.0429C43.981 144.4 39.8613 140.275 39.8613 135.208V12.312C39.8613 7.24436 43.981 3.12005 49.0429 3.12005H96.1318C101.194 3.12005 105.313 7.24436 105.313 12.312V135.208C105.313 140.275 101.194 144.4 96.1318 144.4Z" fill="white"/>
<path d="M79.2452 11.3004H65.9293C64.1714 11.3004 62.7422 9.86959 62.7422 8.10969C62.7422 6.34979 64.1714 4.91895 65.9293 4.91895H79.2452C81.0031 4.91895 82.4323 6.34979 82.4323 8.10969C82.4323 9.86959 81.0031 11.3004 79.2452 11.3004Z" fill="#DADBDC"/>
<path d="M92.8347 48.8288H53.8707C53.0989 48.8288 52.4707 48.0293 52.4707 47.0494C52.4707 46.0695 53.0989 45.27 53.8707 45.27H92.8347C93.6065 45.27 94.2347 46.0695 94.2347 47.0494C94.2347 48.0293 93.6065 48.8288 92.8347 48.8288Z" fill="#DADBDC"/>
<path d="M92.8347 56.7142H53.8707C53.0989 56.7142 52.4707 55.9147 52.4707 54.9348C52.4707 53.9549 53.0989 53.1554 53.8707 53.1554H92.8347C93.6065 53.1554 94.2347 53.9549 94.2347 54.9348C94.2347 55.9147 93.6065 56.7142 92.8347 56.7142Z" fill="#DADBDC"/>
<path d="M81.6614 64.5996H53.8707C53.0989 64.5996 52.4707 63.8001 52.4707 62.8202C52.4707 61.8403 53.0989 61.0408 53.8707 61.0408H81.6614C82.4332 61.0408 83.0614 61.8403 83.0614 62.8202C83.0614 63.8001 82.4332 64.5996 81.6614 64.5996Z" fill="#DADBDC"/>
<path d="M72.5871 110.962C81.7728 110.962 89.2192 103.507 89.2192 94.3108C89.2192 85.1148 81.7728 77.66 72.5871 77.66C63.4015 77.66 55.9551 85.1148 55.9551 94.3108C55.9551 103.507 63.4015 110.962 72.5871 110.962Z" fill="#2460B9"/>
<path d="M68.1626 94.6569C69.0221 96.3413 69.8816 98.028 70.7411 99.7124C70.987 100.197 71.7101 100.044 71.8538 99.5661C72.9811 95.8026 75.075 92.3729 77.8969 89.6453C78.4618 89.0993 77.5999 88.2389 77.035 88.7825C74.0646 91.6539 71.866 95.2834 70.6778 99.2419L71.7905 99.0957C70.931 97.4113 70.0715 95.7246 69.212 94.0402C68.8566 93.3406 67.8047 93.9574 68.1602 94.6545H68.1626V94.6569Z" fill="white"/>
<path d="M27.7516 74.1694L23.7196 75.5466L23.6562 69.7185L27.3255 69.677L27.7516 74.1694Z" fill="#F3A3A6"/>
<path d="M24.1277 71.3272C26.3545 71.3272 28.1597 69.52 28.1597 67.2907C28.1597 65.0613 26.3545 63.2541 24.1277 63.2541C21.9009 63.2541 20.0957 65.0613 20.0957 67.2907C20.0957 69.52 21.9009 71.3272 24.1277 71.3272Z" fill="#F3A3A6"/>
<path d="M25.2315 66.8787C24.5571 66.8665 24.1067 66.1889 23.8364 65.5673C23.5661 64.9482 23.2886 64.234 22.6628 63.9829C22.1491 63.7782 21.2628 65.209 20.8538 64.8361C20.4277 64.4461 20.8173 62.4132 21.2604 62.0451C21.7035 61.677 22.3147 61.599 22.8893 61.5649C24.2941 61.4845 25.7063 61.582 27.0869 61.855C27.939 62.0232 28.8204 62.2815 29.4413 62.8909C30.2277 63.6636 30.4396 64.841 30.5077 65.9427C30.5783 67.0689 30.5248 68.2511 29.9891 69.2456C29.451 70.2377 28.314 70.9787 27.211 70.7398C27.0942 70.1426 27.1989 69.5283 27.2354 68.919C27.2719 68.312 27.2183 67.6563 26.8434 67.1761C26.4684 66.6959 25.6747 66.5131 25.2486 66.947" fill="#2F2E43"/>
<path d="M30.2052 68.2218C30.6045 67.922 31.0841 67.6685 31.5808 67.7246C32.1189 67.7831 32.5767 68.2218 32.7203 68.7434C32.864 69.2651 32.7154 69.8428 32.3892 70.2742C32.0629 70.7057 31.5735 70.9933 31.0525 71.1395C30.7506 71.2249 30.4219 71.2614 30.1321 71.1395C29.706 70.9616 29.4723 70.4229 29.633 69.989" fill="#2F2E43"/>
<path d="M15.2021 106.357C14.9489 107.686 15.4529 108.892 16.3319 109.051C17.2084 109.209 18.1263 108.258 18.3795 106.93C18.4891 106.401 18.4648 105.853 18.3089 105.333L21.4109 84.5143L17.2328 83.7757L15.8571 104.892C15.5211 105.324 15.2947 105.826 15.2021 106.36V106.357Z" fill="#F3A3A6"/>
<path d="M23.6451 72.8726L20.7989 72.9043C18.7902 73.231 18.2545 74.3132 17.8211 76.3023C17.1564 79.337 16.3091 83.3809 16.4869 83.4369C16.7717 83.5296 21.6413 85.7575 24.1053 85.2066L23.6451 72.8726Z" fill="#6C63FF"/>
<path d="M27.1418 139.04L23.3535 139.082L23.4135 144.461L27.2018 144.419L27.1418 139.04Z" fill="#F3A3A6"/>
<path d="M19.7503 147.761C19.351 147.766 18.998 147.761 18.7302 147.739C17.7222 147.659 16.7555 146.925 16.2662 146.496C16.047 146.303 15.974 145.991 16.0835 145.723C16.1615 145.531 16.3222 145.385 16.5218 145.324L19.1733 144.534L23.4463 141.577L23.495 141.662C23.5145 141.694 23.9455 142.452 24.0916 142.967C24.1476 143.162 24.1354 143.325 24.055 143.452C23.999 143.539 23.9211 143.591 23.8578 143.622C23.9357 143.703 24.1817 143.866 24.9364 143.978C26.0345 144.141 26.2561 142.998 26.2634 142.949L26.2707 142.91L26.3024 142.888C26.821 142.545 27.1399 142.389 27.2519 142.42C27.3225 142.44 27.437 142.474 27.7827 145.575C27.8144 145.672 28.0408 146.384 27.8996 147.069C27.7462 147.815 24.5006 147.593 23.853 147.542C23.8335 147.544 21.4084 147.744 19.7455 147.761H19.7503Z" fill="#2F2E43"/>
<path d="M37.8795 134.685L34.6875 136.728L37.5818 141.261L40.7739 139.218L37.8795 134.685Z" fill="#F3A3A6"/>
<path d="M33.7392 146.867C33.2936 146.871 32.8846 146.823 32.5924 146.774C32.3051 146.725 32.0786 146.501 32.03 146.213C31.9934 146.006 32.0543 145.799 32.1906 145.643L34.0216 143.569L36.0839 138.796L36.1715 138.842C36.2032 138.859 36.9701 139.274 37.367 139.632C37.518 139.768 37.5934 139.912 37.5934 140.063C37.5934 140.168 37.5545 140.254 37.5155 140.312C37.6251 140.339 37.9197 140.346 38.6185 140.041C39.6362 139.598 39.2199 138.511 39.2004 138.467L39.1858 138.43L39.2028 138.396C39.4609 137.831 39.6508 137.528 39.7604 137.494C39.831 137.475 39.9455 137.441 41.8787 139.888C41.9566 139.954 42.5263 140.436 42.7674 141.092C43.0303 141.806 40.1621 143.337 39.5827 143.637C39.5656 143.651 36.5684 145.882 35.3364 146.52C34.847 146.774 34.2651 146.857 33.7343 146.862L33.7392 146.867Z" fill="#2F2E43"/>
<path d="M29.423 94.011L18.817 94.128L17.9648 104.015L22.5812 140.466L27.9962 140.405L25.5979 119.349L34.592 138.284L39.3667 134.857L32.3106 117.165C32.3106 117.165 34.5896 101.66 32.6223 97.8257C30.655 93.9915 29.4254 94.0061 29.4254 94.0061V94.011H29.423Z" fill="#2F2E43"/>
<path d="M34.7052 94.5545L17.8613 94.7422L22.6725 72.8848L30.0134 72.802L34.7052 94.5545Z" fill="#2460B9"/>
<path d="M36.3514 106.123C36.6339 107.447 36.1567 108.663 35.2826 108.841C34.4085 109.019 33.4711 108.09 33.1886 106.767C33.0669 106.24 33.0791 105.692 33.2227 105.168L29.6582 84.4217L33.8193 83.5905L35.6624 104.673C36.0081 105.097 36.2443 105.594 36.3514 106.126V106.123Z" fill="#F3A3A6"/>
<path d="M27.1675 72.8336L30.0137 72.802C32.0297 73.0847 32.5873 74.1548 33.067 76.1341C33.7974 79.1542 34.7348 83.1761 34.5595 83.2371C34.2746 83.3346 29.4586 85.6697 26.9824 85.1749L27.1699 72.8336H27.1675Z" fill="#6C63FF"/>
<path d="M52.8675 147.761C52.8675 147.893 52.7603 148 52.6289 148H0.738609C0.607131 148 0.5 147.893 0.5 147.761C0.5 147.63 0.607131 147.522 0.738609 147.522H52.6289C52.7603 147.522 52.8675 147.63 52.8675 147.761Z" fill="#3F3D58"/>
</g>
<defs>
<clipPath id="clip0_396_701">
<rect width="108" height="148" fill="white" transform="translate(0.5)"/>
</clipPath>
</defs>
</svg>
