<svg width="12" height="14" viewBox="0 0 12 14" fill="none" xmlns="http://www.w3.org/2000/svg">
<path d="M1.33333 13.6667C0.966667 13.6667 0.652667 13.5362 0.391333 13.2753C0.130444 13.014 0 12.7 0 12.3333V3C0 2.63333 0.130444 2.31955 0.391333 2.05867C0.652667 1.79733 0.966667 1.66667 1.33333 1.66667H2V0.333332H3.33333V1.66667H8.66667V0.333332H10V1.66667H10.6667C11.0333 1.66667 11.3473 1.79733 11.6087 2.05867C11.8696 2.31955 12 2.63333 12 3V12.3333C12 12.7 11.8696 13.014 11.6087 13.2753C11.3473 13.5362 11.0333 13.6667 10.6667 13.6667H1.33333ZM1.33333 12.3333H10.6667V5.66667H1.33333V12.3333ZM1.33333 4.33333H10.6667V3H1.33333V4.33333ZM6 8.33333C5.81111 8.33333 5.65289 8.26933 5.52533 8.14133C5.39733 8.01378 5.33333 7.85555 5.33333 7.66667C5.33333 7.47778 5.39733 7.31933 5.52533 7.19133C5.65289 7.06378 5.81111 7 6 7C6.18889 7 6.34733 7.06378 6.47533 7.19133C6.60289 7.31933 6.66667 7.47778 6.66667 7.66667C6.66667 7.85555 6.60289 8.01378 6.47533 8.14133C6.34733 8.26933 6.18889 8.33333 6 8.33333ZM3.33333 8.33333C3.14444 8.33333 2.986 8.26933 2.858 8.14133C2.73044 8.01378 2.66667 7.85555 2.66667 7.66667C2.66667 7.47778 2.73044 7.31933 2.858 7.19133C2.986 7.06378 3.14444 7 3.33333 7C3.52222 7 3.68067 7.06378 3.80867 7.19133C3.93622 7.31933 4 7.47778 4 7.66667C4 7.85555 3.93622 8.01378 3.80867 8.14133C3.68067 8.26933 3.52222 8.33333 3.33333 8.33333ZM8.66667 8.33333C8.47778 8.33333 8.31956 8.26933 8.192 8.14133C8.064 8.01378 8 7.85555 8 7.66667C8 7.47778 8.064 7.31933 8.192 7.19133C8.31956 7.06378 8.47778 7 8.66667 7C8.85556 7 9.01378 7.06378 9.14133 7.19133C9.26933 7.31933 9.33333 7.47778 9.33333 7.66667C9.33333 7.85555 9.26933 8.01378 9.14133 8.14133C9.01378 8.26933 8.85556 8.33333 8.66667 8.33333ZM6 11C5.81111 11 5.65289 10.936 5.52533 10.808C5.39733 10.6804 5.33333 10.5222 5.33333 10.3333C5.33333 10.1444 5.39733 9.98622 5.52533 9.85866C5.65289 9.73067 5.81111 9.66667 6 9.66667C6.18889 9.66667 6.34733 9.73067 6.47533 9.85866C6.60289 9.98622 6.66667 10.1444 6.66667 10.3333C6.66667 10.5222 6.60289 10.6804 6.47533 10.808C6.34733 10.936 6.18889 11 6 11ZM3.33333 11C3.14444 11 2.986 10.936 2.858 10.808C2.73044 10.6804 2.66667 10.5222 2.66667 10.3333C2.66667 10.1444 2.73044 9.98622 2.858 9.85866C2.986 9.73067 3.14444 9.66667 3.33333 9.66667C3.52222 9.66667 3.68067 9.73067 3.80867 9.85866C3.93622 9.98622 4 10.1444 4 10.3333C4 10.5222 3.93622 10.6804 3.80867 10.808C3.68067 10.936 3.52222 11 3.33333 11ZM8.66667 11C8.47778 11 8.31956 10.936 8.192 10.808C8.064 10.6804 8 10.5222 8 10.3333C8 10.1444 8.064 9.98622 8.192 9.85866C8.31956 9.73067 8.47778 9.66667 8.66667 9.66667C8.85556 9.66667 9.01378 9.73067 9.14133 9.85866C9.26933 9.98622 9.33333 10.1444 9.33333 10.3333C9.33333 10.5222 9.26933 10.6804 9.14133 10.808C9.01378 10.936 8.85556 11 8.66667 11Z" fill="#1C1B1F"/>
</svg>
