<svg width="100" height="100" viewBox="0 0 100 100" fill="none" xmlns="http://www.w3.org/2000/svg">
<path d="M67.1652 52.6889L67.1366 52.6744L67.1064 52.6636C67.0985 52.6609 67.0904 52.6575 67.0822 52.6536L57.8949 48.288C57.7685 48.2279 57.7147 48.0767 57.7748 47.9503L62.4638 38.0824C62.4704 38.0684 62.4779 38.0557 62.4862 38.044L62.5047 38.0179L62.5197 37.9895C65.2127 32.9131 71.453 30.8116 76.6947 33.3023C82.083 35.8628 84.3755 42.3066 81.8151 47.6949C79.2546 53.0833 72.8108 55.3757 67.4225 52.8153C67.336 52.7742 67.2502 52.7321 67.1652 52.6889Z" fill="#E9F4BC" stroke="black"/>
<path d="M68.7983 39.1922L77.1161 43.1446" stroke="black" stroke-linecap="round" stroke-linejoin="round"/>
<path d="M67.0015 42.973L75.3192 46.9254" stroke="black" stroke-linecap="round" stroke-linejoin="round"/>
<path d="M42.4494 65.0867L50.2608 47.63C62.2994 52.1724 71.2302 66.4076 71.4947 83.5H12.5053C12.7698 66.4078 21.7003 52.1727 33.7254 47.6301L41.5367 65.0867L41.9931 66.1066L42.4494 65.0867Z" fill="#9BEED2" stroke="black"/>
<path d="M33.9823 44.6971C31.4379 41.7064 29.517 37.5909 29.5001 33.0607C29.5146 28.457 30.937 24.3099 33.2061 21.3198C35.4866 18.3146 38.6005 16.5 42 16.5C45.3991 16.5 48.513 18.3146 50.7936 21.3198C53.0628 24.31 54.4854 28.4571 54.4999 33.0608C54.4831 37.5922 52.5776 41.7078 50.0419 44.6977C47.476 47.7233 44.3525 49.5 42 49.5C39.681 49.5 36.5575 47.7241 33.9823 44.6971Z" fill="#F4E1C9" stroke="black"/>
<path d="M55.9645 27.9378L55.9869 28.163H56.2133H56.2781C58.5831 28.163 60.7039 29.5833 61.4343 31.762C62.717 35.5883 59.9051 39.1413 56.2857 39.1413H55.5357H55.3589L55.3 39.308C53.5632 44.2197 48.9034 47.75 43.4286 47.75H42C40.3868 47.75 39.1132 46.2774 39.4463 44.5911C39.6433 43.5937 40.4678 42.7646 41.4591 42.5654C43.1014 42.2354 44.5339 43.4522 44.596 45.0274L44.6069 45.3044L44.8813 45.265C49.8459 44.5525 53.6786 40.2659 53.6786 35.087V29.3478C53.6786 22.6161 48.0012 17.1889 41.2004 17.6465C34.9895 18.0644 30.3214 23.5268 30.3214 29.7532L30.3214 33.6522V37.9565C30.3214 38.6119 29.7927 39.1413 29.1429 39.1413H27.7143C24.0957 39.1413 21.2828 35.5884 22.5657 31.7623C23.2964 29.5833 25.4176 28.163 27.7229 28.163H27.7867H28.0131L28.0354 27.9378C28.7421 20.8229 34.7356 15.25 42 15.25C49.2637 15.25 55.2576 20.8229 55.9645 27.9378Z" fill="#D76361" stroke="black" stroke-width="0.5"/>
<path d="M42 48.5C43.6569 48.5 45 47.5036 45 45.5455C45 43.5874 43.6569 42 42 42C40.3431 42 39 43.5874 39 45.5455C39 47.5036 40.3431 48.5 42 48.5Z" fill="black"/>
<path d="M42 69C42.5523 69 43 68.5523 43 68C43 67.4477 42.5523 67 42 67C41.4477 67 41 67.4477 41 68C41 68.5523 41.4477 69 42 69Z" fill="black"/>
<path d="M42 44C42.2761 44 42.5 43.7761 42.5 43.5C42.5 43.2239 42.2761 43 42 43C41.7239 43 41.5 43.2239 41.5 43.5C41.5 43.7761 41.7239 44 42 44Z" fill="white"/>
<path d="M41.5 44C41.7761 44 42 43.7761 42 43.5C42 43.2239 41.7761 43 41.5 43C41.2239 43 41 43.2239 41 43.5C41 43.7761 41.2239 44 41.5 44Z" fill="white"/>
</svg>
