<svg width="12" height="12" viewBox="0 0 12 12" fill="none" xmlns="http://www.w3.org/2000/svg">
<path d="M11.4213 1.99334C11.5169 1.90113 11.5931 1.79083 11.6456 1.66885C11.698 1.54687 11.7257 1.41566 11.7269 1.28288C11.7281 1.1501 11.7029 1.01841 11.6527 0.895494C11.6024 0.772574 11.5282 0.660888 11.4344 0.566951C11.3405 0.473014 11.2289 0.398709 11.1061 0.34837C10.9832 0.298031 10.8515 0.272668 10.7187 0.273758C10.586 0.274849 10.4547 0.302373 10.3327 0.354723C10.2107 0.407074 10.1003 0.483203 10.008 0.578669L6 4.58534L1.99333 0.578669C1.90178 0.48042 1.79138 0.401617 1.66871 0.346961C1.54605 0.292305 1.41363 0.262916 1.27936 0.260547C1.14509 0.258178 1.01172 0.282878 0.8872 0.333172C0.762682 0.383467 0.649571 0.458326 0.554612 0.553285C0.459654 0.648243 0.384795 0.761354 0.3345 0.885872C0.284205 1.01039 0.259505 1.14376 0.261874 1.27803C0.264243 1.4123 0.293633 1.54472 0.348289 1.66739C0.402945 1.79005 0.481748 1.90045 0.579997 1.992L4.584 6L0.57733 10.0067C0.40069 10.1962 0.304526 10.447 0.309097 10.706C0.313667 10.9651 0.418617 11.2123 0.601834 11.3955C0.785052 11.5787 1.03223 11.6837 1.2913 11.6882C1.55037 11.6928 1.8011 11.5966 1.99066 11.42L6 7.41334L10.0067 11.4213C10.1962 11.598 10.447 11.6941 10.706 11.6896C10.9651 11.685 11.2123 11.5801 11.3955 11.3968C11.5787 11.2136 11.6837 10.9664 11.6882 10.7074C11.6928 10.4483 11.5966 10.1976 11.42 10.008L7.416 6L11.4213 1.99334Z" fill="black"/>
</svg>
