<svg width="26" height="25" viewBox="0 0 26 25" fill="none" xmlns="http://www.w3.org/2000/svg">
<path d="M11.3091 21.7658H6.80959C6.19264 21.7658 5.6925 22.266 5.6925 22.8829C5.6925 23.4999 6.19264 24 6.80959 24H11.3091C11.9261 24 12.4262 23.4999 12.4262 22.8829C12.4262 22.266 11.9261 21.7658 11.3091 21.7658Z" fill="#7E869E" fill-opacity="0.25" stroke="#7E869E" stroke-opacity="0.25" stroke-width="0.1" stroke-miterlimit="10" stroke-linecap="round"/>
<path d="M8.02056 21.7654C6.56392 21.7654 5.20144 21.0454 4.38076 19.8419L3.88607 19.1165L2.03813 16.3842C1.45994 15.3517 1.13459 14.1931 1.08953 13.0061L1.00688 9.13812C0.976278 8.84439 1.04839 8.54908 1.21057 8.30396C1.37275 8.05884 1.61466 7.87956 1.89389 7.79752C2.50115 7.6452 2.81786 8.04895 2.97904 8.66396L3.80035 13.1318C3.85279 13.4167 3.98319 13.6808 4.17661 13.8939L8.42739 18.5886L4.48871 14.1787C4.10218 13.7614 3.55088 13.366 4.11193 12.8584C4.52875 12.4813 5.47428 13.1192 6.09077 13.6409C6.51939 14.006 7.22674 14.5908 7.67281 14.9314C8.90477 15.8704 9.7194 16.4895 10.8081 17.3633C11.7547 18.1223 12.4133 20.1937 12.4261 21.2823V21.2823C12.4261 21.5491 12.2099 21.7654 11.9431 21.7654H8.02056Z" fill="#7E869E" fill-opacity="0.25" stroke="#7E869E" stroke-opacity="0.25" stroke-width="0.1" stroke-miterlimit="10" stroke-linecap="round"/>
<path d="M14.3602 23.9995H18.8597C19.4767 23.9995 19.9768 23.4994 19.9768 22.8824C19.9768 22.2655 19.4767 21.7653 18.8597 21.7653H14.3602C13.7433 21.7653 13.2431 22.2655 13.2431 22.8824C13.2431 23.4994 13.7433 23.9995 14.3602 23.9995Z" fill="#7E869E" fill-opacity="0.25" stroke="#7E869E" stroke-opacity="0.25" stroke-width="0.1" stroke-miterlimit="10" stroke-linecap="round"/>
<path d="M17.9786 21.7653C19.4344 21.7653 20.7962 21.0457 21.6164 19.843L22.1123 19.1159L23.9602 16.3836C24.5379 15.3509 24.8632 14.1924 24.9088 13.0055L24.993 9.13755C25.0235 8.84384 24.9514 8.54858 24.7892 8.30348C24.627 8.05839 24.3852 7.87908 24.106 7.79695C23.4988 7.64463 23.182 8.04838 23.0203 8.66339L22.199 13.1312C22.1466 13.416 22.0164 13.6801 21.8233 13.8933L17.572 18.588L21.5127 14.1797C21.8998 13.7624 22.4506 13.367 21.89 12.8594C21.4732 12.4823 20.5277 13.1202 19.9107 13.6419C19.4821 14.007 18.7747 14.5918 18.3286 14.9324C17.0967 15.8713 16.282 16.4905 15.1933 17.3643C14.2472 18.1232 13.5887 20.1947 13.5753 21.2833V21.2833C13.5753 21.5495 13.7911 21.7653 14.0573 21.7653H17.9786Z" fill="#7E869E" fill-opacity="0.25" stroke="#7E869E" stroke-opacity="0.25" stroke-width="0.1" stroke-miterlimit="10" stroke-linecap="round"/>
<path d="M7.16495 9.7564L12.1445 14.188C12.2022 14.2393 12.2311 14.265 12.259 14.2838C12.4278 14.3976 12.6488 14.3976 12.8177 14.2838C12.8456 14.265 12.8745 14.2393 12.9321 14.188L12.9321 14.188L17.9117 9.7564C19.401 8.43105 19.5795 6.16685 18.3163 4.62449L18.1976 4.47953C16.7388 2.69819 13.9295 3.00778 12.8936 5.06407C12.7466 5.35582 12.3301 5.35582 12.1831 5.06407C11.1472 3.00778 8.3379 2.69819 6.87904 4.47953L6.76033 4.62449C5.49719 6.16685 5.67571 8.43105 7.16495 9.7564Z" stroke="#222222"/>
</svg>
