<svg width="100" height="100" viewBox="0 0 100 100" fill="none" xmlns="http://www.w3.org/2000/svg">
<path d="M32.7911 62.8964L39.3593 48.0739C49.4362 51.9564 56.9269 64.0069 57.174 78.5H7.50565C7.75274 64.0071 15.243 51.9567 25.3086 48.074L31.8768 62.8964L32.3339 63.928L32.7911 62.8964Z" fill="#FF9D9C" stroke="black"/>
<path d="M25.6285 45.4312C23.4885 42.8911 21.8737 39.3966 21.8595 35.5517C21.8718 31.6385 23.0692 28.1166 24.9754 25.58C26.8913 23.0305 29.5002 21.5 32.34 21.5C35.1794 21.5 37.7883 23.0305 39.7043 25.5801C41.6106 28.1166 42.8082 31.6386 42.8204 35.5519C42.8063 39.3979 41.2045 42.8925 39.0718 45.4318C36.9104 48.0053 34.2921 49.5 32.34 49.5C30.4163 49.5 27.7979 48.0062 25.6285 45.4312Z" fill="#F4E1C9" stroke="black"/>
<path d="M46.5108 45.2328L46.4783 45.232L46.4461 45.2353L46.4457 45.2353H39.604C39.6035 45.2353 39.6032 45.2353 39.6031 45.2353C39.6029 45.2352 39.602 45.2347 39.6009 45.2336C39.5997 45.2324 39.5988 45.2309 39.5982 45.2296C39.5977 45.2285 39.5972 45.2268 39.5972 45.2235V37.8029C39.5972 37.8014 39.5973 37.8003 39.5974 37.7995L39.6028 37.7682L39.6042 37.7365C39.7712 33.9183 42.888 30.8824 46.6991 30.8824C50.6168 30.8824 53.8011 34.0908 53.8011 38.0588C53.8011 42.0269 50.6168 45.2353 46.6991 45.2353C46.6362 45.2353 46.5734 45.2345 46.5108 45.2328Z" fill="#E9F4BC" stroke="black"/>
<path d="M43.6021 36.6373H49.7962" stroke="black" stroke-linecap="round" stroke-linejoin="round"/>
<path d="M43.6021 39.4804H49.7962" stroke="black" stroke-linecap="round" stroke-linejoin="round"/>
<path d="M72.1553 52.4496L68.6603 61.5247L65.1654 52.4496H72.1553Z" fill="#D76361" stroke="black"/>
<path d="M69.1114 62.8964L75.6796 48.0739C85.7565 51.9564 93.2472 64.0069 93.4943 78.5H43.826C44.0731 64.0071 51.5634 51.9567 61.629 48.074L68.1971 62.8964L68.6543 63.928L69.1114 62.8964Z" fill="#B5EAF5" stroke="black"/>
<path d="M61.9488 45.4312C59.8088 42.8911 58.1941 39.3966 58.1798 35.5517C58.1921 31.6385 59.3895 28.1166 61.2957 25.58C63.2116 23.0305 65.8205 21.5 68.6603 21.5C71.4997 21.5 74.1086 23.0305 76.0246 25.5801C77.9309 28.1166 79.1285 31.6386 79.1408 35.5519C79.1266 39.3979 77.5248 42.8925 75.3921 45.4318C73.2307 48.0053 70.6124 49.5 68.6603 49.5C66.7366 49.5 64.1182 48.0062 61.9488 45.4312Z" fill="#F4E1C9" stroke="black"/>
</svg>
