<svg width="100" height="100" viewBox="0 0 100 100" fill="none" xmlns="http://www.w3.org/2000/svg">
<path d="M87.7719 27.6943L93.2803 31.9313L93.2802 80.8496H88.0906L87.7719 27.6943Z" fill="#B7C57F"/>
<path d="M13.8575 75.058L20.0643 80.7665L91.5676 80.5834L91.5548 75.1903L13.8575 75.058Z" fill="#B7C57F"/>
<path d="M13.8217 74.9481L14.1953 72.6719L51.1803 71.8541L60.6233 68.583L68.8859 62.0408L78.7223 63.2675L86.4305 53.6549L86.4305 74.9481L13.8217 74.9481Z" fill="#C9D790"/>
<path d="M18.5571 36.5127L18.5571 28.5121L87.7904 28.7136L87.7904 36.3703L18.5571 36.5127Z" fill="#9C4040"/>
<path d="M18.1295 38.7343L88.1646 37.4857L86.9879 45.2765L85.4104 52.6364L81.4758 61.632L75.1805 63.6764L68.4918 62.0408L64.1637 66.5386L58.2619 70.2186L49.6058 71.8541L7.8996 71.8541L11.8342 64.0853L14.5884 55.9075L16.5557 48.1387L18.1295 38.7343Z" fill="#E9F4BC"/>
<path d="M93.435 29.3005L89.34 26.8322C89.0461 26.6559 88.7126 26.6416 88.4145 26.7447C88.3046 26.7078 88.1933 26.673 88.0719 26.673H83.0884C83.0444 22.29 81.1177 19 78.5643 19C76.0108 19 74.0841 22.29 74.0401 26.673H66.0778C66.0339 22.29 64.1072 19 61.5537 19C59 19 57.0735 22.29 57.0296 26.673H49.0672C49.0233 22.29 47.098 19 44.5431 19C41.9894 19 40.0643 22.29 40.0204 26.673H32.0566C32.0127 22.29 30.0874 19 27.5325 19C24.9788 19 23.0537 22.29 23.0098 26.673H18.0243C17.3985 26.673 16.8906 27.1994 16.8906 27.8476V37.3904C16.8379 37.9949 15.0573 57.5076 6.18563 71.5536C5.95725 71.915 5.93787 72.3768 6.13708 72.7554C6.33508 73.134 6.7171 73.372 7.13389 73.372H7.13529L12.0996 73.3648V75.9881C12.0996 76.067 12.1288 76.1361 12.1429 76.2108C12.1519 76.2582 12.1549 76.3007 12.1695 76.3466C12.233 76.5484 12.3407 76.7231 12.4908 76.8606C12.501 76.8699 12.5016 76.8856 12.5122 76.8948L18.0011 81.5874C18.2033 81.7594 18.4593 81.8571 18.7224 81.8571H92.8649C93.4907 81.8571 94 81.3293 94 80.6812V30.3162C93.9996 29.8971 93.7838 29.5114 93.435 29.3005ZM78.5643 21.3492C79.472 21.3492 80.7787 23.4215 80.819 26.673H76.3095C76.3499 23.4215 77.6566 21.3492 78.5643 21.3492ZM61.5535 21.3492C62.4612 21.3492 63.7679 23.4215 63.8083 26.673H59.2987C59.3391 23.4215 60.6458 21.3492 61.5535 21.3492ZM44.5427 21.3492C45.4516 21.3492 46.7597 23.4215 46.8001 26.673H42.2865C42.3269 23.4215 43.6338 21.3492 44.5427 21.3492ZM27.5319 21.3492C28.4408 21.3492 29.7489 23.4215 29.7893 26.673H25.2758C25.3161 23.4215 26.623 21.3492 27.5319 21.3492ZM19.158 29.0223H23.1904C23.7179 32.332 25.3988 34.6415 27.5319 34.6415C28.1577 34.6415 28.6656 34.1151 28.6656 33.467C28.6656 32.8186 28.1575 32.2924 27.5319 32.2924C26.8326 32.2924 25.8969 31.0664 25.4825 29.0225H40.2012C40.7287 32.3322 42.4096 34.6417 44.5427 34.6417C45.1685 34.6417 45.6764 34.1153 45.6764 33.4672C45.6764 32.8188 45.1683 32.2927 44.5427 32.2927C43.8434 32.2927 42.9077 31.0666 42.4933 29.0227H57.2108C57.7387 32.3324 59.4204 34.6419 61.5535 34.6419C62.1793 34.6419 62.6886 34.1155 62.6886 33.4674C62.6886 32.8191 62.1791 32.2929 61.5535 32.2929C60.8552 32.2929 59.9197 31.0668 59.5055 29.0229H74.2216C74.7494 32.3326 76.4312 34.6421 78.5643 34.6421C79.19 34.6421 79.6993 34.1157 79.6993 33.4676C79.6993 32.8193 79.1898 32.2931 78.5643 32.2931C77.866 32.2931 76.9305 31.067 76.5163 29.0231H86.9368V36.273H19.158V29.0223ZM19.0481 38.6214H86.7528L85.8127 45.0438C85.0652 52.5274 81.3855 58.9815 81.3523 59.0388C78.0797 64.6036 68.7188 60.8974 68.6219 60.8602C68.1568 60.6681 67.6141 60.8229 67.304 61.2446C60.2771 70.8595 49.7823 70.957 49.6495 70.957L9.18107 71.0172C16.4661 58.3671 18.588 42.8399 19.0481 38.6214ZM49.6455 73.3091C50.0289 73.335 60.8835 73.2576 68.6027 63.3415C71.2523 64.2363 79.647 66.4508 83.2934 60.2522C83.3961 60.0771 84.9422 57.3644 86.2732 53.3958L86.3114 74.8121H14.3667V73.3615L49.6455 73.3091ZM91.7294 79.5048H19.129L16.3893 77.1643H87.4463C87.748 77.1643 88.0361 77.038 88.2493 76.8171C88.4625 76.5963 88.5816 76.298 88.5816 75.9852L88.5236 42.1885L89.1936 37.6233C89.198 37.5941 89.1876 37.5672 89.1896 37.5382C89.192 37.5065 89.2073 37.4794 89.2073 37.4469V29.4708L91.7296 30.9917L91.7294 79.5048Z" fill="black"/>
<path d="M22.9447 49.6676C24.9391 49.6676 26.5559 48.0508 26.5559 46.0564C26.5559 44.0619 24.9391 42.4451 22.9447 42.4451C20.9503 42.4451 19.3335 44.0619 19.3335 46.0564C19.3335 48.0508 20.9503 49.6676 22.9447 49.6676Z" fill="#9C4040"/>
<path d="M34.0565 49.6676C36.0509 49.6676 37.6677 48.0508 37.6677 46.0564C37.6677 44.0619 36.0509 42.4451 34.0565 42.4451C32.0621 42.4451 30.4453 44.0619 30.4453 46.0564C30.4453 48.0508 32.0621 49.6676 34.0565 49.6676Z" fill="#9C4040"/>
<path d="M45.1679 49.6676C47.1623 49.6676 48.7791 48.0508 48.7791 46.0564C48.7791 44.0619 47.1623 42.4451 45.1679 42.4451C43.1734 42.4451 41.5566 44.0619 41.5566 46.0564C41.5566 48.0508 43.1734 49.6676 45.1679 49.6676Z" fill="#9C4040"/>
<path d="M44.0565 61.8902C46.0509 61.8902 47.6677 60.2734 47.6677 58.2789C47.6677 56.2845 46.0509 54.6677 44.0565 54.6677C42.0621 54.6677 40.4453 56.2845 40.4453 58.2789C40.4453 60.2734 42.0621 61.8902 44.0565 61.8902Z" fill="#9C4040"/>
<path d="M21.8339 61.8902C23.8283 61.8902 25.4451 60.2734 25.4451 58.2789C25.4451 56.2845 23.8283 54.6677 21.8339 54.6677C19.8395 54.6677 18.2227 56.2845 18.2227 58.2789C18.2227 60.2734 19.8395 61.8902 21.8339 61.8902Z" fill="#9C4040"/>
<path d="M32.9452 61.8902C34.9396 61.8902 36.5564 60.2734 36.5564 58.2789C36.5564 56.2845 34.9396 54.6677 32.9452 54.6677C30.9508 54.6677 29.334 56.2845 29.334 58.2789C29.334 60.2734 30.9508 61.8902 32.9452 61.8902Z" fill="#9C4040"/>
<path d="M60.5956 61.6318C60.5375 61.661 60.4734 61.6751 60.4104 61.6751C60.2889 61.6751 60.1706 61.6236 60.1034 61.5305C60.0008 61.3888 60.0551 61.2043 60.2245 61.1189C61.5269 60.4607 62.6997 59.7679 63.7527 59.0409C62.5574 57.7848 62.8214 55.9529 64.5117 54.2213C64.6199 54.1106 64.8054 54.0799 64.956 54.1454C65.0823 54.2009 65.202 54.2624 65.3157 54.3288C65.2674 53.5497 65.4986 52.6733 66.0326 51.7609C66.1075 51.633 66.2798 51.5668 66.4443 51.6026C66.5833 51.6326 66.7174 51.6699 66.8471 51.7132C66.5871 50.9641 66.5725 50.0665 66.8427 49.0761C66.8799 48.9397 67.0252 48.8431 67.1922 48.8431C67.1946 48.8431 67.1971 48.8431 67.1999 48.8431C67.3493 48.8457 67.4955 48.858 67.6391 48.8767C67.174 48.1893 66.9067 47.3058 66.8914 46.2741C66.8893 46.1318 67.0073 46.0077 67.1736 45.9776C67.9136 45.8423 68.6447 45.9338 69.2834 46.2194C68.8063 44.9248 68.8554 43.514 69.4543 42.0898C69.4896 42.0058 69.568 41.939 69.6682 41.9083C69.768 41.8772 69.8796 41.8851 69.9717 41.9296C71.1782 42.5128 72.0364 43.6651 72.2674 45.0121C72.3234 45.3377 72.3393 45.6602 72.3178 45.9733C72.9267 45.5331 73.6484 45.3197 74.4585 45.3654C74.6244 45.3751 74.761 45.4793 74.7876 45.6166C75.0913 47.1871 74.7148 48.6158 73.7762 49.5537C74 49.5682 74.2258 49.6 74.4536 49.659C74.6132 49.6999 74.7175 49.8279 74.7053 49.9672C74.5677 51.5281 73.8123 52.8274 72.6484 53.5527C72.8628 53.6095 73.0742 53.6835 73.2803 53.7845C73.4246 53.855 73.4914 53.9996 73.4414 54.1328C72.8922 55.6 71.7784 56.7388 70.4553 57.2262C70.6506 57.3239 70.8384 57.4386 71.0144 57.5789C71.1352 57.6749 71.1607 57.8283 71.076 57.9483C69.991 59.4835 68.2908 60.4487 66.6383 60.4666C66.6229 60.4669 66.6078 60.4669 66.5924 60.4669C65.6035 60.4669 64.7561 60.1114 64.2318 59.4894C63.1462 60.2395 61.9373 60.9538 60.5956 61.6318ZM66.6392 56.559C66.6386 56.5887 66.6408 56.6185 66.6391 56.6481C66.6571 56.63 66.6746 56.6117 66.6925 56.5935C66.6745 56.5822 66.6568 56.5706 66.6392 56.559ZM68.9278 53.7009C68.8646 53.6799 68.8054 53.6546 68.7446 53.6309C68.7681 53.7212 68.7882 53.8117 68.8015 53.9032C68.8423 53.8354 68.8885 53.7692 68.9278 53.7009ZM70.8832 50.7234C70.9515 50.6575 71.0196 50.5912 71.0895 50.5307C71.0381 50.5255 70.9869 50.5209 70.9356 50.5133C70.9191 50.5836 70.9009 50.6534 70.8832 50.7234ZM70.2255 50.4179C70.1443 50.4083 70.0664 50.3926 69.9876 50.3786C70.0502 50.4895 70.1039 50.6035 70.1497 50.7209C70.1763 50.6203 70.2014 50.5193 70.2255 50.4179ZM69.5964 53.931C69.5476 54.0165 69.4913 54.0995 69.4403 54.1844C69.5522 54.1145 69.6642 54.048 69.7763 53.9878C69.7161 53.9695 69.6555 53.9529 69.5964 53.931ZM67.2821 56.9437C67.1511 57.0774 67.0249 57.2128 66.8873 57.3446C67.1081 57.2526 67.3264 57.1705 67.5397 57.1061C67.4504 57.0571 67.3651 57.002 67.2821 56.9437ZM64.8772 54.8038C63.8642 55.9381 63.2226 57.5001 64.2959 58.6504C64.7609 58.3097 65.204 57.9627 65.6165 57.6066C65.8529 57.1973 65.9621 56.7667 65.9244 56.3364C65.868 55.7003 65.4909 55.1537 64.8772 54.8038ZM67.143 56.1269C67.4201 55.8217 67.6758 55.5098 67.9191 55.194C68.1546 54.6355 68.1833 54.0706 67.9869 53.55C67.7572 52.9416 67.2405 52.4817 66.5472 52.2586C65.868 53.5628 65.6898 55.2237 67.143 56.1269ZM69.2172 53.1513C69.3039 52.9819 69.3885 52.8116 69.4668 52.6393C69.7371 51.8409 69.6634 51.0559 69.2274 50.4424C68.8377 49.8946 68.2113 49.5462 67.48 49.4619C67.1691 50.8903 67.4643 52.5825 69.2172 53.1513ZM67.8497 46.5154C67.773 46.5154 67.696 46.5186 67.6182 46.5247C67.7145 48.0589 68.4771 49.6271 70.3514 49.828C70.3769 49.6911 70.3998 49.5532 70.4209 49.4147C70.5114 48.5149 70.2149 47.695 69.5743 47.1419C69.101 46.7329 68.4918 46.5154 67.8497 46.5154ZM71.5577 45.0973C71.383 44.0796 70.8075 43.1961 69.9878 42.6607C69.3636 44.4547 69.6934 46.2053 70.93 47.6609C70.9942 47.5853 71.0528 47.5053 71.1083 47.423C71.1699 47.3065 71.2342 47.1943 71.3017 47.0871C71.5848 46.5069 71.6809 45.8138 71.5577 45.0973ZM74.1216 45.9609C73.0824 46.0032 72.3893 46.6206 71.9243 47.3845C71.8726 47.4845 71.8206 47.5845 71.7592 47.6786C71.3491 48.4762 71.155 49.3683 71.0693 49.9277C71.6939 50.019 72.3242 49.8636 72.8668 49.4742C73.6539 48.9095 74.3744 47.6996 74.1216 45.9609ZM73.962 50.1736C71.7745 49.8305 70.4104 52.2876 69.9154 53.3954C70.4994 53.6047 71.1534 53.5731 71.7885 53.2985C72.7016 52.9036 73.7278 51.8804 73.962 50.1736ZM72.6617 54.192C70.6219 53.4414 68.6301 55.5717 67.8458 56.5551C68.3531 56.8683 68.9963 56.9614 69.6874 56.8162C70.6877 56.6057 71.9691 55.8059 72.6617 54.192ZM66.5914 59.8673C66.6036 59.8673 66.6162 59.8673 66.6288 59.8673C67.6795 59.8556 69.171 59.3169 70.3008 57.8567C68.6544 56.8169 66.3742 58.176 65.1219 59.1147C65.1204 59.1157 65.119 59.1169 65.1175 59.118C65.0503 59.1684 64.984 59.2185 64.9231 59.266C65.3169 59.6562 65.8985 59.8673 66.5914 59.8673Z" fill="black"/>
<path d="M58.9763 54.4111L58.9763 54.4111L58.9784 54.4099C59.9118 53.9099 60.4939 53.3634 61.0248 52.865C61.1388 52.758 61.2504 52.6532 61.3626 52.5516C61.9815 51.9911 62.6293 51.5144 63.8251 51.251C64.0805 51.8361 63.9627 52.5704 63.5441 53.2936C63.1099 54.0437 62.3598 54.7655 61.4121 55.261C60.4188 55.7777 59.3689 55.9946 58.4678 55.9318C57.6503 55.8748 56.966 55.5893 56.5487 55.1012C57.6433 55.0845 58.6733 54.5641 58.9644 54.417C58.9685 54.415 58.9725 54.413 58.9763 54.4111Z" fill="#FFC946" stroke="#DDB34E" stroke-width="0.2"/>
<path d="M56.5051 52.5578C56.9245 51.8112 57.6683 51.0949 58.6503 50.5776C59.5694 50.0985 60.6334 49.8788 61.5701 49.9461C62.4132 50.0067 63.1385 50.2977 63.5718 50.8239C62.2383 50.6695 61.1742 51.4352 60.0962 52.3083C59.9872 52.3967 59.8779 52.4862 59.768 52.5761C58.7366 53.4208 57.6568 54.3051 56.2633 54.6338C56.002 54.0142 56.1012 53.2765 56.5051 52.5578Z" fill="#FFC946" stroke="#DDB34E" stroke-width="0.2"/>
</svg>
