<svg width="100" height="100" viewBox="0 0 100 100" fill="none" xmlns="http://www.w3.org/2000/svg">
<path d="M44.212 78.4866H44.1868C44.1482 78.4835 44.1106 78.4727 44.0761 78.4549C44.0416 78.4371 44.0111 78.4127 43.9861 78.383C43.9611 78.3534 43.9422 78.3191 43.9306 78.2821C43.9189 78.2451 43.9147 78.2062 43.9182 78.1676C45.2321 64.1804 54.4673 43.099 70.885 40.0262C70.923 40.019 70.9621 40.0194 71 40.0273C71.0379 40.0353 71.0738 40.0506 71.1058 40.0724C71.1378 40.0942 71.1651 40.1222 71.1863 40.1545C71.2075 40.1869 71.2221 40.2232 71.2292 40.2612C71.2364 40.2993 71.236 40.3384 71.2281 40.3762C71.2201 40.4141 71.2048 40.4501 71.183 40.482C71.1611 40.514 71.1332 40.5413 71.1008 40.5625C71.0684 40.5837 71.0322 40.5983 70.9941 40.6055C54.8745 43.6237 45.8072 64.4197 44.5059 78.2222C44.4977 78.2945 44.4632 78.3614 44.4091 78.4101C44.355 78.4589 44.2848 78.4861 44.212 78.4866Z" fill="#8F7637"/>
<path d="M76.0178 43.6502C75.8369 43.6502 75.6566 43.6291 75.4805 43.5872C74.7063 43.3521 73.9698 43.0071 73.2935 42.563C72.1097 41.8703 70.8797 41.1525 69.0956 41.2197L68.2812 41.2533L68.8857 40.7075C70.397 39.3474 74.4772 37.5424 77.0673 39.5238C78.1755 40.3633 78.5701 41.4422 78.121 42.3825C77.9195 42.7656 77.617 43.0862 77.2462 43.3097C76.8755 43.5332 76.4507 43.6509 76.0178 43.6502ZM69.9478 40.6362C71.4506 40.7789 72.5798 41.4422 73.5957 42.0382C74.2207 42.4527 74.9022 42.775 75.6191 42.9953C76.0007 43.084 76.4009 43.0454 76.7586 42.8855C77.1163 42.7256 77.4119 42.4531 77.6004 42.1096C77.9237 41.4296 77.6004 40.653 76.7189 39.9729C74.6871 38.4365 71.5556 39.6035 69.9478 40.6362Z" fill="#FFC946"/>
<path d="M73.4022 42.5404C72.4711 41.0195 69.2162 40.544 69.2179 40.5384C69.2195 40.5328 71.2071 39.4708 71.3433 39.4196C72.9161 38.8181 75.8002 38.9028 77.4238 39.8746C77.3918 40.2966 77.6978 40.4548 77.7818 40.7505C77.8658 41.0462 78.1385 41.3877 78.0905 41.6871C78.0424 41.9865 77.9288 42.2711 77.757 42.5225C77.5852 42.7738 77.3591 42.9864 77.0932 43.1463C75.9966 43.8441 74.6188 42.943 73.4022 42.5404Z" fill="#FFC946"/>
<path d="M75.8817 41.1627C75.84 41.1638 75.7992 41.1583 75.7637 41.147C73.6844 40.4701 70.0277 40.6051 68.497 41.2144C68.4739 41.2236 68.448 41.2303 68.4207 41.2341C68.3934 41.2379 68.3653 41.2387 68.338 41.2365C68.3107 41.2342 68.2846 41.229 68.2614 41.221C68.2382 41.213 68.2182 41.2025 68.2026 41.1901C68.1871 41.1776 68.1762 41.1634 68.1706 41.1484C68.1651 41.1333 68.1649 41.1177 68.1702 41.1023C68.1755 41.087 68.1862 41.0722 68.2015 41.0589C68.2169 41.0455 68.2367 41.0339 68.2597 41.0246C70.0395 40.3132 73.9659 40.2687 75.991 40.9426C76.0372 40.9587 76.0697 40.9844 76.0818 41.0144C76.0938 41.0444 76.0844 41.0763 76.0556 41.1036C76.0373 41.1206 76.0117 41.1349 75.9813 41.1453C75.9509 41.1556 75.9166 41.1616 75.8817 41.1627Z" fill="#8F7637"/>
<path d="M70.8261 46.2884C70.6453 46.2815 70.4659 46.2535 70.2916 46.2049C69.5269 45.9404 68.8041 45.5676 68.1452 45.098C66.9887 44.3606 65.7871 43.5964 64.0017 43.5954L63.1866 43.5979L63.8115 43.0757C65.3735 41.7742 69.5197 40.1262 72.0323 42.205C73.1077 43.0862 73.4608 44.1793 72.9761 45.1018C72.7601 45.4769 72.4456 45.7858 72.0666 45.995C71.6876 46.2041 71.2587 46.3056 70.8261 46.2884ZM64.8755 43.0449C66.3718 43.2449 67.4749 43.9507 68.4673 44.5851C69.076 45.0231 69.7447 45.3712 70.4526 45.6188C70.8306 45.7219 71.232 45.6986 71.5955 45.5524C71.9591 45.4063 72.2649 45.1453 72.4664 44.8093C72.8153 44.142 72.5219 43.3537 71.667 42.6405C69.6954 41.0277 66.5215 42.0743 64.8755 43.0449Z" fill="#FFC946"/>
<path d="M68.2544 45.0795C67.382 43.5242 64.1477 42.9248 64.1495 42.9193C64.1513 42.9138 66.178 41.9284 66.3161 41.8825C67.9107 41.3414 70.7894 41.536 72.3748 42.5691C72.3267 42.9895 72.6265 43.1594 72.6991 43.458C72.7717 43.7567 73.0313 44.1084 72.9718 44.4057C72.9124 44.7031 72.788 44.9831 72.6067 45.2278C72.4255 45.4724 72.1914 45.6761 71.9196 45.8258C70.7971 46.4812 69.4548 45.5283 68.2544 45.0795Z" fill="#FFC946"/>
<path d="M70.7858 43.7975C70.7441 43.7969 70.7035 43.7899 70.6685 43.7773C68.6165 43.0215 64.9573 43.0169 63.4045 43.5673C63.3811 43.5757 63.3549 43.5814 63.3275 43.5841C63.3001 43.5869 63.272 43.5866 63.2448 43.5833C63.2176 43.58 63.1917 43.5738 63.1688 43.5649C63.1459 43.5561 63.1264 43.5448 63.1113 43.5318C63.0962 43.5187 63.0859 43.5042 63.0809 43.4889C63.0759 43.4736 63.0764 43.458 63.0823 43.4429C63.0881 43.4277 63.0993 43.4134 63.1152 43.4006C63.131 43.3879 63.1513 43.377 63.1747 43.3687C64.9803 42.7257 68.9055 42.831 70.9034 43.5817C70.949 43.5996 70.9805 43.6265 70.9914 43.6569C71.0023 43.6873 70.9917 43.7189 70.9619 43.745C70.9428 43.7613 70.9167 43.7747 70.886 43.7838C70.8552 43.793 70.8207 43.7977 70.7858 43.7975Z" fill="#8F7637"/>
<path d="M65.6231 48.8745C65.4472 48.9168 65.2669 48.9384 65.0859 48.9387C64.2782 48.8908 63.4815 48.7273 62.7202 48.4533C61.4074 48.0562 60.0439 47.6453 58.3248 48.1271L57.5407 48.3498L58.0011 47.6781C59.1531 46.0028 62.6993 43.2951 65.6803 44.6171C66.9539 45.1748 67.5894 46.1317 67.3722 47.1509C67.2657 47.5704 67.0464 47.9529 66.7381 48.2567C66.4298 48.5605 66.0442 48.7742 65.6231 48.8745ZM59.0172 47.3608C60.5118 47.1487 61.7646 47.5301 62.8916 47.8725C63.5961 48.1296 64.334 48.284 65.0825 48.3309C65.4743 48.3279 65.8544 48.197 66.1649 47.958C66.4754 47.719 66.6992 47.3851 66.8023 47.0071C66.9579 46.2703 66.4623 45.5907 65.4464 45.1352C63.1121 44.1155 60.3395 45.9813 59.0172 47.3608Z" fill="#FFC946"/>
<path d="M62.8193 48.4062C61.5588 47.1447 58.2829 47.4421 58.2831 47.4363C58.2834 47.4305 59.9682 45.9339 60.0887 45.8523C61.4776 44.9002 64.3018 44.3093 66.1074 44.8753C66.1748 45.293 66.5093 45.3755 66.66 45.6434C66.8107 45.9113 67.1556 46.1797 67.1788 46.4821C67.2019 46.7844 67.1579 47.0877 67.0495 47.3722C66.9412 47.6567 66.7709 47.9162 66.5497 48.1337C65.6462 49.0682 64.0962 48.5137 62.8193 48.4062Z" fill="#FFC946"/>
<path d="M64.9094 46.4876C64.8691 46.4983 64.8281 46.5025 64.791 46.4998C62.6111 46.327 59.0869 47.3119 57.7408 48.2616C57.7205 48.276 57.6969 48.2886 57.6712 48.2987C57.6456 48.3087 57.6184 48.3161 57.5913 48.3203C57.5642 48.3244 57.5377 48.3254 57.5132 48.3231C57.4888 48.3208 57.4669 48.3152 57.4489 48.3067C57.4308 48.2983 57.4169 48.287 57.408 48.2737C57.3991 48.2603 57.3953 48.2452 57.3969 48.229C57.3984 48.2128 57.4053 48.196 57.4171 48.1794C57.429 48.1629 57.4455 48.147 57.4658 48.1326C59.0303 47.0253 62.8378 46.0655 64.9643 46.2481C65.013 46.2529 65.0506 46.2703 65.0693 46.2966C65.088 46.323 65.0863 46.3562 65.0647 46.3894C65.0508 46.4103 65.0293 46.4302 65.0021 46.4473C64.975 46.4645 64.9431 46.4783 64.9094 46.4876Z" fill="#8F7637"/>
<path d="M61.912 53.5236C61.732 53.5419 61.5504 53.5391 61.371 53.5152C60.577 53.3593 59.8095 53.0905 59.0918 52.7168C57.8442 52.1472 56.548 51.5571 54.7799 51.8039L53.973 51.9195L54.5194 51.3156C55.8856 49.81 59.763 47.6024 62.5397 49.3123C63.727 50.0358 64.2284 51.0693 63.8764 52.0501C63.7146 52.4516 63.446 52.8012 63.0997 53.0609C62.7535 53.3207 62.3427 53.4807 61.912 53.5236ZM55.5688 51.1374C57.0783 51.1278 58.2687 51.6737 59.3395 52.1643C60.0032 52.5135 60.7137 52.7655 61.4491 52.9123C61.8378 52.962 62.232 52.8832 62.5718 52.688C62.9115 52.4929 63.1782 52.192 63.331 51.8312C63.584 51.122 63.1841 50.382 62.2384 49.7944C60.062 48.4708 57.0642 49.9478 55.5688 51.1374Z" fill="#FFC946"/>
<path d="M59.1974 52.6835C58.1175 51.2643 54.8313 51.1196 54.8324 51.1139C54.8335 51.1082 56.7038 49.8511 56.8341 49.7864C58.3382 49.0292 61.2161 48.8225 62.9295 49.6255C62.9403 50.0485 63.2607 50.1751 63.374 50.4608C63.4874 50.7465 63.7933 51.0588 63.7756 51.3615C63.758 51.6642 63.6737 51.9588 63.5282 52.2263C63.3826 52.4937 63.1791 52.7279 62.9307 52.9138C61.9101 53.7187 60.4484 52.9613 59.1974 52.6835Z" fill="#FFC946"/>
<path d="M61.5258 51.0626C61.4845 51.0678 61.4433 51.0665 61.4069 51.0588C59.2698 50.5952 55.6454 51.0985 54.184 51.859C54.162 51.8706 54.1369 51.8799 54.1101 51.8864C54.0834 51.893 54.0555 51.8966 54.0281 51.8971C54.0006 51.8976 53.9742 51.895 53.9503 51.8894C53.9264 51.8838 53.9055 51.8754 53.8887 51.8646C53.8719 51.8538 53.8597 51.8408 53.8526 51.8263C53.8456 51.8119 53.8439 51.7964 53.8476 51.7806C53.8513 51.7647 53.8604 51.749 53.8744 51.7342C53.8883 51.7194 53.9068 51.7058 53.9288 51.6942C55.6277 50.8069 59.5296 50.3664 61.6123 50.8326C61.66 50.8439 61.6949 50.8662 61.7099 50.8948C61.7249 50.9234 61.7188 50.9561 61.6929 50.9862C61.6763 51.0049 61.6523 51.0218 61.6231 51.0351C61.5939 51.0485 61.5605 51.0579 61.5258 51.0626Z" fill="#8F7637"/>
<path d="M59.4466 57.67C59.2672 57.6934 59.0856 57.6958 58.9057 57.6771C58.1075 57.5441 57.3326 57.2974 56.6044 56.9445C55.341 56.4109 54.0284 55.8583 52.2681 56.1558L51.4649 56.2945L51.9936 55.6751C53.3161 54.1309 57.1285 51.8129 59.9532 53.4424C61.1607 54.1315 61.6916 55.1501 61.368 56.1407C61.2177 56.5467 60.9593 56.9038 60.6206 57.1733C60.2819 57.4429 59.8759 57.6146 59.4466 57.67ZM53.0375 55.4669C54.5462 55.4139 55.7517 55.9254 56.8362 56.385C57.5096 56.7151 58.2271 56.9465 58.9664 57.0722C59.3563 57.1107 59.7482 57.0206 60.0822 56.8158C60.4162 56.6109 60.674 56.3025 60.8165 55.9375C61.049 55.2213 60.628 54.4931 59.6658 53.9329C57.4523 52.6723 54.4981 54.2348 53.0375 55.4669Z" fill="#FFC946"/>
<path d="M56.7079 56.9081C55.5877 55.5206 52.2987 55.4703 52.2996 55.4645C52.3004 55.4588 54.1339 54.1485 54.2623 54.0801C55.744 53.28 58.6148 52.9908 60.3506 53.7443C60.3735 54.1668 60.6974 54.2842 60.8189 54.5665C60.9405 54.8488 61.2551 55.1522 61.2462 55.4552C61.2373 55.7583 61.1615 56.0553 61.0237 56.3267C60.8859 56.5982 60.6891 56.8382 60.4462 57.0312C59.4491 57.8651 57.9663 57.1499 56.7079 56.9081Z" fill="#FFC946"/>
<path d="M58.9894 55.221C58.9482 55.2274 58.907 55.2273 58.8704 55.2207C56.7209 54.8186 53.1124 55.4257 51.6735 56.228C51.6518 56.2402 51.627 56.2502 51.6004 56.2575C51.5738 56.2648 51.5461 56.2692 51.5187 56.2705C51.4913 56.2718 51.4648 56.2699 51.4407 56.265C51.4167 56.2602 51.3955 56.2523 51.3784 56.242C51.3614 56.2316 51.3488 56.219 51.3413 56.2048C51.3338 56.1906 51.3317 56.1751 51.335 56.1592C51.3382 56.1433 51.3469 56.1272 51.3604 56.112C51.3739 56.0968 51.392 56.0827 51.4137 56.0706C53.0864 55.1348 56.974 54.5825 59.0693 54.9886C59.1172 54.9986 59.1528 55.0199 59.1686 55.048C59.1844 55.0762 59.1792 55.1091 59.1542 55.1398C59.1382 55.1591 59.1147 55.1766 59.0859 55.1908C59.0571 55.205 59.0239 55.2154 58.9894 55.221Z" fill="#8F7637"/>
<path d="M57.0915 61.6667C56.9144 61.7037 56.7335 61.7198 56.5527 61.7147C55.7468 61.6425 54.9554 61.4551 54.2026 61.1583C52.9024 60.7218 51.5518 60.2701 49.819 60.6999L49.0286 60.899L49.509 60.2414C50.7109 58.6015 54.3369 56.0018 57.2768 57.4129C58.5331 58.0087 59.1395 58.9843 58.8917 59.9965C58.7726 60.4126 58.5419 60.7883 58.2246 61.0827C57.9073 61.3771 57.5154 61.5791 57.0915 61.6667ZM50.5341 59.9548C52.0345 59.7878 53.2753 60.2067 54.3914 60.5829C55.0879 60.8611 55.8208 61.0376 56.5675 61.107C56.9592 61.1159 57.3431 60.9964 57.6606 60.7669C57.9782 60.5374 58.212 60.2103 58.3264 59.8356C58.5041 59.1039 58.0292 58.4096 57.0274 57.9237C54.7249 56.8343 51.8974 58.6158 50.5341 59.9548Z" fill="#FFC946"/>
<path d="M54.3038 61.1142C53.0819 59.8153 49.7985 60.014 49.7989 60.0082C49.7994 60.0024 51.5285 58.5572 51.6513 58.4793C53.0683 57.5694 55.909 57.0638 57.6968 57.6838C57.7515 58.1034 58.0834 58.1959 58.2259 58.4682C58.3685 58.7405 58.7052 59.0193 58.7193 59.3222C58.7333 59.6251 58.6802 59.9269 58.5633 60.208C58.4464 60.4891 58.2684 60.7433 58.0408 60.9541C57.1096 61.861 55.5769 61.2601 54.3038 61.1142Z" fill="#FFC946"/>
<path d="M56.4517 59.2594C56.4111 59.2688 56.37 59.2718 56.3329 59.268C54.1592 59.0297 50.607 59.9081 49.2329 60.8169C49.2122 60.8306 49.1882 60.8425 49.1622 60.8518C49.1363 60.8611 49.109 60.8676 49.0817 60.871C49.0545 60.8743 49.028 60.8745 49.0036 60.8714C48.9792 60.8684 48.9575 60.8622 48.9397 60.8531C48.9219 60.8441 48.9084 60.8325 48.8999 60.8189C48.8914 60.8053 48.8881 60.79 48.8901 60.7739C48.8922 60.7577 48.8996 60.7411 48.9119 60.7249C48.9242 60.7088 48.9412 60.6933 48.9619 60.6796C50.559 59.6199 54.3937 58.7751 56.5137 59.0216C56.5623 59.0279 56.5993 59.0464 56.6172 59.0733C56.6351 59.1002 56.6325 59.1334 56.6098 59.1659C56.5953 59.1863 56.5732 59.2056 56.5456 59.2219C56.5179 59.2383 56.4856 59.2511 56.4517 59.2594Z" fill="#8F7637"/>
<path d="M54.7573 65.6965C54.5901 65.7656 54.4153 65.8149 54.2366 65.8435C53.4313 65.9217 52.6189 65.8841 51.8242 65.7318C50.4656 65.5435 49.0548 65.3496 47.4315 66.0928L46.6916 66.4348L47.042 65.6996C47.9195 63.8656 51.0016 60.6395 54.1519 61.482C55.4967 61.8348 56.2733 62.6813 56.2171 63.7219C56.1772 64.1529 56.02 64.5648 55.7627 64.9128C55.5053 65.2609 55.1577 65.5319 54.7573 65.6965ZM47.9963 65.2282C49.4398 64.7864 50.7367 64.9683 51.9032 65.1314C52.6391 65.2758 53.392 65.3136 54.1387 65.2435C54.5253 65.1797 54.8804 64.9912 55.15 64.7069C55.4195 64.4225 55.5888 64.0578 55.6318 63.6684C55.671 62.9165 55.0757 62.3221 54.0013 62.0301C51.5369 61.3858 49.0881 63.66 47.9963 65.2282Z" fill="#FFC946"/>
<path d="M51.9154 65.6697C50.4741 64.6196 47.2843 65.4227 47.2836 65.4169C47.283 65.4111 48.7147 63.6707 48.821 63.5714C50.045 62.415 52.7429 61.3922 54.6146 61.6705C54.7461 62.0727 55.0894 62.1022 55.2799 62.3434C55.4704 62.5846 55.8529 62.7962 55.9228 63.0912C55.9926 63.3863 55.9963 63.6927 55.9335 63.9906C55.8707 64.2885 55.7428 64.5713 55.5581 64.8206C54.811 65.8842 53.1936 65.5774 51.9154 65.6697Z" fill="#FFC946"/>
<path d="M53.682 63.4495C53.6439 63.4663 53.604 63.4768 53.5669 63.4799C51.3867 63.6481 48.0585 65.169 46.8764 66.3165C46.8586 66.3339 46.8372 66.35 46.8134 66.3639C46.7896 66.3778 46.764 66.3893 46.7378 66.3976C46.7117 66.406 46.6856 66.4111 46.6611 66.4126C46.6366 66.4141 46.6142 66.412 46.595 66.4064C46.5759 66.4009 46.5604 66.3919 46.5495 66.3801C46.5386 66.3683 46.5325 66.3539 46.5316 66.3377C46.5306 66.3215 46.5348 66.3038 46.5439 66.2856C46.553 66.2674 46.5668 66.2491 46.5846 66.2317C47.958 64.8947 51.57 63.3546 53.699 63.2043C53.7478 63.2015 53.7877 63.2129 53.8103 63.236C53.8328 63.2591 53.8364 63.2922 53.8201 63.3284C53.8096 63.3511 53.7915 63.3741 53.7673 63.3953C53.7432 63.4164 53.7138 63.4351 53.682 63.4495Z" fill="#8F7637"/>
<path d="M67.8183 33.1989C67.7469 33.3652 67.6952 33.5392 67.6642 33.7175C67.5749 34.5217 67.6013 35.3346 67.7427 36.1313C67.9122 37.4923 68.0866 38.9057 67.3212 40.5186L66.969 41.2537L67.709 40.9135C69.5549 40.0613 72.8231 37.0239 72.0241 33.8623C71.6898 32.5128 70.8541 31.7246 69.8128 31.7664C69.3813 31.8005 68.9673 31.9519 68.6157 32.2045C68.2641 32.457 67.9884 32.8009 67.8183 33.1989ZM68.1935 39.9657C68.6551 38.5284 68.4911 37.2292 68.3441 36.0605C68.2098 35.3227 68.1824 34.5694 68.2627 33.8237C68.3319 33.438 68.5252 33.0855 68.8132 32.8199C69.1013 32.5543 69.4682 32.3901 69.8582 32.3524C70.6106 32.3236 71.1968 32.927 71.4739 34.0053C72.0843 36.4784 69.7766 38.8957 68.1935 39.9657Z" fill="#FFC946"/>
<path d="M67.8061 36.0411C68.8363 37.4967 67.9894 40.6752 67.9952 40.6759C68.0009 40.6766 69.7609 39.269 69.8616 39.1641C71.0348 37.9562 72.0946 35.2725 71.8421 33.3972C71.4417 33.2601 71.417 32.9165 71.1784 32.7227C70.9399 32.5289 70.7336 32.1435 70.4395 32.0696C70.1455 31.9957 69.8391 31.9878 69.5404 32.0465C69.2416 32.1052 68.9571 32.2292 68.7053 32.4104C67.6315 33.1429 67.916 34.7643 67.8061 36.0411Z" fill="#FFC946"/>
<path d="M70.0495 34.3053C70.0321 34.3432 70.021 34.3829 70.0174 34.4199C69.8192 36.5977 68.2527 39.9046 67.0891 41.0708C67.0714 41.0884 67.055 41.1095 67.0408 41.1331C67.0265 41.1567 67.0147 41.1822 67.006 41.2082C66.9973 41.2342 66.9919 41.2602 66.99 41.2847C66.9882 41.3092 66.99 41.3317 66.9953 41.3509C67.0006 41.3701 67.0093 41.3857 67.0209 41.3968C67.0326 41.4078 67.0469 41.4141 67.0631 41.4153C67.0793 41.4165 67.0971 41.4125 67.1154 41.4037C67.1337 41.3948 67.1522 41.3812 67.1698 41.3637C68.5256 40.0089 70.1153 36.4184 70.2948 34.2917C70.2983 34.2429 70.2875 34.2029 70.2647 34.18C70.2419 34.1571 70.2089 34.1531 70.1725 34.1688C70.1496 34.179 70.1263 34.1968 70.1048 34.2207C70.0833 34.2445 70.0643 34.2736 70.0495 34.3053Z" fill="#8F7637"/>
<path d="M63.1709 35.1107C63.1197 35.2843 63.089 35.4632 63.0794 35.6439C63.0861 36.4531 63.2088 37.257 63.4437 38.0313C63.7735 39.3626 64.1145 40.7453 63.5458 42.4377L63.2834 43.2093L63.9777 42.7837C65.7095 41.7186 68.5942 38.3149 67.4257 35.2704C66.9336 33.9701 66.0103 33.2866 64.9814 33.4517C64.5569 33.5367 64.1638 33.7362 63.8447 34.0287C63.5255 34.3211 63.2925 34.6953 63.1709 35.1107ZM64.3463 41.7852C64.6342 40.3033 64.3172 39.0327 64.0325 37.8897C63.8116 37.173 63.695 36.4283 63.6863 35.6783C63.7092 35.2872 63.8593 34.9142 64.1138 34.6163C64.3683 34.3184 64.7132 34.1118 65.096 34.0281C65.8396 33.9103 66.4932 34.4398 66.8964 35.4776C67.7959 37.8608 65.7913 40.5348 64.3463 41.7852Z" fill="#FFC946"/>
<path d="M63.4958 37.9343C64.6914 39.2574 64.2276 42.5139 64.2335 42.5139C64.2393 42.5139 65.8197 40.9075 65.9073 40.7913C66.9289 39.4527 67.6628 36.6623 67.1895 34.8301C66.7758 34.7416 66.7104 34.4033 66.4505 34.2392C66.1907 34.0751 65.9401 33.7169 65.6394 33.6784C65.3386 33.6398 65.0335 33.6684 64.7438 33.7621C64.4541 33.8559 64.1864 34.0127 63.9579 34.2225C62.9785 35.0772 63.4534 36.6535 63.4958 37.9343Z" fill="#FFC946"/>
<path d="M65.5184 35.9444C65.5057 35.9841 65.4993 36.0248 65.5002 36.0621C65.5618 38.2479 64.3987 41.7174 63.3816 43.0134C63.3662 43.0329 63.3525 43.0559 63.3411 43.081C63.3298 43.1061 63.3211 43.1328 63.3155 43.1597C63.3099 43.1866 63.3076 43.213 63.3087 43.2375C63.3098 43.2621 63.3142 43.2842 63.3218 43.3027C63.3293 43.3211 63.3398 43.3356 63.3527 43.3452C63.3655 43.3548 63.3805 43.3593 63.3968 43.3586C63.413 43.3578 63.4302 43.3518 63.4473 43.3408C63.4644 43.3299 63.4812 43.3142 63.4966 43.2946C64.682 41.7885 65.8345 38.0348 65.7604 35.9018C65.758 35.8529 65.7426 35.8145 65.7172 35.7945C65.6919 35.7744 65.6586 35.7744 65.6243 35.7943C65.6028 35.8072 65.5818 35.8276 65.5633 35.8539C65.5448 35.8801 65.5294 35.9113 65.5184 35.9444Z" fill="#8F7637"/>
<path d="M58.7558 37.7684C58.7144 37.9445 58.6936 38.1249 58.6941 38.3059C58.7457 39.1134 58.9127 39.9093 59.1902 40.6694C59.5933 41.9803 60.0104 43.342 59.5364 45.0633L59.3172 45.8483L59.9868 45.3849C61.6569 44.2253 64.3485 40.6669 63.013 37.6919C62.4495 36.4209 61.4898 35.7897 60.4716 36.0115C60.0525 36.1199 59.6711 36.341 59.3686 36.6506C59.0662 36.9603 58.8543 37.3469 58.7558 37.7684ZM60.2995 44.3674C60.5048 42.8719 60.1178 41.6207 59.7702 40.4954C59.5099 39.792 59.3522 39.0549 59.302 38.3066C59.3031 37.9148 59.4323 37.5341 59.6699 37.2225C59.9075 36.9109 60.2404 36.6856 60.618 36.5807C61.354 36.4218 62.0359 36.9143 62.496 37.9282C63.5262 40.2578 61.673 43.0389 60.2995 44.3674Z" fill="#FFC946"/>
<path d="M59.237 40.5696C60.5041 41.8243 60.2216 45.1015 60.2274 45.1012C60.2332 45.1009 61.7222 43.4094 61.8032 43.2885C62.749 41.8953 63.3271 39.0685 62.7529 37.2654C62.3349 37.1999 62.2509 36.8658 61.9823 36.7164C61.7137 36.5669 61.4437 36.2232 61.1413 36.2014C60.8388 36.1796 60.5358 36.225 60.2518 36.3346C59.9677 36.4443 59.7091 36.6158 59.4925 36.8379C58.5621 37.7456 59.1236 39.2931 59.237 40.5696Z" fill="#FFC946"/>
<path d="M61.1465 38.4707C61.136 38.511 61.1319 38.552 61.1348 38.5891C61.3175 40.7682 60.3486 44.2968 59.405 45.6473C59.3907 45.6676 59.3782 45.6913 59.3682 45.717C59.3583 45.7427 59.3511 45.7699 59.347 45.797C59.343 45.8241 59.3421 45.8506 59.3445 45.8751C59.347 45.8995 59.3526 45.9214 59.3612 45.9394C59.3698 45.9574 59.381 45.9712 59.3944 45.9801C59.4078 45.989 59.423 45.9927 59.4392 45.991C59.4553 45.9894 59.4722 45.9824 59.4886 45.9705C59.5051 45.9586 59.521 45.942 59.5353 45.9217C60.6354 44.3522 61.578 40.5403 61.3858 38.4147C61.3807 38.366 61.3632 38.3285 61.3367 38.3099C61.3103 38.2913 61.2771 38.2931 61.244 38.3149C61.2232 38.3289 61.2034 38.3505 61.1863 38.3778C61.1693 38.405 61.1556 38.4369 61.1465 38.4707Z" fill="#8F7637"/>
<path d="M54.4889 41.3372C54.468 41.5169 54.4681 41.6985 54.4894 41.8782C54.6336 42.6743 54.8912 43.4458 55.2544 44.1688C55.8057 45.4247 56.3768 46.7293 56.1041 48.4937L55.9767 49.2987L56.5886 48.7613C58.114 47.4172 60.378 43.5725 58.7089 40.7711C58.0029 39.5733 56.9768 39.0568 55.9909 39.3944C55.5871 39.5504 55.2337 39.8138 54.9689 40.1563C54.7041 40.4987 54.5381 40.9071 54.4889 41.3372ZM56.7821 47.7146C56.8138 46.2053 56.2853 45.0071 55.8105 43.9292C55.4709 43.2605 55.2294 42.5464 55.0933 41.8089C55.0494 41.4195 55.1339 41.0265 55.334 40.6896C55.5341 40.3528 55.8389 40.0906 56.2019 39.943C56.9147 39.7004 57.6488 40.1111 58.2225 41.0653C59.5141 43.2608 57.9934 46.2367 56.7821 47.7146Z" fill="#FFC946"/>
<path d="M55.2891 44.0643C56.6923 45.1648 56.789 48.4528 56.7947 48.4518C56.8004 48.4509 58.0848 46.5991 58.1513 46.4698C58.9304 44.9769 59.1792 42.1023 58.4013 40.3773C57.9785 40.3604 57.8566 40.0382 57.5726 39.9207C57.2886 39.8031 56.9808 39.4927 56.6779 39.5059C56.3749 39.5191 56.0791 39.5991 55.8096 39.7407C55.5401 39.8824 55.3029 40.0825 55.1134 40.3281C54.2936 41.3368 55.0296 42.8094 55.2891 44.0643Z" fill="#FFC946"/>
<path d="M56.9442 41.7596C56.9384 41.8009 56.9391 41.8421 56.9462 41.8786C57.3786 44.0222 56.8224 47.6389 56.0405 49.089C56.0286 49.1108 56.019 49.1358 56.012 49.1625C56.0051 49.1891 56.0011 49.217 56.0002 49.2444C55.9993 49.2718 56.0015 49.2982 56.0067 49.3222C56.0119 49.3462 56.0201 49.3673 56.0307 49.3842C56.0412 49.4011 56.054 49.4135 56.0684 49.4208C56.0827 49.4281 56.0982 49.43 56.1141 49.4265C56.1299 49.423 56.1458 49.4142 56.1608 49.4004C56.1759 49.3867 56.1897 49.3684 56.2016 49.3466C57.1137 47.6608 57.6111 43.7658 57.1755 41.6765C57.1648 41.6287 57.1431 41.5934 57.1147 41.578C57.0863 41.5626 57.0535 41.5682 57.0231 41.5937C57.0041 41.61 56.9869 41.6337 56.9731 41.6627C56.9593 41.6917 56.9494 41.7251 56.9442 41.7596Z" fill="#8F7637"/>
<path d="M50.7368 44.897C50.7492 45.0775 50.7826 45.256 50.8363 45.4288C51.1238 46.1851 51.5182 46.8964 52.0075 47.5408C52.7793 48.6746 53.5794 49.8527 53.6342 51.6372L53.6563 52.4519L54.1595 51.8116C55.4133 50.2111 56.9356 46.0171 54.782 43.5683C53.8688 42.52 52.7655 42.2 51.8581 42.7123C51.4896 42.9394 51.1903 43.2631 50.9927 43.6482C50.7951 44.0333 50.7066 44.4652 50.7368 44.897ZM54.1582 50.7472C53.9132 49.2576 53.1744 48.1763 52.5104 47.2035C52.0542 46.6082 51.6861 45.9503 51.4174 45.2502C51.303 44.8754 51.3141 44.4736 51.4492 44.1058C51.5844 43.738 51.836 43.4245 52.1658 43.213C52.8222 42.8441 53.6191 43.1135 54.3577 43.9466C56.0292 45.8687 55.0787 49.0727 54.1582 50.7472Z" fill="#FFC946"/>
<path d="M52.0229 47.4317C53.6038 48.2569 54.3004 51.4717 54.3058 51.4697C54.3113 51.4677 55.2351 49.4122 55.2769 49.2728C55.7697 47.6627 55.4883 44.7911 54.408 43.2375C53.9892 43.2982 53.8104 43.0038 53.5097 42.9402C53.209 42.8766 52.8496 42.6278 52.5542 42.6961C52.2588 42.7645 51.9826 42.8973 51.7435 43.0858C51.5045 43.2744 51.3079 43.5145 51.1665 43.7907C50.5452 44.9324 51.5381 46.2454 52.0229 47.4317Z" fill="#FFC946"/>
<path d="M53.228 44.8631C53.2298 44.9047 53.2381 44.9451 53.2518 44.9797C54.069 47.008 54.1839 50.6654 53.6806 52.2341C53.6729 52.2577 53.668 52.2841 53.666 52.3115C53.6641 52.339 53.6652 52.3671 53.6694 52.3942C53.6735 52.4214 53.6805 52.447 53.69 52.4696C53.6996 52.4922 53.7114 52.5114 53.7249 52.5261C53.7384 52.5408 53.7533 52.5507 53.7687 52.5552C53.7841 52.5597 53.7997 52.5588 53.8147 52.5525C53.8296 52.5461 53.8436 52.5345 53.8559 52.5183C53.8681 52.502 53.8784 52.4815 53.886 52.4579C54.4743 50.6337 54.2507 46.7134 53.4401 44.7391C53.4209 44.694 53.3931 44.6633 53.3623 44.6534C53.3316 44.6434 53.3004 44.6549 53.2752 44.6855C53.2595 44.705 53.2469 44.7315 53.2386 44.7626C53.2304 44.7936 53.2267 44.8282 53.228 44.8631Z" fill="#8F7637"/>
<path d="M47.4676 49.2611C47.4909 49.4405 47.5351 49.6166 47.5993 49.7858C47.9322 50.5233 48.3692 51.2092 48.8968 51.8227C49.7362 52.9074 50.6065 54.0346 50.7698 55.8124L50.8414 56.6244L51.3047 55.9546C52.4587 54.2807 53.723 50.0019 51.4244 47.6887C50.4491 46.6979 49.3284 46.4456 48.4538 47.0122C48.0998 47.2613 47.8208 47.6026 47.647 47.9991C47.4731 48.3955 47.4111 48.8319 47.4676 49.2611ZM51.2386 54.8922C50.9034 53.4203 50.1002 52.386 49.3782 51.4554C48.8867 50.8889 48.4792 50.2547 48.1684 49.5722C48.0313 49.2051 48.018 48.8033 48.1305 48.428C48.243 48.0527 48.4751 47.7244 48.7914 47.4932C49.4242 47.085 50.2359 47.3055 51.0239 48.0921C52.8093 49.909 52.0555 53.1648 51.2386 54.8922Z" fill="#FFC946"/>
<path d="M48.9051 51.7128C50.5333 52.4403 51.4242 55.6067 51.4295 55.6044C51.4349 55.602 52.2319 53.4941 52.2651 53.3525C52.659 51.7153 52.2034 48.8662 51.0305 47.3813C50.6162 47.4674 50.4198 47.1843 50.1158 47.1391C49.8117 47.0939 49.4379 46.8675 49.1472 46.9537C48.8565 47.0399 48.5889 47.1893 48.3617 47.392C48.1346 47.5948 47.953 47.8464 47.8287 48.1307C47.278 49.3081 48.349 50.5583 48.9051 51.7128Z" fill="#FFC946"/>
<path d="M49.9517 49.0757C49.9561 49.1171 49.9667 49.1569 49.9825 49.1906C50.9217 51.1654 51.259 54.809 50.852 56.4054C50.8458 56.4295 50.8425 56.4561 50.8422 56.4836C50.842 56.5112 50.8448 56.5392 50.8506 56.566C50.8563 56.5928 50.8649 56.6179 50.8758 56.6399C50.8867 56.6619 50.8997 56.6804 50.914 56.6942C50.9284 56.7081 50.9438 56.717 50.9595 56.7206C50.9751 56.7242 50.9907 56.7223 51.0052 56.7151C51.0198 56.7078 51.033 56.6954 51.0443 56.6784C51.0555 56.6615 51.0645 56.6404 51.0707 56.6163C51.5469 54.7597 51.0851 50.8603 50.1559 48.9389C50.134 48.8952 50.1043 48.8662 50.073 48.8581C50.0418 48.8501 50.0113 48.8635 49.988 48.8956C49.9735 48.916 49.9626 48.9432 49.9562 48.9747C49.9499 49.0061 49.9483 49.0409 49.9517 49.0757Z" fill="#8F7637"/>
<path d="M44.4084 54.428C44.4514 54.6038 44.5148 54.7739 44.5973 54.935C45.0098 55.6311 45.5199 56.2645 46.1122 56.8158C47.0664 57.801 48.0561 58.825 48.415 60.5739L48.5761 61.3729L48.9624 60.656C49.9242 58.8647 50.7074 54.4723 48.167 52.4276C47.088 51.5507 45.9463 51.424 45.1397 52.0838C44.8155 52.3706 44.576 52.7407 44.447 53.1539C44.3181 53.5671 44.3048 54.0078 44.4084 54.428ZM48.7792 59.6074C48.2833 58.1816 47.3705 57.2425 46.55 56.3975C45.9988 55.8889 45.5237 55.3036 45.1393 54.6597C44.9625 54.31 44.9048 53.9122 44.9751 53.5267C45.0453 53.1412 45.2397 52.7893 45.5285 52.5245C46.1122 52.0489 46.9434 52.1782 47.8135 52.8728C49.789 54.481 49.4 57.8002 48.7792 59.6074Z" fill="#FFC946"/>
<path d="M46.109 56.7057C47.8076 57.2486 49.0434 60.297 49.0484 60.2941C49.0535 60.2912 49.6124 58.108 49.6298 57.9636C49.8401 56.2929 49.0721 53.5116 47.7421 52.1656C47.3399 52.297 47.1134 52.0374 46.8062 52.0262C46.4991 52.0149 46.1025 51.8312 45.8231 51.949C45.5437 52.0669 45.2943 52.2449 45.091 52.4715C44.8877 52.6982 44.735 52.9684 44.6429 53.2646C44.2258 54.4957 45.4286 55.6197 46.109 56.7057Z" fill="#FFC946"/>
<path d="M46.857 53.9689C46.8659 54.0097 46.881 54.048 46.9004 54.0798C48.0523 55.9385 48.7905 59.5225 48.5627 61.1541C48.5592 61.1787 48.5588 61.2055 48.5616 61.2329C48.5644 61.2603 48.5703 61.2878 48.579 61.3138C48.5877 61.3399 48.599 61.3639 48.6122 61.3846C48.6255 61.4052 48.6405 61.4221 48.6563 61.4343C48.6721 61.4465 48.6884 61.4537 48.7044 61.4555C48.7203 61.4573 48.7355 61.4537 48.7492 61.4449C48.7629 61.4361 48.7747 61.4223 48.784 61.4042C48.7933 61.3861 48.7998 61.3641 48.8034 61.3395C49.0712 59.4416 48.1809 55.6172 47.0448 53.8105C47.0182 53.7694 46.9855 53.7439 46.9535 53.7393C46.9216 53.7348 46.8928 53.7515 46.8732 53.7859C46.861 53.8078 46.8531 53.8361 46.8503 53.8681C46.8475 53.9 46.8498 53.9347 46.857 53.9689Z" fill="#8F7637"/>
<path d="M41.9326 59.0845C41.9908 59.2558 42.0689 59.4197 42.1652 59.5729C42.6371 60.2302 43.2008 60.8164 43.8391 61.3137C44.876 62.2115 45.9516 63.1448 46.4624 64.8555L46.6929 65.6373L47.0149 64.8893C47.816 63.0207 48.2112 58.5765 45.5014 56.7623C44.3497 55.9834 43.2012 55.9572 42.4556 56.6852C42.1578 56.9993 41.9516 57.389 41.8594 57.8119C41.7672 58.2348 41.7925 58.6749 41.9326 59.0845ZM46.7405 63.8609C46.1215 62.484 45.13 61.6285 44.2385 60.8586C43.6449 60.4003 43.1203 59.859 42.6809 59.2512C42.4742 58.9184 42.3818 58.5271 42.4181 58.137C42.4543 57.7468 42.617 57.3792 42.8816 57.0902C43.4213 56.5652 44.2606 56.6212 45.1883 57.2368C47.2971 58.6657 47.2005 62.0062 46.7405 63.8609Z" fill="#FFC946"/>
<path d="M43.8256 61.2044C45.5653 61.5963 47.0635 64.5247 47.0683 64.5213C47.073 64.518 47.4385 62.2943 47.4431 62.1489C47.5062 60.4662 46.4974 57.7629 45.0546 56.5386C44.6654 56.7048 44.417 56.466 44.11 56.4817C43.8031 56.4974 43.3919 56.3492 43.1239 56.4911C42.8559 56.633 42.6231 56.8321 42.4404 57.0757C42.2577 57.3193 42.1294 57.6018 42.0636 57.905C41.756 59.1679 43.0527 60.1822 43.8256 61.2044Z" fill="#FFC946"/>
<path d="M44.3312 58.4125C44.3437 58.4523 44.362 58.4892 44.3841 58.5192C45.6945 60.2698 46.744 63.7753 46.6601 65.4206C46.6587 65.4454 46.6607 65.4721 46.6659 65.4992C46.6711 65.5262 46.6794 65.5531 46.6903 65.5783C46.7013 65.6034 46.7146 65.6264 46.7297 65.6458C46.7447 65.6652 46.7611 65.6807 46.7779 65.6915C46.7947 65.7022 46.8116 65.708 46.8276 65.7084C46.8437 65.7088 46.8585 65.7039 46.8714 65.6939C46.8842 65.684 46.8948 65.6691 46.9024 65.6503C46.9101 65.6315 46.9147 65.609 46.9161 65.5842C47.0166 63.6701 45.7945 59.9385 44.5044 58.2382C44.4743 58.1996 44.4395 58.1771 44.4073 58.1754C44.375 58.1736 44.3478 58.1928 44.3313 58.2288C44.3211 58.2517 44.3157 58.2805 44.3157 58.3126C44.3157 58.3448 44.3211 58.3791 44.3312 58.4125Z" fill="#8F7637"/>
<path d="M44.0848 78.5989L44.0657 78.6154C44.0344 78.6382 43.9988 78.6546 43.9611 78.6636C43.9234 78.6726 43.8843 78.6741 43.846 78.6679C43.8078 78.6618 43.7711 78.6481 43.7381 78.6277C43.7051 78.6073 43.6765 78.5806 43.6539 78.5491C35.5188 67.0954 28.7535 45.0965 39.1849 32.0517C39.2091 32.0214 39.2389 31.9962 39.2728 31.9775C39.3067 31.9588 39.3439 31.9469 39.3824 31.9426C39.4209 31.9382 39.4598 31.9415 39.497 31.9523C39.5342 31.963 39.5689 31.9809 39.5992 32.005C39.6294 32.0292 39.6546 32.059 39.6734 32.0929C39.6921 32.1268 39.7039 32.164 39.7083 32.2025C39.7126 32.241 39.7093 32.2799 39.6986 32.3171C39.6879 32.3543 39.6699 32.389 39.6458 32.4193C29.4045 45.2282 36.1107 66.9012 44.1348 78.2068C44.1758 78.2669 44.1934 78.3401 44.1842 78.4123C44.175 78.4846 44.1396 78.551 44.0848 78.5989Z" fill="#8F7637"/>
<path d="M45.4389 31.4464C45.3019 31.5645 45.1514 31.6663 44.9908 31.7495C44.2507 32.0767 43.4676 32.2962 42.6653 32.4012C41.3164 32.6492 39.9161 32.9083 38.6084 34.1238L38.0134 34.6808L38.1151 33.8728C38.3721 31.856 40.2848 27.8251 43.5403 27.6353C44.9279 27.5479 45.931 28.1076 46.2046 29.1132C46.302 29.5349 46.2822 29.9753 46.1472 30.3866C46.0123 30.7979 45.7673 31.1644 45.4389 31.4464ZM38.873 33.1255C40.1047 32.2526 41.3931 32.0179 42.5518 31.8064C43.2958 31.7123 44.0225 31.5117 44.7093 31.2106C45.0563 31.0286 45.3343 30.7382 45.5009 30.3835C45.6675 30.0289 45.7136 29.6295 45.6321 29.2463C45.4331 28.5201 44.6813 28.1428 43.5695 28.203C41.0275 28.3654 39.4169 31.2937 38.873 33.1255Z" fill="#FFC946"/>
<path d="M42.7324 32.3137C41.0342 31.7694 38.2581 33.5338 38.2557 33.5285C38.2533 33.5232 39.0658 31.4212 39.1355 31.2936C39.9343 29.8112 42.1745 27.9927 44.0388 27.669C44.29 28.0095 44.6252 27.9297 44.8818 28.0989C45.1384 28.268 45.568 28.3487 45.727 28.6069C45.8861 28.8651 45.9858 29.1548 46.0197 29.4574C46.0537 29.76 46.0211 30.0686 45.924 30.3633C45.5488 31.6078 43.9169 31.8245 42.7324 32.3137Z" fill="#FFC946"/>
<path d="M43.7122 29.6509C43.6813 29.6789 43.6468 29.7014 43.6125 29.716C41.5954 30.5605 38.9134 33.0498 38.1516 34.5105C38.1402 34.5326 38.1249 34.5547 38.1067 34.5753C38.0885 34.596 38.0677 34.615 38.0456 34.6311C38.0234 34.6472 38.0002 34.6602 37.9774 34.6694C37.9546 34.6785 37.9326 34.6836 37.9127 34.6843C37.8928 34.685 37.8753 34.6814 37.8613 34.6736C37.8472 34.6659 37.8369 34.6541 37.8309 34.639C37.8249 34.6239 37.8233 34.6058 37.8262 34.5856C37.8292 34.5655 37.8366 34.5438 37.848 34.5217C38.7319 32.821 41.6773 30.2242 43.6513 29.4128C43.6968 29.3948 43.7382 29.3931 43.7669 29.4079C43.7956 29.4228 43.8093 29.4531 43.8053 29.4926C43.8025 29.5174 43.7925 29.545 43.7762 29.5727C43.7599 29.6003 43.7379 29.6273 43.7122 29.6509Z" fill="#8F7637"/>
<path d="M43.2279 36.8335C43.0864 36.9463 42.9322 37.0422 42.7685 37.1192C42.0165 37.418 41.2256 37.6074 40.4199 37.6817C39.0625 37.8781 37.6533 38.0836 36.3002 39.2483L35.6843 39.7822L35.8168 38.9787C36.1506 36.9731 38.2157 33.0181 41.4761 32.9528C42.866 32.9184 43.8471 33.5159 44.082 34.5312C44.1633 34.9563 44.1267 35.3957 43.9761 35.8015C43.8256 36.2073 43.5668 36.5642 43.2279 36.8335ZM36.6027 38.2608C37.8668 37.4356 39.1632 37.2502 40.3291 37.083C41.0762 37.0174 41.81 36.8447 42.5078 36.5701C42.8615 36.4014 43.1503 36.1218 43.3304 35.7738C43.5104 35.4257 43.5717 35.0284 43.5049 34.6423C43.3337 33.9091 42.5969 33.5034 41.4836 33.5212C38.9372 33.5864 37.2161 36.4511 36.6027 38.2608Z" fill="#FFC946"/>
<path d="M40.4898 37.5968C38.8136 36.9882 35.9722 38.6453 35.97 38.64C35.9678 38.6346 36.8599 36.5651 36.9345 36.4402C37.7893 34.9894 40.0972 33.2577 41.9725 33.0054C42.2106 33.3553 42.5485 33.2883 42.7985 33.4671C43.0485 33.646 43.4747 33.743 43.6237 34.0071C43.7728 34.2711 43.8614 34.5645 43.8837 34.8681C43.9061 35.1718 43.8618 35.4789 43.7536 35.7696C43.3311 36.9989 41.6921 37.1533 40.4898 37.5968Z" fill="#FFC946"/>
<path d="M41.5711 34.9734C41.5391 35.0002 41.5038 35.0214 41.469 35.0347C39.4212 35.8016 36.6462 38.1867 35.8291 39.6173C35.8168 39.639 35.8008 39.6604 35.7818 39.6804C35.7628 39.7003 35.7413 39.7185 35.7186 39.7337C35.6958 39.749 35.6722 39.7611 35.649 39.7694C35.6259 39.7776 35.6037 39.7819 35.5838 39.7818C35.5638 39.7818 35.5465 39.7775 35.5328 39.7692C35.519 39.7609 35.5092 39.7488 35.5037 39.7334C35.4983 39.7181 35.4974 39.7 35.5011 39.68C35.5048 39.66 35.5131 39.6385 35.5253 39.6169C36.4734 37.9512 39.5158 35.4687 41.5193 34.7332C41.5655 34.717 41.607 34.7168 41.6351 34.7327C41.6632 34.7486 41.6757 34.7794 41.6702 34.8187C41.6664 34.8435 41.6554 34.8706 41.6381 34.8977C41.6207 34.9247 41.5977 34.9508 41.5711 34.9734Z" fill="#8F7637"/>
<path d="M40.9743 42.1895C40.8686 42.3363 40.7461 42.4704 40.6093 42.5888C39.9661 43.0797 39.2558 43.4759 38.5002 43.7653C37.2465 44.3214 35.9453 44.9002 34.9575 46.3874L34.5089 47.068L34.4192 46.2585C34.1983 44.2374 35.1172 39.8714 38.2385 38.9269C39.5673 38.518 40.6734 38.8281 41.1741 39.742C41.3673 40.1293 41.4509 40.5622 41.4156 40.9936C41.3804 41.425 41.2278 41.8386 40.9743 42.1895ZM34.9818 45.3549C35.9756 44.2186 37.1736 43.6897 38.2509 43.2135C38.9525 42.9483 39.6122 42.5836 40.2098 42.1305C40.5047 41.8725 40.7072 41.5252 40.7864 41.1415C40.8656 40.7578 40.8172 40.3587 40.6486 40.005C40.2855 39.3454 39.4664 39.154 38.3994 39.4721C35.9655 40.2234 35.083 43.4467 34.9818 45.3549Z" fill="#FFC946"/>
<path d="M38.5451 43.6646C36.7668 43.5318 34.4792 45.8955 34.4756 45.8909C34.4721 45.8864 34.7714 43.6528 34.8094 43.5124C35.2401 41.8845 36.9939 39.5933 38.7312 38.8433C39.0549 39.1158 39.3622 38.96 39.6512 39.0645C39.9402 39.1691 40.3768 39.1473 40.5917 39.3612C40.8066 39.5751 40.9712 39.8336 41.0748 40.1199C41.1784 40.4062 41.2188 40.7139 41.1932 41.0231C41.1189 42.3208 39.5827 42.9125 38.5451 43.6646Z" fill="#FFC946"/>
<path d="M38.8758 40.8467C38.8523 40.8811 38.824 40.9111 38.7941 40.9333C37.0299 42.2253 35.0031 45.272 34.6033 46.8702C34.5973 46.8943 34.5876 46.9193 34.5748 46.9436C34.5619 46.968 34.5461 46.9913 34.5283 47.0121C34.5105 47.033 34.4911 47.0511 34.471 47.0653C34.451 47.0795 34.4308 47.0895 34.4116 47.0949C34.3924 47.1003 34.3745 47.1008 34.3591 47.0965C34.3436 47.0922 34.3308 47.0832 34.3214 47.0699C34.3121 47.0567 34.3063 47.0394 34.3045 47.0191C34.3026 46.9989 34.3047 46.976 34.3107 46.9519C34.7731 45.0919 37.031 41.8792 38.761 40.6295C38.8011 40.6013 38.841 40.59 38.8723 40.5977C38.9037 40.6054 38.9241 40.6317 38.9294 40.671C38.9325 40.6959 38.9292 40.725 38.9198 40.7557C38.9104 40.7864 38.8953 40.8177 38.8758 40.8467Z" fill="#8F7637"/>
<path d="M41.1969 48.1347C41.0725 48.2661 40.9331 48.3825 40.7816 48.4814C40.0784 48.8817 39.3214 49.179 38.5338 49.3645C37.2168 49.7474 35.8498 50.1464 34.6714 51.4876L34.1356 52.1019L34.1553 51.2877C34.2074 49.2553 35.7037 45.0519 38.9234 44.5347C40.2951 44.3077 41.3496 44.7633 41.7232 45.7361C41.8627 46.1459 41.8874 46.586 41.7947 47.0089C41.7019 47.4317 41.4952 47.821 41.1969 48.1347ZM34.834 50.4677C35.9712 49.475 37.2294 49.1116 38.3608 48.7842C39.0916 48.6155 39.7943 48.3426 40.4473 47.9738C40.7741 47.7577 41.0213 47.4407 41.1513 47.071C41.2813 46.7014 41.2868 46.2994 41.1671 45.9263C40.8958 45.2239 40.1098 44.9244 39.0098 45.0965C36.4971 45.5146 35.1902 48.5904 34.834 50.4677Z" fill="#FFC946"/>
<path d="M38.5915 49.2706C36.847 48.9005 34.2631 50.936 34.2602 50.931C34.2572 50.926 34.8535 48.7527 34.91 48.6187C35.5551 47.0633 37.6004 45.028 39.4226 44.5179C39.7069 44.8313 40.0322 44.7181 40.3046 44.8605C40.577 45.0029 41.0125 45.0398 41.1968 45.2806C41.3811 45.5215 41.5095 45.7997 41.5738 46.0973C41.6381 46.3949 41.6368 46.7052 41.57 47.0082C41.3223 48.2842 39.7206 48.6645 38.5915 49.2706Z" fill="#FFC946"/>
<path d="M39.2978 46.5226C39.2699 46.5536 39.2379 46.5795 39.2053 46.5974C37.2837 47.6412 34.8666 50.3884 34.256 51.9185C34.2468 51.9417 34.2339 51.9651 34.2179 51.9875C34.2018 52.0099 34.1831 52.0309 34.1626 52.0492C34.1422 52.0675 34.1205 52.0827 34.0987 52.0941C34.077 52.1055 34.0556 52.1128 34.0358 52.1155C34.0161 52.1183 33.9983 52.1164 33.9836 52.1101C33.9688 52.1038 33.9574 52.0931 33.9499 52.0787C33.9424 52.0643 33.939 52.0464 33.9399 52.0261C33.9407 52.0058 33.9459 51.9834 33.9551 51.9603C34.6628 50.1791 37.3312 47.2983 39.2132 46.2919C39.2567 46.2694 39.2977 46.2635 39.3278 46.2754C39.3578 46.2873 39.3745 46.316 39.3745 46.3557C39.3742 46.3807 39.367 46.4092 39.3536 46.4383C39.3402 46.4675 39.321 46.4965 39.2978 46.5226Z" fill="#8F7637"/>
<path d="M42.037 52.8846C41.9164 53.0195 41.7804 53.1398 41.6319 53.2431C40.9404 53.6634 40.1923 53.9823 39.4104 54.1903C38.1049 54.6108 36.7499 55.049 35.6105 56.4235L35.0926 57.0529L35.0888 56.2385C35.0826 54.2054 36.4576 49.9608 39.6611 49.3513C41.0257 49.085 42.0929 49.5102 42.4943 50.4719C42.6455 50.8775 42.6828 51.3167 42.6022 51.742C42.5216 52.1673 42.3262 52.5624 42.037 52.8846ZM35.7437 55.3993C36.852 54.3744 38.0992 53.9749 39.2208 53.6152C39.9464 53.4256 40.6409 53.1327 41.2831 52.7452C41.6036 52.5198 41.8416 52.1958 41.9609 51.8226C42.0802 51.4494 42.0742 51.0474 41.9439 50.6779C41.6525 49.9836 40.8582 49.7068 39.7636 49.9104C37.2639 50.4005 36.0459 53.5126 35.7437 55.3993Z" fill="#FFC946"/>
<path d="M39.4655 54.0948C37.7111 53.7749 35.1867 55.8838 35.1836 55.8789C35.1805 55.8739 35.7141 53.6845 35.7668 53.5489C36.367 51.9756 38.3529 49.8824 40.1597 49.3202C40.4529 49.6253 40.7749 49.5028 41.0512 49.6373C41.3276 49.7718 41.764 49.7963 41.9551 50.0317C42.1462 50.2671 42.2826 50.5415 42.3554 50.8372C42.4282 51.1328 42.4359 51.443 42.3778 51.7478C42.1668 53.0304 40.5767 53.4565 39.4655 54.0948Z" fill="#FFC946"/>
<path d="M40.0921 51.3277C40.0651 51.3594 40.0338 51.3863 40.0017 51.4051C38.1109 52.5036 35.7737 55.3191 35.2073 56.8662C35.1988 56.8895 35.1865 56.9133 35.1712 56.9362C35.1558 56.9591 35.1376 56.9805 35.1177 56.9994C35.0978 57.0183 35.0766 57.0342 35.0551 57.0462C35.0337 57.0582 35.0126 57.0661 34.9929 57.0694C34.9732 57.0727 34.9554 57.0713 34.9405 57.0655C34.9256 57.0596 34.9138 57.0492 34.9059 57.035C34.898 57.0208 34.8941 57.0031 34.8944 56.9827C34.8947 56.9624 34.8992 56.9399 34.9077 56.9165C35.564 55.1157 38.1486 52.1596 40.0009 51.0995C40.0438 51.0758 40.0846 51.0687 40.1149 51.0797C40.1453 51.0907 40.1629 51.119 40.164 51.1586C40.1644 51.1837 40.158 51.2123 40.1455 51.2418C40.1329 51.2714 40.1146 51.3009 40.0921 51.3277Z" fill="#8F7637"/>
<path d="M42.8629 57.4492C42.7528 57.5928 42.6263 57.723 42.486 57.8373C41.8283 58.3086 41.1065 58.6833 40.3425 58.9498C39.0726 59.4679 37.7546 60.0073 36.7225 61.4641L36.2536 62.1308L36.1883 61.3191C36.0283 59.2922 37.0782 54.9558 40.2265 54.1057C41.5671 53.737 42.6633 54.0802 43.1363 55.0088C43.3178 55.4018 43.3882 55.8369 43.34 56.2671C43.2918 56.6973 43.1268 57.1061 42.8629 57.4492ZM36.7778 60.4328C37.8054 59.3269 39.0188 58.8343 40.11 58.3907C40.8192 58.1468 41.4896 57.8021 42.1006 57.3672C42.4031 57.1182 42.6159 56.7772 42.7066 56.396C42.7974 56.0148 42.761 55.6144 42.6031 55.2559C42.26 54.5856 41.447 54.3696 40.371 54.6555C37.9155 55.3332 36.9364 58.5285 36.7778 60.4328Z" fill="#FFC946"/>
<path d="M40.3893 58.8505C38.6158 58.6642 36.2582 60.958 36.2547 60.9533C36.2513 60.9486 36.6177 58.7251 36.66 58.5859C37.1394 56.9717 38.9613 54.7343 40.7204 54.037C41.0358 54.3191 41.3476 54.1726 41.6334 54.2858C41.9191 54.399 42.3561 54.3904 42.5645 54.6107C42.7729 54.8309 42.9296 55.0943 43.0246 55.3835C43.1195 55.6728 43.1506 55.9816 43.1158 56.2898C43.0024 57.5847 41.4491 58.13 40.3893 58.8505Z" fill="#FFC946"/>
<path d="M40.8061 56.0439C40.7815 56.0775 40.7523 56.1066 40.7218 56.1279C38.9195 57.3663 36.8019 60.3505 36.3542 61.936C36.3475 61.9599 36.337 61.9846 36.3234 62.0086C36.3099 62.0325 36.2934 62.0553 36.275 62.0756C36.2565 62.0959 36.2365 62.1134 36.2161 62.127C36.1956 62.1406 36.1751 62.15 36.1558 62.1548C36.1364 62.1596 36.1186 62.1596 36.1032 62.1549C36.0879 62.1501 36.0754 62.1407 36.0664 62.1272C36.0575 62.1136 36.0522 62.0962 36.051 62.0759C36.0497 62.0556 36.0526 62.0328 36.0592 62.0089C36.5774 60.1636 38.931 57.0204 40.6979 55.8232C40.7388 55.7963 40.7789 55.7862 40.81 55.7948C40.8411 55.8035 40.8608 55.8304 40.8649 55.8698C40.8672 55.8948 40.863 55.9238 40.8528 55.9542C40.8425 55.9846 40.8264 56.0155 40.8061 56.0439Z" fill="#8F7637"/>
<path d="M43.7238 62.0263C43.6422 62.1878 43.542 62.3392 43.4252 62.4775C42.8662 63.0624 42.2262 63.5643 41.5248 63.9676C40.3727 64.7119 39.1774 65.4859 38.4328 67.1086L38.0955 67.8506L37.881 67.065C37.3486 65.1028 37.5775 60.647 40.514 59.2287C41.7631 58.6182 42.9039 58.7525 43.5406 59.5774C43.7917 59.93 43.9415 60.3446 43.9738 60.7763C44.0061 61.208 43.9196 61.6402 43.7238 62.0263ZM38.2963 66.0849C39.1014 64.8079 40.2026 64.0991 41.1927 63.4612C41.8445 63.0902 42.4395 62.6274 42.9594 62.0869C43.2106 61.7862 43.3566 61.4116 43.3752 61.0202C43.3938 60.6289 43.2839 60.2421 43.0624 59.919C42.6012 59.3238 41.7622 59.2621 40.7577 59.7423C38.4702 60.8628 38.0996 64.1842 38.2963 66.0849Z" fill="#FFC946"/>
<path d="M41.5533 63.8612C39.7759 64.0065 37.8837 66.6971 37.8794 66.6931C37.8752 66.6892 37.8236 64.4362 37.8394 64.2916C38.0117 62.6165 39.3879 60.0805 40.9875 59.0696C41.3497 59.2884 41.6289 59.0867 41.9307 59.1451C42.2325 59.2034 42.6603 59.114 42.9059 59.2919C43.1514 59.4698 43.3542 59.6996 43.5011 59.9663C43.648 60.233 43.7357 60.5306 43.7585 60.84C43.8868 62.1335 42.4613 62.9569 41.5533 63.8612Z" fill="#FFC946"/>
<path d="M41.4411 61.0261C41.4232 61.0637 41.3999 61.0977 41.3739 61.1243C39.832 62.6749 38.3035 65.9996 38.157 67.6405C38.1549 67.6653 38.1492 67.6915 38.1403 67.7176C38.1314 67.7436 38.1194 67.7691 38.1051 67.7924C38.0907 67.8158 38.0743 67.8367 38.0567 67.8538C38.0391 67.871 38.0207 67.884 38.0026 67.8923C37.9844 67.9006 37.9669 67.9039 37.951 67.9021C37.935 67.9003 37.921 67.8934 37.9097 67.8817C37.8983 67.87 37.89 67.8539 37.885 67.8342C37.88 67.8144 37.8786 67.7915 37.8807 67.7668C38.0483 65.8574 39.7792 62.3328 41.2939 60.8293C41.3292 60.7953 41.3668 60.7778 41.3989 60.7806C41.4311 60.7834 41.4554 60.8061 41.4667 60.8442C41.4736 60.8682 41.4749 60.8975 41.4704 60.9293C41.4659 60.9611 41.4559 60.9944 41.4411 61.0261Z" fill="#8F7637"/>
<path d="M32.4051 28.8819C32.4595 29.0545 32.5339 29.2201 32.6269 29.3754C33.0842 30.0429 33.6348 30.6414 34.262 31.1527C35.2788 32.0731 36.3336 33.0299 36.8066 34.7514L37.0197 35.5382L37.3581 34.7974C38.2002 32.9469 38.6934 28.5125 36.0242 26.639C34.89 25.8349 33.7424 25.7834 32.9809 26.4947C32.6763 26.8022 32.4615 27.1872 32.36 27.608C32.2585 28.0288 32.2741 28.4693 32.4051 28.8819ZM37.1065 33.7632C36.518 32.373 35.5456 31.4958 34.6714 30.7065C34.088 30.2352 33.5755 29.6824 33.1496 29.0651C32.9502 28.7278 32.8666 28.3346 32.9114 27.9453C32.9562 27.5561 33.127 27.1921 33.3978 26.909C33.949 26.396 34.7869 26.4705 35.7008 27.1065C37.7775 28.5815 37.6073 31.9191 37.1065 33.7632Z" fill="#FFC946"/>
<path d="M34.2513 31.043C35.9819 31.4732 37.4152 34.4339 37.42 34.4307C37.4248 34.4275 37.8392 32.2124 37.8471 32.0671C37.9473 30.3862 36.9984 27.6614 35.5829 26.4055C35.1901 26.5631 34.9471 26.3189 34.6398 26.3278C34.3326 26.3367 33.9248 26.1794 33.6537 26.3154C33.3827 26.4513 33.1455 26.6453 32.9575 26.8848C32.7695 27.1243 32.6349 27.404 32.5625 27.7056C32.2271 28.9614 33.5011 30.0041 34.2513 31.043Z" fill="#FFC946"/>
<path d="M34.8181 28.263C34.8297 28.3031 34.8472 28.3404 34.8687 28.3708C36.1401 30.1499 37.112 33.6777 36.9918 35.3208C36.9899 35.3456 36.9913 35.3723 36.9959 35.3995C37.0005 35.4266 37.0082 35.4537 37.0186 35.4791C37.029 35.5045 37.0418 35.5277 37.0564 35.5474C37.071 35.5672 37.087 35.5831 37.1036 35.5942C37.1202 35.6053 37.1369 35.6114 37.153 35.6122C37.169 35.6129 37.184 35.6084 37.197 35.5987C37.2101 35.589 37.221 35.5744 37.229 35.5558C37.2371 35.5371 37.2423 35.5147 37.2441 35.4899C37.3868 33.5786 36.2474 29.8209 34.9951 28.0926C34.9659 28.0533 34.9316 28.0301 34.8994 28.0276C34.8672 28.0251 34.8395 28.0437 34.8222 28.0794C34.8115 28.102 34.8056 28.1307 34.8048 28.1628C34.8041 28.1949 34.8087 28.2294 34.8181 28.263Z" fill="#8F7637"/>
<path d="M30.1336 33.3631C30.2081 33.528 30.3016 33.6836 30.4123 33.8268C30.9456 34.4353 31.5634 34.9643 32.2468 35.3975C33.3656 36.1907 34.5265 37.0157 35.2004 38.6689L35.5054 39.4248L35.7535 38.6492C36.3701 36.7118 36.3336 32.2502 33.461 30.7066C32.2394 30.0428 31.0938 30.1278 30.4221 30.9245C30.1561 31.2659 29.9885 31.6737 29.9377 32.1036C29.8868 32.5334 29.9545 32.969 30.1336 33.3631ZM35.3809 37.6521C34.6317 36.3415 33.5621 35.5859 32.6003 34.9059C31.9652 34.5072 31.3907 34.0191 30.8946 33.4567C30.6566 33.1454 30.5268 32.7649 30.5251 32.3731C30.5235 31.9813 30.6499 31.5996 30.8852 31.2863C31.3717 30.7116 32.2125 30.6861 33.1953 31.2092C35.4324 32.4274 35.6594 35.7616 35.3809 37.6521Z" fill="#FFC946"/>
<path d="M32.2224 35.2899C33.9919 35.5118 35.7663 38.2815 35.7707 38.2777C35.7751 38.2739 35.9238 36.0253 35.9143 35.8802C35.8144 34.1992 34.5488 31.6062 32.9943 30.5272C32.623 30.7302 32.3527 30.5166 32.0487 30.5619C31.7447 30.6072 31.3211 30.4995 31.0681 30.6666C30.8152 30.8338 30.6026 31.0545 30.4444 31.3147C30.2861 31.5748 30.1857 31.8684 30.1495 32.1765C29.9656 33.4632 31.3543 34.3474 32.2224 35.2899Z" fill="#FFC946"/>
<path d="M32.4554 32.4623C32.4716 32.5007 32.4934 32.5356 32.5183 32.5633C33.9919 34.179 35.3756 37.5665 35.4511 39.2122C35.4522 39.2371 35.4568 39.2635 35.4645 39.2899C35.4723 39.3163 35.4832 39.3423 35.4965 39.3662C35.5098 39.3902 35.5253 39.4118 35.5422 39.4296C35.559 39.4475 35.5768 39.4614 35.5946 39.4704C35.6123 39.4795 35.6297 39.4836 35.6457 39.4825C35.6617 39.4813 35.6761 39.475 35.6879 39.4638C35.6997 39.4527 35.7088 39.4369 35.7146 39.4174C35.7204 39.3979 35.7228 39.3751 35.7218 39.3503C35.6366 37.4355 34.0593 33.8395 32.6109 32.272C32.5772 32.2365 32.5404 32.2175 32.5081 32.2189C32.4758 32.2202 32.4506 32.2419 32.4376 32.2794C32.4297 32.3032 32.4272 32.3324 32.4303 32.3644C32.4334 32.3963 32.442 32.43 32.4554 32.4623Z" fill="#8F7637"/>
<path d="M28.5223 38.2588C28.6058 38.4193 28.7079 38.5695 28.8263 38.7063C29.3925 39.2843 30.0387 39.7782 30.745 40.1729C31.9062 40.9029 33.111 41.6622 33.8755 43.2755L34.2219 44.0133L34.4267 43.2251C34.9349 41.2565 34.6511 36.8038 31.6974 35.4219C30.4408 34.8268 29.3017 34.9752 28.6752 35.8079C28.4285 36.1636 28.2838 36.58 28.2568 37.012C28.2299 37.444 28.3217 37.8752 28.5223 38.2588ZM33.9994 42.2502C33.1786 40.9832 32.0687 40.2881 31.0708 39.6624C30.4145 39.2995 29.8138 38.844 29.2873 38.31C29.0324 38.0124 28.8818 37.6397 28.8584 37.2485C28.835 36.8574 28.9401 36.4694 29.1576 36.1435C29.6115 35.5427 30.4496 35.4707 31.4599 35.9384C33.7611 37.0307 34.1726 40.3472 33.9994 42.2502Z" fill="#FFC946"/>
<path d="M30.7151 40.0668C32.4941 40.1901 34.4193 42.8572 34.4235 42.8532C34.4277 42.8492 34.4515 40.5958 34.434 40.4514C34.241 38.7786 32.8337 36.2597 31.2217 35.2686C30.8623 35.4918 30.5806 35.2936 30.2795 35.3557C29.9785 35.4177 29.5496 35.3336 29.3062 35.5145C29.0629 35.6954 28.863 35.9277 28.7194 36.1962C28.5758 36.4646 28.4918 36.7634 28.4728 37.073C28.3604 38.368 29.796 39.1737 30.7151 40.0668Z" fill="#FFC946"/>
<path d="M30.7917 37.2305C30.81 37.268 30.8337 37.3017 30.8601 37.3279C32.421 38.8594 33.9903 42.165 34.157 43.804C34.1595 43.8288 34.1655 43.8549 34.1747 43.8808C34.184 43.9068 34.1962 43.9321 34.2109 43.9553C34.2255 43.9785 34.2422 43.9991 34.26 44.016C34.2778 44.033 34.2963 44.0458 34.3146 44.0539C34.3328 44.0619 34.3504 44.0651 34.3663 44.063C34.3822 44.061 34.3962 44.0539 34.4074 44.0421C34.4185 44.0303 34.4267 44.014 34.4314 43.9943C34.4362 43.9745 34.4373 43.9516 34.4349 43.9268C34.2438 42.0197 32.4695 38.5167 30.9364 37.032C30.9008 36.9984 30.863 36.9814 30.8308 36.9846C30.7987 36.9877 30.7747 37.0108 30.7638 37.049C30.7572 37.0731 30.7563 37.1024 30.7612 37.1342C30.766 37.1659 30.7765 37.199 30.7917 37.2305Z" fill="#8F7637"/>
<path d="M27.62 43.7475C27.7215 43.8974 27.8402 44.0348 27.9736 44.157C28.6026 44.6661 29.3013 45.0823 30.0484 45.393C31.2858 45.9844 32.57 46.6 33.5152 48.1146L33.9443 48.8076L34.0569 48.0011C34.3351 45.9871 33.5406 41.5967 30.4474 40.564C29.1307 40.1175 28.0162 40.396 27.4898 41.2953C27.2856 41.6771 27.1899 42.1074 27.2128 42.5396C27.2358 42.9719 27.3766 43.3896 27.62 43.7475ZM33.5202 47.0818C32.5591 45.9178 31.3766 45.355 30.3132 44.8484C29.6195 44.5635 28.9704 44.1802 28.3859 43.7103C28.0984 43.4441 27.9059 43.0911 27.8376 42.7053C27.7693 42.3195 27.829 41.9219 28.0076 41.5732C28.3893 40.9241 29.2135 40.7561 30.271 41.1044C32.6826 41.9245 33.4732 45.1716 33.5202 47.0818Z" fill="#FFC946"/>
<path d="M30.0072 45.291C31.7886 45.2088 34.0081 47.6365 34.0119 47.632C34.0156 47.6275 33.7797 45.3863 33.7457 45.2449C33.3614 43.6055 31.6734 41.2654 29.9581 40.4664C29.6268 40.7296 29.3241 40.5651 29.0322 40.6614C28.7403 40.7577 28.3046 40.7235 28.0837 40.9313C27.8628 41.139 27.6909 41.3927 27.5792 41.6759C27.4675 41.9592 27.4184 42.2656 27.4352 42.5754C27.4727 43.8747 28.9914 44.5098 30.0072 45.291Z" fill="#FFC946"/>
<path d="M29.756 42.4649C29.7786 42.5 29.806 42.5307 29.8352 42.5537C31.5621 43.8954 33.5015 46.9983 33.8558 48.6072C33.8611 48.6315 33.8701 48.6567 33.8823 48.6815C33.8944 48.7062 33.9095 48.7299 33.9267 48.7512C33.9439 48.7726 33.9629 48.7912 33.9825 48.806C34.0021 48.8207 34.022 48.8314 34.0411 48.8373C34.0601 48.8432 34.078 48.8442 34.0935 48.8404C34.1091 48.8366 34.1222 48.8279 34.1319 48.8149C34.1416 48.8019 34.1479 48.7848 34.1503 48.7646C34.1527 48.7444 34.1513 48.7215 34.146 48.6972C33.7366 46.8248 31.5708 43.5494 29.8769 42.251C29.8377 42.2217 29.7982 42.2092 29.7666 42.2161C29.735 42.2229 29.7139 42.2486 29.7075 42.2877C29.7037 42.3125 29.7062 42.3417 29.7146 42.3727C29.7231 42.4036 29.7374 42.4354 29.756 42.4649Z" fill="#8F7637"/>
<path d="M27.1021 48.8936C27.2292 49.0223 27.371 49.1357 27.5246 49.2315C28.2361 49.6168 28.9991 49.8982 29.7905 50.067C31.1152 50.422 32.4904 50.7922 33.6968 52.1083L34.2454 52.7111L34.2086 51.8976C34.1136 49.8666 32.5291 45.6957 29.2992 45.2465C27.923 45.0484 26.8783 45.5262 26.5253 46.5066C26.3945 46.9192 26.379 47.3598 26.4807 47.7806C26.5824 48.2013 26.7973 48.5862 27.1021 48.8936ZM33.5127 51.092C32.3548 50.1235 31.0893 49.7866 29.9512 49.4831C29.2171 49.3299 28.5088 49.0719 27.8481 48.7169C27.5168 48.5077 27.263 48.196 27.1252 47.8292C26.9875 47.4623 26.9735 47.0606 27.0853 46.685C27.3417 45.9771 28.1213 45.6611 29.2246 45.81C31.7456 46.175 33.117 49.2226 33.5127 51.092Z" fill="#FFC946"/>
<path d="M29.7307 49.9743C31.467 49.5675 34.0932 51.5482 34.096 51.5431C34.0989 51.538 33.4569 49.3778 33.3976 49.245C32.7199 47.7035 30.6322 45.7118 28.7997 45.2402C28.522 45.5595 28.1944 45.4532 27.9251 45.6013C27.6557 45.7494 27.2211 45.7955 27.0419 46.0401C26.8628 46.2848 26.7402 46.5656 26.6822 46.8645C26.6242 47.1634 26.632 47.4737 26.7052 47.7751C26.9798 49.0456 28.5891 49.3921 29.7307 49.9743Z" fill="#FFC946"/>
<path d="M28.9668 47.2418C28.9954 47.2722 29.028 47.2974 29.0609 47.3147C31.0041 48.3177 33.4786 51.0134 34.1212 52.5303C34.1309 52.5532 34.1443 52.5764 34.1608 52.5985C34.1773 52.6206 34.1965 52.6411 34.2173 52.659C34.2381 52.6768 34.2602 52.6916 34.2822 52.7026C34.3041 52.7135 34.3257 52.7203 34.3455 52.7226C34.3653 52.7249 34.383 52.7227 34.3976 52.7161C34.4122 52.7095 34.4235 52.6986 34.4307 52.684C34.4379 52.6694 34.4409 52.6515 34.4396 52.6312C34.4382 52.6109 34.4326 52.5886 34.423 52.5657C33.6779 50.7998 30.9494 47.9759 29.0465 47.0094C29.0026 46.9878 28.9614 46.9828 28.9317 46.9953C28.9019 47.0078 28.8858 47.0369 28.8866 47.0765C28.8875 47.1016 28.8952 47.1298 28.9092 47.1587C28.9233 47.1876 28.9431 47.2162 28.9668 47.2418Z" fill="#8F7637"/>
<path d="M27.4735 54.3339C27.6083 54.4547 27.7567 54.5592 27.9158 54.6455C28.6494 54.9868 29.4282 55.2212 30.2284 55.3415C31.5723 55.6153 32.9674 55.9011 34.2517 57.1413L34.8359 57.7097L34.7497 56.8999C34.5313 54.8785 32.6959 50.8117 29.4446 50.5598C28.059 50.4459 27.0453 50.9864 26.7526 51.9865C26.6471 52.4063 26.6585 52.847 26.7856 53.2608C26.9127 53.6746 27.1506 54.0457 27.4735 54.3339ZM34.0061 56.1382C32.7914 55.2419 31.5077 54.9827 30.3533 54.749C29.6112 54.6408 28.8885 54.4263 28.2075 54.1121C27.864 53.9235 27.5917 53.6278 27.4319 53.2701C27.2721 52.9123 27.2337 52.5121 27.3224 52.1305C27.5353 51.4082 28.2942 51.0454 29.4045 51.1269C31.943 51.3378 33.4973 54.2963 34.0061 56.1382Z" fill="#FFC946"/>
<path d="M30.163 55.2527C31.8713 54.741 34.6132 56.5582 34.6158 56.5529C34.6183 56.5477 33.8461 54.4305 33.7788 54.3016C33.0085 52.8042 30.8035 50.9432 28.9456 50.584C28.688 50.9197 28.3544 50.8334 28.0946 50.9977C27.8348 51.1619 27.4037 51.2344 27.2398 51.4895C27.0759 51.7446 26.9706 52.0324 26.9309 52.3342C26.8912 52.6361 26.9179 52.9453 27.0093 53.2417C27.3607 54.4932 28.9881 54.7411 30.163 55.2527Z" fill="#FFC946"/>
<path d="M29.2333 52.5718C29.2636 52.6003 29.2977 52.6235 29.3316 52.6387C31.3322 53.5217 33.9662 56.0617 34.7 57.5368C34.711 57.5591 34.7258 57.5814 34.7436 57.6024C34.7614 57.6234 34.7818 57.6428 34.8037 57.6593C34.8256 57.6759 34.8485 57.6893 34.8711 57.6989C34.8937 57.7084 34.9156 57.7139 34.9355 57.7151C34.9554 57.7162 34.973 57.7129 34.9871 57.7054C35.0013 57.6979 35.0119 57.6863 35.0182 57.6713C35.0245 57.6563 35.0264 57.6382 35.0238 57.6181C35.0213 57.5979 35.0143 57.576 35.0033 57.5537C34.1521 55.8365 31.2568 53.1839 29.2987 52.3349C29.2535 52.316 29.2122 52.3135 29.1832 52.3278C29.1542 52.3421 29.1399 52.3721 29.1432 52.4117C29.1455 52.4366 29.155 52.4643 29.1708 52.4923C29.1865 52.5203 29.208 52.5476 29.2333 52.5718Z" fill="#8F7637"/>
<path d="M28.5295 60.2448C28.6768 60.3499 28.8359 60.4374 29.0035 60.5055C29.7704 60.7636 30.5703 60.9104 31.3789 60.9415C32.7449 61.0649 34.163 61.1946 35.5766 62.2851L36.2201 62.7853L36.0448 61.99C35.6042 60.0052 33.3302 56.1665 30.071 56.2758C28.6812 56.3159 27.7335 56.9652 27.5533 57.9915C27.4949 58.4204 27.555 58.8571 27.7271 59.2543C27.8991 59.6515 28.1766 59.9941 28.5295 60.2448ZM35.2216 61.3153C33.9152 60.5589 32.6107 60.4433 31.4375 60.3387C30.6879 60.3133 29.946 60.18 29.2344 59.9432C28.8722 59.7937 28.5688 59.53 28.3704 59.1921C28.172 58.8542 28.0895 58.4607 28.1355 58.0716C28.2672 57.3302 28.9813 56.8856 30.0939 56.8438C32.6401 56.7726 34.5122 59.541 35.2216 61.3153Z" fill="#FFC946"/>
<path d="M31.3036 60.8604C32.9448 60.1629 35.8709 61.6655 35.8728 61.66C35.8748 61.6545 34.8731 59.6358 34.792 59.5151C33.8607 58.1121 31.4634 56.5065 29.5772 56.355C29.3582 56.7171 29.0172 56.6683 28.7772 56.8603C28.5371 57.0523 28.1167 57.172 27.982 57.4436C27.8473 57.7153 27.7746 58.013 27.7685 58.3174C27.7624 58.6218 27.8231 58.9261 27.9467 59.2106C28.4344 60.4155 30.0793 60.4819 31.3036 60.8604Z" fill="#FFC946"/>
<path d="M30.0842 58.2987C30.1176 58.3237 30.154 58.3429 30.1894 58.3543C32.2754 59.0105 35.1742 61.2436 36.0667 62.6284C36.0801 62.6493 36.0973 62.6699 36.1173 62.6888C36.1373 62.7077 36.1597 62.7247 36.1833 62.7387C36.2069 62.7528 36.2311 62.7636 36.2546 62.7706C36.2782 62.7776 36.3005 62.7806 36.3205 62.7795C36.3404 62.7785 36.3574 62.7732 36.3707 62.7642C36.384 62.7552 36.3932 62.7425 36.3978 62.7269C36.4024 62.7113 36.4023 62.6931 36.3975 62.6734C36.3928 62.6536 36.3834 62.6327 36.37 62.6117C35.334 60.9991 32.1631 58.6831 30.1231 58.056C30.0761 58.0423 30.0347 58.0443 30.0075 58.0617C29.9803 58.0791 29.9694 58.1106 29.977 58.1495C29.9821 58.174 29.9946 58.2005 30.0133 58.2266C30.0321 58.2527 30.0564 58.2775 30.0842 58.2987Z" fill="#8F7637"/>
<path d="M29.6928 65.3887C29.8488 65.4805 30.0149 65.5537 30.1879 65.6069C30.9745 65.7967 31.7842 65.8728 32.5923 65.8329C33.9639 65.8361 35.388 65.8411 36.8916 66.8035L37.5766 67.2454L37.3322 66.4685C36.7193 64.53 34.1176 60.9053 30.8805 61.2999C29.4996 61.4616 28.6125 62.1914 28.5229 63.2296C28.5023 63.662 28.6005 64.0918 28.8067 64.4724C29.0129 64.853 29.3194 65.1698 29.6928 65.3887ZM36.453 65.8685C35.0853 65.2296 33.7757 65.2287 32.5979 65.2274C31.849 65.2677 31.0982 65.2 30.3686 65.0264C29.9947 64.9093 29.6693 64.6731 29.4421 64.354C29.2149 64.0348 29.0982 63.65 29.1099 63.2584C29.1761 62.5083 29.8485 62.0029 30.9531 61.8637C33.4833 61.5696 35.5908 64.1633 36.453 65.8685Z" fill="#FFC946"/>
<path d="M32.5111 65.7588C34.0848 64.9201 37.1313 66.1605 37.1328 66.1548C37.1342 66.1492 35.9595 64.226 35.8681 64.1129C34.8174 62.797 32.2886 61.4076 30.3964 61.422C30.21 61.8019 29.866 61.7832 29.6437 61.9955C29.4214 62.2077 29.0131 62.3638 28.9028 62.6463C28.7924 62.9287 28.746 63.2316 28.7666 63.5353C28.7873 63.8391 28.8744 64.137 29.0225 64.4096C29.6139 65.5671 31.2583 65.489 32.5111 65.7588Z" fill="#FFC946"/>
<path d="M31.0716 63.3137C31.107 63.3357 31.145 63.3517 31.1813 63.36C33.3167 63.8308 36.4001 65.8013 37.4105 67.1025C37.4257 67.1222 37.4446 67.1411 37.4662 67.1582C37.4878 67.1753 37.5116 67.1903 37.5363 67.2022C37.561 67.2141 37.5861 67.2228 37.6102 67.2277C37.6342 67.2326 37.6568 67.2336 37.6765 67.2308C37.6963 67.228 37.7128 67.2213 37.7253 67.2111C37.7377 67.201 37.7457 67.1875 37.749 67.1716C37.7522 67.1557 37.7505 67.1376 37.744 67.1183C37.7375 67.099 37.7264 67.079 37.7112 67.0593C36.5379 65.5437 33.1761 63.5145 31.089 63.0686C31.041 63.059 30.9999 63.0647 30.9744 63.0844C30.9488 63.1041 30.9407 63.1364 30.9517 63.1745C30.9589 63.1985 30.9737 63.2238 30.9946 63.2482C31.0156 63.2725 31.0421 63.295 31.0716 63.3137Z" fill="#8F7637"/>
<path d="M54.1299 12.3515C54.0125 12.351 53.8958 12.3353 53.7824 12.3049C49.8207 11.239 45.65 11.239 41.6883 12.3049C41.346 12.3971 40.9812 12.3487 40.6743 12.1705C40.3674 11.9923 40.1435 11.6987 40.0518 11.3545C39.9602 11.0103 40.0082 10.6435 40.1855 10.3349C40.3628 10.0263 40.6547 9.80115 40.997 9.70897C45.4116 8.52115 50.0591 8.52115 54.4737 9.70897C54.7876 9.79256 55.0604 9.98818 55.2413 10.2593C55.4222 10.5304 55.4987 10.8585 55.4566 11.1822C55.4144 11.5059 55.2566 11.8031 55.0124 12.0183C54.7682 12.2335 54.4545 12.3519 54.1299 12.3515Z" fill="#CD201F"/>
<path d="M56.2807 15.166C55.7709 15.171 55.2661 15.066 54.8001 14.858C54.3342 14.65 53.9181 14.3439 53.5799 13.9604C53.2417 13.5769 52.9892 13.1248 52.8396 12.6348C52.69 12.1448 52.6466 11.6283 52.7125 11.12C52.7784 10.6117 52.952 10.1235 53.2215 9.68846C53.4911 9.25339 53.8503 8.88155 54.275 8.59802C54.6997 8.3145 55.1799 8.1259 55.6833 8.04496C56.1867 7.96401 56.7015 7.99261 57.1929 8.12882C58.0216 8.35854 58.7398 8.88173 59.2151 9.60196C59.6903 10.3222 59.8907 11.1909 59.7791 12.048C59.6676 12.905 59.2517 13.6926 58.6081 14.2657C57.9646 14.8387 57.1367 15.1584 56.2771 15.166H56.2807ZM56.2807 10.6871C56.0844 10.687 55.8937 10.752 55.7379 10.872C55.5822 10.992 55.4702 11.1604 55.4194 11.351C55.3686 11.5416 55.3818 11.7437 55.457 11.926C55.5321 12.1083 55.665 12.2605 55.835 12.359C56.005 12.4575 56.2026 12.4969 56.3972 12.4709C56.5917 12.4449 56.7722 12.3551 56.9108 12.2154C57.0493 12.0756 57.1381 11.8938 57.1633 11.6981C57.1886 11.5025 57.1489 11.3039 57.0504 11.1332C56.993 11.0319 56.9162 10.943 56.8244 10.8717C56.7327 10.8003 56.6278 10.748 56.5159 10.7176C56.4366 10.6982 56.355 10.6904 56.2735 10.6943L56.2807 10.6871Z" fill="#CD201F"/>
<path d="M76.2156 22.3573C76.016 22.3577 75.8188 22.3131 75.6387 22.2265C75.4586 22.14 75.3001 22.0139 75.1751 21.8574C72.6002 18.6493 69.2319 16.178 65.4078 14.6912C65.2441 14.6276 65.0944 14.5321 64.9673 14.4103C64.8402 14.2885 64.7382 14.1427 64.6671 13.9813C64.5961 13.8198 64.5573 13.6459 64.5531 13.4693C64.5489 13.2928 64.5793 13.1172 64.6426 12.9525C64.7059 12.7879 64.8008 12.6373 64.922 12.5095C65.0431 12.3817 65.1881 12.2792 65.3487 12.2077C65.5093 12.1363 65.6822 12.0973 65.8578 12.0931C66.0333 12.0889 66.208 12.1194 66.3717 12.1831C70.6338 13.8417 74.3874 16.5979 77.2561 20.1752C77.4147 20.3724 77.5145 20.6107 77.5439 20.8626C77.5733 21.1145 77.5311 21.3696 77.4222 21.5984C77.3133 21.8271 77.1421 22.0202 76.9286 22.1551C76.715 22.2901 76.4678 22.3614 76.2156 22.3608V22.3573Z" fill="#FB6C6C"/>
<path d="M77.612 26.3327C76.7709 26.3336 75.9567 26.0353 75.3133 25.4906C74.6699 24.9459 74.2389 24.19 74.0964 23.3565C73.954 22.523 74.1093 21.6658 74.5349 20.9364C74.9605 20.2069 75.629 19.6524 76.4221 19.3709C77.2151 19.0894 78.0817 19.099 78.8684 19.398C79.6551 19.6971 80.3112 20.2663 80.7208 21.005C81.1303 21.7436 81.2667 22.6041 81.106 23.4343C80.9453 24.2644 80.4978 25.0106 79.8426 25.5408C79.2108 26.0531 78.4236 26.3326 77.612 26.3327ZM77.612 21.8628C77.4096 21.8637 77.2135 21.9338 77.0561 22.0617C76.8938 22.19 76.7809 22.371 76.7367 22.5738C76.6925 22.7766 76.7197 22.9885 76.8136 23.1733C76.9075 23.3582 77.0624 23.5045 77.2517 23.5872C77.4411 23.67 77.6531 23.684 77.8516 23.627C78.0501 23.57 78.2227 23.4454 78.34 23.2746C78.4573 23.1037 78.5119 22.8972 78.4946 22.6904C78.4772 22.4835 78.3889 22.2892 78.2449 22.1405C78.1008 21.9918 77.9098 21.8981 77.7046 21.8753C77.6728 21.8694 77.6407 21.8652 77.6084 21.8628H77.612Z" fill="#FB6C6C"/>
<path d="M88.1819 43.5387C87.8386 43.5386 87.5085 43.4058 87.2601 43.1676C87.0116 42.9295 86.8638 42.6043 86.8474 42.2595C86.6515 38.1407 85.3828 34.146 83.1682 30.6754C83.0732 30.527 83.0082 30.3611 82.9769 30.1874C82.9457 30.0137 82.9487 29.8355 82.986 29.663C83.0232 29.4905 83.0938 29.327 83.1939 29.182C83.2939 29.0369 83.4214 28.9131 83.5691 28.8176C83.7167 28.7221 83.8816 28.6567 84.0544 28.6253C84.2271 28.5938 84.4043 28.5969 84.5759 28.6344C84.7475 28.6718 84.91 28.7428 85.0543 28.8434C85.1985 28.944 85.3217 29.0722 85.4167 29.2207C87.884 33.0879 89.2972 37.5393 89.5146 42.1288C89.5232 42.305 89.4972 42.4813 89.438 42.6474C89.3787 42.8135 89.2875 42.9663 89.1695 43.0969C89.0515 43.2276 88.9091 43.3335 88.7503 43.4087C88.5915 43.4839 88.4195 43.5269 88.2442 43.5351L88.1819 43.5387Z" fill="#CD201F"/>
<path d="M88.2852 48.0068C87.3316 47.9833 86.4256 47.5828 85.7637 46.8922C85.1017 46.2015 84.7371 45.2764 84.7488 44.3173C84.7605 43.3582 85.1477 42.4424 85.8263 41.7684C86.5049 41.0943 87.4204 40.7163 88.3743 40.7163C89.3282 40.7163 90.2436 41.0943 90.9223 41.7684C91.6009 42.4424 91.988 43.3582 91.9997 44.3173C92.0115 45.2764 91.6468 46.2015 90.9849 46.8922C90.3229 47.5828 89.417 47.9833 88.4634 48.0068H88.2852ZM88.246 43.528C88.0112 43.54 87.7907 43.6449 87.6325 43.8198C87.4744 43.9946 87.3913 44.2252 87.4015 44.4614C87.4139 44.6971 87.5184 44.9184 87.6923 45.0771C87.8661 45.2357 88.0952 45.319 88.3297 45.3088C88.5639 45.2962 88.7836 45.1914 88.9414 45.017C89.0992 44.8426 89.1822 44.6127 89.1725 44.3772C89.1605 44.1414 89.0564 43.92 88.8829 43.761C88.7094 43.6019 88.4805 43.5182 88.246 43.528Z" fill="#CD201F"/>
<path d="M85.4215 67.7389C85.1801 67.7388 84.9432 67.6729 84.736 67.5482C84.5288 67.4236 84.3591 67.2448 84.2449 67.0309C84.1307 66.817 84.0762 66.576 84.0874 66.3335C84.0985 66.0909 84.1747 65.856 84.308 65.6536C86.5647 62.2132 87.8826 58.237 88.1297 54.1232C88.1401 53.9467 88.185 53.7741 88.2618 53.615C88.3385 53.456 88.4457 53.3138 88.5771 53.1964C88.7086 53.079 88.8617 52.9889 89.0278 52.931C89.194 52.8732 89.3698 52.8488 89.5452 52.8592C89.7207 52.8697 89.8924 52.9148 90.0506 52.992C90.2087 53.0692 90.3502 53.177 90.4669 53.3092C90.5836 53.4413 90.6733 53.5953 90.7309 53.7624C90.7884 53.9294 90.8126 54.1062 90.8022 54.2826C90.528 58.8698 89.0596 63.3039 86.544 67.1405C86.4206 67.3258 86.2535 67.4774 86.0577 67.5818C85.8618 67.6862 85.6432 67.7402 85.4215 67.7389Z" fill="#FB6C6C"/>
<path d="M84.1922 71.8398C83.6352 71.8424 83.0853 71.7138 82.5867 71.4641C82.0881 71.2144 81.6547 70.8507 81.3212 70.4021C80.9877 69.9535 80.7634 69.4326 80.6663 68.8811C80.5693 68.3296 80.6021 67.7628 80.7623 67.2264C80.9225 66.69 81.2055 66.1988 81.5886 65.7922C81.9717 65.3857 82.4442 65.0751 82.9683 64.8854C83.4924 64.6957 84.0534 64.6322 84.6063 64.6999C85.1592 64.7677 85.6886 64.9648 86.152 65.2755C86.7871 65.7013 87.2694 66.3209 87.528 67.0431C87.7865 67.7653 87.8076 68.5519 87.5881 69.287C87.3686 70.0221 86.9202 70.6669 86.3088 71.1265C85.6974 71.5861 84.9555 71.8361 84.1922 71.8398ZM84.1922 67.3698C83.9781 67.3693 83.771 67.4462 83.6088 67.5865C83.4465 67.7269 83.3399 67.9213 83.3085 68.1342C83.2771 68.3471 83.323 68.5642 83.4377 68.7459C83.5525 68.9276 83.7285 69.0616 83.9335 69.1235C84.1384 69.1854 84.3587 69.1711 84.5541 69.083C84.7494 68.995 84.9067 68.8392 84.9971 68.6442C85.0876 68.4491 85.1051 68.2278 85.0466 68.0208C84.9882 67.8138 84.8575 67.6349 84.6786 67.5168C84.5361 67.4227 84.3697 67.3717 84.1993 67.3698H84.1922Z" fill="#FB6C6C"/>
<path d="M68.9996 85.6543C68.6861 85.6546 68.3825 85.5441 68.1419 85.342C67.9013 85.14 67.7389 84.8593 67.6833 84.5491C67.6277 84.2389 67.6823 83.9189 67.8376 83.6451C67.9929 83.3713 68.2389 83.1611 68.5328 83.0512C72.3791 81.6102 75.7803 79.1763 78.3944 75.9943C78.6203 75.7195 78.9455 75.5461 79.2985 75.5123C79.6515 75.4785 80.0034 75.5872 80.2768 75.8143C80.5502 76.0414 80.7226 76.3684 80.7562 76.7234C80.7898 77.0783 80.6817 77.4322 80.4559 77.7071C77.543 81.2482 73.7557 83.9573 69.4735 85.563C69.3224 85.6223 69.1618 85.6532 68.9996 85.6543Z" fill="#CD201F"/>
<path d="M66.921 88.6623C66.2701 88.6638 65.6312 88.486 65.0737 88.1481C64.5161 87.8102 64.0613 87.3253 63.7585 86.7459C63.4558 86.1664 63.3166 85.5147 63.3562 84.8614C63.3958 84.208 63.6126 83.5781 63.9831 83.0399C64.3536 82.5017 64.8636 82.0759 65.4578 81.8086C66.052 81.5413 66.7076 81.4427 67.3536 81.5237C67.9995 81.6046 68.6111 81.8619 69.1219 82.2676C69.6326 82.6734 70.0232 83.212 70.251 83.8252C70.5792 84.7145 70.5434 85.6984 70.1513 86.5612C69.7592 87.4239 69.0428 88.0952 68.1593 88.4277C67.7639 88.5802 67.3445 88.6597 66.921 88.6623ZM66.921 84.1835C66.731 84.1827 66.5457 84.2431 66.3922 84.3557C66.2388 84.4683 66.1251 84.6274 66.0679 84.8096C66.0107 84.9918 66.013 85.1876 66.0743 85.3684C66.1356 85.5493 66.2529 85.7056 66.4089 85.8147C66.5649 85.9238 66.7515 85.9798 66.9415 85.9747C67.1314 85.9695 67.3147 85.9035 67.4647 85.7861C67.6146 85.6687 67.7233 85.5062 67.7749 85.3223C67.8264 85.1384 67.8182 84.9428 67.7513 84.7639C67.6877 84.594 67.5743 84.4474 67.426 84.3438C67.2777 84.2401 67.1016 84.1842 66.921 84.1835Z" fill="#CD201F"/>
<path d="M51.9206 91.2959C49.5368 91.2946 47.1645 90.9636 44.8704 90.3124C44.5304 90.2149 44.2426 89.9859 44.0701 89.6756C43.8977 89.3652 43.8546 88.9987 43.9503 88.6565C44.046 88.3142 44.2727 88.024 44.5807 87.8495C44.8888 87.675 45.2531 87.6303 45.5938 87.7254C49.5422 88.8412 53.713 88.8937 57.6879 87.8776C57.8598 87.8283 58.0398 87.8141 58.2172 87.8359C58.3946 87.8577 58.5659 87.915 58.7208 88.0046C58.8758 88.0941 59.0114 88.214 59.1194 88.3572C59.2275 88.5003 59.3059 88.6638 59.35 88.838C59.3941 89.0122 59.403 89.1935 59.3762 89.3712C59.3494 89.5489 59.2874 89.7194 59.1939 89.8725C59.1004 90.0257 58.9773 90.1585 58.8318 90.2629C58.6864 90.3674 58.5216 90.4415 58.3472 90.4808C56.247 91.0202 54.0882 91.2941 51.9206 91.2959Z" fill="#FB6C6C"/>
<path d="M43.0976 92C42.5471 92.0002 42.004 91.8722 41.511 91.6259C41.0179 91.3797 40.5883 91.0219 40.2559 90.5807C39.9234 90.1395 39.6972 89.6269 39.5948 89.083C39.4925 88.5391 39.5169 87.9787 39.6661 87.4459C39.7734 86.9724 39.9753 86.5259 40.2595 86.1334C40.5438 85.7408 40.9044 85.4104 41.3195 85.1623C41.7346 84.9142 42.1955 84.7535 42.6743 84.69C43.153 84.6265 43.6396 84.6615 44.1045 84.7929C44.5694 84.9243 45.0029 85.1493 45.3786 85.4543C45.7543 85.7593 46.0645 86.138 46.2903 86.5672C46.516 86.9964 46.6527 87.4673 46.6919 87.9513C46.7311 88.4353 46.6721 88.9222 46.5184 89.3825C46.3084 90.1328 45.8607 90.7937 45.2434 91.2651C44.6261 91.7365 43.8727 91.9926 43.0976 91.9946V92ZM43.0976 87.5211C42.9602 87.5187 42.8241 87.5484 42.6999 87.6077C42.5758 87.667 42.467 87.7543 42.382 87.863C42.2971 87.9716 42.2383 88.0985 42.2102 88.2338C42.1821 88.3691 42.1855 88.509 42.2202 88.6428C42.2549 88.7765 42.3199 88.9003 42.4101 89.0046C42.5002 89.1089 42.6132 89.1907 42.7401 89.2438C42.867 89.2969 43.0044 89.3197 43.1415 89.3105C43.2786 89.3014 43.4118 89.2604 43.5305 89.1908C43.6323 89.1336 43.7216 89.0566 43.7935 88.9643C43.8654 88.8721 43.9183 88.7664 43.9492 88.6534C44.0114 88.4261 43.9818 88.1833 43.8671 87.9777C43.7524 87.7721 43.5617 87.6203 43.3363 87.5552C43.2573 87.5347 43.1757 87.5256 43.094 87.5283L43.0976 87.5211Z" fill="#FB6C6C"/>
<path d="M33.4955 87.8042C33.3251 87.8046 33.1563 87.7717 32.9984 87.7075C28.7571 85.9963 25.0379 83.1938 22.2138 79.581C21.9948 79.3007 21.8955 78.9443 21.9378 78.5904C21.98 78.2364 22.1604 77.9139 22.4392 77.6936C22.718 77.4734 23.0724 77.3736 23.4244 77.4161C23.7764 77.4586 24.0972 77.6399 24.3162 77.9203C26.8501 81.1623 30.1871 83.6775 33.9926 85.2136C34.2806 85.3299 34.5193 85.5433 34.6679 85.8173C34.8165 86.0913 34.8656 86.4087 34.8068 86.7151C34.748 87.0215 34.585 87.2978 34.3457 87.4965C34.1064 87.6952 33.8058 87.804 33.4955 87.8042Z" fill="#CD201F"/>
<path d="M21.9046 80.5646C21.7605 80.5642 21.6166 80.5558 21.4734 80.5395C20.5536 80.4294 19.7125 79.9635 19.1284 79.2405C18.5444 78.5174 18.2634 77.5941 18.3449 76.6662C18.4264 75.7383 18.8641 74.8789 19.5651 74.27C20.2661 73.6611 21.1754 73.3506 22.1002 73.4044C23.0251 73.4582 23.8927 73.872 24.5192 74.5581C25.1458 75.2443 25.4819 76.1488 25.4565 77.0799C25.431 78.011 25.046 78.8956 24.3829 79.5461C23.7199 80.1966 22.831 80.5619 21.9046 80.5646ZM21.9046 76.0947C21.7067 76.0937 21.5143 76.1607 21.3594 76.2846C21.196 76.4111 21.0813 76.5908 21.0349 76.7929C20.9885 76.9951 21.0134 77.2071 21.1051 77.3929C21.1969 77.5786 21.35 77.7266 21.5382 77.8115C21.7264 77.8965 21.9381 77.9131 22.1371 77.8586C22.3362 77.804 22.5102 77.6817 22.6296 77.5125C22.7489 77.3433 22.8062 77.1377 22.7915 76.9308C22.7769 76.7239 22.6914 76.5285 22.5494 76.378C22.4075 76.2274 22.218 76.1311 22.0133 76.1054L21.9046 76.0947Z" fill="#CD201F"/>
<path d="M15.3069 71.0532C15.0803 71.0542 14.8572 70.9971 14.6587 70.8874C14.4601 70.7777 14.2926 70.619 14.1719 70.4262C11.7505 66.5292 10.3913 62.0602 10.2308 57.468C10.2246 57.2915 10.253 57.1156 10.3145 56.9502C10.3759 56.7847 10.4691 56.6331 10.5888 56.5039C10.7085 56.3748 10.8523 56.2706 11.0121 56.1973C11.1718 56.124 11.3444 56.0831 11.5199 56.0768C11.6953 56.0706 11.8703 56.0992 12.0348 56.1609C12.1993 56.2227 12.3501 56.3164 12.4786 56.4368C12.607 56.5572 12.7107 56.7018 12.7836 56.8624C12.8564 57.0231 12.8972 57.1966 12.9034 57.373C13.0491 61.4908 14.2681 65.4978 16.4382 68.993C16.5648 69.1963 16.635 69.4299 16.6414 69.6696C16.6479 69.9094 16.5904 70.1465 16.4749 70.3564C16.3595 70.5662 16.1903 70.7412 15.9849 70.8631C15.7795 70.985 15.5454 71.0494 15.3069 71.0497V71.0532Z" fill="#FB6C6C"/>
<path d="M11.4868 58.7597C10.551 58.7432 9.65966 58.3556 9.00666 57.6815C8.35367 57.0074 7.99191 56.1011 8.00014 55.1601C8.00836 54.2191 8.38589 53.3194 9.05056 52.6569C9.71524 51.9944 10.6132 51.6227 11.5491 51.6227C12.485 51.6227 13.383 51.9944 14.0477 52.6569C14.7124 53.3194 15.0899 54.2191 15.0981 55.1601C15.1063 56.1011 14.7446 57.0074 14.0916 57.6815C13.4386 58.3556 12.5472 58.7432 11.6115 58.7597H11.4868ZM11.4868 54.2898H11.4565C11.2386 54.3174 11.0385 54.4249 10.8947 54.5918C10.7509 54.7587 10.6734 54.9731 10.6772 55.1938C10.6809 55.4146 10.7656 55.6262 10.9151 55.788C11.0645 55.9499 11.2681 56.0505 11.4868 56.0706H11.5188C11.693 56.0624 11.861 56.003 12.0019 55.8997C12.1428 55.7964 12.2505 55.6538 12.3116 55.4896C12.3727 55.3253 12.3845 55.1467 12.3455 54.9758C12.3066 54.8048 12.2186 54.6492 12.0925 54.5281C11.9287 54.3742 11.7127 54.289 11.4886 54.2898H11.4868Z" fill="#FB6C6C"/>
<path d="M10.4334 46.7402H10.3354C9.98263 46.7145 9.65437 46.5492 9.42259 46.2805C9.19081 46.0119 9.07441 45.6618 9.09892 45.307C9.43053 40.7236 10.9536 36.3082 13.5157 32.5028C13.7147 32.2077 14.022 32.0042 14.3702 31.937C14.7184 31.8698 15.0788 31.9445 15.3723 32.1445C15.6657 32.3445 15.8681 32.6536 15.9349 33.0037C16.0017 33.3538 15.9275 33.7162 15.7286 34.0113C13.428 37.4229 12.0591 41.3824 11.759 45.4933C11.7348 45.8308 11.5848 46.1466 11.3391 46.3778C11.0933 46.609 10.7699 46.7384 10.4334 46.7402Z" fill="#CD201F"/>
<path d="M15.8565 34.9805C15.1465 34.9802 14.4529 34.7648 13.8664 34.3624C13.1687 33.8834 12.665 33.1686 12.4469 32.3479C12.2287 31.5272 12.3105 30.655 12.6775 29.8899C13.0445 29.1247 13.6722 28.5172 14.4467 28.1779C15.2212 27.8385 16.0911 27.7898 16.8983 28.0404C17.7055 28.2911 18.3965 28.8247 18.8458 29.5441C19.295 30.2635 19.4728 31.1211 19.3467 31.9611C19.2206 32.8011 18.7991 33.5678 18.1586 34.1218C17.5182 34.6758 16.7014 34.9805 15.8565 34.9805ZM15.8565 30.5016C15.7968 30.5012 15.7371 30.5066 15.6784 30.5177C15.5077 30.5531 15.3511 30.6379 15.228 30.7618C15.1048 30.8857 15.0204 31.0432 14.9854 31.2148C14.9503 31.3864 14.966 31.5645 15.0306 31.7272C15.0952 31.8899 15.2058 32.03 15.3488 32.1301C15.4452 32.1997 15.5544 32.2491 15.6701 32.2756C15.7858 32.3021 15.9055 32.305 16.0224 32.2843C16.1392 32.2637 16.2508 32.2197 16.3505 32.1551C16.4502 32.0904 16.5361 32.0064 16.6031 31.908C16.7338 31.7119 16.7822 31.4718 16.7378 31.24C16.6935 31.0082 16.5599 30.8033 16.3661 30.67C16.2213 30.5667 16.0484 30.5104 15.8708 30.5088L15.8565 30.5016Z" fill="#CD201F"/>
<path d="M20.757 24.2151C20.5021 24.2151 20.2525 24.1417 20.0377 24.0037C19.8229 23.8657 19.6518 23.6687 19.5446 23.4361C19.4375 23.2035 19.3988 22.945 19.433 22.691C19.4673 22.4369 19.573 22.1981 19.7379 22.0025C22.696 18.4968 26.5192 15.8351 30.8236 14.2846C30.9912 14.2147 31.1711 14.1799 31.3525 14.1822C31.5339 14.1845 31.713 14.224 31.8787 14.2982C32.0444 14.3723 32.1934 14.4796 32.3166 14.6136C32.4398 14.7475 32.5345 14.9053 32.5951 15.0772C32.6556 15.2492 32.6807 15.4317 32.6688 15.6138C32.6569 15.7958 32.6083 15.9735 32.5259 16.136C32.4435 16.2985 32.3291 16.4425 32.1896 16.5591C32.0501 16.6757 31.8884 16.7625 31.7144 16.8142C27.8544 18.2066 24.4264 20.5952 21.7744 23.7403C21.6495 23.8893 21.4937 24.0089 21.3179 24.0909C21.1422 24.1729 20.9508 24.2153 20.757 24.2151Z" fill="#FB6C6C"/>
<path d="M33.3554 18.3747C32.4637 18.3737 31.6047 18.0365 30.9481 17.4298C30.2915 16.8231 29.8851 15.9909 29.8089 15.0975C29.7328 14.2041 29.9925 13.3145 30.5369 12.6043C31.0812 11.8941 31.8706 11.4149 32.7492 11.2614C33.6277 11.1079 34.5316 11.2912 35.2823 11.775C36.0331 12.2589 36.5761 13.0083 36.8041 13.8751C37.0322 14.742 36.9288 15.6633 36.5143 16.4572C36.0998 17.2511 35.4043 17.8598 34.5652 18.1633C34.1772 18.304 33.7678 18.3756 33.3554 18.3747ZM33.3554 13.8958C33.2137 13.8969 33.0744 13.932 32.9489 13.9981C32.8235 14.0643 32.7155 14.1595 32.634 14.276C32.5525 14.3925 32.4997 14.5268 32.4802 14.6679C32.4606 14.809 32.4748 14.9527 32.5216 15.0872C32.5756 15.2426 32.6712 15.3801 32.7979 15.4844C32.9245 15.5888 33.0774 15.656 33.2395 15.6787C33.4017 15.7015 33.567 15.6788 33.7172 15.6132C33.8674 15.5477 33.9968 15.4417 34.091 15.3071C34.1853 15.1724 34.2408 15.0143 34.2514 14.8499C34.2621 14.6856 34.2276 14.5215 34.1515 14.3757C34.0755 14.2299 33.961 14.1079 33.8205 14.0232C33.6801 13.9386 33.5191 13.8945 33.3554 13.8958Z" fill="#FB6C6C"/>
</svg>
