<svg width="100" height="100" viewBox="0 0 100 100" fill="none" xmlns="http://www.w3.org/2000/svg">
<circle cx="41.7901" cy="53.5932" r="10.7725" transform="rotate(-87.0558 41.7901 53.5932)" fill="#E5656B"/>
<path d="M60.1734 11.4793C59.9145 11.9585 59.762 12.4857 59.7259 13.0266C59.6898 13.5676 59.7709 14.1102 59.9638 14.6192C59.9964 14.6926 59.9984 14.7754 59.9693 14.8501C59.7424 15.2303 58.5832 17.2686 58.0392 18.0176C54.8241 16.9682 51.4176 16.601 48.0486 16.9404C47.7168 16.0158 47.4217 15.0992 47.2123 14.2954C47.2103 14.2025 47.243 14.1122 47.3042 14.0411C47.6367 13.5789 47.852 13.0462 47.9323 12.4867C48.0126 11.9272 47.9557 11.3566 47.7663 10.8219C47.5846 10.313 47.2893 9.84952 46.9017 9.46492C46.5141 9.08031 46.0439 8.78417 45.5251 8.59798C44.8867 8.35667 44.1916 8.29691 43.5207 8.42567C42.8497 8.55442 42.2307 8.86643 41.7356 9.32527C41.226 9.78673 40.8571 10.3765 40.6695 11.0298C40.4819 11.6831 40.4828 12.3746 40.6721 13.0284C40.927 13.8573 41.4778 14.5707 42.2247 15.0394C42.3011 15.0786 42.3594 15.1445 42.388 15.2238C42.5229 16.0807 42.6178 17.0877 42.681 18.1129C42.3167 18.2356 41.1601 18.6733 41.0956 18.7007C38.2113 19.903 35.6035 21.6547 33.4249 23.853C32.1544 23.1795 30.9225 22.4386 29.7348 21.6337C29.7175 21.0543 29.5682 20.4855 29.2975 19.9686C29.0269 19.4518 28.6418 18.9997 28.1702 18.6454C27.6294 18.2358 26.9919 17.9651 26.3164 17.8583C25.6409 17.7516 24.9491 17.8121 24.3048 18.0344C23.6605 18.2567 23.0844 18.6337 22.6296 19.1304C22.1748 19.6272 21.8559 20.2279 21.7023 20.8771C21.5486 21.5264 21.5652 22.2033 21.7505 22.8455C21.9357 23.4877 22.2837 24.0746 22.7624 24.5521C23.2411 25.0296 23.835 25.3823 24.4896 25.5777C25.1441 25.7732 25.8381 25.8051 26.5077 25.6705C27.6422 26.6265 28.722 27.6426 29.7421 28.714C27.8536 32.0175 26.8273 35.7245 26.7533 39.5094C25.4616 39.8772 24.1738 40.199 23.0715 40.3959C22.9867 40.3942 22.9057 40.3609 22.8452 40.3028C22.3549 39.8986 21.7752 39.6108 21.1518 39.4622C20.5284 39.3136 19.8785 39.3084 19.2535 39.4469C18.6284 39.5854 18.0454 39.8638 17.5506 40.2602C17.0557 40.6565 16.6626 41.1599 16.4022 41.7305C16.0709 42.4111 15.947 43.1705 16.045 43.9188C16.1431 44.667 16.4591 45.3728 16.9556 45.9525C17.454 46.5477 18.1121 46.9966 18.8562 47.249C19.6004 47.5014 20.4014 47.5474 21.1697 47.3819C22.1519 47.1548 23.0151 46.5875 23.5987 45.7854C23.6652 45.6787 23.7718 45.6015 23.896 45.5702C24.9389 45.4701 26.1642 45.4279 27.4135 45.4245C28.0991 48.2185 29.3175 50.8633 31.0052 53.2209C30.9505 54.7306 31.2354 56.2346 31.8401 57.6272L33.2398 59.9731C33.2398 59.9808 34.4779 61.3306 34.8885 61.6356C36.5604 62.9996 38.6203 63.8315 40.7899 64.0188C42.9594 64.2062 45.1339 63.7398 47.0193 62.6829C47.82 62.234 48.6555 61.4132 48.6555 61.4132L49.613 60.6124C49.613 60.6124 51.492 58.1519 51.9525 56.6838C52.4131 55.2156 52.5352 53.6655 52.31 52.1443C52.0848 50.6231 51.518 49.1681 50.6499 47.8833C49.7819 46.5986 48.634 45.5157 47.2883 44.7119C45.9426 43.9082 44.4322 43.4034 42.865 43.2336C41.2977 43.0638 39.7122 43.2332 38.2217 43.7297C36.7312 44.2262 35.3724 45.0376 34.2423 46.1059C33.1123 47.1742 32.2388 48.4732 31.6842 49.9099C31.3586 49.3253 31.0582 48.725 30.791 48.1096C30.422 47.251 30.112 46.3696 29.8629 45.4713C30.9404 45.5114 31.96 45.5738 32.8029 45.654C33.1145 45.6836 33.4251 45.5915 33.6665 45.3978C33.9078 45.2042 34.0602 44.9249 34.0901 44.6213C34.0911 44.6029 34.0919 44.5861 34.0929 44.5684C34.1084 44.2724 34.0061 43.9815 33.8073 43.7566C33.6085 43.5316 33.3285 43.3899 33.0257 43.3608C31.7418 43.2387 30.0737 43.1514 28.3754 43.1294L28.3447 43.1278C26.7812 43.0984 25.2174 43.1488 23.6598 43.2787C23.2598 43.3212 22.8744 43.4479 22.5302 43.6502C22.186 43.8526 21.8913 44.1256 21.6666 44.4504C21.4156 44.7989 21.0422 45.0456 20.6168 45.1441C20.2781 45.2096 19.9272 45.1834 19.6022 45.0681C19.2772 44.9529 18.9906 44.7532 18.7736 44.4906C18.5591 44.243 18.4241 43.9394 18.3853 43.6179C18.3466 43.2964 18.4059 42.9711 18.5558 42.6827C18.6664 42.4365 18.8346 42.2191 19.047 42.0478C19.2594 41.8764 19.51 41.7559 19.7789 41.6959C20.0479 41.6359 20.3276 41.6381 20.5959 41.7022C20.8642 41.7663 21.1135 41.8905 21.324 42.0651C21.6202 42.3164 21.9699 42.5004 22.3478 42.6037C22.7257 42.707 23.1222 42.727 23.5085 42.6623C26.5869 42.033 29.6044 41.1503 32.5286 40.0239C32.8192 39.9105 33.0513 39.689 33.1739 39.4083C33.2965 39.1276 33.2996 38.8107 33.1824 38.5272C33.0652 38.2436 32.8374 38.0168 32.5491 37.8966C32.2607 37.7763 31.9355 37.7725 31.6449 37.8859C30.9254 38.1671 30.0587 38.4737 29.1363 38.7767C29.3287 35.4966 30.3118 32.3088 32.0059 29.4721C32.6529 28.3758 33.405 27.3418 34.2521 26.3839C36.4151 23.9168 39.1444 21.9815 42.2197 20.7343C42.2197 20.7343 42.6221 20.5759 42.7636 20.5248C42.7722 21.2461 42.7656 21.9266 42.7407 22.5024C42.7266 22.8074 42.8374 23.1057 43.0487 23.3317C43.26 23.5576 43.5546 23.6928 43.8676 23.7073C44.1805 23.7219 44.4863 23.6147 44.7176 23.4094C44.9489 23.204 45.0868 22.9173 45.1009 22.6123L45.1015 22.6C45.1924 20.0207 45.0639 17.4377 44.7172 14.8779C44.656 14.5142 44.5154 14.1674 44.3047 13.861C44.0941 13.5546 43.8183 13.2958 43.4962 13.1022C43.2254 12.9312 43.0257 12.6719 42.9329 12.3708C42.87 12.1268 42.8758 11.8709 42.9496 11.6302C43.0235 11.3894 43.1627 11.1727 43.3526 11.003C43.5284 10.8358 43.7513 10.7233 43.993 10.6798C44.2347 10.6363 44.4844 10.6637 44.7106 10.7585C44.8977 10.8256 45.0676 10.9316 45.2084 11.0692C45.3493 11.2068 45.4577 11.3726 45.526 11.5551C45.5968 11.7485 45.6189 11.9555 45.5903 12.1587C45.5618 12.3619 45.4834 12.5553 45.3619 12.7225C45.1344 13.0246 44.9771 13.3714 44.9008 13.739C44.8246 14.1066 44.8313 14.4862 44.9204 14.8515C45.622 17.3366 46.5325 19.7618 47.6427 22.1021C47.7087 22.2391 47.8017 22.3622 47.9164 22.4643C48.031 22.5664 48.1652 22.6456 48.3111 22.6973C48.457 22.7489 48.6119 22.7721 48.7668 22.7655C48.9218 22.7589 49.0738 22.7225 49.2142 22.6586C49.3546 22.5947 49.4806 22.5044 49.5851 22.3929C49.6896 22.2814 49.7704 22.1509 49.8231 22.0088C49.8757 21.8668 49.8991 21.7159 49.8919 21.5649C49.8847 21.4138 49.847 21.2656 49.781 21.1286C49.5125 20.5691 49.2137 19.8921 48.9134 19.1697C52.0193 18.9424 55.1404 19.3797 58.0583 20.4507C59.0863 20.8298 60.0844 21.2821 61.0446 21.8039C64.2806 23.5793 66.9903 26.1422 68.9084 29.2414C66.6707 29.8179 64.3296 30.3031 62.6253 30.5666C62.316 30.6146 62.0393 30.7804 61.856 31.0276C61.6727 31.2747 61.5978 31.583 61.6479 31.8846C61.698 32.1862 61.8688 32.4563 62.1229 32.6356C62.377 32.8149 62.6935 32.8887 63.0028 32.8407C66.6885 32.2548 70.315 31.3615 73.8422 30.1706C74.2312 30.0232 74.5807 29.792 74.8647 29.4941C75.1486 29.1963 75.3596 28.8395 75.4819 28.4506C75.5822 28.1419 75.7506 27.8584 75.9752 27.62C76.1998 27.3816 76.4753 27.1941 76.7823 27.0704C77.147 26.9212 77.5446 26.8635 77.9386 26.9028C78.3326 26.942 78.7105 27.0768 79.0377 27.2949C79.365 27.513 79.6311 27.8074 79.8119 28.1512C79.9926 28.495 80.0821 28.8773 80.0722 29.2631C80.0624 29.6488 79.9535 30.0258 79.7554 30.3594C79.5574 30.6931 79.2766 30.9728 78.9386 31.173C78.6007 31.3733 78.2164 31.4876 77.821 31.5056C77.4255 31.5236 77.0314 31.4447 76.6748 31.2761C76.3111 31.098 75.9112 31.0018 75.5046 30.9946C75.0981 30.9873 74.6953 31.0694 74.3261 31.2345C70.9759 32.8538 67.7758 34.7517 64.7613 36.9072C64.6334 36.9957 64.525 37.1082 64.4424 37.2382C64.3598 37.3681 64.3046 37.5129 64.2801 37.664C64.2557 37.8151 64.2624 37.9695 64.2999 38.1182C64.3373 38.2669 64.4048 38.407 64.4984 38.5301C64.592 38.6532 64.7098 38.757 64.8449 38.8353C64.98 38.9137 65.1297 38.965 65.2853 38.9864C65.4408 39.0077 65.5991 38.9987 65.7509 38.9597C65.9026 38.9207 66.0448 38.8526 66.1691 38.7594C67.5367 37.7731 69.4912 36.5103 71.4479 35.3722C71.6686 36.2734 71.8276 37.1878 71.9238 38.1093C71.9524 38.3986 72.0921 38.667 72.315 38.8605C72.5379 39.0541 72.8274 39.1586 73.1254 39.153C73.4235 39.1474 73.708 39.0322 73.922 38.8305C74.136 38.6287 74.2636 38.3554 74.2792 38.0653C74.282 38.0091 74.281 37.9528 74.2761 37.8968C74.1518 36.6434 73.9232 35.4016 73.5925 34.1838C74.1979 33.866 74.7881 33.5675 75.3291 33.3217C75.3788 33.302 75.4323 33.2932 75.4858 33.296C75.5394 33.2987 75.5917 33.313 75.639 33.3377C76.2029 33.6091 76.8169 33.767 77.4442 33.8019C78.0715 33.8367 78.6992 33.7478 79.2898 33.5404C79.8803 33.3331 80.4215 33.0115 80.8809 32.5951C81.3404 32.1787 81.7086 31.6759 81.9635 31.117C82.2256 30.5663 82.3769 29.9715 82.4092 29.3648C82.4456 28.6985 82.3276 28.0324 82.0639 27.4158C81.6938 26.5499 81.061 25.8142 80.2505 25.3077C79.4401 24.8011 78.4907 24.5478 77.5298 24.5817C76.5689 24.6157 75.6424 24.9353 74.8746 25.4977C74.1069 26.06 73.5345 26.8382 73.2345 27.7279C73.2188 27.7871 73.1908 27.8426 73.1522 27.8908C73.1137 27.9391 73.0654 27.9791 73.0103 28.0084C72.4927 28.1969 71.913 28.3823 71.3121 28.5658C69.3015 25.3213 66.5718 22.555 63.3236 20.4703C63.6231 19.6311 64.1102 18.3167 64.5999 17.213C64.6384 17.1243 64.7842 17.0788 64.829 17.0665C65.7611 16.81 66.5646 16.2312 67.0893 15.4383C67.4614 14.8745 67.6741 14.2246 67.7059 13.5542C67.7269 13.1432 67.6834 12.7313 67.5771 12.3326C67.3773 11.5695 66.9448 10.8827 66.3367 10.3631C65.7285 9.84358 64.9734 9.51565 64.1712 9.42276C63.3689 9.32987 62.5573 9.4764 61.8435 9.84289C61.1297 10.2094 60.5475 10.7787 60.1736 11.4754L60.1734 11.4793ZM42.1221 45.4932C43.771 45.5783 45.3582 46.1379 46.6831 47.1013C48.008 48.0647 49.0111 49.3886 49.5655 50.9056C50.1199 52.4225 50.2008 54.0646 49.7979 55.6238C49.395 57.1831 48.5264 58.5898 47.3019 59.6658C46.0775 60.7419 44.5521 61.4391 42.9188 61.6693C41.2855 61.8995 39.6175 61.6523 38.1259 60.959C36.6342 60.2657 35.3857 59.1574 34.5384 57.7743C33.6911 56.3912 33.283 54.7953 33.3656 53.1886C33.4793 51.0347 34.465 49.0148 36.1066 47.5722C37.7481 46.1296 39.9115 45.3819 42.1221 45.4932ZM31.8373 25.6196C31.5565 25.9678 31.2856 26.3243 31.0244 26.689C30.0101 25.6459 28.9358 24.6598 27.8067 23.7355C27.569 23.5518 27.2902 23.4256 26.9931 23.3672C26.696 23.3088 26.3892 23.3198 26.0977 23.3994C25.8736 23.4564 25.6398 23.4675 25.4108 23.432C25.1819 23.3964 24.9629 23.3149 24.7677 23.1926C24.5714 23.0718 24.4022 22.9134 24.2704 22.7271C24.1386 22.5408 24.0468 22.3305 24.0008 22.1088C23.9547 21.8872 23.9552 21.6589 24.0023 21.4377C24.0495 21.2165 24.1422 21.007 24.2749 20.822C24.4076 20.637 24.5775 20.4803 24.7744 20.3613C24.9713 20.2424 25.191 20.1636 25.4202 20.1299C25.6494 20.0962 25.8834 20.1083 26.108 20.1653C26.3326 20.2223 26.543 20.3231 26.7267 20.4616C26.9353 20.6195 27.1026 20.8233 27.2151 21.0561C27.3276 21.2889 27.382 21.5443 27.3738 21.8012C27.362 22.0964 27.4238 22.3901 27.5538 22.6572C27.6839 22.9244 27.8784 23.157 28.1206 23.3351C29.3136 24.1655 30.5545 24.9283 31.8373 25.6196ZM64.4933 11.8805C64.6891 11.9929 64.8603 12.1418 64.9971 12.3187C65.134 12.4956 65.2336 12.697 65.2905 12.9114C65.3473 13.1257 65.3601 13.3488 65.3283 13.5678C65.2964 13.7868 65.2205 13.9973 65.1049 14.1874C64.8913 14.5121 64.563 14.7492 64.1818 14.8538C63.7976 14.9528 63.441 15.134 63.138 15.3843C62.835 15.6345 62.5931 15.9476 62.4301 16.3007C61.9787 17.3187 61.5426 18.4683 61.2321 19.3229C60.9245 19.1711 60.6168 19.02 60.2967 18.8814C60.7386 18.2317 61.0804 17.6429 61.4165 17.0416C61.6004 16.716 61.7887 16.3814 62.0044 16.0214C62.1987 15.6917 62.3148 15.3238 62.3442 14.9444C62.3737 14.565 62.3158 14.1837 62.1748 13.8285C62.0958 13.6229 62.0626 13.4035 62.0772 13.1847C62.0919 12.9659 62.1541 12.7528 62.2597 12.5595C62.3608 12.3717 62.4989 12.2054 62.6663 12.07C62.8336 11.9346 63.0268 11.8328 63.2348 11.7704C63.4413 11.7064 63.659 11.6832 63.8751 11.7021C64.0911 11.721 64.3013 11.7817 64.4933 11.8805Z" fill="#E5656B"/>
<path d="M83.7492 69.648C83.2681 69.4191 82.7455 69.2966 82.2153 69.2885C81.685 69.2804 81.1591 69.3869 80.6716 69.601C80.6015 69.6365 80.5207 69.6426 80.4464 69.6179C80.0635 69.4153 78.0143 68.3854 77.2554 67.8916C78.1188 64.6984 78.3064 61.3524 77.8056 58.0786C78.6921 57.7081 79.5726 57.3738 80.3473 57.1288C80.4379 57.1222 80.5278 57.1496 80.6003 57.2058C81.0685 57.5074 81.5996 57.6909 82.1502 57.7413C82.7008 57.7916 83.2552 57.7074 83.768 57.4955C84.256 57.2925 84.6939 56.9807 85.0501 56.5828C85.4064 56.1849 85.672 55.7107 85.8278 55.1946C86.0314 54.5588 86.0549 53.8768 85.8954 53.2279C85.7359 52.579 85.4001 51.99 84.927 51.5294C84.4506 51.0548 83.856 50.7241 83.2084 50.5737C82.5609 50.4233 81.8854 50.4589 81.2563 50.6767C80.4594 50.9673 79.7902 51.5412 79.3699 52.2943C79.3355 52.3708 79.2741 52.4311 79.1981 52.463C78.3678 52.6379 77.389 52.7812 76.3906 52.8944C76.2525 52.5447 75.7668 51.437 75.7368 51.3753C74.4175 48.6182 72.5755 46.1589 70.3186 44.1413C70.9127 42.8664 71.5746 41.6259 72.3011 40.4253C72.8662 40.3793 73.4143 40.2048 73.9056 39.9145C74.3969 39.6242 74.8191 39.2253 75.1415 38.7468C75.5145 38.198 75.7468 37.5616 75.8172 36.8964C75.8876 36.2312 75.7936 35.5586 75.5441 34.9404C75.2946 34.3222 74.8975 33.7784 74.3894 33.3591C73.8813 32.9398 73.2785 32.6585 72.6366 32.541C71.9947 32.4235 71.3343 32.4737 70.7163 32.687C70.0983 32.9002 69.5425 33.2696 69.1001 33.7612C68.6578 34.2528 68.3431 34.8507 68.185 35.4998C68.027 36.149 68.0307 36.8285 68.1958 37.4758C67.3189 38.632 66.3807 39.7378 65.3853 40.7881C62.0636 39.1094 58.391 38.2931 54.6901 38.411C54.266 37.1677 53.8869 35.9259 53.6392 34.859C53.6366 34.7761 53.6651 34.6954 53.7188 34.6333C54.089 34.1341 54.341 33.5534 54.4548 32.937C54.5686 32.3206 54.5411 31.6855 54.3744 31.0819C54.2077 30.4783 53.9064 29.9228 53.4944 29.4593C53.0824 28.9959 52.571 28.6371 52.0005 28.4115C51.3191 28.1221 50.571 28.0391 49.845 28.1725C49.119 28.3059 48.4455 28.65 47.9042 29.1641C47.3478 29.6809 46.9424 30.3463 46.7332 31.0858C46.5241 31.8254 46.5194 32.6101 46.7197 33.3523C46.9908 34.3004 47.5884 35.1151 48.4012 35.6448C48.5088 35.7044 48.5895 35.8047 48.6264 35.9244C48.7765 36.9381 48.8793 38.1329 48.9454 39.3531C46.2506 40.1631 43.7283 41.4861 41.5102 43.2532C40.0328 43.2755 38.578 43.6294 37.248 44.29L33.4858 47.4691C32.2373 49.1707 31.5282 51.2247 31.4542 53.3534C31.3802 55.482 31.945 57.5826 33.0722 59.3712C33.0008 60.1099 32.9746 60.8541 32.9716 61.5966C31.6579 61.7961 29.3077 62.1443 28.0233 62.2899C27.9693 62.2764 27.9201 62.2476 27.8814 62.2067C27.2543 61.5969 26.4314 61.2434 25.5679 61.213C25.0718 61.201 24.5785 61.2933 24.1183 61.4842C23.6582 61.6751 23.241 61.9606 22.8924 62.3231C22.5438 62.6856 22.2712 63.1174 22.0913 63.5921C21.9113 64.0667 21.8279 64.5741 21.8462 65.0831C21.8717 65.565 21.9895 66.0371 22.1931 66.4723C22.3966 66.9074 22.6817 67.2971 23.0322 67.6189C23.6836 68.2246 24.5313 68.5599 25.4103 68.5595C25.4793 68.5595 25.5484 68.5595 25.6182 68.5533C26.0957 68.5288 26.5632 68.4045 26.9921 68.1879C27.4211 67.9713 27.8024 67.6671 28.1126 67.2939C28.1617 67.2222 28.235 67.172 28.3183 67.1529C30.0741 67.1914 33.9925 67.4133 34.0315 67.4156C34.3301 67.4325 34.6231 67.3271 34.8459 67.1224C35.0688 66.9177 35.2032 66.6305 35.2198 66.3241C35.2363 66.0176 35.1335 65.717 34.934 65.4883C34.7346 65.2596 34.4547 65.1216 34.1561 65.1046C33.9932 65.0954 30.1611 64.8789 28.3663 64.8389C27.9912 64.8344 27.6199 64.9171 27.2802 65.0806C26.9406 65.2441 26.6413 65.4844 26.4049 65.7833C26.2917 65.9202 26.1524 66.0318 25.9955 66.1113C25.8386 66.1908 25.6676 66.2365 25.4929 66.2455C25.3196 66.2551 25.1463 66.2295 24.9827 66.1703C24.8191 66.1111 24.6685 66.0194 24.5395 65.9004C24.3441 65.7089 24.2094 65.4615 24.1529 65.1903C24.0965 64.9191 24.1209 64.6368 24.2231 64.3801C24.3252 64.1234 24.5004 63.9042 24.7256 63.7511C24.9509 63.5979 25.2159 63.518 25.4861 63.5216C25.8039 63.5324 26.1069 63.662 26.3381 63.886C26.5914 64.1397 26.8956 64.3338 27.2293 64.4549C27.5631 64.5759 27.9186 64.621 28.271 64.587C30.1536 64.3752 34.099 63.762 34.2649 63.7397C34.5486 63.6913 34.8039 63.5347 34.9797 63.3013C35.1555 63.0678 35.2389 62.7748 35.213 62.481C35.2025 62.32 35.1995 62.0958 35.2017 61.8339C36.3643 62.8109 37.7227 63.5126 39.18 63.8887C40.6373 64.2648 42.1575 64.3062 43.6322 64.0098C45.1068 63.7134 46.4995 63.0866 47.7109 62.1742C48.9223 61.2617 49.9224 60.0861 50.6399 58.7312C51.3574 57.3763 51.7746 55.8756 51.8617 54.3361C51.9488 52.7967 51.7037 51.2565 51.1438 49.8255C50.5839 48.3945 49.7231 47.1079 48.6228 46.0577C47.5225 45.0075 46.2099 44.2195 44.7785 43.75C45.3333 43.4026 45.9045 43.0791 46.4923 42.7871C47.3124 42.3835 48.1577 42.0364 49.0227 41.748C49.0377 42.8025 49.028 43.8016 48.9919 44.6289C48.9787 44.9348 49.0843 45.2336 49.2856 45.4596C49.4868 45.6857 49.7673 45.8205 50.0654 45.8345C50.0834 45.8345 50.0999 45.8345 50.1171 45.8345C50.4071 45.8348 50.6861 45.7203 50.8958 45.5148C51.1056 45.3093 51.23 45.0287 51.2431 44.7314C51.2979 43.4711 51.2994 41.8373 51.2356 40.1773V40.1472C51.1858 38.6185 51.058 37.0935 50.8528 35.5785C50.7913 35.19 50.6481 34.8198 50.4332 34.4938C50.2182 34.1678 49.9367 33.8937 49.6082 33.6905C49.2551 33.4628 48.9954 33.1104 48.8778 32.6999C48.7968 32.3723 48.8048 32.0282 48.901 31.7049C48.9973 31.3817 49.178 31.0917 49.4235 30.8665C49.6547 30.6446 49.9444 30.4974 50.2565 30.4435C50.5686 30.3895 50.8893 30.4311 51.1786 30.563C51.4246 30.6587 51.6455 30.8121 51.8235 31.0109C52.0015 31.2097 52.1318 31.4485 52.2039 31.7082C52.276 31.9678 52.288 32.2412 52.2389 32.5065C52.1897 32.7718 52.0809 33.0216 51.921 33.236C51.6904 33.5379 51.5282 33.8888 51.4463 34.2631C51.3644 34.6374 51.3647 35.0257 51.4473 35.3998C52.2167 38.3752 53.2305 41.2784 54.4777 44.0782C54.6031 44.3563 54.8311 44.5719 55.1114 44.6776C55.3918 44.7833 55.7015 44.7704 55.9726 44.6416C56.2436 44.5129 56.4538 44.279 56.5567 43.9913C56.6597 43.7036 56.6471 43.3857 56.5217 43.1076C56.2109 42.4189 55.8679 41.5877 55.5256 40.7019C58.7393 40.725 61.9025 41.5252 64.7586 43.0375C65.862 43.6145 66.9098 44.2972 67.888 45.0765C70.4066 47.0654 72.4341 49.6342 73.8069 52.5755C73.8069 52.5755 73.9818 52.9606 74.0388 53.0962C73.3347 53.1409 72.6697 53.1686 72.1059 53.1733C71.8073 53.1748 71.5215 53.298 71.3114 53.5158C71.1013 53.7335 70.9841 54.0281 70.9856 54.3345C70.9871 54.641 71.1071 54.9342 71.3193 55.1499C71.5316 55.3655 71.8185 55.4857 72.1172 55.4842H72.1292C74.6533 55.4434 77.1699 55.1881 79.6529 54.7208C80.0051 54.6429 80.3368 54.488 80.6255 54.2669C80.9142 54.0457 81.1532 53.7633 81.3261 53.439C81.4795 53.1659 81.7228 52.9578 82.0122 52.852C82.2474 52.7783 82.4977 52.7711 82.7365 52.8311C82.9754 52.8912 83.1941 53.0163 83.3694 53.1933C83.5416 53.3566 83.6626 53.5686 83.7173 53.8025C83.7719 54.0365 83.7577 54.2818 83.6764 54.5074C83.6203 54.6936 83.5253 54.8649 83.398 55.0094C83.2707 55.1539 83.1141 55.2681 82.9393 55.344C82.7539 55.4229 82.5528 55.4548 82.3529 55.4372C82.153 55.4195 81.9602 55.3526 81.7908 55.2423C81.4842 55.0353 81.1375 54.899 80.7746 54.843C80.4117 54.787 80.0413 54.8126 79.689 54.918C77.2967 55.7282 74.9735 56.7395 72.7432 57.9415C72.6127 58.0128 72.4972 58.1098 72.4032 58.227C72.3092 58.3441 72.2386 58.4791 72.1955 58.6242C72.1523 58.7694 72.1374 58.9218 72.1517 59.0728C72.166 59.2239 72.2091 59.3705 72.2786 59.5045C72.3481 59.6384 72.4426 59.757 72.5567 59.8534C72.6709 59.9499 72.8024 60.0223 72.9439 60.0666C73.0853 60.1109 73.2338 60.1261 73.381 60.1115C73.5282 60.0968 73.6711 60.0526 73.8016 59.9813C74.3346 59.6909 74.9809 59.365 75.6715 59.0353C76.0495 62.0578 75.7792 65.1286 74.8796 68.0326C74.5609 69.0558 74.1693 70.0535 73.7078 71.0176C72.1361 74.2678 69.7689 77.0434 66.8379 79.0727C66.1623 76.9159 65.5708 74.6535 65.2277 73.0019C65.1653 72.7022 64.9894 72.4402 64.7388 72.2736C64.4881 72.1069 64.1832 72.0493 63.8912 72.1133C63.5991 72.1774 63.3438 72.3579 63.1814 72.6151C63.0191 72.8723 62.9629 73.1852 63.0253 73.4849C63.7828 77.0557 64.8376 80.5532 66.178 83.9388C66.3415 84.3114 66.585 84.6412 66.8902 84.9035C67.1954 85.1659 67.5545 85.3541 67.9406 85.454C68.2472 85.5365 68.5325 85.6867 68.7766 85.8942C69.0208 86.1016 69.2178 86.3612 69.354 86.6549C69.5181 87.0037 69.5944 87.3892 69.5759 87.776C69.5574 88.1628 69.4447 88.5388 69.2481 88.8694C69.0515 89.2 68.7773 89.4748 68.4505 89.6686C68.1237 89.8624 67.7548 89.969 67.3775 89.9788C67.0002 89.9885 66.6265 89.9011 66.2907 89.7244C65.9548 89.5477 65.6675 89.2874 65.4549 88.9674C65.2423 88.6474 65.1113 88.2778 65.0739 87.8924C65.0364 87.507 65.0937 87.1181 65.2405 86.7612C65.3962 86.397 65.4701 86.0015 65.4567 85.6041C65.4433 85.2066 65.343 84.8173 65.1632 84.4649C63.4131 81.2737 61.3984 78.2432 59.1415 75.4068C59.0486 75.2864 58.9332 75.1861 58.8021 75.112C58.6711 75.0378 58.5269 74.9912 58.378 74.9749C58.2292 74.9586 58.0787 74.9729 57.9353 75.017C57.7919 75.0611 57.6586 75.134 57.543 75.2316C57.4274 75.3293 57.332 75.4495 57.2622 75.5854C57.1925 75.7213 57.1498 75.8702 57.1368 76.0232C57.1237 76.1762 57.1406 76.3303 57.1863 76.4766C57.232 76.6229 57.3056 76.7583 57.4029 76.875C58.4351 78.1615 59.7667 80.0071 60.9768 81.8613C60.1075 82.1222 59.2223 82.3234 58.327 82.4637C58.0459 82.5061 57.7908 82.6561 57.6129 82.8835C57.435 83.111 57.3475 83.399 57.3679 83.6899C57.3884 83.9807 57.5152 84.2529 57.723 84.4518C57.9308 84.6507 58.2042 84.7616 58.4884 84.7623C58.5434 84.7622 58.5983 84.7584 58.6528 84.7507C59.8709 84.5664 61.0724 84.2807 62.2454 83.8965C62.5862 84.4719 62.9075 85.0334 63.1747 85.5495C63.1964 85.597 63.2077 85.6488 63.2077 85.7013C63.2077 85.7538 63.1964 85.8056 63.1747 85.8531C62.9378 86.4175 62.8145 87.0251 62.8119 87.6396C62.8094 88.2542 62.9278 88.8629 63.16 89.4293C63.3922 89.9957 63.7335 90.5082 64.1634 90.9361C64.5932 91.3639 65.1028 91.6984 65.6616 91.9193C66.2127 92.1476 66.8013 92.2656 67.3956 92.2667C68.0482 92.2687 68.693 92.12 69.282 91.8315C70.1093 91.4264 70.796 90.7713 71.2502 89.9542C71.7043 89.1371 71.904 88.197 71.8226 87.2601C71.7411 86.3232 71.3824 85.4342 70.7945 84.7125C70.2066 83.9908 69.4177 83.4708 68.5336 83.2224C68.4749 83.2101 68.4193 83.1855 68.3703 83.1503C68.3212 83.115 68.2797 83.0699 68.2483 83.0175C68.0381 82.5214 67.828 81.9645 67.6185 81.3868C70.6868 79.2598 73.2518 76.4544 75.125 73.1768C75.9597 73.4271 77.2681 73.8369 78.3708 74.2598C78.4594 74.293 78.5112 74.4331 78.5255 74.4763C78.8229 75.3739 79.4286 76.1296 80.2294 76.6023C80.7989 76.9375 81.4444 77.1126 82.1008 77.11C82.5034 77.1098 82.9036 77.0467 83.2876 76.9228C84.023 76.6893 84.6722 76.2323 85.1491 75.6122C85.6261 74.9921 85.9084 74.238 85.9589 73.4497C86.0093 72.6613 85.8254 71.8759 85.4316 71.1971C85.0377 70.5183 84.4524 69.9781 83.753 69.648H83.7492ZM49.6172 53.724C49.6169 55.3389 49.15 56.9174 48.2755 58.26C47.401 59.6026 46.1582 60.6489 44.7043 61.2667C43.2503 61.8845 41.6505 62.046 40.1071 61.7307C38.5637 61.4155 37.1461 60.6377 36.0334 59.4957C34.9208 58.3537 34.1631 56.8988 33.8562 55.3149C33.5493 53.731 33.707 52.0893 34.3093 50.5974C34.9116 49.1055 37.2564 46.8422 37.2564 46.8422C37.2564 46.8422 40.0867 45.5572 41.6603 45.5572C43.77 45.56 45.7925 46.4214 47.2842 47.9524C48.7758 49.4834 49.6148 51.5591 49.6172 53.724ZM68.5133 42.6793C68.159 42.4225 67.7972 42.1757 67.4279 41.939C68.3958 40.8958 69.3051 39.7968 70.1512 38.6474C70.3186 38.4061 70.4279 38.1274 70.4701 37.8343C70.5122 37.5411 70.486 37.242 70.3937 36.9612C70.3267 36.7452 70.3041 36.5173 70.3273 36.2919C70.3506 36.0665 70.4192 35.8485 70.5288 35.6517C70.637 35.4539 70.7832 35.2807 70.9586 35.1425C71.1339 35.0044 71.3348 34.9042 71.5489 34.8481C71.7631 34.7919 71.9862 34.781 72.2046 34.8159C72.423 34.8508 72.6323 34.9309 72.8197 35.0512C73.0071 35.1715 73.1687 35.3297 73.2948 35.516C73.4209 35.7023 73.5088 35.913 73.5533 36.1352C73.5977 36.3574 73.5977 36.5866 73.5533 36.8088C73.5089 37.031 73.421 37.2417 73.2949 37.428C73.1511 37.6397 72.9605 37.8134 72.7387 37.935C72.5169 38.0566 72.2702 38.1225 72.0188 38.1275C71.73 38.1308 71.4462 38.2058 71.1918 38.3463C70.9374 38.4868 70.7199 38.6884 70.5581 38.934C69.8069 40.141 69.1241 41.3915 68.5133 42.6793ZM83.5743 73.8878C83.4744 74.0847 83.3375 74.2595 83.1716 74.402C83.0056 74.5445 82.8139 74.652 82.6074 74.7183C82.4009 74.7845 82.1836 74.8083 81.9681 74.7882C81.7526 74.7681 81.5431 74.7045 81.3517 74.6011C81.0237 74.4087 80.7757 74.1 80.6543 73.7329C80.5383 73.3625 80.3434 73.0233 80.0838 72.7399C79.8241 72.4565 79.5061 72.236 79.153 72.0945C78.1359 71.7047 76.9911 71.3365 76.1407 71.0761C76.2735 70.768 76.4056 70.4599 76.525 70.1402C77.1818 70.5392 77.7741 70.8435 78.3783 71.1416C78.7056 71.3049 79.0419 71.4721 79.4045 71.6646C79.7362 71.8378 80.1015 71.9328 80.4736 71.9425C80.8457 71.9522 81.2152 71.8765 81.5551 71.7209C81.7519 71.6335 81.9646 71.59 82.179 71.5933C82.3935 71.5966 82.6048 71.6467 82.7989 71.7401C82.9874 71.8294 83.1568 71.956 83.2975 72.1126C83.4381 72.2693 83.5473 72.4529 83.6186 72.653C83.6915 72.8515 83.7251 73.0629 83.7175 73.2749C83.7099 73.4869 83.6612 73.6953 83.5743 73.8878Z" fill="#E5656B"/>
<ellipse cx="41.9" cy="53.65" rx="10.9" ry="10.95" fill="#D9504F"/>
<path d="M63.051 68.102C64.736 68.102 66.102 66.736 66.102 65.051C66.102 63.366 64.736 62 63.051 62C61.366 62 60 63.366 60 65.051C60 66.736 61.366 68.102 63.051 68.102Z" fill="#FE5000"/>
<path d="M57.727 52.454C58.6808 52.454 59.454 51.6808 59.454 50.727C59.454 49.7732 58.6808 49 57.727 49C56.7732 49 56 49.7732 56 50.727C56 51.6808 56.7732 52.454 57.727 52.454Z" fill="#FFC946"/>
<path d="M55.727 26.454C56.6808 26.454 57.454 25.6808 57.454 24.727C57.454 23.7732 56.6808 23 55.727 23C54.7732 23 54 23.7732 54 24.727C54 25.6808 54.7732 26.454 55.727 26.454Z" fill="#FFC946"/>
<path d="M37.5 32C38.3284 32 39 31.3284 39 30.5C39 29.6716 38.3284 29 37.5 29C36.6716 29 36 29.6716 36 30.5C36 31.3284 36.6716 32 37.5 32Z" fill="#FE5000"/>
<path d="M64 36C64.5523 36 65 35.5523 65 35C65 34.4477 64.5523 34 64 34C63.4477 34 63 34.4477 63 35C63 35.5523 63.4477 36 64 36Z" fill="#FFC946"/>
<path d="M42 42C42.5523 42 43 41.5523 43 41C43 40.4477 42.5523 40 42 40C41.4477 40 41 40.4477 41 41C41 41.5523 41.4477 42 42 42Z" fill="#FFC946"/>
<path d="M74 65C74.5523 65 75 64.5523 75 64C75 63.4477 74.5523 63 74 63C73.4477 63 73 63.4477 73 64C73 64.5523 73.4477 65 74 65Z" fill="#FFC946"/>
<path d="M52.225 64.45C52.9015 64.45 53.45 63.9015 53.45 63.225C53.45 62.5485 52.9015 62 52.225 62C51.5485 62 51 62.5485 51 63.225C51 63.9015 51.5485 64.45 52.225 64.45Z" fill="#FFC946"/>
<path d="M73.225 72.45C73.9015 72.45 74.45 71.9015 74.45 71.225C74.45 70.5485 73.9015 70 73.225 70C72.5485 70 72 70.5485 72 71.225C72 71.9015 72.5485 72.45 73.225 72.45Z" fill="#E5656B"/>
<path d="M38.917 69.834C39.9757 69.834 40.834 68.9757 40.834 67.917C40.834 66.8583 39.9757 66 38.917 66C37.8583 66 37 66.8583 37 67.917C37 68.9757 37.8583 69.834 38.917 69.834Z" fill="#FFC946"/>
<path d="M47.11 81.22C48.2753 81.22 49.22 80.2753 49.22 79.11C49.22 77.9447 48.2753 77 47.11 77C45.9447 77 45 77.9447 45 79.11C45 80.2753 45.9447 81.22 47.11 81.22Z" fill="#FFC946"/>
</svg>
