<svg width="100" height="100" viewBox="0 0 100 100" fill="none" xmlns="http://www.w3.org/2000/svg">
<path d="M77.5681 45.5667V46.0656L78.067 46.0667C86.5579 46.0855 93.4662 53.1065 93.4473 61.7823V61.7833C93.4473 70.4413 86.5763 77.4619 78.0862 77.5C78.0859 77.5 78.0856 77.5 78.0853 77.5L24.375 77.5C15.0684 77.4811 7.5 69.7983 7.5 60.3056C7.5 52.7623 12.2743 46.3592 18.9464 44.056L19.2283 43.9586L19.2766 43.6643C20.151 38.3347 24.726 34.2639 30.1976 34.2639C31.9767 34.2639 33.6662 34.7093 35.174 35.4737L35.6339 35.7069L35.8528 35.2401C39.3863 27.7046 46.9038 22.5 55.647 22.5C67.767 22.5 77.6069 32.4956 77.6069 44.8667C77.6069 44.9591 77.5993 45.055 77.5893 45.1752L77.5886 45.1831C77.5793 45.2947 77.5681 45.429 77.5681 45.5667Z" fill="#D0E9EF" stroke="#72B7C8"/>
<path d="M54.3792 58.8421V59.1423C55.8927 58.9371 57.6414 59.0398 58.9474 59.4703C60.894 60.1121 61.1195 61.2392 59.451 61.9879L53.2615 64.7652C52.3795 65.1609 51.0921 65.3887 49.737 65.3887C48.3818 65.3887 47.0943 65.1609 46.2123 64.7652L40.0229 61.9879C38.3545 61.2392 38.5799 60.1121 40.5265 59.4703C41.8324 59.0398 43.5813 58.9371 45.0949 59.1423V58.8421H41.4844C35.6489 58.8421 32.7312 58.8421 30.9183 59.5394C29.1055 60.2366 29.1055 61.3588 29.1055 63.6032V64.3968C29.1055 66.6412 29.1055 67.7634 30.9183 68.4606C32.7312 69.1579 35.6489 69.1579 41.4844 69.1579H57.9897C63.8251 69.1579 66.7428 69.1579 68.5557 68.4606C70.3686 67.7634 70.3686 66.6412 70.3686 64.3968V63.6032C70.3686 61.3588 70.3686 60.2366 68.5557 59.5394C66.7428 58.8421 63.8251 58.8421 57.9897 58.8421H54.3792Z" fill="#FB6C6C"/>
<path fill-rule="evenodd" clip-rule="evenodd" d="M49.7371 33.7895C48.9232 33.7895 48.2634 34.472 48.2634 35.314V57.6176L44.9613 53.6322C44.4316 52.9929 43.5013 52.9189 42.8833 53.4669C42.2653 54.0147 42.1938 54.9772 42.7235 55.6165L48.6183 62.7308C48.8981 63.0686 49.307 63.2632 49.7371 63.2632C50.1672 63.2632 50.5761 63.0686 50.8559 62.7308L56.7506 55.6165C57.2804 54.9772 57.2088 54.0147 56.5909 53.4669C55.9729 52.9189 55.0425 52.9929 54.513 53.6322L51.2108 57.6176V35.314C51.2108 34.472 50.5509 33.7895 49.7371 33.7895Z" fill="#F47721"/>
</svg>
