<svg width="21" height="20" viewBox="0 0 21 20" fill="none" xmlns="http://www.w3.org/2000/svg">
<path d="M16.3996 6.98136C16.1159 6.98136 15.8859 7.20185 15.8859 7.4738V16.4664C15.8859 17.4166 15.0793 18.1899 14.0882 18.1899H2.82509C1.83391 18.1899 1.02732 17.4166 1.02732 16.4664V5.66797C1.02732 4.71769 1.83391 3.94442 2.82509 3.94442H14.0882C14.3718 3.94442 14.6018 3.72393 14.6018 3.45198C14.6018 3.18002 14.3718 2.95953 14.0882 2.95953H2.82509C1.26731 2.95953 0 4.17451 0 5.66797V16.4664C0 17.9598 1.26731 19.1748 2.82509 19.1748H14.0882C15.6459 19.1748 16.9132 17.9598 16.9132 16.4664V7.47384C16.9132 7.20189 16.6832 6.98136 16.3996 6.98136Z" fill="black"/>
<path d="M20.3564 0.445165C19.7371 -0.148509 18.7297 -0.148267 18.111 0.445165L9.31277 8.88055C9.30099 8.89184 9.16831 9.02408 9.13394 9.09817L7.91555 11.7225C7.82902 11.9088 7.87113 12.1269 8.0216 12.271C8.11991 12.3652 8.25133 12.4152 8.38502 12.4152C8.45548 12.4152 8.52645 12.4013 8.59367 12.3726L11.331 11.2045C11.408 11.1716 11.5461 11.0444 11.558 11.0331L20.3564 2.59796C20.6563 2.31036 20.8216 1.92806 20.8216 1.52144C20.8216 1.11486 20.6563 0.732484 20.3564 0.445165ZM19.63 1.90136L10.8316 10.3367C10.8301 10.3382 10.8293 10.3399 10.8279 10.3411L9.39804 10.9513L10.0346 9.58053C10.0358 9.57908 10.0375 9.57831 10.0391 9.5769L18.8373 1.14156C19.0492 0.938334 19.4186 0.938576 19.6301 1.14176C19.736 1.243 19.7943 1.3779 19.7943 1.52144C19.7943 1.66498 19.7359 1.79985 19.63 1.90136Z" fill="black"/>
</svg>
