<svg width="100" height="100" viewBox="0 0 100 100" fill="none" xmlns="http://www.w3.org/2000/svg">
<path d="M50.3418 70.8964L56.9101 56.0739C66.987 59.9564 74.4776 72.0069 74.7248 86.5H25.0564C25.3035 72.0071 32.7938 59.9567 42.8594 56.074L49.4276 70.8964L49.8847 71.928L50.3418 70.8964Z" fill="#AFDAFC" stroke="black"/>
<path d="M43.1792 53.4312C41.0393 50.8911 39.4245 47.3966 39.4103 43.5517C39.4225 39.6385 40.6199 36.1166 42.5261 33.58C44.4421 31.0305 47.0509 29.5 49.8907 29.5C52.7302 29.5 55.3391 31.0305 57.2551 33.5801C59.1614 36.1166 60.359 39.6386 60.3712 43.5519C60.357 47.3979 58.7552 50.8925 56.6226 53.4318C54.4612 56.0053 51.8429 57.5 49.8907 57.5C47.967 57.5 45.3487 56.0062 43.1792 53.4312Z" fill="#F4E1C9" stroke="black"/>
<path d="M48.5508 7L50.7959 13.9098H58.0613L52.1835 18.1803L54.4286 25.0902L48.5508 20.8197L42.6729 25.0902L44.9181 18.1803L39.0402 13.9098H46.3056L48.5508 7Z" fill="#FFC946"/>
<path d="M25.1206 17.3794L30.3504 21.8837L36.2504 18.3018L33.5826 24.6675L38.8124 29.1719L31.9338 28.6018L29.266 34.9675L27.6826 28.2495L20.804 27.6794L26.704 24.0975L25.1206 17.3794Z" fill="#FFC946"/>
<path d="M63.1206 17.3794L68.3504 21.8837L74.2504 18.3018L71.5826 24.6675L76.8124 29.1719L69.9338 28.6018L67.266 34.9675L65.6826 28.2495L58.804 27.6794L64.704 24.0975L63.1206 17.3794Z" fill="#FFC946"/>
<path d="M65.3775 63.4576L65.244 63.4211C64.2227 63.1416 62.9355 63.2032 61.8298 63.7205L61.8297 63.7205C60.7247 64.2369 60.0402 65.0948 59.8377 65.9119L59.798 66.0721L59.6351 66.0986C58.5751 66.2707 57.5126 66.8434 56.8867 67.7206L65.3775 63.4576ZM65.3775 63.4576L65.4793 63.364M65.3775 63.4576L65.4793 63.364M65.4793 63.364C66.1794 62.7199 67.3247 62.25 68.6099 62.25C69.8957 62.25 71.041 62.7199 71.7403 63.3639L71.8422 63.4576L71.9757 63.4211C72.997 63.1416 74.2842 63.2032 75.3899 63.7205L75.39 63.7205C76.495 64.2369 77.1796 65.0948 77.382 65.9114L77.4217 66.0715L77.5844 66.098C78.6447 66.2707 79.7078 66.8435 80.333 67.7206L80.3331 67.7207C80.9553 68.5927 81.0233 69.5932 80.6938 70.3828L80.6169 70.567L80.7795 70.6828C81.5786 71.2517 82.1318 72.1588 82.1318 73.1509C82.1318 74.143 81.5786 75.0495 80.7795 75.6185L80.6169 75.7343L80.6937 75.9184C81.0233 76.7086 80.9553 77.7092 80.3331 78.5812L80.333 78.5813C79.7078 79.4584 78.6447 80.0311 77.5852 80.2033L77.4225 80.2297L77.3827 80.3897C77.1796 81.2069 76.495 82.0644 75.3899 82.5814C74.2841 83.0981 72.9969 83.1596 71.9755 82.8807L71.8422 82.8442L71.7404 82.9379C71.041 83.5814 69.8957 84.0518 68.6099 84.0518C67.3247 84.0518 66.1794 83.5814 65.48 82.9379L65.3782 82.8443L65.2449 82.8807C64.2228 83.1596 62.9355 83.0981 61.8298 82.5814C60.7247 82.0644 60.0402 81.207 59.8377 80.3899L59.798 80.2297M65.4793 63.364L59.798 80.2297M56.6027 70.567L56.4403 70.6827C55.6417 71.2517 55.0879 72.1588 55.0879 73.1509C55.0879 74.1429 55.6417 75.0495 56.4404 75.6192L56.6026 75.7349L56.526 75.9189C56.197 76.7085 56.265 77.7091 56.8866 78.5812L56.6027 70.567ZM56.6027 70.567L56.526 70.383M56.6027 70.567L56.526 70.383M56.526 70.383C56.197 69.5933 56.265 68.5927 56.8866 67.7207L56.526 70.383ZM59.798 80.2297L59.6351 80.2033M59.798 80.2297L59.6351 80.2033M59.6351 80.2033C58.5751 80.0311 57.5126 79.4584 56.8867 78.5813L59.6351 80.2033ZM68.6099 66.1564C63.9269 66.1564 60.0307 69.2437 60.0307 73.1509C60.0307 77.0576 63.9269 80.1448 68.6099 80.1448C73.2934 80.1448 77.1896 77.0576 77.1896 73.1509C77.1896 69.2437 73.2935 66.1564 68.6099 66.1564ZM68.6099 68.0266C72.187 68.0266 74.9974 70.3696 74.9974 73.1509C74.9974 75.9322 72.187 78.2747 68.6099 78.2747C65.0327 78.2747 62.223 75.9322 62.223 73.1509C62.223 70.3696 65.0328 68.0266 68.6099 68.0266Z" fill="#CD201F" stroke="black" stroke-width="0.5"/>
<path d="M59.4896 81.6153L54.9588 87.9695C54.73 88.2907 54.7494 88.683 55.0192 88.9923C55.2994 89.3122 55.8057 89.488 56.3198 89.41L56.3199 89.41L60.2506 88.8148L60.4378 88.7865L60.5158 88.959L61.9298 92.0857C62.0876 92.4345 62.5004 92.7093 63.0211 92.7461L59.4896 81.6153ZM59.4896 81.6153C59.9248 82.0564 60.4686 82.4463 61.1101 82.7462L61.1102 82.7463C62.3401 83.3208 63.7275 83.4727 64.9472 83.2975C65.9034 83.9471 67.2001 84.3739 68.6097 84.3739C69.073 84.3739 69.5234 84.3278 69.9531 84.2431L64.2534 92.2365L64.2534 92.2365C64.0163 92.5692 63.5411 92.7822 63.0213 92.7461L59.4896 81.6153Z" fill="#CD201F" stroke="black" stroke-width="0.5"/>
<path d="M76.2319 82.7753C76.8482 82.5082 77.3781 82.1577 77.8124 81.7567L82.1174 88.165C82.1174 88.165 82.1174 88.1651 82.1174 88.1651C82.1174 88.1651 82.1174 88.1651 82.1174 88.1651C82.3371 88.4927 82.3067 88.8842 82.0284 89.1858C81.7393 89.4977 81.2283 89.6593 80.7166 89.567L80.7165 89.567L76.804 88.8623L76.6177 88.8287L76.5349 88.999L75.0341 92.085C74.8667 92.4292 74.4464 92.6924 73.9249 92.7146C73.4042 92.7363 72.935 92.5101 72.7072 92.1709L72.7072 92.1708L68.0713 85.2703C67.9857 85.1425 67.9897 84.9981 68.0823 84.8753L68.6005 84.1899C68.6305 84.1912 68.6603 84.1922 68.6899 84.193C70.0996 84.2324 71.4071 83.8419 72.3817 83.2188C73.596 83.4285 74.9871 83.3153 76.2319 82.7753Z" fill="#CD201F" stroke="black" stroke-width="0.5"/>
<ellipse cx="68.5508" cy="73" rx="9" ry="8" fill="#CD201F"/>
<path fill-rule="evenodd" clip-rule="evenodd" d="M66.3426 76.2088C68.7317 73.0138 71.5553 70.0694 74.6684 67.313C75.5371 66.5612 76.3335 67.313 75.6819 68.0021C72.3516 71.1344 70.2521 74.2041 68.0078 78.0255C67.501 78.7773 65.9082 79.4664 65.2566 78.5893C63.9535 76.6473 63.2295 74.392 60.5508 74.1414C64.2431 71.0718 64.7499 73.9535 66.3426 76.2088Z" fill="#FFC946"/>
</svg>
