<svg width="100" height="100" viewBox="0 0 100 100" fill="none" xmlns="http://www.w3.org/2000/svg">
<path d="M41.1872 65.3857L49.7291 48.1547C62.9356 52.6165 72.6959 66.6674 72.9878 83.5H8.50588C8.79779 66.6675 18.5578 52.6167 31.7494 48.1548L40.2913 65.3857L40.7392 66.2893L41.1872 65.3857Z" fill="#FFCCBB" stroke="#D67675"/>
<path d="M31.9433 45.2514C29.1637 42.3023 27.0752 38.2549 27.0568 33.8097C27.0885 24.7108 33.2834 17.5 40.7469 17.5C48.2096 17.5 54.4054 24.7109 54.4371 33.8098C54.4188 38.2562 52.3471 42.3037 49.577 45.252C46.7798 48.2291 43.3548 50 40.7469 50C38.1756 50 34.7506 48.2298 31.9433 45.2514Z" fill="#F4E1C9" stroke="black"/>
<path d="M63.9569 48.6897H79.9816C86.3878 48.6897 91.5 53.3353 91.5 58.9328V73.2569C91.5 78.8543 86.3878 83.5 79.9816 83.5H53.9416C53.5259 83.5 53.1371 83.3519 52.8584 83.1028C52.5815 82.8553 52.4385 82.5325 52.4385 82.2095V58.9328C52.4385 53.3353 57.5507 48.6897 63.9569 48.6897Z" fill="#CB8181" stroke="white"/>
<path fill-rule="evenodd" clip-rule="evenodd" d="M65.6302 68.7362H68.6483C68.7234 68.7362 68.7953 68.7641 68.8484 68.8137C68.9014 68.8633 68.9312 68.9307 68.9312 69.0009V69.5171C69.619 68.7566 70.2481 67.9514 70.8137 67.1074C71.5114 66.0662 72.0939 64.9612 72.5522 63.8096C72.5667 63.773 72.5897 63.7399 72.6195 63.7126C72.6493 63.6853 72.6851 63.6645 72.7245 63.6517C74.1016 63.1293 74.8205 63.472 75.1498 64.2252C75.6664 65.4088 75.0175 67.6966 74.6699 68.8681L77.8675 68.8063H77.8831C78.7013 68.8178 79.2482 69.0342 79.5911 69.4046C79.9337 69.8218 80.0909 70.3465 80.0301 70.8694C80.0301 71.3589 80.0301 71.1774 80.0301 71.2372C80.0378 73.7462 80.0463 76.5148 77.0523 77.778C77.0159 77.7934 76.9764 77.8014 76.9365 77.8014H71.191C71.1796 77.8013 71.1681 77.8006 71.1567 77.7993C70.6513 77.7616 70.1549 77.6525 69.6844 77.4756C69.4222 77.3756 69.1704 77.2532 68.9323 77.1098V77.9587C68.9324 77.9935 68.9251 78.028 68.911 78.0602C68.8968 78.0924 68.876 78.1216 68.8497 78.1463C68.8234 78.1709 68.7922 78.1905 68.7578 78.2039C68.7235 78.2172 68.6867 78.2241 68.6494 78.2241H65.6313C65.5563 78.2241 65.4844 78.1962 65.4314 78.1465C65.3784 78.0969 65.3487 78.0296 65.3487 77.9595V69.0009C65.3486 68.9661 65.3559 68.9317 65.3701 68.8996C65.3843 68.8675 65.4051 68.8383 65.4313 68.8137C65.4576 68.7892 65.4888 68.7697 65.5231 68.7563C65.5574 68.743 65.5941 68.7362 65.6313 68.7362H65.6302ZM80.8533 55.2707L81.8136 57.1312L84.0018 57.4108C84.0543 57.4174 84.1037 57.4378 84.1444 57.4696C84.1852 57.5013 84.2155 57.5431 84.232 57.5903C84.2484 57.6374 84.2504 57.6879 84.2376 57.736C84.2247 57.7842 84.1977 57.8279 84.1595 57.8623L82.5638 59.2924L82.9558 61.3257C82.9653 61.3746 82.9598 61.425 82.94 61.4711C82.9202 61.5172 82.8868 61.5571 82.8438 61.5863C82.8008 61.6154 82.7499 61.6326 82.6969 61.6358C82.6439 61.639 82.591 61.6282 82.5443 61.6045L80.5995 60.6278L78.6539 61.6048C78.6059 61.6291 78.5514 61.6398 78.497 61.6356C78.4426 61.6315 78.3907 61.6127 78.3475 61.5815C78.3044 61.5503 78.2718 61.508 78.2538 61.4599C78.2358 61.4117 78.2331 61.3596 78.2461 61.3101L78.6352 59.2924L77.0397 57.8623C77.0013 57.8277 76.9741 57.7836 76.9614 57.7351C76.9487 57.6866 76.951 57.6358 76.9679 57.5884C76.9849 57.5411 77.0158 57.4992 77.0572 57.4677C77.0985 57.4362 77.1486 57.4162 77.2016 57.4103L79.3851 57.1312L80.3454 55.2707C80.3614 55.2394 80.3838 55.2114 80.4114 55.1882C80.439 55.165 80.4712 55.1472 80.5062 55.1357C80.5411 55.1242 80.5782 55.1192 80.6152 55.1211C80.6522 55.123 80.6884 55.1317 80.7218 55.1467C80.7794 55.1724 80.8258 55.2158 80.8533 55.2696V55.2707ZM72.8688 55.2707L73.8292 57.1312L76.0173 57.4108C76.0699 57.4174 76.1193 57.4378 76.16 57.4696C76.2007 57.5013 76.2311 57.5431 76.2475 57.5903C76.264 57.6374 76.2659 57.6879 76.2531 57.736C76.2403 57.7842 76.2133 57.8279 76.1751 57.8623L74.5793 59.2924L74.9717 61.3257C74.9812 61.3746 74.9757 61.425 74.9558 61.4711C74.936 61.5172 74.9027 61.5571 74.8597 61.5863C74.8166 61.6154 74.7657 61.6326 74.7127 61.6358C74.6597 61.639 74.6068 61.6282 74.5601 61.6045L72.615 60.6278L70.6694 61.6048C70.6214 61.6291 70.5669 61.6398 70.5126 61.6356C70.4582 61.6315 70.4063 61.6127 70.3631 61.5815C70.3199 61.5503 70.2874 61.508 70.2694 61.4599C70.2514 61.4117 70.2487 61.3596 70.2617 61.3101L70.6508 59.2924L69.0553 57.8623C69.0168 57.8277 68.9897 57.7836 68.977 57.7351C68.9643 57.6866 68.9665 57.6358 68.9835 57.5884C69.0004 57.5411 69.0314 57.4992 69.0727 57.4677C69.1141 57.4362 69.1642 57.4162 69.2171 57.4103L71.4006 57.1312L72.361 55.2707C72.384 55.2259 72.4201 55.1882 72.465 55.1618C72.51 55.1354 72.562 55.1214 72.615 55.1214C72.6681 55.1214 72.7201 55.1354 72.7651 55.1618C72.81 55.1882 72.8458 55.2259 72.8688 55.2707ZM64.8844 55.2707L65.8447 57.1312L68.0329 57.4108C68.0855 57.4174 68.1349 57.4378 68.1757 57.4695C68.2164 57.5012 68.2468 57.543 68.2633 57.5902C68.2798 57.6373 68.2817 57.6878 68.269 57.736C68.2562 57.7841 68.2291 57.8279 68.191 57.8623L66.5952 59.2924L66.9873 61.3257C66.9967 61.3746 66.9912 61.425 66.9714 61.4711C66.9516 61.5172 66.9183 61.5571 66.8752 61.5863C66.8322 61.6154 66.7813 61.6326 66.7283 61.6358C66.6753 61.639 66.6224 61.6282 66.5757 61.6045L64.6306 60.6278L62.6853 61.6048C62.6373 61.6289 62.5828 61.6395 62.5285 61.6353C62.4742 61.6311 62.4223 61.6123 62.3792 61.5811C62.3361 61.55 62.3035 61.5078 62.2854 61.4597C62.2673 61.4116 62.2645 61.3596 62.2773 61.3101L62.6663 59.2924L61.0711 57.8623C61.0326 57.8277 61.0053 57.7836 60.9925 57.7351C60.9798 57.6866 60.982 57.6357 60.999 57.5883C61.0159 57.5409 61.0469 57.4991 61.0884 57.4675C61.1298 57.436 61.18 57.4161 61.233 57.4103L63.4165 57.1312L64.3768 55.2707C64.3999 55.2259 64.4359 55.1882 64.4809 55.1618C64.5258 55.1354 64.5778 55.1214 64.6309 55.1214C64.684 55.1214 64.736 55.1354 64.7809 55.1618C64.8258 55.1882 64.8619 55.2259 64.885 55.2707H64.8844ZM68.9323 70.3224V76.4652C69.2268 76.6793 69.5512 76.8546 69.8965 76.9863C70.3135 77.1427 70.7533 77.2393 71.2012 77.2728H76.8753C79.4819 76.1374 79.4745 73.5678 79.4674 71.2372C79.4674 70.931 79.4657 71.1153 79.4657 70.8694V70.8591C79.5188 70.467 79.411 70.0706 79.1639 69.7499C78.926 69.4932 78.515 69.342 77.8743 69.3333L74.3025 69.4023C74.2586 69.4032 74.2151 69.3944 74.1755 69.3768C74.1359 69.3591 74.1012 69.333 74.0743 69.3006C74.0473 69.2682 74.0289 69.2303 74.0203 69.1901C74.0118 69.1498 74.0134 69.1082 74.0251 69.0686C74.0643 68.9346 74.075 68.8987 74.0882 68.8551C74.4062 67.7856 75.0902 65.4869 74.626 64.4226C74.4295 63.9728 73.9622 63.7785 73.0379 64.1032C72.5729 65.2483 71.9884 66.3477 71.2928 67.3854C70.5949 68.4243 69.8049 69.4064 68.931 70.3213L68.9323 70.3224ZM68.3668 69.2653H65.9131V77.6948H68.3668V69.2653Z" fill="#FFE401"/>
</svg>
