<svg width="100" height="100" viewBox="0 0 100 100" fill="none" xmlns="http://www.w3.org/2000/svg">
<path d="M72.1944 23.4648H34.6727C31.9376 23.4648 29.8125 25.4491 29.8125 27.7891V66.3828C29.8125 68.7228 31.9376 70.707 34.6727 70.707H72.1944C74.9295 70.707 77.0547 68.7228 77.0547 66.3828V27.7891C77.0547 25.4491 74.9295 23.4648 72.1944 23.4648Z" fill="#D5F1F5" stroke="#8EDFEB"/>
<path d="M87.3484 9H75.0527C73.4487 9 72.1509 10.2979 72.1509 11.9018C72.1509 13.5057 73.4487 14.8036 75.0527 14.8036H84.4466V24.1409C84.4466 25.7448 85.7445 27.0426 87.3484 27.0426C88.9523 27.0426 90.2502 25.7448 90.2502 24.1409V11.9018C90.2502 10.2979 88.9523 9 87.3484 9Z" fill="#FB6C6C"/>
<path d="M11.9018 27.0426C13.5057 27.0426 14.8036 25.7448 14.8036 24.1409V14.8036H24.0814C25.6853 14.8036 26.9831 13.5057 26.9831 11.9018C26.9831 10.2979 25.6853 9 24.0814 9H11.9018C10.2979 9 9 10.2979 9 11.9018V24.1409C9 25.7448 10.2979 27.0426 11.9018 27.0426Z" fill="#FB6C6C"/>
<path d="M87.3484 72.2074C85.7445 72.2074 84.4466 73.5052 84.4466 75.1091V84.4464H75.0527C73.4487 84.4464 72.1509 85.7443 72.1509 87.3482C72.1509 88.9521 73.4487 90.25 75.0527 90.25H87.3484C88.9523 90.25 90.2502 88.9521 90.2502 87.3482V75.1091C90.2502 73.5052 88.9523 72.2074 87.3484 72.2074Z" fill="#FB6C6C"/>
<path d="M11.9018 90.25H24.0814C25.6853 90.25 26.9831 88.9521 26.9831 87.3482C26.9831 85.7443 25.6853 84.4464 24.0814 84.4464H14.8036V75.1091C14.8036 73.5052 13.5057 72.2074 11.9018 72.2074C10.2979 72.2074 9 73.5052 9 75.1091V87.3482C9 88.9521 10.2979 90.25 11.9018 90.25Z" fill="#FB6C6C"/>
<path d="M65.8819 29.5H28.3602C25.6251 29.5 23.5 31.4843 23.5 33.8242V72.418C23.5 74.7579 25.6251 76.7422 28.3602 76.7422H65.8819C68.617 76.7422 70.7422 74.7579 70.7422 72.418V33.8242C70.7422 31.4843 68.617 29.5 65.8819 29.5Z" fill="#D5F1F5" stroke="#8EDFEB"/>
<path d="M31 40.1875C32.7604 40.1875 34.1875 38.7604 34.1875 37C34.1875 35.2396 32.7604 33.8125 31 33.8125C29.2396 33.8125 27.8125 35.2396 27.8125 37C27.8125 38.7604 29.2396 40.1875 31 40.1875Z" fill="#EFCC00"/>
<path d="M31 31.9375V33.0625" stroke="#EFCC00" stroke-width="0.5" stroke-miterlimit="10" stroke-linecap="round"/>
<path d="M31 40.9375V42.0625" stroke="#EFCC00" stroke-width="0.5" stroke-miterlimit="10" stroke-linecap="round"/>
<path d="M36.0625 37H34.9375" stroke="#EFCC00" stroke-width="0.5" stroke-miterlimit="10" stroke-linecap="round"/>
<path d="M27.0625 37H25.9375" stroke="#EFCC00" stroke-width="0.5" stroke-miterlimit="10" stroke-linecap="round"/>
<path d="M34.5792 33.4206L33.7842 34.2156" stroke="#EFCC00" stroke-width="0.5" stroke-miterlimit="10" stroke-linecap="round"/>
<path d="M28.2154 39.7843L27.4204 40.5793" stroke="#EFCC00" stroke-width="0.5" stroke-miterlimit="10" stroke-linecap="round"/>
<path d="M34.5792 40.5793L33.7842 39.7843" stroke="#EFCC00" stroke-width="0.5" stroke-miterlimit="10" stroke-linecap="round"/>
<path d="M28.2154 34.2156L27.4204 33.4206" stroke="#EFCC00" stroke-width="0.5" stroke-miterlimit="10" stroke-linecap="round"/>
<path d="M71 58.5L70.5 74L68.5 76L66.5 76.5H62H59L35 76.391L59.1313 46L65.5 52.5L71 58.5Z" fill="#70993F"/>
<path d="M65 77H61.7093H42.5H31.5H27L25 75.7979L24 73.9946L27.5 67.5L29.75 64.5L32 61.5L38 58L43.1279 51L46 52.5L49.5 56.5L65 77Z" fill="#80AF52"/>
<path d="M65.8819 29.5H28.3602C25.6251 29.5 23.5 31.4843 23.5 33.8242V72.418C23.5 74.7579 25.6251 76.7422 28.3602 76.7422H65.8819C68.617 76.7422 70.7422 74.7579 70.7422 72.418V33.8242C70.7422 31.4843 68.617 29.5 65.8819 29.5Z" stroke="#8EDFEB"/>
<path d="M33.6686 37.8816C33.6686 37.8816 33.4319 37.6449 32.8311 37.8816C32.8311 37.8816 31.6661 36.7985 30.5375 38.1363C30.5375 38.1363 28.9449 38.0999 29.0268 39.611C29.0268 39.611 27.1427 40.7121 29.1267 41.604C29.1267 41.604 30.0006 42.9329 31.1653 41.9136C31.1653 41.9136 32.6579 43.0238 33.2038 41.7498C33.2038 41.7498 34.4417 43.206 35.1879 41.8043C35.1879 41.8043 36.5167 43.0967 37.4995 41.6769C37.4995 41.6769 39.9029 42.5774 39.7567 39.7424C39.7567 39.7424 39.3198 38.9463 38.7555 39.0008C38.7555 39.0008 38.4094 37.0896 37.0081 37.581C37.0081 37.581 35.3152 36.7436 34.5507 37.8177C34.5507 37.8177 33.866 37.7846 33.6686 37.8816Z" fill="#2CC0FE"/>
<path d="M39.6563 39.3706C39.472 39.1609 39.2852 39.0192 39.0678 38.9251C39.0281 38.9079 38.9879 38.8927 38.947 38.8796C38.8348 38.2948 38.578 37.873 38.1816 37.6253C37.8016 37.3869 37.3929 37.321 36.974 37.4381C36.8298 37.3046 36.6623 37.1961 36.4846 37.1212C36.0071 36.9201 35.4625 36.9713 34.9891 37.2596C34.9363 37.2919 34.8855 37.3272 34.8454 37.3595C34.6943 37.4656 34.5661 37.5987 34.469 37.749C34.3601 37.7354 34.2503 37.7326 34.134 37.7395C34.0632 37.744 33.9928 37.7576 33.9215 37.776C33.5878 37.5987 33.2335 37.5528 32.8719 37.6531C32.7339 37.5262 32.5746 37.423 32.4055 37.3517C31.9485 37.1589 31.4247 37.2072 30.9702 37.4844C30.9194 37.5151 30.8707 37.5487 30.8322 37.5798C30.688 37.6806 30.566 37.8075 30.4735 37.9504C30.3699 37.9377 30.2671 37.9349 30.1565 37.9418C29.9571 37.9541 29.7613 38.0221 29.5398 38.1552C29.2511 38.3292 29.0353 38.6351 28.9161 39.0393C28.8756 39.1777 28.8571 39.3292 28.8625 39.4849C28.6118 39.5651 28.3915 39.7224 28.2437 39.9308C27.8756 40.4505 27.93 41.138 28.3698 41.5303C28.582 41.7195 28.8592 41.8186 29.161 41.8031C29.3506 42.0979 29.6213 42.3129 29.9169 42.4001C30.1729 42.4751 30.3981 42.4894 30.6066 42.444C30.8432 42.3919 31.0488 42.2879 31.2331 42.1262C31.5062 42.3547 31.8789 42.4849 32.2507 42.4849C32.331 42.4849 32.4108 42.4788 32.4899 42.4665C32.8023 42.4173 33.0964 42.2752 33.3404 42.0561C33.5018 42.2122 33.6865 42.3309 33.8851 42.3895C34.1517 42.4681 34.3863 42.4833 34.6025 42.4354C34.8511 42.3813 35.0677 42.2707 35.2598 42.1C35.5448 42.3408 35.9351 42.4779 36.3249 42.4779C36.4085 42.4779 36.4916 42.4718 36.5739 42.4587C36.9551 42.3989 37.3085 42.2064 37.5817 41.9112C38.1656 42.1536 38.8671 42.0672 39.3336 41.6843C39.6919 41.3903 39.9286 40.9861 39.9839 40.5754C40.0461 40.1171 39.9265 39.6781 39.6563 39.3706ZM32.4358 42.1217C32.0529 42.1806 31.6406 42.0525 31.358 41.7633C31.324 41.7273 31.2634 41.7208 31.2139 41.7224C31.1643 41.7236 31.1049 41.7597 31.0726 41.7969C30.9137 41.9595 30.7421 42.0566 30.5316 42.1028C30.3821 42.1352 30.213 42.1225 30.0152 42.0647C29.7748 41.9939 29.5533 41.801 29.4075 41.5348C29.3727 41.471 29.3031 41.4337 29.2298 41.446C28.9947 41.4796 28.7658 41.4157 28.602 41.2695C28.2523 40.9574 28.3031 40.4513 28.5283 40.1331C28.6536 39.9562 28.8547 39.8313 29.0799 39.7899C29.1712 39.7731 29.2339 39.6871 29.2216 39.595C29.2003 39.4337 29.2105 39.276 29.2511 39.138C29.3166 38.9156 29.4513 38.6163 29.72 38.4545C29.8916 38.3509 30.0369 38.2989 30.1778 38.2903C30.3015 38.2834 30.4141 38.2895 30.5308 38.3128C30.6082 38.3284 30.6848 38.2903 30.7204 38.2207C30.7908 38.0823 30.8989 37.9594 31.0406 37.8599C31.0763 37.8321 31.1131 37.8063 31.1516 37.7825C31.5095 37.5647 31.9178 37.5245 32.2704 37.6732C32.4285 37.7399 32.5763 37.8427 32.6979 37.9709C32.7454 38.0209 32.8371 38.0315 32.9014 38.0082C33.0914 37.9406 33.2819 37.9349 33.4711 37.9779C33.1819 38.1613 32.9645 38.4717 32.8437 38.8816C32.8007 39.0274 32.7819 39.188 32.788 39.3518C32.5247 39.4345 32.2937 39.5991 32.1389 39.8178C31.756 40.3579 31.8121 41.0729 32.27 41.4808C32.4919 41.6786 32.7888 41.7773 33.0968 41.7638C33.1029 41.7732 33.1107 41.781 33.1168 41.79C33.1152 41.7916 33.1127 41.792 33.1111 41.7937C32.9158 41.9693 32.6828 42.0828 32.4358 42.1217ZM39.6382 40.5291C39.5948 40.8534 39.4032 41.1761 39.1124 41.4144C38.7173 41.738 38.1018 41.7912 37.6161 41.5422C37.5436 41.5045 37.4519 41.5234 37.3999 41.5885C37.1714 41.8739 36.8589 42.0607 36.5211 42.1135C36.1144 42.1757 35.6828 42.0406 35.3855 41.7359C35.3544 41.7027 35.3003 41.6954 35.2532 41.6954C35.2491 41.6954 35.2446 41.6954 35.2409 41.6958C35.191 41.697 35.1312 41.7339 35.0988 41.7715C34.9314 41.9431 34.7499 42.0455 34.5284 42.0942C34.3712 42.1286 34.1926 42.1159 33.9842 42.0545C33.7307 41.98 33.4969 41.7765 33.3433 41.4959C33.3085 41.4321 33.2393 41.3968 33.1656 41.4071C32.9158 41.4419 32.675 41.3743 32.5026 41.2208C32.1328 40.8911 32.186 40.3563 32.4244 40.0205C32.5566 39.8338 32.7688 39.7015 33.0067 39.6581C33.098 39.6413 33.1607 39.5553 33.1484 39.4631C33.1258 39.2936 33.1365 39.1269 33.1795 38.9816C33.2483 38.7473 33.3904 38.4324 33.6738 38.2612C33.8539 38.1527 34.0071 38.0979 34.1566 38.0888C34.2864 38.0802 34.4051 38.088 34.5276 38.1122C34.6074 38.1277 34.6816 38.0897 34.7172 38.02C34.7917 37.8743 34.9056 37.7444 35.055 37.6396C35.0923 37.6101 35.1308 37.5831 35.1717 37.5585C35.5489 37.3292 35.9781 37.2866 36.3495 37.4435C36.5166 37.5139 36.6726 37.622 36.7991 37.7567C36.8466 37.8067 36.9388 37.8165 37.0039 37.794C37.3339 37.6773 37.6767 37.7211 37.9969 37.9218C38.3274 38.129 38.5379 38.5074 38.6214 39.0459C38.6325 39.1163 38.6849 39.1728 38.7545 39.1892C38.8139 39.2031 38.8725 39.2219 38.929 39.2465C39.0993 39.3206 39.2427 39.4304 39.3938 39.6024C39.5973 39.8325 39.6861 40.1708 39.6382 40.5291Z" fill="#8498A0"/>
<path d="M45.4173 34.2204C45.4173 34.2204 45.3581 34.1612 45.2079 34.2204C45.2079 34.2204 44.9166 33.9496 44.6345 34.2841C44.6345 34.2841 44.2364 34.275 44.2568 34.6527C44.2568 34.6527 43.7858 34.928 44.2818 35.151C44.2818 35.151 44.5003 35.4832 44.7914 35.2284C44.7914 35.2284 45.1646 35.506 45.3011 35.1875C45.3011 35.1875 45.6106 35.5515 45.7971 35.2011C45.7971 35.2011 46.1293 35.5242 46.375 35.1692C46.375 35.1692 46.9759 35.3944 46.9393 34.6856C46.9393 34.6856 46.8301 34.4866 46.689 34.5002C46.689 34.5002 46.6025 34.0224 46.2522 34.1453C46.2522 34.1453 45.8289 33.9359 45.6378 34.2044C45.6378 34.2044 45.4666 34.1961 45.4173 34.2204Z" fill="#2CC0FE"/>
<path d="M46.9141 34.5926C46.868 34.5402 46.8213 34.5048 46.7669 34.4813C46.757 34.477 46.747 34.4732 46.7367 34.4699C46.7087 34.3237 46.6445 34.2183 46.5454 34.1563C46.4504 34.0967 46.3482 34.0803 46.2435 34.1095C46.2075 34.0762 46.1656 34.049 46.1212 34.0303C46.0018 33.98 45.8656 33.9928 45.7473 34.0649C45.7341 34.073 45.7214 34.0818 45.7113 34.0899C45.6736 34.1164 45.6415 34.1497 45.6173 34.1872C45.59 34.1839 45.5626 34.1831 45.5335 34.1849C45.5158 34.186 45.4982 34.1894 45.4804 34.194C45.3969 34.1497 45.3084 34.1382 45.218 34.1633C45.1835 34.1315 45.1437 34.1057 45.1014 34.0879C44.9871 34.0397 44.8562 34.0518 44.7425 34.1211C44.7299 34.1288 44.7177 34.1372 44.708 34.145C44.672 34.1701 44.6415 34.2019 44.6184 34.2376C44.5925 34.2344 44.5668 34.2337 44.5391 34.2355C44.4893 34.2385 44.4403 34.2555 44.3849 34.2888C44.3128 34.3323 44.2588 34.4088 44.229 34.5098C44.2189 34.5444 44.2143 34.5823 44.2156 34.6212C44.153 34.6413 44.0979 34.6806 44.0609 34.7327C43.9689 34.8626 43.9825 35.0345 44.0925 35.1326C44.1455 35.1799 44.2148 35.2047 44.2902 35.2008C44.3376 35.2745 44.4053 35.3282 44.4792 35.35C44.5432 35.3688 44.5995 35.3724 44.6516 35.361C44.7108 35.348 44.7622 35.322 44.8083 35.2815C44.8766 35.3387 44.9697 35.3712 45.0627 35.3712C45.0827 35.3712 45.1027 35.3697 45.1225 35.3666C45.2006 35.3543 45.2741 35.3188 45.3351 35.264C45.3754 35.303 45.4216 35.3327 45.4713 35.3474C45.5379 35.367 45.5966 35.3708 45.6506 35.3588C45.7128 35.3453 45.7669 35.3177 45.8149 35.275C45.8862 35.3352 45.9838 35.3695 46.0812 35.3695C46.1021 35.3695 46.1229 35.3679 46.1435 35.3647C46.2388 35.3497 46.3271 35.3016 46.3954 35.2278C46.5414 35.2884 46.7168 35.2668 46.8334 35.1711C46.923 35.0976 46.9821 34.9965 46.996 34.8938C47.0115 34.7793 46.9816 34.6695 46.9141 34.5926ZM45.109 35.2804C45.0132 35.2952 44.9101 35.2631 44.8395 35.1908C44.831 35.1818 44.8159 35.1802 44.8035 35.1806C44.7911 35.1809 44.7762 35.1899 44.7681 35.1992C44.7284 35.2399 44.6855 35.2641 44.6329 35.2757C44.5955 35.2838 44.5533 35.2806 44.5038 35.2662C44.4437 35.2485 44.3883 35.2003 44.3519 35.1337C44.3432 35.1177 44.3258 35.1084 44.3074 35.1115C44.2487 35.1199 44.1915 35.1039 44.1505 35.0674C44.0631 34.9894 44.0758 34.8628 44.1321 34.7833C44.1634 34.739 44.2137 34.7078 44.27 34.6975C44.2928 34.6933 44.3085 34.6718 44.3054 34.6488C44.3001 34.6084 44.3026 34.569 44.3128 34.5345C44.3292 34.4789 44.3628 34.4041 44.43 34.3636C44.4729 34.3377 44.5092 34.3247 44.5444 34.3226C44.5754 34.3208 44.6035 34.3224 44.6327 34.3282C44.652 34.3321 44.6712 34.3226 44.6801 34.3052C44.6977 34.2706 44.7247 34.2399 44.7602 34.215C44.7691 34.208 44.7783 34.2016 44.7879 34.1956C44.8774 34.1412 44.9794 34.1311 45.0676 34.1683C45.1071 34.185 45.1441 34.2107 45.1745 34.2427C45.1864 34.2552 45.2093 34.2579 45.2254 34.252C45.2729 34.2352 45.3205 34.2337 45.3678 34.2445C45.2955 34.2903 45.2411 34.3679 45.2109 34.4704C45.2002 34.5069 45.1955 34.547 45.197 34.5879C45.1312 34.6086 45.0734 34.6498 45.0347 34.7044C44.939 34.8395 44.953 35.0182 45.0675 35.1202C45.123 35.1696 45.1972 35.1943 45.2742 35.1909C45.2757 35.1933 45.2777 35.1952 45.2792 35.1975C45.2788 35.1979 45.2782 35.198 45.2778 35.1984C45.2289 35.2423 45.1707 35.2707 45.109 35.2804ZM46.9096 34.8823C46.8987 34.9634 46.8508 35.044 46.7781 35.1036C46.6793 35.1845 46.5254 35.1978 46.404 35.1356C46.3859 35.1261 46.363 35.1308 46.35 35.1471C46.2928 35.2185 46.2147 35.2652 46.1303 35.2784C46.0286 35.2939 45.9207 35.2601 45.8464 35.184C45.8386 35.1757 45.8251 35.1738 45.8133 35.1738C45.8123 35.1738 45.8112 35.1738 45.8102 35.1739C45.7977 35.1743 45.7828 35.1835 45.7747 35.1929C45.7328 35.2358 45.6875 35.2614 45.6321 35.2736C45.5928 35.2822 45.5482 35.279 45.496 35.2636C45.4327 35.245 45.3742 35.1941 45.3358 35.124C45.3271 35.108 45.3098 35.0992 45.2914 35.1018C45.2289 35.1105 45.1687 35.0936 45.1256 35.0552C45.0332 34.9728 45.0465 34.8391 45.1061 34.7551C45.1392 34.7084 45.1922 34.6754 45.2517 34.6645C45.2745 34.6603 45.2902 34.6388 45.2871 34.6158C45.2815 34.5734 45.2841 34.5317 45.2949 34.4954C45.3121 34.4368 45.3476 34.3581 45.4184 34.3153C45.4635 34.2882 45.5018 34.2745 45.5391 34.2722C45.5716 34.2701 45.6013 34.272 45.6319 34.278C45.6519 34.2819 45.6704 34.2724 45.6793 34.255C45.6979 34.2186 45.7264 34.1861 45.7638 34.1599C45.7731 34.1525 45.7827 34.1458 45.7929 34.1396C45.8872 34.0823 45.9945 34.0717 46.0874 34.1109C46.1291 34.1285 46.1681 34.1555 46.1998 34.1892C46.2117 34.2017 46.2347 34.2041 46.251 34.1985C46.3335 34.1693 46.4192 34.1803 46.4992 34.2304C46.5819 34.2822 46.6345 34.3768 46.6554 34.5115C46.6581 34.5291 46.6712 34.5432 46.6886 34.5473C46.7035 34.5508 46.7181 34.5555 46.7322 34.5616C46.7748 34.5802 46.8107 34.6076 46.8484 34.6506C46.8993 34.7081 46.9215 34.7927 46.9096 34.8823Z" fill="#8498A0"/>
<path d="M63.4173 37.2204C63.4173 37.2204 63.3581 37.1612 63.2079 37.2204C63.2079 37.2204 62.9166 36.9496 62.6345 37.2841C62.6345 37.2841 62.2364 37.275 62.2568 37.6527C62.2568 37.6527 61.7858 37.928 62.2818 38.151C62.2818 38.151 62.5003 38.4832 62.7914 38.2284C62.7914 38.2284 63.1646 38.506 63.3011 38.1875C63.3011 38.1875 63.6106 38.5515 63.7971 38.2011C63.7971 38.2011 64.1293 38.5242 64.375 38.1692C64.375 38.1692 64.9759 38.3944 64.9393 37.6856C64.9393 37.6856 64.8301 37.4866 64.689 37.5002C64.689 37.5002 64.6025 37.0224 64.2522 37.1453C64.2522 37.1453 63.8289 36.9359 63.6378 37.2044C63.6378 37.2044 63.4666 37.1961 63.4173 37.2204Z" fill="#2CC0FE"/>
<path d="M64.9141 37.5926C64.868 37.5402 64.8213 37.5048 64.7669 37.4813C64.757 37.477 64.747 37.4732 64.7367 37.4699C64.7087 37.3237 64.6445 37.2183 64.5454 37.1563C64.4504 37.0967 64.3482 37.0803 64.2435 37.1095C64.2075 37.0762 64.1656 37.049 64.1212 37.0303C64.0018 36.98 63.8656 36.9928 63.7473 37.0649C63.7341 37.073 63.7214 37.0818 63.7113 37.0899C63.6736 37.1164 63.6415 37.1497 63.6173 37.1872C63.59 37.1839 63.5626 37.1831 63.5335 37.1849C63.5158 37.186 63.4982 37.1894 63.4804 37.194C63.3969 37.1497 63.3084 37.1382 63.218 37.1633C63.1835 37.1315 63.1437 37.1057 63.1014 37.0879C62.9871 37.0397 62.8562 37.0518 62.7425 37.1211C62.7299 37.1288 62.7177 37.1372 62.708 37.145C62.672 37.1701 62.6415 37.2019 62.6184 37.2376C62.5925 37.2344 62.5668 37.2337 62.5391 37.2355C62.4893 37.2385 62.4403 37.2555 62.3849 37.2888C62.3128 37.3323 62.2588 37.4088 62.229 37.5098C62.2189 37.5444 62.2143 37.5823 62.2156 37.6212C62.153 37.6413 62.0979 37.6806 62.0609 37.7327C61.9689 37.8626 61.9825 38.0345 62.0925 38.1326C62.1455 38.1799 62.2148 38.2047 62.2902 38.2008C62.3376 38.2745 62.4053 38.3282 62.4792 38.35C62.5432 38.3688 62.5995 38.3724 62.6516 38.361C62.7108 38.348 62.7622 38.322 62.8083 38.2815C62.8766 38.3387 62.9697 38.3712 63.0627 38.3712C63.0827 38.3712 63.1027 38.3697 63.1225 38.3666C63.2006 38.3543 63.2741 38.3188 63.3351 38.264C63.3754 38.303 63.4216 38.3327 63.4713 38.3474C63.5379 38.367 63.5966 38.3708 63.6506 38.3588C63.7128 38.3453 63.7669 38.3177 63.8149 38.275C63.8862 38.3352 63.9838 38.3695 64.0812 38.3695C64.1021 38.3695 64.1229 38.3679 64.1435 38.3647C64.2388 38.3497 64.3271 38.3016 64.3954 38.2278C64.5414 38.2884 64.7168 38.2668 64.8334 38.1711C64.923 38.0976 64.9821 37.9965 64.996 37.8938C65.0115 37.7793 64.9816 37.6695 64.9141 37.5926ZM63.109 38.2804C63.0132 38.2952 62.9101 38.2631 62.8395 38.1908C62.831 38.1818 62.8159 38.1802 62.8035 38.1806C62.7911 38.1809 62.7762 38.1899 62.7681 38.1992C62.7284 38.2399 62.6855 38.2641 62.6329 38.2757C62.5955 38.2838 62.5533 38.2806 62.5038 38.2662C62.4437 38.2485 62.3883 38.2003 62.3519 38.1337C62.3432 38.1177 62.3258 38.1084 62.3074 38.1115C62.2487 38.1199 62.1915 38.1039 62.1505 38.0674C62.0631 37.9894 62.0758 37.8628 62.1321 37.7833C62.1634 37.739 62.2137 37.7078 62.27 37.6975C62.2928 37.6933 62.3085 37.6718 62.3054 37.6488C62.3001 37.6084 62.3026 37.569 62.3128 37.5345C62.3292 37.4789 62.3628 37.4041 62.43 37.3636C62.4729 37.3377 62.5092 37.3247 62.5444 37.3226C62.5754 37.3208 62.6035 37.3224 62.6327 37.3282C62.652 37.3321 62.6712 37.3226 62.6801 37.3052C62.6977 37.2706 62.7247 37.2399 62.7602 37.215C62.7691 37.208 62.7783 37.2016 62.7879 37.1956C62.8774 37.1412 62.9794 37.1311 63.0676 37.1683C63.1071 37.185 63.1441 37.2107 63.1745 37.2427C63.1864 37.2552 63.2093 37.2579 63.2254 37.252C63.2729 37.2352 63.3205 37.2337 63.3678 37.2445C63.2955 37.2903 63.2411 37.3679 63.2109 37.4704C63.2002 37.5069 63.1955 37.547 63.197 37.5879C63.1312 37.6086 63.0734 37.6498 63.0347 37.7044C62.939 37.8395 62.953 38.0182 63.0675 38.1202C63.123 38.1696 63.1972 38.1943 63.2742 38.1909C63.2757 38.1933 63.2777 38.1952 63.2792 38.1975C63.2788 38.1979 63.2782 38.198 63.2778 38.1984C63.2289 38.2423 63.1707 38.2707 63.109 38.2804ZM64.9096 37.8823C64.8987 37.9634 64.8508 38.044 64.7781 38.1036C64.6793 38.1845 64.5254 38.1978 64.404 38.1356C64.3859 38.1261 64.363 38.1308 64.35 38.1471C64.2928 38.2185 64.2147 38.2652 64.1303 38.2784C64.0286 38.2939 63.9207 38.2601 63.8464 38.184C63.8386 38.1757 63.8251 38.1738 63.8133 38.1738C63.8123 38.1738 63.8112 38.1738 63.8102 38.1739C63.7977 38.1743 63.7828 38.1835 63.7747 38.1929C63.7328 38.2358 63.6875 38.2614 63.6321 38.2736C63.5928 38.2822 63.5482 38.279 63.496 38.2636C63.4327 38.245 63.3742 38.1941 63.3358 38.124C63.3271 38.108 63.3098 38.0992 63.2914 38.1018C63.2289 38.1105 63.1687 38.0936 63.1256 38.0552C63.0332 37.9728 63.0465 37.8391 63.1061 37.7551C63.1392 37.7084 63.1922 37.6754 63.2517 37.6645C63.2745 37.6603 63.2902 37.6388 63.2871 37.6158C63.2815 37.5734 63.2841 37.5317 63.2949 37.4954C63.3121 37.4368 63.3476 37.3581 63.4184 37.3153C63.4635 37.2882 63.5018 37.2745 63.5391 37.2722C63.5716 37.2701 63.6013 37.272 63.6319 37.278C63.6519 37.2819 63.6704 37.2724 63.6793 37.255C63.6979 37.2186 63.7264 37.1861 63.7638 37.1599C63.7731 37.1525 63.7827 37.1458 63.7929 37.1396C63.8872 37.0823 63.9945 37.0717 64.0874 37.1109C64.1291 37.1285 64.1681 37.1555 64.1998 37.1892C64.2117 37.2017 64.2347 37.2041 64.251 37.1985C64.3335 37.1693 64.4192 37.1803 64.4992 37.2304C64.5819 37.2822 64.6345 37.3768 64.6554 37.5115C64.6581 37.5291 64.6712 37.5432 64.6886 37.5473C64.7035 37.5508 64.7181 37.5555 64.7322 37.5616C64.7748 37.5802 64.8107 37.6076 64.8484 37.6506C64.8993 37.7081 64.9215 37.7927 64.9096 37.8823Z" fill="#8498A0"/>
</svg>
