<svg width="16" height="12" viewBox="0 0 16 12" fill="none" xmlns="http://www.w3.org/2000/svg">
<path d="M0.996953 0.52002C0.494379 0.52002 0.0800781 0.925113 0.0800781 1.41652V10.178C0.0800781 10.6694 0.494379 11.08 0.996953 11.08H15.0032C15.5058 11.08 15.9201 10.6694 15.9201 10.178V1.41652C15.9201 0.925113 15.5058 0.52002 15.0032 0.52002H0.996953ZM1.37945 1.22402H14.6207L8.00008 6.44902L1.37945 1.22402ZM0.800078 1.66952L6.03133 5.80002L0.800078 9.92502V1.66952ZM15.2001 1.66952V9.92502L9.96883 5.80002L15.2001 1.66952ZM6.59945 6.25102L7.77508 7.17502C7.83893 7.225 7.91829 7.25223 8.00008 7.25223C8.08187 7.25223 8.16123 7.225 8.22508 7.17502L9.4007 6.25102L14.6207 10.376H1.37945L6.59945 6.25102Z" fill="#4D4D4D"/>
</svg>
