<svg width="15" height="15" viewBox="0 0 15 15" fill="none" xmlns="http://www.w3.org/2000/svg">
<path d="M14.313 5.60366V5.60238C14.313 5.59094 14.3123 5.57951 14.311 5.56814C14.311 5.56494 14.31 5.56174 14.3095 5.55854C14.3083 5.55006 14.307 5.54158 14.305 5.5331C14.305 5.52958 14.3032 5.52622 14.3023 5.5227C14.3002 5.51486 14.298 5.5067 14.2955 5.4995C14.2942 5.49566 14.2927 5.49198 14.2912 5.4883C14.2885 5.48126 14.2857 5.47422 14.2823 5.4675C14.2805 5.46334 14.2785 5.4595 14.2763 5.4555C14.2742 5.4515 14.2698 5.44318 14.2662 5.43726C14.2625 5.43134 14.261 5.42878 14.2582 5.42462C14.2553 5.42046 14.2508 5.41406 14.247 5.40862C14.2432 5.40318 14.2405 5.40014 14.2372 5.39598C14.2338 5.39182 14.229 5.3867 14.2247 5.38222C14.2203 5.37774 14.2173 5.3739 14.2133 5.37006C14.2093 5.36622 14.2033 5.3611 14.1983 5.35678C14.1933 5.35246 14.1918 5.35054 14.1882 5.34766L12.35 3.88014V2.4347C12.35 2.39105 12.3411 2.34782 12.3237 2.30748C12.3063 2.26714 12.2808 2.23049 12.2487 2.19961C12.2165 2.16874 12.1784 2.14424 12.1363 2.12753C12.0943 2.11082 12.0493 2.10222 12.0038 2.10222H10.1225L7.72133 0.185261C7.65915 0.135518 7.58077 0.108276 7.49983 0.108276C7.41889 0.108276 7.34051 0.135518 7.27833 0.185261L4.88333 2.10222H3.1575C3.06565 2.10222 2.97756 2.13725 2.91261 2.1996C2.84766 2.26195 2.81117 2.34652 2.81117 2.4347V3.75182L0.811167 5.34798C0.750442 5.39657 0.708862 5.46365 0.693333 5.53806V5.54078C0.691333 5.5507 0.6895 5.56062 0.6885 5.5707C0.6885 5.57534 0.6885 5.58014 0.6885 5.58494C0.6885 5.58974 0.6875 5.59726 0.6875 5.60366V13.9592C0.6875 14.0473 0.723925 14.1317 0.788772 14.1941C0.853619 14.2564 0.941582 14.2914 1.03333 14.2915H13.9667C14.0585 14.2915 14.1465 14.2565 14.2114 14.1942C14.2764 14.1318 14.3128 14.0473 14.3128 13.9592L14.313 5.60366ZM1.37967 6.3123L5.27967 9.42542L1.37967 13.1582V6.3123ZM5.813 9.8523L7.278 11.0219C7.34017 11.0715 7.41848 11.0987 7.49933 11.0987C7.58019 11.0987 7.6585 11.0715 7.72067 11.0219L9.18567 9.8523L13.1285 13.6267H1.87083L5.813 9.8523ZM9.7205 9.42542L13.6205 6.3123V13.1582L9.7205 9.42542ZM13.4252 5.60366L12.35 6.46238V4.74478L13.4252 5.60366ZM7.5 0.873421L9.03917 2.10222H5.965L7.5 0.873421ZM11.6567 2.76702V7.01518L7.5 10.3341L3.50367 7.1435V2.76702H11.6567ZM2.81117 4.61646V6.5907L1.57483 5.60366L2.81117 4.61646ZM4.73333 4.8611C4.73333 4.81745 4.74229 4.77422 4.7597 4.73389C4.77711 4.69356 4.80262 4.65692 4.83478 4.62606C4.86694 4.5952 4.90513 4.57072 4.94714 4.55403C4.98916 4.53734 5.03419 4.52876 5.07967 4.52878H9.754C9.84452 4.53069 9.93066 4.56655 9.99397 4.62867C10.0573 4.6908 10.0927 4.77426 10.0927 4.86118C10.0927 4.9481 10.0573 5.03156 9.99397 5.09369C9.93066 5.15582 9.84452 5.19167 9.754 5.19358H5.0795C4.98768 5.19354 4.89963 5.15849 4.83471 5.09614C4.7698 5.0338 4.73333 4.94925 4.73333 4.8611ZM4.73333 6.7891C4.73333 6.74545 4.74229 6.70222 4.7597 6.66189C4.77711 6.62156 4.80262 6.58492 4.83478 6.55406C4.86694 6.5232 4.90513 6.49872 4.94714 6.48203C4.98916 6.46534 5.03419 6.45676 5.07967 6.45678H9.754C9.84452 6.45869 9.93066 6.49455 9.99397 6.55667C10.0573 6.6188 10.0927 6.70226 10.0927 6.78918C10.0927 6.8761 10.0573 6.95956 9.99397 7.02169C9.93066 7.08382 9.84452 7.11967 9.754 7.12158H5.0795C4.98768 7.12154 4.89963 7.08649 4.83471 7.02414C4.7698 6.9618 4.73333 6.87725 4.73333 6.7891Z" fill="#606060"/>
</svg>
