<svg width="12" height="17" viewBox="0 0 12 17" fill="none" xmlns="http://www.w3.org/2000/svg">
<path d="M7.32626 4.14799C7.32483 3.85085 7.24579 3.56084 7.09909 3.31456C6.95239 3.06828 6.74462 2.87676 6.50198 2.76416C6.25935 2.65157 5.99272 2.62294 5.73575 2.6819C5.47877 2.74085 5.24296 2.88475 5.05807 3.09543C4.87318 3.30611 4.74749 3.57414 4.69686 3.86569C4.64623 4.15725 4.67293 4.45927 4.77359 4.73364C4.87425 5.00801 5.04436 5.24245 5.26246 5.40737C5.48056 5.57229 5.73687 5.66031 5.99906 5.66031C6.35191 5.65887 6.68984 5.49882 6.93867 5.21528C7.1875 4.93174 7.32689 4.54789 7.32626 4.14799ZM5.15186 4.14799C5.15328 3.95845 5.20417 3.77362 5.29812 3.6168C5.39207 3.45998 5.52488 3.33818 5.6798 3.26676C5.83473 3.19534 6.00484 3.17748 6.16871 3.21545C6.33257 3.25341 6.48285 3.3455 6.60062 3.4801C6.71838 3.6147 6.79836 3.78579 6.83047 3.97182C6.86258 4.15784 6.84538 4.35048 6.78105 4.52545C6.71673 4.70042 6.60814 4.8499 6.46898 4.95505C6.32982 5.06019 6.16631 5.11631 5.99906 5.11631C5.77351 5.11487 5.55767 5.01213 5.39885 4.83062C5.24004 4.6491 5.15122 4.40362 5.15186 4.14799Z" fill="black"/>
<path d="M11.1535 11.4988L10.6939 8.60879C10.654 8.35785 10.5376 8.13078 10.3649 7.96722C10.1923 7.80366 9.97452 7.71401 9.74953 7.71391H7.85713L8.48233 6.76191C8.96125 6.0517 9.20082 5.1711 9.15793 4.27855C9.04273 2.34055 7.64353 0.815994 5.97073 0.815994C4.29793 0.815994 2.89873 2.34055 2.78353 4.28263C2.74064 5.17518 2.98021 6.05578 3.45913 6.76599L4.08433 7.71799H2.25193C2.02694 7.71809 1.80912 7.80774 1.63651 7.9713C1.46391 8.13486 1.34747 8.36193 1.30753 8.61287L0.847932 11.4988C0.822406 11.6558 0.827665 11.8172 0.863338 11.9716C0.89901 12.126 0.964221 12.2696 1.05435 12.3923C1.14447 12.5149 1.2573 12.6136 1.38484 12.6813C1.51238 12.749 1.6515 12.784 1.79233 12.784H10.2091C10.3496 12.7839 10.4883 12.7489 10.6156 12.6815C10.7428 12.614 10.8554 12.5157 10.9455 12.3936C11.0356 12.2714 11.1009 12.1283 11.1368 11.9744C11.1728 11.8205 11.1785 11.6595 11.1535 11.5029V11.4988ZM3.26233 4.31935C3.34873 2.86687 4.38553 1.35999 5.97073 1.35999C7.55593 1.35999 8.59273 2.85599 8.67913 4.31527C8.71418 5.07845 8.50781 5.83075 8.09713 6.43687L5.97073 9.66551L3.84073 6.44095C3.43134 5.83427 3.22626 5.08202 3.26233 4.31935ZM10.5823 12.0414C10.537 12.1039 10.4801 12.1541 10.4155 12.1884C10.3509 12.2228 10.2804 12.2404 10.2091 12.24H1.79233C1.72178 12.24 1.6521 12.2223 1.58826 12.1883C1.52441 12.1543 1.46796 12.1048 1.42293 12.0432C1.37791 11.9817 1.3454 11.9096 1.32774 11.8322C1.31007 11.7548 1.30768 11.6739 1.32073 11.5954L1.78033 8.70399C1.80032 8.57841 1.85862 8.46478 1.94505 8.38299C2.03148 8.3012 2.14053 8.25644 2.25313 8.25655H4.44073L5.77873 10.283C5.80106 10.317 5.83011 10.3446 5.86355 10.3637C5.89699 10.3827 5.9339 10.3927 5.97133 10.3927C6.00876 10.3927 6.04567 10.3827 6.07911 10.3637C6.11255 10.3446 6.1416 10.317 6.16393 10.283L7.49833 8.25792H9.74953C9.86175 8.25806 9.97038 8.30277 10.0565 8.38426C10.1427 8.46576 10.2009 8.57889 10.2211 8.70399L10.6807 11.5954C10.6932 11.6735 10.6905 11.7538 10.6726 11.8307C10.6548 11.9075 10.6223 11.979 10.5775 12.0401L10.5823 12.0414Z" fill="black"/>
</svg>
