<svg width="100" height="100" viewBox="0 0 100 100" fill="none" xmlns="http://www.w3.org/2000/svg">
<path d="M21.4062 82.2812V38.9844H79.4688V82.2812H21.4062Z" fill="#D0E5FF" stroke="#617A9A"/>
<path d="M77.125 17H23.875L15 33H86L77.125 17Z" fill="#FB6C6C"/>
<path d="M15 32.5781H26.8125V38.4844C26.8125 40.0508 26.1902 41.5531 25.0826 42.6607C23.975 43.7684 22.4727 44.3906 20.9062 44.3906C19.3398 44.3906 17.8375 43.7684 16.7299 42.6607C15.6223 41.5531 15 40.0508 15 38.4844V32.5781Z" fill="#FF9D9C"/>
<path d="M26.8125 32.5781H38.625V38.4844C38.625 40.0508 38.0027 41.5531 36.8951 42.6607C35.7875 43.7684 34.2852 44.3906 32.7188 44.3906C31.1523 44.3906 29.65 43.7684 28.5424 42.6607C27.4348 41.5531 26.8125 40.0508 26.8125 38.4844V32.5781Z" fill="#FFC946"/>
<path d="M38.625 32.5781H50.4375V38.4844C50.4375 40.0508 49.8152 41.5531 48.7076 42.6607C47.6 43.7684 46.0977 44.3906 44.5312 44.3906C42.9648 44.3906 41.4625 43.7684 40.3549 42.6607C39.2473 41.5531 38.625 40.0508 38.625 38.4844V32.5781Z" fill="#FF9D9C"/>
<path d="M50.4375 32.5781H62.25V38.4844C62.25 40.0508 61.6277 41.5531 60.5201 42.6607C59.4125 43.7684 57.9102 44.3906 56.3438 44.3906C54.7773 44.3906 53.275 43.7684 52.1674 42.6607C51.0598 41.5531 50.4375 40.0508 50.4375 38.4844V32.5781Z" fill="#FFC946"/>
<path d="M62.25 32.5781H74.0625V38.4844C74.0625 40.0508 73.4402 41.5531 72.3326 42.6607C71.225 43.7684 69.7227 44.3906 68.1562 44.3906C66.5898 44.3906 65.0875 43.7684 63.9799 42.6607C62.8723 41.5531 62.25 40.0508 62.25 38.4844V32.5781Z" fill="#FF9D9C"/>
<path d="M74.0625 32.5781H85.875V38.4844C85.875 40.0508 85.2527 41.5531 84.1451 42.6607C83.0375 43.7684 81.5352 44.3906 79.9688 44.3906C78.4023 44.3906 76.9 43.7684 75.7924 42.6607C74.6848 41.5531 74.0625 40.0508 74.0625 38.4844V32.5781Z" fill="#FFC946"/>
<path d="M77.0156 12H23.8594V17.9062H77.0156V12Z" fill="#FB6C6C"/>
<path d="M85.875 82.7812H15V87.7812H85.875V82.7812Z" fill="#FB6C6C"/>
<path d="M50.7375 47.6068L51.1562 47.6843C50.7895 49.6398 50.9438 51.6692 51.6041 53.5513C51.6056 53.5573 51.6081 53.5636 51.6096 53.5696C51.4712 53.6009 51.3354 53.6418 51.2022 53.6924C51.069 53.743 50.9391 53.8012 50.8141 53.8687C50.81 53.8564 50.805 53.8438 50.8009 53.8315C50.7974 53.8249 50.7952 53.8176 50.794 53.8106C50.0912 51.794 49.9269 49.6221 50.3187 47.5293L50.7375 47.6068Z" fill="black"/>
<path d="M26.2485 63.2928L26.2483 63.2926C25.5328 62.2569 25.7986 60.8411 26.8368 60.1312L26.8369 60.1311L42.2697 49.5731L42.2698 49.5731L45.7473 47.1944L49.7448 47.9317C49.4646 49.8441 49.625 51.8047 50.2134 53.6514C49.544 54.1145 49.0198 54.7983 48.7649 55.6367C48.164 57.6134 49.2858 59.6987 51.2673 60.296C52.5403 60.6796 53.8594 60.3567 54.798 59.5547L54.7981 59.5546C54.9215 59.4491 55.0396 59.3353 55.1508 59.2118L55.151 59.2116C55.259 59.0915 55.3613 58.9625 55.4547 58.8257C55.665 58.5188 55.8324 58.1745 55.9459 57.8012C56.547 55.8241 55.4233 53.7398 53.4422 53.1426C52.9448 52.9927 52.4387 52.9507 51.9507 53.0044C51.4762 51.4729 51.3456 49.8519 51.5674 48.2684L55.9727 49.0808L55.9728 49.0808L61.918 50.1788L60.8149 56.0953L60.8149 56.0953L59.9039 60.9816L59.9038 60.9817L59.7481 61.8154L59.7481 61.8157L58.9173 66.2749L40.0078 79.211C40.0078 79.211 40.0078 79.211 40.0077 79.2111C38.9685 79.9216 37.5431 79.6605 36.8265 78.6235L26.2485 63.2928ZM26.2485 63.2928L36.8263 78.6232L26.2485 63.2928Z" fill="black" fill-opacity="0.5" stroke="black"/>
<path d="M49.5628 49.7601C49.4707 50.0632 49.4013 50.3762 49.3554 50.6894C49.1427 52.1662 49.4607 53.7413 50.2751 55.2446C50.2768 55.2498 50.2794 55.2552 50.2832 55.2602C50.288 55.2693 50.2937 55.2788 50.2984 55.2879C51.141 56.826 52.4713 58.2396 54.1494 59.3785C54.2445 59.32 54.3335 59.2567 54.4158 59.1874C54.4967 59.1192 54.5717 59.0454 54.6386 58.9668C53.0638 57.9014 51.816 56.5767 51.0281 55.1346C51.0273 55.1336 51.0275 55.1328 51.0268 55.1318C51.0249 55.1274 51.022 55.1227 51.0201 55.1183C50.2559 53.7149 49.9581 52.2431 50.1574 50.8633C50.199 50.5712 50.2639 50.2799 50.3498 49.9973C51.6345 45.7718 57.4655 43.7773 63.3494 45.5508C69.2322 47.3239 72.9742 52.2038 71.6895 56.4293C70.4988 60.3454 65.4228 62.3893 59.8807 61.1839L59.7963 61.7724C65.7465 63.0661 71.198 60.8716 72.4765 56.6666C73.8559 52.1295 69.8389 46.8898 63.5212 44.9856C57.2035 43.0814 50.9422 45.2231 49.5628 49.7601Z" fill="#303C44"/>
<path d="M35.9085 63.2101C35.7241 64.3223 35.1054 65.2979 34.166 65.9569C32.558 67.0853 30.2932 66.9159 28.8976 65.5631C28.0282 64.7166 27.5777 63.545 27.6624 62.3402C27.7473 61.1347 28.3579 60.0222 29.3366 59.2878C31.078 57.982 33.5803 58.2674 35.0339 59.9375L43.284 69.4164C43.8574 70.0752 44.8685 70.1413 45.5379 69.5638L50.1508 65.5839L50.7629 66.2872L51.6789 62.5918L47.8748 62.969L48.4869 63.6722L45.5735 66.1859L46.8214 67.6196L45.1219 69.0859C44.7203 69.4324 44.1136 69.3927 43.7696 68.9974L35.5195 59.5186C33.8483 57.5985 30.965 57.2749 28.955 58.7819C27.8257 59.629 27.1222 60.9121 27.0249 62.3032C26.9365 63.5589 27.3512 64.7856 28.1713 65.7278C28.2593 65.8289 28.3518 65.9265 28.4489 66.0205C30.0598 67.5821 32.6742 67.7775 34.5306 66.475C35.6133 65.7154 36.3265 64.59 36.5394 63.3063L35.9085 63.2101Z" fill="#E74C3C"/>
<path d="M29.5208 59.9544C28.0458 61.227 27.8745 63.4355 29.138 64.8872C30.4015 66.3389 32.6215 66.4841 34.0964 65.2116C35.5714 63.9391 35.7428 61.7306 34.4792 60.2789C33.2157 58.8272 30.9957 58.6819 29.5208 59.9544ZM33.6813 61.8041C34.0253 62.1994 33.9785 62.803 33.5769 63.1494L33.1609 62.6715C33.2949 62.5559 33.3105 62.355 33.1957 62.2231L32.3638 61.2672C32.249 61.1353 32.047 61.1221 31.913 61.2377L31.6702 61.4472C31.5362 61.5628 31.5206 61.7637 31.6354 61.8956L32.4674 62.8515C32.8114 63.2467 32.7645 63.8503 32.363 64.1968L32.1202 64.4062C31.7186 64.7527 31.1119 64.713 30.7679 64.3178L30.5599 64.0788L30.0743 64.4977L29.6583 64.0198L30.1439 63.6009L29.9359 63.3619C29.5919 62.9667 29.6388 62.3631 30.0403 62.0166L30.4563 62.4945C30.3223 62.6102 30.3067 62.8111 30.4215 62.943L31.2534 63.8988C31.3682 64.0307 31.5702 64.0439 31.7042 63.9283L31.947 63.7188C32.081 63.6032 32.0966 63.4023 31.9818 63.2704L31.1499 62.3146C30.8058 61.9193 30.8527 61.3157 31.2543 60.9693L31.497 60.7598C31.8986 60.4133 32.5053 60.453 32.8493 60.8483L33.0573 61.0872L33.5429 60.6683L33.9589 61.1462L33.4733 61.5652L33.6813 61.8041Z" fill="#FFC946"/>
<path d="M41.3461 59.3737L39.6821 57.4619L36.7685 59.9757L38.4325 61.8875L41.3461 59.3737Z" fill="#9DB732"/>
<path d="M45.3684 60.0865L43.7043 58.1745L38.848 62.3645L40.5121 64.2764L45.3684 60.0865Z" fill="#FF9D9C"/>
<path d="M49.1475 61.0087L47.4834 59.0967L40.9271 64.7533L42.5913 66.6654L49.1475 61.0087Z" fill="#68CBDF"/>
<path d="M45.5029 67.0805L45.0869 66.6026L44.6013 67.0216L45.0173 67.4995L45.5029 67.0805Z" fill="white"/>
<path d="M44.5314 67.9187L44.1155 67.4408L43.6299 67.8597L44.0459 68.3377L44.5314 67.9187Z" fill="white"/>
</svg>
