<svg width="16" height="16" viewBox="0 0 16 16" fill="none" xmlns="http://www.w3.org/2000/svg">
<mask id="mask0_1_1117" style="mask-type:alpha" maskUnits="userSpaceOnUse" x="0" y="0" width="16" height="16">
<rect width="16" height="16" fill="#D9D9D9"/>
</mask>
<g mask="url(#mask0_1_1117)">
<path d="M8.73335 15.3333H7.00002L7.33335 15.1253C7.55558 14.9862 7.79735 14.8307 8.05869 14.6587C8.31958 14.4862 8.56113 14.3307 8.78335 14.192L9.11669 13.9833C10.0167 13.9167 10.8474 13.6444 11.6087 13.1667C12.3696 12.6889 12.9722 12.05 13.4167 11.25C12.4611 11.1611 11.5556 10.9196 10.7 10.5253C9.84446 10.1307 9.0778 9.59444 8.40002 8.91667C7.72224 8.23889 7.18335 7.47222 6.78335 6.61667C6.38335 5.76111 6.14446 4.85556 6.06669 3.9C5.21113 4.37778 4.5418 5.036 4.05869 5.87467C3.57513 6.71378 3.33335 7.62222 3.33335 8.6V8.8L3.13335 8.89133C3.00002 8.95267 2.85291 9.01667 2.69202 9.08333C2.53069 9.15 2.38335 9.21378 2.25002 9.27467L2.05002 9.36667C2.0278 9.24444 2.01402 9.11667 2.00869 8.98333C2.00291 8.85 2.00002 8.72222 2.00002 8.6C2.00002 6.97778 2.51669 5.54711 3.55002 4.308C4.58335 3.06933 5.90002 2.3 7.50002 2C7.30002 3.1 7.36113 4.17489 7.68335 5.22467C8.00558 6.27489 8.56113 7.19444 9.35002 7.98333C10.1389 8.77222 11.0585 9.32778 12.1087 9.65C13.1585 9.97222 14.2334 10.0333 15.3334 9.83333C15.0445 11.4333 14.2778 12.75 13.0334 13.7833C11.7889 14.8167 10.3556 15.3333 8.73335 15.3333ZM4.00002 14H7.00002C7.2778 14 7.5138 13.9027 7.70802 13.708C7.90269 13.5138 8.00002 13.2778 8.00002 13C8.00002 12.7222 7.90558 12.4862 7.71669 12.292C7.5278 12.0973 7.30002 12 7.03335 12H6.16669L5.83335 11.2C5.6778 10.8333 5.43335 10.5418 5.10002 10.3253C4.76669 10.1084 4.40002 10 4.00002 10C3.44446 10 2.97224 10.1918 2.58335 10.5753C2.19446 10.9584 2.00002 11.4333 2.00002 12C2.00002 12.5556 2.19446 13.0278 2.58335 13.4167C2.97224 13.8056 3.44446 14 4.00002 14ZM4.00002 15.3333C3.0778 15.3333 2.2918 15.0084 1.64202 14.3587C0.991798 13.7084 0.666687 12.9222 0.666687 12C0.666687 11.0778 0.991798 10.2916 1.64202 9.64133C2.2918 8.99156 3.0778 8.66667 4.00002 8.66667C4.66669 8.66667 5.27513 8.84711 5.82535 9.208C6.37513 9.56933 6.78335 10.0556 7.05002 10.6667C7.68335 10.6889 8.22224 10.9249 8.66669 11.3747C9.11113 11.8249 9.33335 12.3667 9.33335 13C9.33335 13.6444 9.10558 14.1944 8.65002 14.65C8.19447 15.1056 7.64446 15.3333 7.00002 15.3333H4.00002Z" fill="#1C1B1F"/>
</g>
</svg>
