<svg width="100" height="100" viewBox="0 0 100 100" fill="none" xmlns="http://www.w3.org/2000/svg">
<path d="M77.718 10.5H26.7437C23.0367 10.5 19.9616 13.7814 19.9616 17.9192V81.273C19.9616 85.4108 23.0367 88.6922 26.7437 88.6922H77.718C81.4249 88.6922 84.5 85.4108 84.5 81.273V17.9192C84.5 13.7814 81.4249 10.5 77.718 10.5Z" fill="#308D77" stroke="#214B41"/>
<path d="M23.9231 31.1634C23.9231 31.7595 23.7699 32.2522 23.575 32.5641C23.3711 32.8903 23.2179 32.8942 23.2163 32.8942H15.7067C15.7052 32.8942 15.5519 32.8903 15.3481 32.5641C15.1532 32.2522 15 31.7595 15 31.1634C15 30.5674 15.1532 30.0746 15.3481 29.7628C15.5519 29.4366 15.7052 29.4327 15.7067 29.4327H23.2163C23.2179 29.4327 23.3711 29.4366 23.575 29.7628C23.7699 30.0746 23.9231 30.5674 23.9231 31.1634Z" fill="#308D77" stroke="white" stroke-width="2"/>
<path d="M23.9231 60.3553C23.9231 60.9514 23.7699 61.4441 23.575 61.756C23.3711 62.0822 23.2179 62.0861 23.2163 62.0861H15.7067C15.7052 62.0861 15.5519 62.0822 15.3481 61.756C15.1532 61.4441 15 60.9514 15 60.3553C15 59.7593 15.1532 59.2665 15.3481 58.9547C15.5519 58.6285 15.7052 58.6246 15.7067 58.6246H23.2163C23.2179 58.6246 23.3711 58.6285 23.575 58.9547C23.7699 59.2665 23.9231 59.7593 23.9231 60.3553Z" fill="#308D77" stroke="white" stroke-width="2"/>
<path d="M57.5864 42.5579V52.9761H63V42.5579H57.5864ZM59.1509 43.6093H61.3114V45.6882H59.1509V43.6093ZM59.1509 46.7395H61.3114V48.8184H59.1509V46.7395ZM59.1509 49.9892H61.3114V52.0681H59.1509V49.9892Z" fill="white"/>
<path d="M37 42.5579V52.9761H42.4136V42.5579H37ZM38.5645 43.6093H40.7249V45.6882H38.5645V43.6093ZM38.5645 46.7395H40.7249V48.8184H38.5645V46.7395ZM38.5645 49.9892H40.7249V52.0681H38.5645V49.9892Z" fill="white"/>
<path d="M43.5061 39.4277V52.9761H48.9197V48.8184H51.0801V53H56.4937V39.4277L50.0123 34.2186L43.5061 39.4277ZM46.7592 48.1493H44.5988V46.0705H46.7592V48.1493ZM46.7592 44.9474H44.5988V42.8686H46.7592V44.9474ZM46.7592 41.6977H44.5988V39.6189H46.7592V41.6977ZM51.105 48.1493H48.9445V46.0705H51.105V48.1493ZM51.105 44.9474H48.9445V42.8686H51.105V44.9474ZM53.1909 39.595H55.3514V41.6738H53.1909V39.595ZM53.1909 42.8686H55.3514V44.9474H53.1909V42.8686ZM53.1909 46.0466H55.3514V48.1254H53.1909V46.0466ZM51.105 41.6977H48.9445V39.6189H51.105V41.6977Z" fill="white"/>
<path d="M50.0126 33L42.2151 39.4277L42.6621 39.9295L50.0126 33.8602L57.3631 39.9295L57.8101 39.4277L50.0126 33Z" fill="white"/>
<path d="M63 41.6499H57.5864V42.2951H63V41.6499Z" fill="white"/>
<path d="M42.4136 41.6499H37V42.2951H42.4136V41.6499Z" fill="white"/>
<path d="M39.4033 62.4658H37.5918V61.3232H39.4033C39.6833 61.3232 39.9111 61.2777 40.0869 61.1865C40.2627 61.0921 40.3913 60.9619 40.4727 60.7959C40.554 60.6299 40.5947 60.4427 40.5947 60.2344C40.5947 60.0228 40.554 59.8258 40.4727 59.6436C40.3913 59.4613 40.2627 59.3148 40.0869 59.2041C39.9111 59.0934 39.6833 59.0381 39.4033 59.0381H38.0996V65H36.6348V57.8906H39.4033C39.96 57.8906 40.4368 57.9915 40.834 58.1934C41.2344 58.3919 41.5404 58.667 41.752 59.0186C41.9635 59.3701 42.0693 59.7721 42.0693 60.2246C42.0693 60.6836 41.9635 61.0807 41.752 61.416C41.5404 61.7513 41.2344 62.0101 40.834 62.1924C40.4368 62.3747 39.96 62.4658 39.4033 62.4658ZM45.7852 63.8086V61.4551C45.7852 61.2858 45.7575 61.141 45.7021 61.0205C45.6468 60.8968 45.5605 60.8008 45.4434 60.7324C45.3294 60.6641 45.1813 60.6299 44.999 60.6299C44.8428 60.6299 44.7077 60.6576 44.5938 60.7129C44.4798 60.765 44.3919 60.8415 44.3301 60.9424C44.2682 61.04 44.2373 61.1556 44.2373 61.2891H42.8311C42.8311 61.0645 42.8831 60.8512 42.9873 60.6494C43.0915 60.4476 43.2428 60.2702 43.4414 60.1172C43.64 59.9609 43.876 59.8389 44.1494 59.751C44.4261 59.6631 44.7354 59.6191 45.0771 59.6191C45.4873 59.6191 45.8519 59.6875 46.1709 59.8242C46.4899 59.9609 46.7406 60.166 46.9229 60.4395C47.1084 60.7129 47.2012 61.0547 47.2012 61.4648V63.7256C47.2012 64.0153 47.2191 64.2529 47.2549 64.4385C47.2907 64.6208 47.3428 64.7803 47.4111 64.917V65H45.9902C45.9219 64.8568 45.8698 64.6777 45.834 64.4629C45.8014 64.2448 45.7852 64.0267 45.7852 63.8086ZM45.9707 61.7822L45.9805 62.5781H45.1943C45.0088 62.5781 44.8477 62.5993 44.7109 62.6416C44.5742 62.6839 44.4619 62.7441 44.374 62.8223C44.2861 62.8971 44.221 62.985 44.1787 63.0859C44.1396 63.1868 44.1201 63.2975 44.1201 63.418C44.1201 63.5384 44.1478 63.6475 44.2031 63.7451C44.2585 63.8395 44.3382 63.9144 44.4424 63.9697C44.5465 64.0218 44.6686 64.0479 44.8086 64.0479C45.0202 64.0479 45.2041 64.0055 45.3604 63.9209C45.5166 63.8363 45.637 63.7321 45.7217 63.6084C45.8096 63.4847 45.8551 63.3675 45.8584 63.2568L46.2295 63.8525C46.1774 63.986 46.1058 64.1243 46.0146 64.2676C45.9268 64.4108 45.8145 64.5459 45.6777 64.6729C45.541 64.7965 45.3766 64.8991 45.1846 64.9805C44.9925 65.0586 44.7646 65.0977 44.501 65.0977C44.1657 65.0977 43.8613 65.0309 43.5879 64.8975C43.3177 64.7607 43.1029 64.5736 42.9434 64.3359C42.7871 64.0951 42.709 63.8216 42.709 63.5156C42.709 63.2389 42.7611 62.9932 42.8652 62.7783C42.9694 62.5635 43.1224 62.3828 43.3242 62.2363C43.5293 62.0866 43.7848 61.9743 44.0908 61.8994C44.3968 61.8213 44.7516 61.7822 45.1553 61.7822H45.9707ZM49.7695 57.5V65H48.3584V57.5H49.7695ZM52.416 59.7168V65H51.0049V59.7168H52.416ZM50.917 58.3398C50.917 58.1348 50.9886 57.9655 51.1318 57.832C51.2751 57.6986 51.4671 57.6318 51.708 57.6318C51.9456 57.6318 52.1361 57.6986 52.2793 57.832C52.4258 57.9655 52.499 58.1348 52.499 58.3398C52.499 58.5449 52.4258 58.7142 52.2793 58.8477C52.1361 58.9811 51.9456 59.0479 51.708 59.0479C51.4671 59.0479 51.2751 58.9811 51.1318 58.8477C50.9886 58.7142 50.917 58.5449 50.917 58.3398ZM54.9844 57.4951V65H53.5781V57.4951H54.9844ZM58.3145 59.7168L56.0195 62.334L54.7891 63.5791L54.2764 62.5635L55.2529 61.3232L56.625 59.7168H58.3145ZM56.8545 65L55.292 62.5586L56.2637 61.709L58.4756 65H56.8545ZM61.7715 63.8086V61.4551C61.7715 61.2858 61.7438 61.141 61.6885 61.0205C61.6331 60.8968 61.5469 60.8008 61.4297 60.7324C61.3158 60.6641 61.1676 60.6299 60.9854 60.6299C60.8291 60.6299 60.694 60.6576 60.5801 60.7129C60.4661 60.765 60.3783 60.8415 60.3164 60.9424C60.2546 61.04 60.2236 61.1556 60.2236 61.2891H58.8174C58.8174 61.0645 58.8695 60.8512 58.9736 60.6494C59.0778 60.4476 59.2292 60.2702 59.4277 60.1172C59.6263 59.9609 59.8623 59.8389 60.1357 59.751C60.4124 59.6631 60.7217 59.6191 61.0635 59.6191C61.4736 59.6191 61.8382 59.6875 62.1572 59.8242C62.4762 59.9609 62.7269 60.166 62.9092 60.4395C63.0947 60.7129 63.1875 61.0547 63.1875 61.4648V63.7256C63.1875 64.0153 63.2054 64.2529 63.2412 64.4385C63.277 64.6208 63.3291 64.7803 63.3975 64.917V65H61.9766C61.9082 64.8568 61.8561 64.6777 61.8203 64.4629C61.7878 64.2448 61.7715 64.0267 61.7715 63.8086ZM61.957 61.7822L61.9668 62.5781H61.1807C60.9951 62.5781 60.834 62.5993 60.6973 62.6416C60.5605 62.6839 60.4482 62.7441 60.3604 62.8223C60.2725 62.8971 60.2074 62.985 60.165 63.0859C60.126 63.1868 60.1064 63.2975 60.1064 63.418C60.1064 63.5384 60.1341 63.6475 60.1895 63.7451C60.2448 63.8395 60.3245 63.9144 60.4287 63.9697C60.5329 64.0218 60.6549 64.0479 60.7949 64.0479C61.0065 64.0479 61.1904 64.0055 61.3467 63.9209C61.5029 63.8363 61.6234 63.7321 61.708 63.6084C61.7959 63.4847 61.8415 63.3675 61.8447 63.2568L62.2158 63.8525C62.1637 63.986 62.0921 64.1243 62.001 64.2676C61.9131 64.4108 61.8008 64.5459 61.6641 64.6729C61.5273 64.7965 61.363 64.8991 61.1709 64.9805C60.9788 65.0586 60.751 65.0977 60.4873 65.0977C60.152 65.0977 59.8477 65.0309 59.5742 64.8975C59.304 64.7607 59.0892 64.5736 58.9297 64.3359C58.7734 64.0951 58.6953 63.8216 58.6953 63.5156C58.6953 63.2389 58.7474 62.9932 58.8516 62.7783C58.9557 62.5635 59.1087 62.3828 59.3105 62.2363C59.5156 62.0866 59.7712 61.9743 60.0771 61.8994C60.3831 61.8213 60.738 61.7822 61.1416 61.7822H61.957Z" fill="white"/>
</svg>
