<svg width="21" height="21" viewBox="0 0 21 21" fill="none" xmlns="http://www.w3.org/2000/svg">
<path d="M16.5813 13.0087C16.1514 12.5611 15.6329 12.3217 15.0833 12.3217C14.5381 12.3217 14.0151 12.5566 13.5675 13.0043L12.1669 14.4004C12.0516 14.3384 11.9364 14.2808 11.8256 14.2232C11.666 14.1434 11.5153 14.068 11.3868 13.9882C10.0749 13.155 8.88263 12.0691 7.73912 10.6641C7.1851 9.96381 6.81279 9.37433 6.54243 8.77598C6.90587 8.44357 7.24271 8.09786 7.5707 7.76544C7.6948 7.64134 7.8189 7.51281 7.943 7.38871C8.87376 6.45795 8.87376 5.25239 7.943 4.32163L6.73301 3.11164C6.59561 2.97424 6.45378 2.83241 6.32082 2.69058C6.05489 2.41579 5.77566 2.13212 5.48757 1.86619C5.05764 1.4407 4.54351 1.21466 4.00278 1.21466C3.46205 1.21466 2.93905 1.4407 2.49583 1.86619C2.4914 1.87063 2.4914 1.87063 2.48697 1.87506L0.980024 3.3953C0.412703 3.96262 0.0891529 4.65404 0.0182378 5.45627C-0.0881348 6.75047 0.293034 7.95603 0.585559 8.74496C1.30357 10.6818 2.37617 12.4769 3.97619 14.4004C5.91749 16.7185 8.25325 18.549 10.9214 19.8387C11.9408 20.3218 13.3015 20.8936 14.8218 20.9911C14.9148 20.9955 15.0124 21 15.101 21C16.1248 21 16.9847 20.6321 17.6584 19.9008C17.6628 19.8919 17.6717 19.8875 17.6761 19.8786C17.9066 19.5994 18.1725 19.3468 18.4517 19.0764C18.6423 18.8947 18.8373 18.7041 19.0279 18.5047C19.4667 18.0481 19.6972 17.5163 19.6972 16.9711C19.6972 16.4215 19.4623 15.8941 19.0146 15.4509L16.5813 13.0087ZM18.1681 17.6758C18.1636 17.6758 18.1636 17.6803 18.1681 17.6758C17.9952 17.862 17.8179 18.0304 17.6273 18.2166C17.3393 18.4914 17.0467 18.7794 16.7719 19.103C16.3243 19.5817 15.7968 19.8077 15.1054 19.8077C15.0389 19.8077 14.968 19.8077 14.9015 19.8033C13.5852 19.7191 12.3619 19.2049 11.4444 18.7661C8.93581 17.5517 6.73301 15.8276 4.90252 13.6425C3.39114 11.8209 2.3806 10.1367 1.71134 8.32833C1.29914 7.22472 1.14845 6.36487 1.21493 5.55378C1.25925 5.03521 1.4587 4.60529 1.82657 4.23742L3.33795 2.72604C3.55513 2.52216 3.7856 2.41135 4.01164 2.41135C4.29087 2.41135 4.51691 2.57978 4.65874 2.72161C4.66318 2.72604 4.66761 2.73047 4.67204 2.7349C4.94241 2.98754 5.19947 3.24904 5.46984 3.52827C5.60723 3.6701 5.74906 3.81193 5.89089 3.95819L7.10088 5.16818C7.5707 5.63799 7.5707 6.07235 7.10088 6.54216C6.97235 6.67069 6.84825 6.79922 6.71971 6.92333C6.34741 7.30449 5.99284 7.65907 5.60723 8.00478C5.59837 8.01365 5.58951 8.01808 5.58507 8.02694C5.20391 8.40811 5.27482 8.78042 5.3546 9.03305C5.35903 9.04635 5.36346 9.05964 5.3679 9.07294C5.68258 9.83528 6.1258 10.5533 6.79949 11.4087L6.80393 11.4131C8.02721 12.9201 9.31698 14.0946 10.7397 14.9944C10.9214 15.1096 11.1076 15.2027 11.2849 15.2913C11.4444 15.3711 11.5951 15.4464 11.7237 15.5262C11.7414 15.5351 11.7591 15.5484 11.7768 15.5572C11.9275 15.6326 12.0694 15.668 12.2156 15.668C12.5835 15.668 12.814 15.4376 12.8893 15.3622L14.4051 13.8464C14.5558 13.6957 14.7952 13.514 15.0744 13.514C15.3492 13.514 15.5752 13.6869 15.7126 13.8375C15.7171 13.842 15.7171 13.842 15.7215 13.8464L18.1636 16.2886C18.6202 16.7406 18.6202 17.206 18.1681 17.6758Z" fill="black"/>
<path d="M11.3343 4.99532C12.4955 5.19034 13.5504 5.73993 14.3925 6.58205C15.2346 7.42417 15.7798 8.47903 15.9793 9.64026C16.028 9.93279 16.2806 10.1367 16.5687 10.1367C16.6042 10.1367 16.6352 10.1322 16.6707 10.1278C16.9987 10.0746 17.2158 9.76436 17.1626 9.43638C16.9233 8.03138 16.2585 6.75047 15.2435 5.7355C14.2285 4.72053 12.9476 4.0557 11.5426 3.81636C11.2146 3.76317 10.9088 3.98035 10.8512 4.3039C10.7936 4.62745 11.0063 4.94214 11.3343 4.99532Z" fill="black"/>
<path d="M20.9611 9.26354C20.5667 6.94994 19.4763 4.84465 17.801 3.16928C16.1256 1.49391 14.0203 0.403587 11.7067 0.00912211C11.3832 -0.0484964 11.0773 0.173113 11.0197 0.496663C10.9665 0.824646 11.1837 1.13047 11.5117 1.18809C13.5771 1.53823 15.4608 2.51774 16.9589 4.01139C18.4569 5.50947 19.432 7.39316 19.7822 9.45856C19.8309 9.75108 20.0836 9.95496 20.3717 9.95496C20.4071 9.95496 20.4381 9.95053 20.4736 9.9461C20.7971 9.89735 21.0188 9.58709 20.9611 9.26354Z" fill="black"/>
</svg>
