<svg width="15" height="16" viewBox="0 0 15 16" fill="none" xmlns="http://www.w3.org/2000/svg">
<path d="M11.5948 11.8309C11.4243 11.8309 11.2849 11.7072 11.2849 11.5561C11.2849 11.405 11.4243 11.2814 11.5948 11.2814H12.7453C12.9158 11.2814 13.0553 11.405 13.0553 11.5561C13.0553 11.7072 12.9158 11.8309 12.7453 11.8309H11.5948ZM6.36105 14.8186C6.1906 14.8186 6.05114 14.695 6.05114 14.5439C6.05114 14.3928 6.1906 14.2692 6.36105 14.2692H7.51162C7.68208 14.2692 7.82154 14.3928 7.82154 14.5439C7.82154 14.695 7.68208 14.8186 7.51162 14.8186H6.36105ZM8.97986 14.8186C8.8094 14.8186 8.66994 14.695 8.66994 14.5439C8.66994 14.3928 8.8094 14.2692 8.97986 14.2692H10.1304C10.3009 14.2692 10.4403 14.3928 10.4403 14.5439C10.4403 14.695 10.3009 14.8186 10.1304 14.8186H8.97986ZM8.97986 13.3247C8.8094 13.3247 8.66994 13.2011 8.66994 13.05C8.66994 12.8989 8.8094 12.7753 8.97986 12.7753H10.1304C10.3009 12.7753 10.4403 12.8989 10.4403 13.05C10.4403 13.2011 10.3009 13.3247 10.1304 13.3247H8.97986ZM11.5948 14.8186C11.4243 14.8186 11.2849 14.695 11.2849 14.5439C11.2849 14.3928 11.4243 14.2692 11.5948 14.2692H12.7453C12.9158 14.2692 13.0553 14.3928 13.0553 14.5439C13.0553 14.695 12.9158 14.8186 12.7453 14.8186H11.5948ZM11.5948 13.3247C11.4243 13.3247 11.2849 13.2011 11.2849 13.05C11.2849 12.8989 11.4243 12.7753 11.5948 12.7753H12.7453C12.9158 12.7753 13.0553 12.8989 13.0553 13.05C13.0553 13.2011 12.9158 13.3247 12.7453 13.3247H11.5948ZM2.87836 5.41919C2.94809 5.15475 3.25801 4.87315 3.65315 4.65336C4.03667 4.437 4.51705 4.26186 4.91219 4.21035C5.44292 4.13823 5.84969 5.64241 5.90392 6.29491C5.91555 6.42885 5.9078 6.54218 5.88068 6.6143C5.84194 6.72076 5.77221 6.79287 5.67924 6.81691C5.58239 6.87873 5.49328 6.93711 5.4158 6.98519C5.24535 7.09165 5.18337 7.12943 5.19112 7.22215C5.3577 7.6686 5.48166 7.95707 5.63662 8.22151C5.79158 8.48938 5.98915 8.74351 6.30682 9.11784C6.3843 9.17622 6.4579 9.15218 6.6516 9.08693C6.7407 9.05945 6.84143 9.02511 6.95764 8.99077C7.03512 8.93582 7.13585 8.92552 7.25981 8.95986C7.44576 9.00794 7.73244 9.2449 7.90289 9.39601C8.47237 9.8871 9.16193 10.6976 8.97598 10.9929L8.92949 11.0444C8.65444 11.3054 8.21668 11.5527 7.7983 11.7072C7.36441 11.8686 6.92665 11.9339 6.63998 11.8309C4.86183 11.1646 2.47934 7.18094 2.87836 5.41919ZM3.98631 5.11698C3.71901 5.26808 3.51369 5.42606 3.4827 5.54282C3.31224 6.27087 3.77324 7.56214 4.47831 8.76068C5.18337 9.95578 6.11312 11.0341 6.88404 11.326C7.00801 11.3672 7.27144 11.3089 7.56198 11.2024C7.8874 11.0822 8.22056 10.9002 8.4375 10.7113C8.40263 10.6152 7.53099 9.80811 7.18233 9.55742L7.13197 9.52307C7.02738 9.55398 6.93827 9.58489 6.86467 9.60893C6.37655 9.7669 6.21772 9.81842 5.85356 9.49903L5.82257 9.46813C5.12913 8.64735 4.9548 8.34857 4.59065 7.37326L4.57903 7.33548C4.4938 6.88903 4.62939 6.80318 5.05553 6.54218C5.12138 6.50097 5.19499 6.45632 5.28796 6.39451L5.23373 5.9927C5.14463 5.50504 4.99742 4.84567 4.93543 4.76669C4.64101 4.81133 4.28461 4.9487 3.98631 5.11698ZM6.04726 2.78858C9.2704 2.84353 11.8582 5.17879 11.8582 8.04293C11.8582 8.69199 11.7265 9.31359 11.4824 9.89053H12.3192C12.5439 9.89053 12.7415 9.83902 12.8809 9.75317C12.9855 9.68792 13.0514 9.60893 13.0514 9.52994V2.08113C13.0514 2.00215 12.9855 1.92316 12.8809 1.85791C12.7415 1.77205 12.5439 1.72054 12.3192 1.72054H6.77944C6.55475 1.72054 6.35718 1.77205 6.21772 1.85791C6.11312 1.92316 6.04726 2.00215 6.04726 2.08113V2.78858ZM11.2113 10.44C10.0103 12.5177 7.37603 13.6785 4.72624 13.1942V14.6023C4.72624 15.0968 5.2531 15.454 5.82257 15.454H13.2838C13.8533 15.454 14.3802 15.0968 14.3802 14.6023V1.40116C14.3802 0.906632 13.8572 0.549474 13.2838 0.549474H5.82257C5.2531 0.549474 4.72624 0.906632 4.72624 1.40116V2.89504C4.9548 2.85383 5.19112 2.82292 5.42743 2.80575V2.08113C5.42743 1.51105 6.13249 1.17107 6.78332 1.17107H12.3231C12.97 1.17107 13.679 1.51105 13.679 2.08113V9.52994C13.679 10.1 12.97 10.44 12.3231 10.44H11.2113ZM4.1064 13.0466C1.69292 12.3563 0 10.3542 0 8.04293C0 5.7317 1.69292 3.72956 4.1064 3.03928V1.40116C4.1064 0.600987 4.91606 0 5.82257 0H13.2838C14.1903 0 15 0.604421 15 1.40116V14.5988C15 15.399 14.1903 16 13.2838 16H5.82257C4.91606 16 4.1064 15.3956 4.1064 14.5988V13.0466ZM9.68492 4.71517C7.61234 2.87787 4.24974 2.87787 2.17717 4.71517C0.104597 6.55248 0.104597 9.53338 2.17717 11.3741C4.24199 13.2046 7.60072 13.2217 9.68492 11.3741C11.742 9.54711 11.7769 6.56965 9.68492 4.71517Z" fill="#606060"/>
</svg>
