<svg width="24" height="24" viewBox="0 0 24 24" fill="none" xmlns="http://www.w3.org/2000/svg">
<path d="M20 12V17C20 18.8856 20 19.8284 19.4142 20.4142C18.8284 21 17.8856 21 16 21H6.5C5.11929 21 4 19.8807 4 18.5V18.5C4 17.1193 5.11929 16 6.5 16H16C17.8856 16 18.8284 16 19.4142 15.4142C20 14.8284 20 13.8856 20 12V7C20 5.11438 20 4.17157 19.4142 3.58579C18.8284 3 17.8856 3 16 3H8C6.11438 3 5.17157 3 4.58579 3.58579C4 4.17157 4 5.11438 4 7V18.5" stroke="#222222"/>
<path d="M15 12.2222V11.5821C15 11.2641 14.8064 10.9781 14.5111 10.86L13.72 10.5436C13.3444 10.3933 12.9164 10.5561 12.7355 10.9179L12.6667 11.0556C12.6667 11.0556 11.6944 10.8611 10.9167 10.0833C10.1389 9.30556 9.94444 8.33333 9.94444 8.33333L10.0821 8.2645C10.4439 8.08359 10.6067 7.65555 10.4564 7.27997L10.14 6.48892C10.0219 6.19363 9.7359 6 9.41786 6H8.77778C8.34822 6 8 6.34822 8 6.77778C8 10.2142 10.7858 13 14.2222 13C14.6518 13 15 12.6518 15 12.2222Z" fill="#33363F"/>
</svg>
