<svg width="100" height="100" viewBox="0 0 100 100" fill="none" xmlns="http://www.w3.org/2000/svg">
<path fill-rule="evenodd" clip-rule="evenodd" d="M77.8235 90.5294H31.1765C27.2133 90.5294 24 87.3161 24 83.3529V20.5588C24 16.5956 27.2133 13.3824 31.1765 13.3824H36.5588C37.551 13.3824 38.3529 14.1861 38.3529 15.1765C38.3529 16.1668 37.551 16.9706 36.5588 16.9706H31.1765C29.1958 16.9706 27.5882 18.5781 27.5882 20.5588V83.3529C27.5882 85.3336 29.1958 86.9412 31.1765 86.9412H77.8235C79.8042 86.9412 81.4118 85.3336 81.4118 83.3529V20.5588C81.4118 18.5781 79.8042 16.9706 77.8235 16.9706H72.4412C71.449 16.9706 70.6471 16.1668 70.6471 15.1765C70.6471 14.1861 71.449 13.3824 72.4412 13.3824H77.8235C81.7867 13.3824 85 16.5956 85 20.5588V83.3529C85 87.3161 81.7867 90.5294 77.8235 90.5294ZM74.2353 22.3529C74.2353 23.3433 73.4333 24.1471 72.4412 24.1471H36.5588C35.5667 24.1471 34.7647 23.3433 34.7647 22.3529C34.7647 21.3626 35.5667 20.5588 36.5588 20.5588C36.5588 20.5588 38.5772 20.3346 40.1471 18.7647L43.7353 15.1765C43.7353 15.1765 45.1365 13.3824 47.3235 13.3824H49.1176C49.1176 10.4095 51.5289 8 54.5 8C57.4729 8 59.8824 10.4095 59.8824 13.3824H61.6765C64.0304 13.3824 65.2647 15.1765 65.2647 15.1765L68.8529 18.7647C70.4228 20.3346 72.4412 20.5588 72.4412 20.5588C73.4333 20.5588 74.2353 21.3626 74.2353 22.3529ZM54.5 11.5882C53.5079 11.5882 52.7059 12.392 52.7059 13.3824H56.2941C56.2941 12.392 55.4921 11.5882 54.5 11.5882ZM64.1219 18.7647C64.1219 18.7647 62.9036 16.9706 60.8619 16.9706H48.1399C46.0946 16.9706 44.8781 18.7647 44.8781 18.7647L43.2473 20.5588H65.7545L64.1219 18.7647Z" fill="#D38841"/>
<path d="M31.1763 31.3235L63.9189 31.3235" stroke="#222222" stroke-width="1.2" stroke-linecap="round"/>
<path d="M31.1763 36.7059L58.088 36.7059" stroke="#222222" stroke-width="1.2" stroke-linecap="round"/>
<path d="M31.1763 42.0882L52.7057 42.0882" stroke="#222222" stroke-width="1.2" stroke-linecap="round"/>
<path d="M37.7667 73.1954L34.9704 80.3859L32.1741 73.1954H37.7667Z" fill="#D76361" stroke="black" stroke-width="0.5"/>
<path d="M35.1944 81.0131L40.1593 69.9175C47.8495 72.7838 53.5432 81.865 53.6888 92.75H16.2524C16.398 81.8651 22.0915 72.784 29.7731 69.9176L34.738 81.0131L34.9662 81.523L35.1944 81.0131Z" fill="#AFDAFC" stroke="black" stroke-width="0.5"/>
<path d="M30.0406 68.0276C28.4543 66.163 27.2607 63.6014 27.2501 60.7883C27.2593 57.9137 28.1477 55.3312 29.5562 53.4751C30.9718 51.6097 32.8908 50.5 34.9706 50.5C37.0501 50.5 38.9692 51.6097 40.3848 53.4751C41.7934 55.3312 42.6819 57.9138 42.6911 60.7884C42.6805 63.6027 41.4964 66.1643 39.9157 68.0282C38.3089 69.9227 36.3804 71 34.9706 71C33.5823 71 31.6536 69.9236 30.0406 68.0276Z" fill="#F4E1C9" stroke="black"/>
<path d="M70.7253 76.8269C70.7253 76.5091 70.695 76.2002 70.6498 75.8949L72.8952 74.598L70.5671 70.5668L68.233 71.8627C67.75 71.476 67.1873 71.1622 66.528 70.9298V68.8571H61.5829V70.9298C61.2532 71.1533 60.7323 71.4536 60.2622 71.8189L58.1507 70.4972L55.8374 74.5024L58.0966 75.8231C58.0455 76.1498 58.0244 76.485 58.0244 76.8269C58.0244 77.145 58.0617 77.4549 58.1065 77.7602L55.8658 79.0568L58.1955 83.086L60.2045 81.7907C60.6888 82.1765 61.2532 82.491 61.5829 82.7237V85.3406H66.528V82.7237C67.1873 82.5015 67.7059 82.2005 68.175 81.8339L70.4497 83.1546L72.8461 79.1504L70.6267 77.8304C70.6782 77.5031 70.7253 77.1691 70.7253 76.8269ZM64.3831 79.6542C62.8211 79.6542 61.5532 78.3889 61.5532 76.8269C61.5532 75.2656 62.8211 73.999 64.3831 73.999C65.9441 73.999 67.211 75.2656 67.211 76.8269C67.211 78.3889 65.9441 79.6542 64.3831 79.6542Z" fill="#7DD5BF"/>
<path d="M66.6587 85.8351H61.7136C61.2583 85.8351 60.8894 85.4662 60.8894 85.011V83.1783C60.8644 83.1635 60.839 83.1483 60.8133 83.1328C60.6389 83.0293 60.4404 82.9113 60.2403 82.7808L58.6325 83.7846C58.4429 83.9033 58.2132 83.9392 57.9966 83.8855C57.78 83.8314 57.594 83.6916 57.4823 83.4981L55.1532 79.4689C54.9254 79.0749 55.0602 78.5709 55.4538 78.3431L57.2261 77.3184C57.2129 77.1618 57.2044 76.9964 57.2044 76.8269C57.2044 76.6373 57.2113 76.4488 57.2251 76.2625L55.4367 75.2132C55.045 74.9837 54.9128 74.4803 55.1413 74.088L57.4707 70.0832C57.5825 69.891 57.7671 69.7522 57.9827 69.6981C58.199 69.644 58.4268 69.6793 58.6157 69.796L60.2983 70.8332C60.4928 70.7072 60.6837 70.5935 60.8525 70.4933C60.865 70.486 60.8772 70.4784 60.8894 70.4715V68.5275C60.8894 68.0722 61.2583 67.7033 61.7136 67.7033H66.6587C67.1139 67.7033 67.4828 68.0722 67.4828 68.5275V70.3766C67.7822 70.5164 68.0687 70.6812 68.3574 70.8797L70.1578 69.8511C70.5524 69.6259 71.0538 69.7617 71.2803 70.1547L73.6084 74.1859C73.8359 74.5799 73.7011 75.0843 73.3068 75.3117L71.5295 76.338C71.5427 76.5068 71.5493 76.669 71.5493 76.8266C71.5493 77.0102 71.5404 77.1961 71.521 77.3976L73.2821 78.441C73.4703 78.5524 73.6065 78.7344 73.6605 78.946C73.7146 79.1583 73.6819 79.3828 73.5705 79.5711L71.1906 83.5753C70.9585 83.9656 70.4548 84.0942 70.0638 83.8644L68.2902 82.8197C68.0515 82.9822 67.7878 83.1398 67.4828 83.2809V85.011C67.4828 85.4662 67.1139 85.8351 66.6587 85.8351ZM62.5378 84.1868H65.8345V82.7237C65.8345 82.37 66.0603 82.0558 66.3956 81.9427C66.9329 81.7617 67.3055 81.5184 67.7324 81.1845C68.0001 80.9755 68.3673 80.9521 68.6584 81.1235L70.193 82.0275L71.7319 79.4386L70.2141 78.5389C69.9234 78.3671 69.7674 78.0348 69.8202 77.7012C69.8762 77.3475 69.9013 77.0775 69.9013 76.8266C69.9013 76.5793 69.8802 76.3218 69.8347 76.0159C69.7849 75.681 69.9448 75.35 70.2379 75.1809L71.7695 74.2964L70.2639 71.6893L68.7079 72.5781C68.4138 72.7459 68.0482 72.7169 67.7841 72.5059C67.3048 72.1222 66.8861 71.8832 66.3854 71.7065C66.0557 71.5901 65.8351 71.2789 65.8351 70.9294V69.3516H62.5384V70.9298C62.5384 71.2031 62.4029 71.4586 62.1765 71.6118C62.0462 71.7002 61.8801 71.7998 61.6958 71.9092C61.4136 72.0773 61.0938 72.2676 60.8337 72.4697C60.5621 72.6803 60.1876 72.7004 59.8955 72.5201L58.471 71.6422L56.9795 74.2067L58.5224 75.1116C58.8148 75.2831 58.9721 75.6154 58.9196 75.95C58.8755 76.2312 58.8534 76.5259 58.8534 76.8262C58.8534 77.114 58.8893 77.3989 58.9249 77.6402C58.9737 77.9742 58.8141 78.3042 58.5221 78.4729L56.993 79.3571L58.4835 81.9345L59.8345 81.0909C60.1308 80.9053 60.5113 80.9277 60.7849 81.1453C61.0414 81.35 61.3684 81.5442 61.6566 81.7153C61.8534 81.832 62.0387 81.9424 62.1896 82.0492C62.4085 82.2035 62.5391 82.4547 62.5391 82.7227V84.1868H62.5378ZM64.3829 80.4783C62.3683 80.4783 60.7289 78.8402 60.7289 76.8269C60.7289 74.8133 62.3683 73.1748 64.3829 73.1748C66.3966 73.1748 68.035 74.8133 68.035 76.8269C68.035 78.8402 66.3969 80.4783 64.3829 80.4783ZM64.3829 74.8232C63.2772 74.8232 62.3772 75.7222 62.3772 76.8269C62.3772 77.9316 63.2769 78.83 64.3829 78.83C65.488 78.83 66.3867 77.9313 66.3867 76.8269C66.3867 75.7218 65.488 74.8232 64.3829 74.8232Z" fill="#454B53"/>
<path d="M80.0058 63.5432C80.0058 63.3012 79.9821 63.0671 79.9475 62.8347L81.6525 61.8506L79.8852 58.789L78.0773 59.7714C77.7093 59.4793 77.077 59.2403 76.7474 59.0643V57.3187H73.4507V59.0643C72.7913 59.2331 72.6097 59.4609 72.253 59.7394L70.5502 58.7362L68.744 61.7768L70.4348 62.7797C70.3973 63.0302 70.3686 63.2834 70.3686 63.5432C70.3686 63.7848 70.3913 64.0199 70.4276 64.2506L68.7192 65.2357L70.4866 68.2987L72.2075 67.3146C72.5784 67.6077 72.7913 67.8467 73.4507 68.0217V70.5055H76.7474V68.0217C77.077 67.8523 77.6784 67.6255 78.0318 67.3466L79.779 68.3501L81.6067 65.3082L79.9247 64.305C79.9673 64.0555 80.0058 63.8036 80.0058 63.5432ZM75.187 65.693C74.0015 65.693 73.0373 64.729 73.0373 63.5432C73.0373 62.3564 74.0015 61.394 75.187 61.394C76.3729 61.394 77.3355 62.3564 77.3355 63.5432C77.3352 64.7293 76.3725 65.693 75.187 65.693Z" fill="#BFDFEC"/>
<path d="M76.8782 71H73.5815C73.1263 71 72.7574 70.6311 72.7574 70.1758V68.6063C72.5388 68.5097 72.3604 68.4042 72.2015 68.295L70.8852 69.0206C70.4919 69.2379 69.9977 69.0998 69.7735 68.7108L68.0065 65.6478C67.897 65.4586 67.8674 65.2334 67.9244 65.0224C67.9811 64.8111 68.1192 64.6311 68.3088 64.522L69.5549 63.8033C69.5506 63.7166 69.5483 63.6302 69.5483 63.5432C69.5483 63.4308 69.5533 63.321 69.5612 63.2135L68.3381 62.4846C68.1502 62.3725 68.0147 62.1899 67.9606 61.9779C67.9072 61.7656 67.9405 61.5408 68.053 61.3528L69.8754 58.3123C70.1068 57.9256 70.6053 57.797 70.9949 58.0225L72.2569 58.7521C72.3993 58.6555 72.5599 58.5619 72.757 58.4752V56.989C72.757 56.5337 73.1259 56.1648 73.5812 56.1648H76.8779C77.3332 56.1648 77.7021 56.5337 77.7021 56.989V58.5549C77.8541 58.6304 78.0163 58.7138 78.1761 58.8065L79.48 58.0713C79.8733 57.8491 80.3721 57.9853 80.5986 58.3772L82.3659 61.4386C82.4754 61.6278 82.505 61.853 82.4483 62.0639C82.3916 62.2749 82.2535 62.4553 82.0643 62.5644L80.8221 63.2814C80.8274 63.3708 80.8293 63.4575 80.8293 63.5435C80.8293 63.6503 80.825 63.7588 80.8168 63.8722L82.0435 64.6001C82.2314 64.7115 82.3676 64.8935 82.4213 65.1055C82.4754 65.3178 82.4424 65.5423 82.331 65.7305L80.5198 68.7724C80.288 69.1617 79.7853 69.2906 79.3953 69.0619L78.1208 68.3158C77.9797 68.3959 77.8379 68.4691 77.7021 68.536V70.1758C77.7024 70.6311 77.3335 71 76.8782 71ZM74.4057 69.3516H76.0541V68.0217C76.0541 67.7125 76.2268 67.4297 76.5014 67.2886C76.5828 67.2467 76.6761 67.2012 76.776 67.1531C77.0477 67.0219 77.3856 66.858 77.5874 66.6991C77.8531 66.4888 78.2213 66.4641 78.5137 66.6355L79.5222 67.2256L80.4927 65.596L79.512 65.0138C79.2189 64.8401 79.0636 64.5038 79.1203 64.1682C79.1625 63.917 79.1816 63.7245 79.1816 63.5432C79.1816 63.3694 79.1658 63.1825 79.1325 62.9554C79.0831 62.6208 79.2426 62.2898 79.5357 62.121L80.527 61.549L79.5795 59.9079L78.5477 60.4898C78.2563 60.6539 77.8933 60.6256 77.6302 60.4169C77.4288 60.2567 77.0886 60.0896 76.8156 59.9557C76.6953 59.8964 76.5842 59.8413 76.4905 59.7915C76.2222 59.6481 76.0547 59.3689 76.0547 59.0646V57.8132H74.4064V59.0643C74.4064 59.4408 74.1515 59.7694 73.7866 59.8627C73.3527 59.9738 73.1985 60.0955 72.9186 60.3164L72.8259 60.3892C72.5609 60.5959 72.1969 60.6213 71.9065 60.4528L70.8733 59.8555L69.8925 61.4916L70.8654 62.0715C71.1528 62.243 71.3081 62.5713 71.2583 62.9023C71.2217 63.1456 71.197 63.348 71.197 63.5432C71.197 63.7321 71.2125 63.922 71.2438 64.1237C71.2966 64.4603 71.1367 64.7946 70.841 64.965L69.846 65.5383L70.7975 67.187L71.8755 66.593C72.1659 66.4331 72.5239 66.4624 72.7844 66.6681L72.8408 66.713C73.1582 66.9645 73.3333 67.1033 73.7935 67.2256C74.1548 67.3215 74.406 67.6482 74.406 68.0221L74.4057 69.3516ZM75.187 66.5171C73.5472 66.5171 72.2131 65.183 72.2131 63.5432C72.2131 61.9037 73.5472 60.5699 75.187 60.5699C76.8261 60.5699 78.1597 61.9037 78.1597 63.5432C78.1593 65.183 76.8258 66.5171 75.187 66.5171ZM75.187 62.2182C74.4561 62.2182 73.8614 62.8126 73.8614 63.5432C73.8614 64.2744 74.4561 64.8688 75.187 64.8688C75.9172 64.8688 76.5113 64.2741 76.5113 63.5432C76.511 62.8126 75.9169 62.2182 75.187 62.2182Z" fill="#454B53"/>
<path d="M65.0952 53.3136C65.06 52.0066 64.0338 50.9306 62.7414 50.9306L56.0476 50.9181V49H51.2857V53.7929H56.0476V51.8757H62.7143C63.4886 51.8757 64.1371 52.5036 64.1581 53.2877L64.1624 54.2721H62.2381V59.065H64.1429V60.0236C64.1429 60.5589 63.7181 60.9821 63.1905 60.9821H56.0476V59.065H51.2857V60.9697H49.8329C48.2638 60.9697 47 62.2724 47 63.8578V68.6507C47 70.2367 48.2638 71.5144 49.8329 71.5144H54.4043L52.6148 73.3242L53.29 74L56.221 71.0347L53.29 68.0688L52.6148 68.7446L54.4005 70.5674H49.8571C48.8133 70.5674 47.94 69.6955 47.94 68.6382V63.8454C47.94 62.7881 48.789 61.9282 49.8333 61.9282H51.2857V63.8578H56.0476V61.9407H63.1905C64.2433 61.9407 65.0952 61.0876 65.0952 60.0236V59.065H67V54.2721H65.0952V53.3136ZM55.0952 52.8343H52.2381V49.9586H55.0952V52.8343ZM55.0952 62.8993H52.2381V60.0236H55.0952V62.8993ZM66.0476 58.1064H63.1905V55.2307H66.0476V58.1064Z" fill="#B99642"/>
<path d="M55.9002 59H51.4002C51.2897 59 51.2002 59.0895 51.2002 59.2V63.7C51.2002 63.8105 51.2897 63.9 51.4002 63.9H55.9002C56.0107 63.9 56.1002 63.8105 56.1002 63.7V59.2C56.1002 59.0895 56.0107 59 55.9002 59Z" fill="#FFC946"/>
<path d="M66.9002 54.2H62.4002C62.2897 54.2 62.2002 54.2896 62.2002 54.4V58.9C62.2002 59.0105 62.2897 59.1 62.4002 59.1H66.9002C67.0107 59.1 67.1002 59.0105 67.1002 58.9V54.4C67.1002 54.2896 67.0107 54.2 66.9002 54.2Z" fill="#FFC946"/>
<path d="M55.9002 49H51.4002C51.2897 49 51.2002 49.0895 51.2002 49.2V53.7C51.2002 53.8105 51.2897 53.9 51.4002 53.9H55.9002C56.0107 53.9 56.1002 53.8105 56.1002 53.7V49.2C56.1002 49.0895 56.0107 49 55.9002 49Z" fill="#FFC946"/>
</svg>
