<svg xmlns="http://www.w3.org/2000/svg" xmlns:xlink="http://www.w3.org/1999/xlink" version="1.1" x="0px" y="0px" viewBox="0 0 90 112.5" enable-background="new 0 0 90 90" xml:space="preserve"><path fill-rule="evenodd" clip-rule="evenodd" d="M40.252,7.504c3.197,0.005,6.025,2.099,7.035,5.24  c0.146,0.474,0.59,0.791,1.084,0.791h5.678c0.844,0,1.473,0.625,1.473,1.438v5.948c0,0.813-0.629,1.448-1.473,1.448H26.455  c-0.844,0-1.469-0.635-1.469-1.448v-5.948c0-0.812,0.625-1.438,1.469-1.438h5.676c0.496,0,0.938-0.317,1.084-0.791  C34.225,9.604,37.059,7.504,40.252,7.504z M40.252,5.234c-3.855,0.005-7.1,2.5-8.637,6.025H16.777c-3.188,0-5.906,2.38-5.906,5.434  v62.67c0,3.057,2.719,5.433,5.906,5.433H63.73c3.193,0,5.906-2.375,5.906-5.433v-5.135c0.072-1.579-2.334-1.579-2.266,0v5.135  c0,1.704-1.541,3.167-3.641,3.167H16.777c-2.094,0-3.641-1.463-3.641-3.167v-62.67c0-1.704,1.547-3.158,3.641-3.158h6.234  c-0.188,0.443-0.291,0.928-0.291,1.438v5.948c0,2.048,1.688,3.715,3.734,3.715h27.594c2.047,0,3.744-1.667,3.744-3.715v-5.948  c0-0.509-0.104-0.995-0.297-1.438h6.234c2.1,0,3.641,1.454,3.641,3.158v9.374c-0.068,1.583,2.338,1.583,2.266,0v-9.374  c0-3.054-2.713-5.434-5.906-5.434H48.887C47.35,7.734,44.105,5.239,40.252,5.234z"/><path fill-rule="evenodd" clip-rule="evenodd" d="M40.252,12.937c1.156,0,2.104,0.953,2.104,2.198c0,1.244-0.947,2.192-2.104,2.192  s-2.094-0.948-2.094-2.192C38.158,13.89,39.096,12.937,40.252,12.937z M40.252,10.671c-2.418,0-4.365,2.03-4.365,4.464  c0,2.437,1.947,4.457,4.365,4.457c2.416,0,4.369-2.02,4.369-4.457C44.621,12.702,42.668,10.671,40.252,10.671z"/><path fill-rule="evenodd" clip-rule="evenodd" d="M58.021,42.816c2.078,0,3.787,1.756,3.793,4.011c0,1.344-0.641,2.599-1.684,3.333  c-0.375,0.265-0.551,0.734-0.453,1.182l1.449,6.167h-6.215l1.449-6.167c0.104-0.448-0.078-0.917-0.453-1.182  c-1.043-0.735-1.678-1.99-1.684-3.333C54.23,44.572,55.939,42.816,58.021,42.816z M58.021,40.551c-3.363,0-6.063,2.849-6.063,6.281  c0,1.672,1.012,3.031,2.141,4.203l-1.438,6.161c-0.307,1.313,0.631,2.584,2.006,2.584h6.703c1.381,0,2.313-1.271,2.01-2.584  l-1.441-6.161c1.129-1.172,2.141-2.531,2.141-4.203C64.08,43.4,61.381,40.551,58.021,40.551z"/><path d="M58.021,30.469l18.865,6.557v6.738c0,14.746-7.443,23.432-18.865,29.636C46.6,67.196,39.158,58.504,39.158,43.764v-6.738  L58.021,30.469z M57.652,28.197l-20,6.953c-0.453,0.156-0.76,0.589-0.76,1.068v7.546c0,15.782,8.41,25.538,20.604,31.99  c0.328,0.177,0.725,0.177,1.057,0c12.188-6.452,20.6-16.208,20.6-31.99v-7.546c0-0.479-0.303-0.912-0.76-1.068l-19.996-6.953  C58.121,28.098,57.871,28.119,57.652,28.197z"/><path d="M19.814,35.082c-1.574,0-1.574,2.266,0,2.266h12.057c1.572,0,1.572-2.266,0-2.266H19.814z"/><path d="M19.699,41.911c-1.51,0.02-1.4,2.265,0.115,2.265h12.057c1.572,0,1.572-2.281,0-2.265  C27.818,41.952,23.746,41.859,19.699,41.911z"/><path d="M19.814,48.729c-1.574,0-1.574,2.271,0,2.271h12.057c1.572,0,1.572-2.271,0-2.271H19.814z"/><path d="M19.699,55.562c-1.51,0.017-1.4,2.266,0.115,2.266c4.02,0,8.035,0,12.057,0c1.572,0,1.572-2.287,0-2.266  C27.818,55.604,23.746,55.504,19.699,55.562z"/><path d="M19.814,62.379c-1.516,0-1.516,2.276,0,2.276c5.672,0,11.344,0,17.02,0c1.516,0,1.516-2.276,0-2.276  C31.158,62.379,25.486,62.379,19.814,62.379z"/><path d="M19.814,69.207c-1.574,0-1.574,2.266,0,2.266c6.791,0,13.582,0,20.379,0c1.574,0,1.574-2.266,0-2.266  C33.396,69.207,26.605,69.207,19.814,69.207z"/><text x="0" y="105" fill="#000000" font-size="5px" font-weight="bold" font-family="'Helvetica Neue', Helvetica, Arial-Unicode, Arial, Sans-serif">Created by Cuputo</text><text x="0" y="110" fill="#000000" font-size="5px" font-weight="bold" font-family="'Helvetica Neue', Helvetica, Arial-Unicode, Arial, Sans-serif">from the Noun Project</text></svg>