<svg width="100" height="100" viewBox="0 0 100 100" fill="none" xmlns="http://www.w3.org/2000/svg">
<path d="M13.4148 65.1211V60.6241H21.9129V65.1211H13.4148Z" fill="#E2AB65" stroke="#8A6029" stroke-width="0.4"/>
<path d="M32.7097 42.9114H44.5797V69.3931L10.9389 69.393C10.0086 69.393 9.2 68.5321 9.2 67.457V42.9114H20.789V52.7243C20.789 53.052 20.9356 53.3735 21.1954 53.5709C21.3508 53.6903 21.5431 53.7578 21.7383 53.7578C21.8596 53.7578 21.9821 53.7312 22.094 53.6768L32.1111 49.3029C32.1113 49.3029 32.1115 49.3028 32.1117 49.3027C32.4829 49.1426 32.7097 48.7628 32.7097 48.3482V42.9114ZM22.8623 67.084C23.4044 67.084 23.8116 66.5988 23.8116 66.0504V59.5905C23.8116 59.0422 23.4044 58.557 22.8623 58.557H12.4656C11.9235 58.557 11.5163 59.0422 11.5163 59.5905V66.0504C11.5163 66.5988 11.9235 67.084 12.4656 67.084H22.8623Z" fill="#E2AB65" stroke="#8A6029" stroke-width="0.4"/>
<path d="M14.7324 30.2H22.4813L20.9286 40.8444H9.67997L13.1593 31.3609L13.1596 31.36C13.4231 30.6319 14.0444 30.2 14.7324 30.2Z" fill="#E2AB65" stroke="#8A6029" stroke-width="0.4"/>
<path d="M30.8108 47.6444L22.6873 51.1994V42.9114H30.8108V47.6444Z" fill="#8D622B" stroke="#8A6029" stroke-width="0.4"/>
<path d="M24.4123 30.2H29.1795L30.66 40.8444H22.8506L24.4123 30.2Z" fill="#8D622B" stroke="#8A6029" stroke-width="0.4"/>
<path d="M40.6487 31.3609L44.128 40.8444H32.5808L31.1003 30.2H39.0756C39.7636 30.2 40.3849 30.6319 40.6484 31.36L40.6487 31.3609Z" fill="#E2AB65" stroke="#8A6029" stroke-width="0.4"/>
<path d="M40.6487 31.3609L44.128 40.8444H32.5808L31.1003 30.2H39.0756C39.7636 30.2 40.3849 30.6319 40.6484 31.36L40.6487 31.3609Z" fill="#E2AB65" stroke="#8A6029" stroke-width="0.4"/>
<path d="M51.029 43.1033C51.025 43.095 51.0205 43.0869 51.0173 43.0783C51.0143 43.07 51.0126 43.0612 51.0102 43.0526C51.0078 43.0437 51.005 43.035 51.0035 43.026C51.0021 43.0172 51.0021 43.0081 51.0014 42.9991C51.0008 42.9898 50.9997 42.9805 51.0001 42.9712C51.0003 42.9632 51.0019 42.9552 51.0028 42.9472C51.004 42.9365 51.0052 42.9258 51.0077 42.9153C51.0081 42.9136 51.008 42.9118 51.0085 42.9101L51.462 41.1413C51.4948 41.0134 51.6099 40.9284 51.7361 40.9284C51.7594 40.9284 51.783 40.9313 51.8066 40.9373C51.9581 40.9762 52.0494 41.1305 52.0106 41.282L51.6731 42.5981C54.5384 41.5229 56.1353 39.8086 56.6871 37.2241C56.7155 37.0911 56.833 37.0001 56.9638 37.0001C56.9834 37.0001 57.0033 37.0021 57.0232 37.0063C57.1761 37.039 57.2736 37.1895 57.241 37.3424C56.6506 40.1073 54.88 42.0072 51.8322 43.1433L52.7349 44.0817C52.8434 44.1945 52.8398 44.3737 52.7271 44.4821C52.6144 44.5904 52.4352 44.587 52.3268 44.4743L51.0787 43.1767C51.0775 43.1755 51.0767 43.174 51.0755 43.1726C51.0682 43.1647 51.0621 43.1561 51.0557 43.1474C51.0509 43.1409 51.0456 43.1346 51.0413 43.1277C51.0365 43.1199 51.033 43.1115 51.029 43.1033Z" fill="#8D622B"/>
<path d="M60.68 44.3307C60.7329 44.3307 60.7865 44.3456 60.8341 44.3766L62.0664 45.1787V37.2833C62.0664 37.1269 62.1932 37.0001 62.3496 37.0001C62.506 37.0001 62.6328 37.1269 62.6328 37.2833V45.1787L63.8644 44.3767C63.9121 44.3457 63.9657 44.3308 64.0187 44.3308C64.1113 44.3308 64.202 44.3761 64.2563 44.4594C64.3416 44.5905 64.3046 44.766 64.1735 44.8513L62.5042 45.9383C62.4988 45.9418 62.493 45.9438 62.4875 45.9469C62.4773 45.9526 62.4673 45.9585 62.4563 45.9631C62.4477 45.9666 62.4389 45.9686 62.4301 45.9712C62.4285 45.9717 62.4268 45.9723 62.4251 45.9727C62.4193 45.9743 62.4138 45.9768 62.408 45.9781C62.4064 45.9784 62.4048 45.9785 62.4032 45.9788C62.3939 45.9806 62.3845 45.981 62.3751 45.9817C62.3674 45.9825 62.3598 45.9839 62.352 45.984C62.3512 45.984 62.3504 45.9842 62.3496 45.9842C62.3489 45.9842 62.3482 45.984 62.3475 45.984C62.3388 45.9839 62.3304 45.9825 62.3218 45.9816C62.3133 45.9807 62.3048 45.9804 62.2963 45.9788C62.2947 45.9785 62.2931 45.9785 62.2915 45.9781C62.2832 45.9764 62.2754 45.9731 62.2673 45.9706C62.2593 45.9681 62.2511 45.9663 62.2432 45.9631C62.2331 45.959 62.2238 45.9535 62.2142 45.9482C62.2129 45.9475 62.2116 45.9469 62.2104 45.9462C62.2054 45.9433 62.2 45.9414 62.1951 45.9383L62.1915 45.9359C62.1913 45.9358 62.191 45.9356 62.1908 45.9355L60.5252 44.8513C60.3941 44.766 60.357 44.5906 60.4424 44.4595C60.4967 44.3761 60.5873 44.3307 60.68 44.3307Z" fill="#8D622B"/>
<path d="M52.7132 47.3231C52.7122 47.3152 52.7122 47.3073 52.7119 47.2994C52.7116 47.2923 52.7107 47.2853 52.711 47.2781C52.7111 47.2748 52.7114 47.2714 52.7116 47.268C52.7122 47.26 52.7136 47.2523 52.7148 47.2445C52.716 47.237 52.7168 47.2296 52.7185 47.2222C52.719 47.2206 52.7189 47.2187 52.7193 47.217L53.1725 45.4478C53.2052 45.3199 53.3203 45.2349 53.4466 45.2349C53.4698 45.2349 53.4935 45.2377 53.5171 45.2438C53.6685 45.2826 53.7599 45.4368 53.7211 45.5883L53.3978 46.8503C56.3869 45.7755 57.9663 44.0428 58.2188 41.564C58.2336 41.4182 58.3566 41.3096 58.5001 41.3096C58.5097 41.3096 58.5194 41.31 58.5291 41.311C58.6847 41.3269 58.798 41.4659 58.7822 41.6214C58.507 44.3241 56.7322 46.2703 53.5068 47.4123L54.4453 48.3881C54.5537 48.5008 54.5502 48.68 54.4375 48.7884C54.3249 48.8968 54.1456 48.8933 54.0372 48.7806L52.7895 47.4835C52.7883 47.4823 52.7875 47.4808 52.7863 47.4796C52.7845 47.4776 52.7825 47.4757 52.7807 47.4738C52.7752 47.4674 52.7707 47.4601 52.7657 47.4532C52.7611 47.447 52.7561 47.4411 52.7522 47.4347C52.751 47.4328 52.7498 47.4309 52.7487 47.429C52.745 47.4226 52.7424 47.4154 52.7391 47.4087C52.7354 47.4009 52.7312 47.3934 52.7281 47.3853C52.7272 47.3827 52.7265 47.3802 52.7256 47.3776C52.7251 47.3762 52.7243 47.3751 52.7239 47.3736C52.722 47.3679 52.7217 47.3622 52.7202 47.3565C52.7182 47.3486 52.7156 47.3409 52.7144 47.3329C52.7139 47.3296 52.7136 47.3264 52.7132 47.3231Z" fill="#8D622B"/>
<path d="M68.9321 37.2243C69.4836 39.8086 71.0804 41.5228 73.946 42.5983L73.6087 41.282C73.5699 41.1304 73.6613 40.9762 73.8128 40.9374C73.8364 40.9314 73.86 40.9285 73.8832 40.9285C74.0095 40.9285 74.1245 41.0135 74.1573 41.1414L74.6105 42.9103C74.6109 42.912 74.6109 42.9138 74.6114 42.9156C74.6137 42.9257 74.6147 42.9359 74.616 42.9462C74.617 42.9547 74.6186 42.9631 74.6189 42.9714C74.6192 42.9802 74.6181 42.9889 74.6175 42.9976C74.617 43.0072 74.6169 43.0168 74.6154 43.0262C74.6141 43.0346 74.6113 43.0426 74.6092 43.0508C74.6068 43.0601 74.6049 43.0696 74.6016 43.0786C74.5986 43.0866 74.5943 43.0941 74.5906 43.1019C74.5863 43.1107 74.5825 43.1196 74.5775 43.1279C74.5735 43.1345 74.5684 43.1404 74.5637 43.1467C74.5573 43.1556 74.5509 43.1646 74.5433 43.1728C74.5421 43.174 74.5414 43.1755 74.5402 43.1767L73.2922 44.4742C73.1838 44.5869 73.0046 44.5905 72.8918 44.482C72.7792 44.3736 72.7756 44.1944 72.884 44.0817L73.7867 43.1432C70.7388 42.007 68.9683 40.1071 68.3784 37.3423C68.3457 37.1894 68.4432 37.0389 68.5962 37.0063C68.6161 37.0021 68.6359 37 68.6555 37C68.7862 37.0001 68.9037 37.0912 68.9321 37.2243Z" fill="#8D622B"/>
<path d="M67.0896 41.3111C67.0992 41.3101 67.1089 41.3097 67.1185 41.3097C67.262 41.3097 67.3851 41.4183 67.3999 41.5642C67.6517 44.043 69.2312 45.7756 72.2206 46.8504L71.8971 45.5885C71.8583 45.4369 71.9496 45.2827 72.1011 45.2438C72.1247 45.2378 72.1484 45.2349 72.1716 45.2349C72.2979 45.2349 72.4129 45.32 72.4457 45.4478L72.8993 47.217C72.8997 47.2187 72.8997 47.2205 72.9002 47.2224C72.9019 47.2297 72.9027 47.2372 72.9039 47.2447C72.9051 47.2525 72.9065 47.2601 72.9071 47.268C72.9074 47.2714 72.9076 47.2748 72.9077 47.2781C72.908 47.2852 72.9071 47.2922 72.9069 47.2993C72.9065 47.3073 72.9065 47.3152 72.9055 47.3231C72.9051 47.3264 72.9048 47.3297 72.9043 47.3329C72.903 47.3408 72.9004 47.3484 72.8985 47.3561C72.897 47.3619 72.8967 47.3678 72.8947 47.3736C72.8943 47.375 72.8935 47.3762 72.893 47.3776C72.8921 47.3802 72.8913 47.3828 72.8904 47.3853C72.8875 47.3932 72.8834 47.4004 72.8797 47.4081C72.8764 47.4151 72.8737 47.4224 72.8699 47.429C72.8687 47.431 72.8675 47.4328 72.8663 47.4348C72.8625 47.4411 72.8576 47.4467 72.8533 47.4527C72.8482 47.4597 72.8436 47.4672 72.8379 47.4737C72.8361 47.4758 72.8341 47.4776 72.8321 47.4797C72.8309 47.4809 72.8302 47.4824 72.829 47.4837L71.5809 48.7808C71.4724 48.8935 71.2932 48.897 71.1805 48.7885C71.0678 48.6801 71.0644 48.5008 71.1728 48.3881L72.1117 47.4123C68.8859 46.2703 67.1111 44.3241 66.8364 41.6214C66.8207 41.4658 66.934 41.3269 67.0896 41.3111Z" fill="#8D622B"/>
<path d="M81.6681 54.8254L81.6681 54.8255C81.8244 55.0601 82.0876 55.2017 82.3701 55.2017H83.5463V69.75H76.5957V47.1979L81.6681 54.8254Z" fill="#E2AB65" stroke="black" stroke-width="0.5"/>
<path d="M45.0083 69.75V55.2017H68.4124C68.6801 55.2017 68.9323 55.0747 69.0912 54.8586L74.9091 46.9707V69.75H45.0083Z" fill="#E2AB65" stroke="black" stroke-width="0.5"/>
<path d="M38.495 53.515L44.591 45.25H74.0828L67.9867 53.515H44.1651H38.495Z" fill="#E2AB65" stroke="black" stroke-width="0.5"/>
<path d="M89.8303 53.515H84.39H82.8225L77.3263 45.25H84.2794L89.8303 53.515Z" fill="#E2AB65" stroke="black" stroke-width="0.5"/>
<path d="M61 58H57C55.3455 58 54 59.3455 54 61V67.5C54 67.6326 54.0527 67.7598 54.1464 67.8536C54.2402 67.9473 54.3674 68 54.5 68H61C62.6545 68 64 66.6545 64 65V61C64 59.3455 62.6545 58 61 58ZM58.5 65.207L56.6465 63.3535L57.3535 62.6465L58.5 63.793L60.8965 61.3965L61.6035 62.1035L58.5 65.207Z" fill="white"/>
</svg>
