<svg width="100" height="100" viewBox="0 0 100 100" fill="none" xmlns="http://www.w3.org/2000/svg">
<path d="M77.718 10.5H26.7437C23.0367 10.5 19.9616 13.7814 19.9616 17.9192V81.273C19.9616 85.4108 23.0367 88.6922 26.7437 88.6922H77.718C81.4249 88.6922 84.5 85.4108 84.5 81.273V17.9192C84.5 13.7814 81.4249 10.5 77.718 10.5Z" fill="#346478" stroke="#203C48"/>
<path d="M23.9231 31.1634C23.9231 31.7595 23.7699 32.2522 23.575 32.5641C23.3711 32.8903 23.2179 32.8942 23.2163 32.8942H15.7067C15.7052 32.8942 15.5519 32.8903 15.3481 32.5641C15.1532 32.2522 15 31.7595 15 31.1634C15 30.5674 15.1532 30.0746 15.3481 29.7628C15.5519 29.4366 15.7052 29.4327 15.7067 29.4327H23.2163C23.2179 29.4327 23.3711 29.4366 23.575 29.7628C23.7699 30.0746 23.9231 30.5674 23.9231 31.1634Z" fill="#346478" stroke="white" stroke-width="2"/>
<path d="M23.9231 60.3553C23.9231 60.9514 23.7699 61.4441 23.575 61.756C23.3711 62.0822 23.2179 62.0861 23.2163 62.0861H15.7067C15.7052 62.0861 15.5519 62.0822 15.3481 61.756C15.1532 61.4441 15 60.9514 15 60.3553C15 59.7593 15.1532 59.2665 15.3481 58.9547C15.5519 58.6285 15.7052 58.6246 15.7067 58.6246H23.2163C23.2179 58.6246 23.3711 58.6285 23.575 58.9547C23.7699 59.2665 23.9231 59.7593 23.9231 60.3553Z" fill="#346478" stroke="white" stroke-width="2"/>
<path d="M57.3203 39L58.2821 40.8545V41.0687C58.2821 41.6337 58.7376 42.0915 59.3004 42.0915C59.8626 42.0915 60.3181 41.6336 60.3181 41.0687V40.8545L58.7167 39H57.3203Z" fill="white"/>
<path d="M54.1594 42.0915C54.7217 42.0915 55.1772 41.6337 55.1772 41.0688V40.8545L54.8571 39.0001H53.4607L53.1406 40.8545V41.0688C53.1406 41.6337 53.5967 42.0915 54.1594 42.0915Z" fill="white"/>
<path d="M50.5703 41.0688C50.5703 41.6337 51.0264 42.0915 51.5886 42.0915C52.1508 42.0915 52.6069 41.6337 52.6069 41.0688V40.8545L52.927 39.0001H51.5306L50.5704 40.8545V41.0688H50.5703Z" fill="white"/>
<path d="M55.7106 41.0688C55.7106 41.6337 56.1672 42.0915 56.7295 42.0915C57.2922 42.0915 57.7478 41.6337 57.7478 41.0688V40.8545L56.786 39H55.3906L55.7107 40.8545V41.0688H55.7106Z" fill="white"/>
<path d="M50.0365 41.0688V40.8545L50.9973 39H49.6009L48.0005 40.8545V41.0687H48C48 41.6337 48.4561 42.0915 49.0183 42.0915C49.581 42.0915 50.0365 41.6337 50.0365 41.0688Z" fill="white"/>
<path d="M48.6162 50.129H59.7017V42.709H48.6162V50.129ZM49.8479 43.946H58.4701V48.892H49.8479V43.946Z" fill="white"/>
<circle cx="54.5" cy="44.5" r="12.5" stroke="white" stroke-width="2"/>
<path d="M37.375 57.9853C39.1129 61.2111 41.9069 63.8498 45.3284 65.4912L47.9836 62.9778C48.3155 62.6644 48.7922 62.5732 49.2086 62.6986C50.5603 63.1203 52.0147 63.3483 53.5172 63.3483C54.1871 63.3483 54.7241 63.8555 54.7241 64.4881V68.4776C54.7241 69.1102 54.1871 69.6174 53.5172 69.6174C42.1845 69.6174 33 60.9432 33 50.24C33 49.6074 33.5431 49.1002 34.2069 49.1002H38.431C39.1009 49.1002 39.6379 49.6074 39.6379 50.24C39.6379 51.6592 39.8793 53.0327 40.3259 54.3093C40.4586 54.7025 40.3621 55.1528 40.0302 55.4662L37.375 57.9853Z" fill="white"/>
</svg>
