<svg width="100" height="100" viewBox="0 0 100 100" fill="none" xmlns="http://www.w3.org/2000/svg">
<path d="M79.1743 19.0869L74.2814 20.3973L75.4733 21.5892L64.1674 32.8952H51.3953L43.8918 40.3986L45.0905 41.5973L52.0996 34.5882H64.8683L76.672 22.7845L77.8639 23.9764L79.1743 19.0869Z" fill="#E74C3C"/>
<path d="M54.6796 18.5316H44.8601V20.2247H54.6796V18.5316Z" fill="black"/>
<path d="M54.6796 21.7484H44.8601V23.4414H54.6796V21.7484Z" fill="black"/>
<path d="M52.1401 24.9651H44.8601V26.6581H52.1401V24.9651Z" fill="black"/>
<path d="M92.8473 11H38.7137C37.4139 11 36.3601 12.0538 36.3601 13.3536C36.3601 14.6535 37.4139 15.7073 38.7137 15.7073H92.8473C94.1472 15.7073 95.201 14.6535 95.201 13.3536C95.201 12.0538 94.1472 11 92.8473 11Z" fill="black"/>
<path d="M92.8473 49.5996H38.7137C37.4139 49.5996 36.3601 50.6534 36.3601 51.9532C36.3601 53.2531 37.4139 54.3069 38.7137 54.3069H92.8473C94.1472 54.3069 95.201 53.2531 95.201 51.9532C95.201 50.6534 94.1472 49.5996 92.8473 49.5996Z" fill="black"/>
<path d="M68.8403 38.7729H65.0745V47.246H68.8403V38.7729Z" fill="#9DB732"/>
<path d="M76.372 35.0071H72.1355V47.246H76.372V35.0071Z" fill="#FF9D9C"/>
<path d="M83.4328 26.0633H79.667V47.246H83.4328V26.0633Z" fill="#68CBDF"/>
<path d="M92.3767 15.7073H88.6108V49.5996H92.3767V15.7073Z" fill="black"/>
<path d="M43.4211 15.7073H39.6553V49.5996H43.4211V15.7073Z" fill="black"/>
<path d="M68.4004 81.8928L71.1883 75.6626C75.445 77.3055 78.6142 82.3516 78.7321 88.4297H57.6174C57.7353 82.3517 60.9043 77.3056 65.1562 75.6626L67.944 81.8928L68.1722 82.4028L68.4004 81.8928Z" fill="#FF9D9C" stroke="#E88483" stroke-width="0.5"/>
<path d="M65.5292 74.3097C64.6517 73.2783 63.9963 71.8663 63.9903 70.3236C63.9955 68.7283 64.4889 67.3033 65.2607 66.2863C66.0363 65.2641 67.0714 64.6759 68.1748 64.6759C69.278 64.6759 70.3131 65.2641 71.0888 66.2863C71.8606 67.3033 72.354 68.7283 72.3593 70.3237C72.3532 71.8676 71.7029 73.2796 70.8287 74.3103C69.9316 75.3681 68.8871 75.9278 68.1748 75.9278C67.475 75.9278 66.4303 75.3689 65.5292 74.3097Z" fill="#F4E1C9" stroke="black"/>
<path d="M84.0157 81.8928L86.8035 75.6626C91.0603 77.3055 94.2294 82.3516 94.3473 88.4297H73.2326C73.3505 82.3517 76.5195 77.3056 80.7715 75.6626L83.5593 81.8928L83.7875 82.4028L84.0157 81.8928Z" fill="#F7DC6F" stroke="#CAAC32" stroke-width="0.5"/>
<path d="M81.1444 74.3097C80.2669 73.2783 79.6116 71.8663 79.6055 70.3236C79.6108 68.7283 80.1041 67.3033 80.8759 66.2863C81.6516 65.2641 82.6866 64.6759 83.79 64.6759C84.8932 64.6759 85.9283 65.2641 86.704 66.2863C87.4759 67.3033 87.9693 68.7283 87.9745 70.3237C87.9685 71.8676 87.3181 73.2796 86.444 74.3103C85.5469 75.3681 84.5023 75.9278 83.79 75.9278C83.0902 75.9278 82.0456 75.3689 81.1444 74.3097Z" fill="#F4E1C9" stroke="black"/>
<path d="M51.584 81.4477L54.6924 74.5011C59.4544 76.3242 62.9952 81.9642 63.1173 88.75H39.5999C39.722 81.9643 43.2626 76.3244 48.0193 74.5012L51.1276 81.4477L51.3558 81.9576L51.584 81.4477Z" fill="#BB8FCE" stroke="#AF6ACC" stroke-width="0.5"/>
<path d="M48.3768 73.0693C47.3949 71.9152 46.6604 70.3341 46.6536 68.6044C46.6595 66.8207 47.2109 65.2254 48.0765 64.0848C48.9463 62.9385 50.1115 62.2736 51.3586 62.2736C52.6056 62.2736 53.7707 62.9385 54.6407 64.0848C55.5062 65.2254 56.0578 66.8208 56.0636 68.6044C56.0569 70.3353 55.328 71.9166 54.3498 73.0699C53.3483 74.2509 52.1736 74.8868 51.3586 74.8868C50.5575 74.8868 49.3827 74.2517 48.3768 73.0693Z" fill="#F4E1C9" stroke="black"/>
<path d="M26.2638 85.6671C28.082 85.6671 29.5565 84.1936 29.5565 82.3748V39.8281C32.4338 38.9723 38.0431 36.4057 44.6116 28.8338C45.3838 27.946 45.2904 26.6007 44.4031 25.8284C43.5158 25.0561 42.1702 25.1496 41.3979 26.0369C37.0991 30.9754 33.4226 33.4575 30.8989 34.7155C29.6367 35.344 28.661 35.6665 28.0314 35.8313C27.7167 35.9136 27.489 35.9559 27.3553 35.9775C27.2887 35.9884 27.2456 35.9935 27.2275 35.9951C27.2254 35.9953 27.2232 35.9956 27.2222 35.9956C27.1921 35.998 27.1628 36.0033 27.1327 36.007H17.5902C17.5892 36.007 17.5886 36.0065 17.5876 36.0065V36.006C17.5074 35.9959 17.3801 35.9847 17.211 35.9847C16.4537 35.9639 14.7118 36.2792 13.1641 37.8988C11.8076 39.3035 10.629 41.5196 9.8868 45.0609C9.77922 45.5764 9.67989 46.1194 9.59148 46.6927C9.59095 46.6948 9.59095 46.6972 9.59042 46.6994C9.2658 48.8066 9.07646 51.3273 9.07646 54.3655C9.07646 55.9247 9.126 57.6207 9.23464 59.4675C9.30069 60.5992 10.2396 61.473 11.3597 61.473C11.4012 61.473 11.4433 61.4719 11.4862 61.4692C12.6605 61.4005 13.5566 60.3921 13.4882 59.2177C13.3835 57.4466 13.3369 55.8333 13.3375 54.3653C13.3369 51.5055 13.517 49.1967 13.8014 47.3499C13.8019 47.3473 13.8024 47.3449 13.803 47.3422C13.8863 46.7982 13.9798 46.2989 14.0791 45.8344C14.3923 44.3733 14.7728 43.2876 15.152 42.4916V50.6973L13.935 51.5215C13.9193 51.8458 13.9071 52.1766 13.897 52.5124L15.0391 51.7388L19.8178 58.794L10.8881 64.8419L6.10992 57.7864L8.56651 56.1225C8.55932 55.8009 8.55399 55.4829 8.55026 55.1681L5 57.5731L10.675 65.9515L15.152 62.919V82.3746C15.152 84.1934 16.6265 85.6668 18.4442 85.6668C20.2625 85.6668 21.737 84.1934 21.737 82.3746V58.3357H22.9713V82.3746C22.9713 84.1934 24.4458 85.6671 26.2638 85.6671ZM21.3418 38.1861H22.354H23.3657L23.8716 40.1834L23.7947 40.3048C23.3776 40.6526 22.8669 40.8267 22.3535 40.8273C21.84 40.8267 21.3298 40.6529 20.9133 40.3059L20.8358 40.1834L21.3418 38.1861ZM22.354 55.3623L19.8242 52.1667L21.2811 41.4294C21.6265 41.5588 21.99 41.6264 22.3535 41.6262H22.354C22.354 41.6262 22.3551 41.6262 22.3556 41.6262C22.7186 41.6262 23.0813 41.5585 23.4261 41.4291L24.8841 52.1667L22.354 55.3623Z" fill="#1A5276"/>
<path d="M18.993 32.7916C17.8973 31.6276 17.0871 30.0434 17.0796 28.32C17.0926 24.7163 19.5339 21.9534 22.3693 21.9534C25.2044 21.9534 27.6461 24.7163 27.659 28.3201C27.6516 30.0447 26.8477 31.629 25.7561 32.7922C24.6448 33.9764 23.32 34.6383 22.3693 34.6383C21.434 34.6383 20.1091 33.9772 18.993 32.7916Z" fill="#F4E1C9" stroke="black"/>
</svg>
