<svg width="100" height="100" viewBox="0 0 100 100" fill="none" xmlns="http://www.w3.org/2000/svg">
<path d="M34.9095 37.3756C33.0953 38.8239 30.7711 39.7014 28.2349 39.7014C22.4583 39.7014 17.7956 35.1893 17.792 29.6482C17.792 29.6481 17.792 29.6481 17.792 29.648L34.9095 37.3756ZM34.9095 37.3756C37.2084 35.5261 38.667 32.7521 38.667 29.6482C38.667 24.1069 34.0078 19.5915 28.2313 19.5915C24.2482 19.5915 20.7935 21.7385 19.0344 24.8899L34.9095 37.3756ZM33.5641 36.3266L33.7216 36.4789L33.8933 36.3427C34.4701 35.885 34.9857 35.3652 35.4206 34.7864L35.5531 34.61L35.3946 34.4566L30.5934 29.8097L30.2548 29.4819L30.1733 29.9461C30.0554 30.6177 29.595 31.1613 28.9678 31.3747L28.5803 31.5065L28.8745 31.7911L33.5641 36.3266ZM29.2836 21.2124L29.0645 21.1921L29.0166 21.407L27.6382 27.5959L27.5509 27.9875L27.9409 27.8932C28.0017 27.8785 28.0521 27.8644 28.0969 27.8518C28.1989 27.8232 28.2717 27.8027 28.3717 27.8027C28.9178 27.8027 29.3972 28.0508 29.7493 28.4352L30.0733 28.7888L30.1777 28.3207L31.5849 22.01L31.6328 21.7954L31.426 21.7205C30.7399 21.4721 30.0274 21.2811 29.2836 21.2124ZM20.1502 32.3575L20.1501 32.3575L20.1516 32.362C20.2784 32.7436 20.4572 33.0953 20.6239 33.4235C20.6369 33.449 20.6498 33.4744 20.6626 33.4996L20.761 33.6939L20.967 33.6229L27.1394 31.4962L27.5688 31.3482L27.2141 31.0646C26.7853 30.7216 26.5018 30.2188 26.5018 29.6517C26.5018 29.6218 26.5079 29.5888 26.5225 29.5358C26.5249 29.5269 26.5279 29.5167 26.5312 29.5053C26.5444 29.4593 26.5628 29.3953 26.5737 29.3321L26.6455 28.916L26.2461 29.0532L20.1097 31.1626L19.8996 31.2348L19.9466 31.4519C19.9639 31.532 19.9804 31.6162 19.9973 31.7028C20.0388 31.9155 20.0832 32.1425 20.1502 32.3575Z" fill="#FFC946" stroke="#8F7637" stroke-width="0.5"/>
<path d="M63.059 36.6436C60.6945 38.548 57.6657 39.7014 54.3612 39.7014C46.8367 39.7014 40.7547 33.7712 40.75 26.478C40.75 26.4779 40.75 26.4779 40.75 26.4778L63.059 36.6436ZM63.059 36.6436C66.0554 34.2118 67.9583 30.5627 67.9583 26.478C67.9583 19.1846 61.8808 13.25 54.3565 13.25C49.1673 13.25 44.6643 16.0718 42.3703 20.2173L63.059 36.6436ZM61.3201 35.1552L61.4783 35.3096L61.6509 35.1714C62.3941 34.5765 63.0578 33.9014 63.6174 33.1501L63.748 32.9747L63.5915 32.8219L57.3678 26.7452L57.0282 26.4136L56.9468 26.8812C56.7892 27.7872 56.1733 28.5209 55.3344 28.8087L54.9503 28.9406L55.241 29.2242L61.3201 35.1552ZM55.714 15.5231L55.4943 15.5027L55.4467 15.7182L53.6598 23.8113L53.5733 24.2032L53.9632 24.1081C54.0355 24.0905 54.0978 24.0728 54.1548 24.0567C54.2923 24.0178 54.3985 23.9878 54.5385 23.9878C55.2693 23.9878 55.9095 24.323 56.3782 24.839L56.7031 25.1967L56.8074 24.7249L58.6316 16.4724L58.6788 16.2587L58.4732 16.1836C57.5877 15.8602 56.6702 15.6122 55.714 15.5231ZM43.9515 29.9975L43.9515 29.9975L43.953 30.0019C44.1154 30.4951 44.3446 30.9501 44.5612 31.3802C44.5778 31.4132 44.5944 31.4461 44.6109 31.4789L44.7093 31.6748L44.9163 31.6028L52.9176 28.8216L53.343 28.6737L52.9925 28.3909C52.4219 27.9304 52.0405 27.2519 52.0405 26.4825C52.0405 26.4325 52.0507 26.3812 52.0701 26.31C52.0737 26.297 52.0778 26.2826 52.0822 26.267C52.0994 26.2067 52.1216 26.129 52.1349 26.0512L52.2061 25.6344L51.8065 25.7729L43.8519 28.5313L43.643 28.6038L43.6894 28.82C43.7125 28.9279 43.7342 29.04 43.7564 29.1543C43.8099 29.4308 43.866 29.7206 43.9515 29.9975Z" fill="#CD201F" stroke="#673232" stroke-width="0.5"/>
<path d="M83.7163 47.5693L83.7421 47.5509L83.7654 47.5294C83.8039 47.4938 83.9062 47.4392 84.1098 47.4392C84.3073 47.4392 84.5577 47.4925 84.8251 47.6161C85.129 47.7565 85.2911 47.869 85.3807 47.9725C85.4523 48.0553 85.5 48.1571 85.5 48.3514V81.6487C85.5 81.8429 85.4523 81.9447 85.3807 82.0275C85.2911 82.131 85.129 82.2435 84.8251 82.3839C84.5577 82.5075 84.3073 82.5608 84.1098 82.5608C83.9062 82.5608 83.8039 82.5062 83.7654 82.4706L83.7421 82.4491L83.7163 82.4307L72.4554 74.4037L71.6652 73.8404V74.8108V78.3784C71.6652 82.8225 67.7444 86.5 62.8348 86.5H21.3304C16.4208 86.5 12.5 82.8225 12.5 78.3784V51.6216C12.5 47.1775 16.4208 43.5 21.3304 43.5H62.8348C67.7444 43.5 71.6652 47.1775 71.6652 51.6216V55.1892V56.1596L72.4554 55.5963L83.7163 47.5693Z" fill="#C9CBCC" stroke="#A9ABAD"/>
<path d="M39.9334 55.0707L39.9349 55.0716L53.0642 62.8014C54.6598 63.7983 54.6273 66.1436 53.0744 67.0348L53.0744 67.0347L53.0696 67.0375L39.9349 74.7705L39.9334 74.7714C38.2844 75.7501 36.25 74.5532 36.25 72.6541V57.1881C36.25 55.289 38.2844 54.092 39.9334 55.0707Z" fill="white" stroke="#C4C9CC"/>
<circle cx="22.5" cy="53.5" r="5" fill="white" stroke="#C4C9CC"/>
</svg>
