<svg width="14" height="12" viewBox="0 0 14 12" fill="none" xmlns="http://www.w3.org/2000/svg">
<path d="M0.333334 11.5667V10.2667C0.655556 10.2667 0.930445 10.2167 1.158 10.1167C1.386 10.0167 1.61667 9.90846 1.85 9.79202C2.08333 9.67513 2.34178 9.56935 2.62533 9.47468C2.90845 9.38046 3.25556 9.33335 3.66667 9.33335C4.08889 9.33335 4.436 9.38046 4.708 9.47468C4.98044 9.56935 5.23333 9.67513 5.46667 9.79202C5.7 9.90846 5.93333 10.0167 6.16667 10.1167C6.4 10.2167 6.67778 10.2667 7 10.2667C7.32222 10.2667 7.6 10.2167 7.83333 10.1167C8.06667 10.0167 8.3 9.90846 8.53333 9.79202C8.76667 9.67513 9.02222 9.56935 9.3 9.47468C9.57778 9.38046 9.92222 9.33335 10.3333 9.33335C10.7556 9.33335 11.1056 9.38046 11.3833 9.47468C11.6611 9.56935 11.9167 9.67513 12.15 9.79202C12.3833 9.90846 12.6167 10.0167 12.85 10.1167C13.0833 10.2167 13.3556 10.2667 13.6667 10.2667V11.5667C13.2444 11.5667 12.8918 11.5167 12.6087 11.4167C12.3251 11.3167 12.0667 11.2082 11.8333 11.0913C11.6 10.9749 11.3722 10.8696 11.15 10.7754C10.9278 10.6807 10.6556 10.6334 10.3333 10.6334C10.0222 10.6334 9.75289 10.6807 9.52533 10.7754C9.29733 10.8696 9.06933 10.9749 8.84133 11.0913C8.61378 11.2082 8.35844 11.3167 8.07533 11.4167C7.79178 11.5167 7.43333 11.5667 7 11.5667C6.56667 11.5667 6.20822 11.5167 5.92467 11.4167C5.64156 11.3167 5.38622 11.2082 5.15867 11.0913C4.93067 10.9749 4.70556 10.8696 4.48333 10.7754C4.26111 10.6807 3.98889 10.6334 3.66667 10.6334C3.35556 10.6334 3.08622 10.6807 2.85867 10.7754C2.63067 10.8696 2.4 10.9749 2.16667 11.0913C1.93333 11.2082 1.67511 11.3167 1.392 11.4167C1.10845 11.5167 0.755556 11.5667 0.333334 11.5667ZM0.333334 8.60002V7.30002C0.655556 7.30002 0.930445 7.25002 1.158 7.15002C1.386 7.05002 1.61667 6.94179 1.85 6.82535C2.08333 6.70846 2.34178 6.60268 2.62533 6.50802C2.90845 6.41379 3.25556 6.36668 3.66667 6.36668C4.08889 6.36668 4.436 6.41379 4.708 6.50802C4.98044 6.60268 5.23333 6.70846 5.46667 6.82535C5.7 6.94179 5.93333 7.05002 6.16667 7.15002C6.4 7.25002 6.67778 7.30002 7 7.30002C7.32222 7.30002 7.6 7.25002 7.83333 7.15002C8.06667 7.05002 8.3 6.94179 8.53333 6.82535C8.76667 6.70846 9.02222 6.60268 9.3 6.50802C9.57778 6.41379 9.92222 6.36668 10.3333 6.36668C10.7556 6.36668 11.1056 6.41379 11.3833 6.50802C11.6611 6.60268 11.9167 6.70846 12.15 6.82535C12.3833 6.94179 12.6167 7.05002 12.85 7.15002C13.0833 7.25002 13.3556 7.30002 13.6667 7.30002V8.60002C13.2444 8.60002 12.8918 8.55002 12.6087 8.45002C12.3251 8.35002 12.0667 8.24179 11.8333 8.12535C11.6 8.00846 11.3722 7.90268 11.15 7.80802C10.9278 7.71379 10.6556 7.66668 10.3333 7.66668C10.0111 7.66668 9.73622 7.71379 9.50867 7.80802C9.28067 7.90268 9.05289 8.00846 8.82533 8.12535C8.59733 8.24179 8.34445 8.35002 8.06667 8.45002C7.78889 8.55002 7.43333 8.60002 7 8.60002C6.56667 8.60002 6.20822 8.55002 5.92467 8.45002C5.64156 8.35002 5.38622 8.24179 5.15867 8.12535C4.93067 8.00846 4.70556 7.90268 4.48333 7.80802C4.26111 7.71379 3.98889 7.66668 3.66667 7.66668C3.35556 7.66668 3.08622 7.71379 2.85867 7.80802C2.63067 7.90268 2.4 8.00846 2.16667 8.12535C1.93333 8.24179 1.67511 8.35002 1.392 8.45002C1.10845 8.55002 0.755556 8.60002 0.333334 8.60002ZM0.333334 5.63335V4.33335C0.655556 4.33335 0.930445 4.28335 1.158 4.18335C1.386 4.08335 1.61667 3.97491 1.85 3.85802C2.08333 3.74157 2.34178 3.63602 2.62533 3.54135C2.90845 3.44713 3.25556 3.40002 3.66667 3.40002C4.08889 3.40002 4.436 3.44713 4.708 3.54135C4.98044 3.63602 5.23333 3.74157 5.46667 3.85802C5.7 3.97491 5.93333 4.08335 6.16667 4.18335C6.4 4.28335 6.67778 4.33335 7 4.33335C7.32222 4.33335 7.6 4.28335 7.83333 4.18335C8.06667 4.08335 8.3 3.97491 8.53333 3.85802C8.76667 3.74157 9.02222 3.63602 9.3 3.54135C9.57778 3.44713 9.92222 3.40002 10.3333 3.40002C10.7556 3.40002 11.1056 3.44713 11.3833 3.54135C11.6611 3.63602 11.9167 3.74157 12.15 3.85802C12.3833 3.97491 12.6167 4.08335 12.85 4.18335C13.0833 4.28335 13.3556 4.33335 13.6667 4.33335V5.63335C13.2444 5.63335 12.8918 5.58335 12.6087 5.48335C12.3251 5.38335 12.0667 5.27513 11.8333 5.15868C11.6 5.04179 11.3722 4.93602 11.15 4.84135C10.9278 4.74713 10.6556 4.70002 10.3333 4.70002C10.0222 4.70002 9.75289 4.74713 9.52533 4.84135C9.29733 4.93602 9.06933 5.04179 8.84133 5.15868C8.61378 5.27513 8.35844 5.38335 8.07533 5.48335C7.79178 5.58335 7.43333 5.63335 7 5.63335C6.56667 5.63335 6.20822 5.58335 5.92467 5.48335C5.64156 5.38335 5.38622 5.27513 5.15867 5.15868C4.93067 5.04179 4.70556 4.93602 4.48333 4.84135C4.26111 4.74713 3.98889 4.70002 3.66667 4.70002C3.35556 4.70002 3.08622 4.74713 2.85867 4.84135C2.63067 4.93602 2.4 5.04179 2.16667 5.15868C1.93333 5.27513 1.67511 5.38335 1.392 5.48335C1.10845 5.58335 0.755556 5.63335 0.333334 5.63335ZM0.333334 2.66668V1.36668C0.655556 1.36668 0.930445 1.31668 1.158 1.21668C1.386 1.11668 1.61667 1.00824 1.85 0.891349C2.08333 0.774905 2.34178 0.66935 2.62533 0.574683C2.90845 0.480461 3.25556 0.43335 3.66667 0.43335C4.08889 0.43335 4.436 0.480461 4.708 0.574683C4.98044 0.66935 5.23333 0.774905 5.46667 0.891349C5.7 1.00824 5.93333 1.11668 6.16667 1.21668C6.4 1.31668 6.67778 1.36668 7 1.36668C7.32222 1.36668 7.6 1.31668 7.83333 1.21668C8.06667 1.11668 8.3 1.00824 8.53333 0.891349C8.76667 0.774905 9.02222 0.66935 9.3 0.574683C9.57778 0.480461 9.92222 0.43335 10.3333 0.43335C10.7556 0.43335 11.1056 0.480461 11.3833 0.574683C11.6611 0.66935 11.9167 0.774905 12.15 0.891349C12.3833 1.00824 12.6167 1.11668 12.85 1.21668C13.0833 1.31668 13.3556 1.36668 13.6667 1.36668V2.66668C13.2444 2.66668 12.8918 2.61668 12.6087 2.51668C12.3251 2.41668 12.0667 2.30824 11.8333 2.19135C11.6 2.07491 11.3722 1.96935 11.15 1.87468C10.9278 1.78046 10.6556 1.73335 10.3333 1.73335C10.0222 1.73335 9.75289 1.78046 9.52533 1.87468C9.29733 1.96935 9.06933 2.07491 8.84133 2.19135C8.61378 2.30824 8.35844 2.41668 8.07533 2.51668C7.79178 2.61668 7.43333 2.66668 7 2.66668C6.56667 2.66668 6.20822 2.61668 5.92467 2.51668C5.64156 2.41668 5.38622 2.30824 5.15867 2.19135C4.93067 2.07491 4.70556 1.96935 4.48333 1.87468C4.26111 1.78046 3.98889 1.73335 3.66667 1.73335C3.35556 1.73335 3.08622 1.78046 2.85867 1.87468C2.63067 1.96935 2.4 2.07491 2.16667 2.19135C1.93333 2.30824 1.67511 2.41668 1.392 2.51668C1.10845 2.61668 0.755556 2.66668 0.333334 2.66668Z" fill="#1C1B1F"/>
</svg>
