<svg width="100" height="100" viewBox="0 0 100 100" fill="none" xmlns="http://www.w3.org/2000/svg">
<path d="M79.7202 17.5104V45.1771M76.6616 19.0475L79.7202 22.1215L82.7787 19.0475M76.6616 43.6401L79.7202 40.566L82.7787 43.6401M67.8411 24.4271L91.68 38.2604M67.6562 27.5148L71.4165 26.5021L70.4089 22.7227M89.1114 39.9648L88.1038 36.1854L91.8641 35.1728M91.6798 24.4271L67.8408 38.2604M89.1119 22.7227L88.1044 26.5021L91.8646 27.5148M67.6568 35.1727L71.417 36.1854L70.4094 39.9647" stroke="#93E7FB" stroke-width="2" stroke-linecap="round" stroke-linejoin="round"/>
<path d="M26.7372 43.1237C29.484 41.4775 32.6903 40.5347 36.1156 40.5347C36.5286 40.5347 36.944 40.5474 37.3569 40.5727C38.5201 36.5579 40.7432 33.0322 43.6915 30.305C43.1276 23.8898 37.7836 18.8661 31.269 18.8661C24.3779 18.8661 18.7935 24.4879 18.7935 31.424C18.7936 36.7542 22.0893 41.3013 26.7372 43.1237Z" fill="#FFC946"/>
<path d="M32.6173 14.1194V9.34892C32.6173 8.60393 32.0133 8 31.2684 8C30.5234 8 29.9194 8.60393 29.9194 9.34892V14.1194C29.9194 14.8644 30.5234 15.4683 31.2684 15.4683C32.0133 15.4683 32.6173 14.8644 32.6173 14.1194Z" fill="#FFC946"/>
<path d="M23.3504 17.6022C23.9928 17.2286 24.2131 16.4065 23.8434 15.7618L21.4791 11.638C21.1063 10.9878 20.2755 10.7652 19.6275 11.1419C18.9851 11.5155 18.7648 12.3376 19.1344 12.9823L21.4987 17.1061C21.8716 17.7564 22.7024 17.979 23.3504 17.6022Z" fill="#FFC946"/>
<path d="M11.113 19.7189C10.7418 20.3659 10.9629 21.1912 11.6078 21.566L15.6885 23.9372C16.3384 24.3149 17.1715 24.0917 17.5457 23.4397C17.9169 22.7927 17.6958 21.9674 17.0508 21.5926L12.9702 19.2214C12.3202 18.8437 11.4871 19.0669 11.113 19.7189Z" fill="#FFC946"/>
<path d="M15.4198 31.4239C15.4198 30.6742 14.8121 30.0665 14.0624 30.0665H9.35785C8.60793 30.0665 8 30.6744 8 31.4243C8 32.1744 8.60808 32.7823 9.35809 32.7822L14.0626 32.7814C14.8122 32.7812 15.4198 32.1735 15.4198 31.4239Z" fill="#FFC946"/>
<path d="M11.6076 41.2828C10.9627 41.6576 10.7417 42.4828 11.1129 43.1298C11.487 43.7819 12.3203 44.0051 12.9703 43.6273L17.0511 41.2552C17.6959 40.8804 17.9169 40.0551 17.5457 39.4082C17.1716 38.7561 16.3383 38.533 15.6884 38.9108L11.6076 41.2828Z" fill="#FFC946"/>
<path d="M46.8404 23.9392L50.9217 21.5682C51.5691 21.1921 51.792 20.3608 51.4197 19.7113C51.0474 19.0618 50.2209 18.8401 49.5735 19.2162L45.4922 21.5872C44.8449 21.9633 44.6219 22.7946 44.9942 23.4441C45.3665 24.0936 46.1931 24.3153 46.8404 23.9392Z" fill="#FFC946"/>
<path d="M43.4026 12.9816C43.7721 12.3373 43.5521 11.5155 42.91 11.142C42.2624 10.7653 41.4318 10.9876 41.0591 11.6376L38.6933 15.7625C38.3238 16.4068 38.5438 17.2286 39.1858 17.6021C39.8334 17.9789 40.6641 17.7566 41.0368 17.1066L43.4026 12.9816Z" fill="#FFC946"/>
<path d="M72.3674 40.5886L72.3466 41.1086H72.867C72.8814 41.1086 72.8941 41.108 72.9046 41.1073C79.7527 41.1189 85.3122 46.7458 85.3122 53.7001C85.3122 60.6603 79.7413 66.2917 72.8833 66.2917H31.1896C23.4393 66.2917 17.1455 59.9272 17.1455 52.0631C17.1455 44.1988 23.4393 37.8344 31.1896 37.8344C32.6365 37.8344 34.029 38.056 35.3411 38.4669L35.9261 38.6501L35.988 38.0403C36.9334 28.7253 44.7038 21.4688 54.1377 21.4688C64.2087 21.4688 72.3833 29.7378 72.3833 39.9533C72.3833 40.1618 72.3761 40.3714 72.3674 40.5886Z" fill="#ECF0F1" stroke="#CDD4D6"/>
<path d="M35.8369 67.1759C35.8369 67.1759 33.4831 69.4206 32.9265 70.1127C32.7146 70.3765 32.5573 70.692 32.4691 71.042C32.1543 72.3192 32.9133 73.6155 34.1652 73.9385C35.4171 74.2578 36.6876 73.4854 37.0044 72.2083C37.0906 71.8564 37.0963 71.5046 37.0344 71.1701C36.8659 70.2906 35.8369 67.1759 35.8369 67.1759Z" fill="#98B1C5"/>
<path d="M33.0519 78.4452C33.0519 78.4452 30.6981 80.6918 30.1415 81.384C29.9316 81.6498 29.7723 81.9614 29.6861 82.3133C29.3693 83.5905 30.1302 84.8868 31.3821 85.208C32.6341 85.5312 33.9046 84.7567 34.2194 83.4776C34.3057 83.1277 34.3131 82.774 34.2494 82.4412C34.0808 81.5617 33.0519 78.4452 33.0519 78.4452Z" fill="#98B1C5"/>
<path d="M49.8211 72.8934C49.8211 72.8934 47.4673 75.14 46.9106 75.8322C46.7007 76.096 46.5415 76.4096 46.4552 76.7595C46.1385 78.0386 46.8976 79.3348 48.1494 79.658C49.4013 79.9773 50.6737 79.2029 50.9886 77.9277C51.0748 77.574 51.0804 77.2241 51.0166 76.8876C50.8499 76.01 49.8211 72.8934 49.8211 72.8934Z" fill="#98B1C5"/>
<path d="M47.0364 84.1646C47.0364 84.1646 44.6826 86.4111 44.1279 87.1034C43.9161 87.3692 43.7568 87.6808 43.6706 88.0307C43.3538 89.3098 44.1129 90.6062 45.3666 90.9274C46.6185 91.2486 47.8891 90.4742 48.2039 89.197C48.2919 88.8452 48.2958 88.4934 48.2339 88.1606C48.0672 87.2812 47.0364 84.1646 47.0364 84.1646Z" fill="#98B1C5"/>
<path d="M67.2811 66.7917C67.2811 66.7917 64.9273 69.0382 64.3707 69.7305C64.1589 69.9943 63.9996 70.3079 63.9134 70.6578C63.5985 71.935 64.3594 73.2331 65.6094 73.5543C66.8631 73.8755 68.1338 73.1012 68.4486 71.8241C68.5367 71.4722 68.5405 71.1204 68.4786 70.7859C68.31 69.9083 67.2811 66.7917 67.2811 66.7917Z" fill="#98B1C5"/>
<path d="M64.4966 78.0628C64.4966 78.0628 62.1447 80.3075 61.5881 81.0016C61.3763 81.2654 61.2189 81.5771 61.1308 81.9289C60.8159 83.2062 61.5749 84.5024 62.8268 84.8256C64.0787 85.1468 65.3493 84.3725 65.666 83.0952C65.7523 82.7434 65.7579 82.3916 65.6941 82.057C65.5255 81.1774 64.4966 78.0628 64.4966 78.0628Z" fill="#98B1C5"/>
<path d="M45.4028 69.4574C45.2843 69.6625 45.2086 69.9121 45.1848 70.1771C45.161 70.442 45.19 70.7113 45.2685 70.9533C45.3469 71.1953 45.4714 71.3999 45.6275 71.5433C45.7837 71.6866 45.9648 71.7627 46.1498 71.7626H51.9753L52.0123 71.6291L52.4941 71.7626V72.2626H52.3556L49.1367 83.8839L56.7794 54.0223C56.8659 53.7116 56.8726 53.3666 56.7985 53.0493C56.7244 52.7321 56.5742 52.4635 56.3751 52.292C56.176 52.1205 55.941 52.0574 55.7125 52.114C55.484 52.1706 55.2771 52.3432 55.1289 52.6007L45.4028 69.4574ZM45.4028 69.4574L45.4029 69.4574L45.4028 69.4574ZM60.1718 67.107L60.1718 67.107C60.2286 67.282 60.2512 67.4834 60.2332 67.6844C60.2151 67.8859 60.1583 68.0638 60.0804 68.1986L60.0802 68.1989L50.3541 85.0556L50.3538 85.0562C50.2547 85.2285 50.147 85.2912 50.0833 85.3069C50.0322 85.3196 49.9602 85.3154 49.8673 85.2354L49.541 85.6143L49.8673 85.2354C49.766 85.1481 49.6604 84.9824 49.6045 84.7432C49.5492 84.5068 49.5547 84.2469 49.6184 84.018L49.6185 84.0174L52.976 71.896L53.1514 71.2626H52.4941H46.1498H46.1495C46.1081 71.2626 46.0439 71.2468 45.9657 71.175C45.8847 71.1006 45.8013 70.9755 45.7441 70.7992C45.6874 70.6242 45.6648 70.4228 45.6828 70.2218C45.7009 70.0204 45.7578 69.8425 45.8357 69.7077L45.8359 69.7073L55.562 52.8506L55.5623 52.8501C55.6614 52.6778 55.7691 52.6151 55.8328 52.5993C55.8838 52.5866 55.9559 52.5908 56.0488 52.6708L56.3738 52.2935L56.0488 52.6708C56.1501 52.7581 56.2557 52.9239 56.3116 53.1631C56.3669 53.3995 56.3614 53.6593 56.2977 53.8883L56.2976 53.8888L52.9401 66.0102L52.7647 66.6437H53.422H59.7663H59.7665C59.8079 66.6437 59.8721 66.6595 59.9503 66.7313C60.0312 66.8056 60.1147 66.9307 60.1718 67.107Z" fill="#FFC946" stroke="#EFD358"/>
</svg>
