<svg width="84" height="91" viewBox="0 0 84 91" fill="none" xmlns="http://www.w3.org/2000/svg">
<path d="M74.8816 16.839L49.5869 2.22656C44.42 -0.742188 38.5204 -0.742188 33.3535 2.22656L8.09739 16.839C2.93049 19.8463 0 24.9356 0 30.9117V60.098C0 66.074 2.93049 71.1633 8.09739 74.1321L33.3921 88.7445C38.559 91.7518 44.4585 91.7518 49.6254 88.7445L74.9202 74.1321C80.0871 71.1248 83.0175 66.0355 83.0175 60.098V30.8731C83.0175 24.897 80.0871 19.8078 74.8816 16.839Z" fill="#D5F1F5"/>
<path d="M11.9736 32.6003H15.9649V34.5959C15.9649 35.1252 15.7546 35.6328 15.3804 36.0071C15.0061 36.3813 14.4985 36.5916 13.9692 36.5916C13.44 36.5916 12.9324 36.3813 12.5581 36.0071C12.1839 35.6328 11.9736 35.1252 11.9736 34.5959V32.6003Z" fill="#FFC946"/>
<path d="M15.9648 32.6003H19.9561V34.5959C19.9561 35.1252 19.7458 35.6328 19.3716 36.0071C18.9973 36.3813 18.4897 36.5916 17.9605 36.5916C17.4312 36.5916 16.9236 36.3813 16.5493 36.0071C16.1751 35.6328 15.9648 35.1252 15.9648 34.5959V32.6003Z" fill="#FF9D9C"/>
<path d="M19.9561 32.6003H23.9473V34.5959C23.9473 35.1252 23.737 35.6328 23.3628 36.0071C22.9885 36.3813 22.4809 36.5916 21.9517 36.5916C21.4224 36.5916 20.9148 36.3813 20.5406 36.0071C20.1663 35.6328 19.9561 35.1252 19.9561 34.5959V32.6003Z" fill="#FFC946"/>
<path d="M23.9473 32.6003H27.9385V34.5959C27.9385 35.1252 27.7282 35.6328 27.354 36.0071C26.9797 36.3813 26.4721 36.5916 25.9429 36.5916C25.4136 36.5916 24.906 36.3813 24.5318 36.0071C24.1575 35.6328 23.9473 35.1252 23.9473 34.5959V32.6003Z" fill="#FF9D9C"/>
<path d="M27.9385 32.6003H31.9297V34.5959C31.9297 35.1252 31.7195 35.6328 31.3452 36.0071C30.971 36.3813 30.4634 36.5916 29.9341 36.5916C29.4048 36.5916 28.8972 36.3813 28.523 36.0071C28.1487 35.6328 27.9385 35.1252 27.9385 34.5959V32.6003Z" fill="#FFC946"/>
<path d="M51.0879 32.6003H55.0791V34.5959C55.0791 35.1252 54.8689 35.6328 54.4946 36.0071C54.1204 36.3813 53.6128 36.5916 53.0835 36.5916C52.5542 36.5916 52.0466 36.3813 51.6724 36.0071C51.2981 35.6328 51.0879 35.1252 51.0879 34.5959V32.6003Z" fill="#FFC946"/>
<path d="M55.0791 32.6003H59.0703V34.5959C59.0703 35.1252 58.8601 35.6328 58.4858 36.0071C58.1116 36.3813 57.604 36.5916 57.0747 36.5916C56.5454 36.5916 56.0379 36.3813 55.6636 36.0071C55.2894 35.6328 55.0791 35.1252 55.0791 34.5959V32.6003Z" fill="#FF9D9C"/>
<path d="M59.0698 32.6003H63.0611V34.5959C63.0611 35.1252 62.8508 35.6328 62.4765 36.0071C62.1023 36.3813 61.5947 36.5916 61.0654 36.5916C60.5362 36.5916 60.0286 36.3813 59.6543 36.0071C59.2801 35.6328 59.0698 35.1252 59.0698 34.5959V32.6003Z" fill="#FFC946"/>
<path d="M63.0615 32.6003H67.0528V34.5959C67.0528 35.1252 66.8425 35.6328 66.4682 36.0071C66.094 36.3813 65.5864 36.5916 65.0571 36.5916C64.5279 36.5916 64.0203 36.3813 63.646 36.0071C63.2718 35.6328 63.0615 35.1252 63.0615 34.5959V32.6003Z" fill="#FF9D9C"/>
<path d="M67.0527 32.6003H71.044V34.5959C71.044 35.1252 70.8337 35.6328 70.4595 36.0071C70.0852 36.3813 69.5776 36.5916 69.0483 36.5916C68.5191 36.5916 68.0115 36.3813 67.6372 36.0071C67.263 35.6328 67.0527 35.1252 67.0527 34.5959V32.6003Z" fill="#FFC946"/>
<path d="M51.0958 32.6049H66.5382C66.9702 32.6049 67.3195 32.9572 67.3195 33.3929V66.9156H71.842C71.842 55.0955 71.842 43.2847 71.842 31.4646L41.5546 18.3466L11.1753 31.4738V66.9249H15.6885V33.3929C15.6885 32.9572 16.0378 32.6049 16.4698 32.6049H31.9123V27.7934C31.9123 27.3577 32.2616 27.0054 32.6936 27.0054H50.3053C50.7373 27.0054 51.0866 27.3577 51.0866 27.7934V32.6049H51.0958Z" fill="#FB6C6C"/>
<path d="M71.842 29.9329V26.6974L41.5546 13.5702L11.1753 26.6974V29.9329L41.2053 16.9818C41.2053 16.9818 41.7292 16.8983 41.812 16.9818L71.842 29.9329Z" fill="#CB7C55"/>
<rect x="33.5264" y="28.6091" width="15.9649" height="7.98246" fill="#CB7C55"/>
<path d="M39.0079 32.615C38.9937 32.4718 38.9328 32.3605 38.8251 32.2812C38.7173 32.2019 38.5712 32.1623 38.3865 32.1623C38.261 32.1623 38.1551 32.18 38.0687 32.2155C37.9823 32.2499 37.916 32.2978 37.8698 32.3593C37.8248 32.4209 37.8023 32.4907 37.8023 32.5689C37.8 32.634 37.8136 32.6908 37.8432 32.7393C37.8739 32.7878 37.916 32.8299 37.9692 32.8654C38.0225 32.8997 38.0841 32.9299 38.1539 32.9559C38.2237 32.9808 38.2983 33.0021 38.3776 33.0199L38.7043 33.098C38.8629 33.1335 39.0085 33.1808 39.1411 33.24C39.2737 33.2992 39.3885 33.372 39.4856 33.4584C39.5826 33.5448 39.6578 33.6466 39.7111 33.7638C39.7655 33.881 39.7933 34.0154 39.7945 34.1669C39.7933 34.3894 39.7365 34.5824 39.6241 34.7457C39.5128 34.9079 39.3518 35.0339 39.1411 35.1239C38.9316 35.2127 38.6789 35.2571 38.3829 35.2571C38.0894 35.2571 37.8337 35.2121 37.6159 35.1221C37.3993 35.0322 37.23 34.899 37.1081 34.7226C36.9873 34.5451 36.924 34.3255 36.9181 34.0639H37.6621C37.6704 34.1858 37.7053 34.2876 37.7668 34.3693C37.8296 34.4498 37.913 34.5107 38.0172 34.5522C38.1225 34.5924 38.2415 34.6125 38.3741 34.6125C38.5043 34.6125 38.6173 34.5936 38.7132 34.5557C38.8103 34.5178 38.8854 34.4652 38.9387 34.3977C38.992 34.3302 39.0186 34.2527 39.0186 34.1651C39.0186 34.0834 38.9943 34.0148 38.9458 33.9591C38.8985 33.9035 38.8286 33.8561 38.7363 33.8171C38.6451 33.778 38.5333 33.7425 38.4007 33.7106L38.0047 33.6111C37.6982 33.5365 37.4561 33.42 37.2785 33.2613C37.101 33.1027 37.0128 32.8891 37.014 32.6204C37.0128 32.4002 37.0714 32.2078 37.1898 32.0433C37.3093 31.8788 37.4733 31.7503 37.6816 31.658C37.8899 31.5657 38.1267 31.5195 38.3918 31.5195C38.6617 31.5195 38.8973 31.5657 39.0985 31.658C39.3009 31.7503 39.4583 31.8788 39.5708 32.0433C39.6833 32.2078 39.7413 32.3984 39.7448 32.615H39.0079ZM41.0752 35.2571C40.9011 35.2571 40.7461 35.2269 40.61 35.1665C40.4738 35.105 40.3661 35.0144 40.2868 34.8949C40.2087 34.7741 40.1696 34.6238 40.1696 34.4439C40.1696 34.2923 40.1974 34.1651 40.2531 34.0621C40.3087 33.9591 40.3845 33.8763 40.4803 33.8135C40.5762 33.7508 40.6851 33.7035 40.807 33.6715C40.9301 33.6395 41.0592 33.617 41.1941 33.604C41.3527 33.5874 41.4806 33.5721 41.5776 33.5579C41.6747 33.5425 41.7451 33.52 41.7889 33.4904C41.8327 33.4608 41.8546 33.417 41.8546 33.359V33.3483C41.8546 33.2359 41.8191 33.1489 41.7481 33.0873C41.6783 33.0258 41.5788 32.995 41.4498 32.995C41.3137 32.995 41.2054 33.0252 41.1249 33.0856C41.0444 33.1447 40.9911 33.2193 40.9651 33.3093L40.2655 33.2525C40.301 33.0867 40.3708 32.9435 40.475 32.8228C40.5792 32.7008 40.7135 32.6073 40.8781 32.5422C41.0438 32.4759 41.2355 32.4428 41.4533 32.4428C41.6049 32.4428 41.7499 32.4606 41.8884 32.4961C42.028 32.5316 42.1517 32.5866 42.2595 32.6612C42.3684 32.7358 42.4542 32.8316 42.5169 32.9488C42.5796 33.0648 42.611 33.2039 42.611 33.3661V35.2056H41.8937V34.8274H41.8724C41.8286 34.9126 41.77 34.9878 41.6966 35.0529C41.6232 35.1168 41.535 35.1671 41.432 35.2038C41.3291 35.2393 41.2101 35.2571 41.0752 35.2571ZM41.2918 34.7351C41.403 34.7351 41.5013 34.7132 41.5865 34.6694C41.6717 34.6244 41.7386 34.564 41.7872 34.4883C41.8357 34.4125 41.86 34.3267 41.86 34.2308V33.9414C41.8363 33.9568 41.8037 33.971 41.7623 33.984C41.722 33.9958 41.6765 34.0071 41.6256 34.0177C41.5747 34.0272 41.5238 34.0361 41.4729 34.0444C41.422 34.0515 41.3758 34.058 41.3344 34.0639C41.2456 34.0769 41.1681 34.0976 41.1018 34.126C41.0355 34.1544 40.984 34.1929 40.9473 34.2414C40.9106 34.2888 40.8923 34.348 40.8923 34.419C40.8923 34.522 40.9296 34.6007 41.0041 34.6552C41.0799 34.7084 41.1758 34.7351 41.2918 34.7351ZM43.9542 31.5692V35.2056H43.1978V31.5692H43.9542ZM38.264 41.2588C37.9834 41.2588 37.742 41.202 37.5396 41.0884C37.3383 40.9736 37.1833 40.8114 37.0744 40.6019C36.9655 40.3912 36.911 40.142 36.911 39.8544C36.911 39.5738 36.9655 39.3276 37.0744 39.1157C37.1833 38.9039 37.3365 38.7387 37.5342 38.6204C37.7331 38.502 37.9663 38.4428 38.2338 38.4428C38.4137 38.4428 38.5812 38.4718 38.7363 38.5298C38.8925 38.5866 39.0287 38.6724 39.1447 38.7873C39.2619 38.9021 39.353 39.0465 39.4181 39.2205C39.4832 39.3933 39.5158 39.5957 39.5158 39.8277V40.0355H37.2128V39.5667H38.8038C38.8038 39.4578 38.7801 39.3614 38.7327 39.2773C38.6854 39.1933 38.6197 39.1276 38.5356 39.0802C38.4528 39.0317 38.3563 39.0074 38.2462 39.0074C38.1314 39.0074 38.0296 39.0341 37.9408 39.0873C37.8532 39.1394 37.7846 39.2098 37.7349 39.2986C37.6851 39.3862 37.6597 39.4839 37.6585 39.5916V40.0373C37.6585 40.1722 37.6834 40.2888 37.7331 40.387C37.784 40.4853 37.8556 40.5611 37.9479 40.6143C38.0403 40.6676 38.1498 40.6942 38.2764 40.6942C38.3605 40.6942 38.4374 40.6824 38.5072 40.6587C38.5771 40.635 38.6369 40.5995 38.6866 40.5522C38.7363 40.5048 38.7742 40.4468 38.8002 40.3782L39.4998 40.4243C39.4643 40.5924 39.3915 40.7392 39.2814 40.8647C39.1725 40.989 39.0316 41.086 38.8588 41.1559C38.6872 41.2245 38.4889 41.2588 38.264 41.2588ZM40.0094 41.2056V38.4783H40.7427V38.9542H40.7711C40.8208 38.7849 40.9043 38.657 41.0214 38.5706C41.1386 38.483 41.2736 38.4392 41.4263 38.4392C41.4641 38.4392 41.505 38.4416 41.5488 38.4463C41.5926 38.4511 41.6311 38.4576 41.6642 38.4659V39.137C41.6287 39.1264 41.5796 39.1169 41.5168 39.1086C41.4541 39.1003 41.3967 39.0962 41.3446 39.0962C41.2333 39.0962 41.1339 39.1205 41.0463 39.169C40.9599 39.2164 40.8912 39.2826 40.8403 39.3679C40.7906 39.4531 40.7658 39.5513 40.7658 39.6626V41.2056H40.0094Z" fill="white"/>
<path d="M30.574 61.9202C29.8656 60.7501 28.3917 59.9464 26.6878 59.9464C24.9839 59.9464 23.5094 60.7501 22.8023 61.9202C22.5172 62.3924 22.356 62.9252 22.356 63.4875C22.356 63.6081 22.3628 63.7283 22.3784 63.8462C22.5982 65.6326 24.4423 67.0274 26.6878 67.0274C28.9293 67.0274 30.7727 65.637 30.9972 63.8551C31.0122 63.7344 31.0204 63.6109 31.0204 63.4869C31.0197 62.9252 30.8591 62.3924 30.574 61.9202ZM26.6871 64.9629C25.8434 64.9629 25.1336 64.4891 24.937 63.849C24.9016 63.7333 24.8825 63.6126 24.8825 63.4875C24.8825 62.6727 25.6909 62.012 26.6878 62.012C27.6847 62.012 28.4931 62.6727 28.4931 63.4875C28.4931 63.6143 28.4741 63.7366 28.4373 63.8529C28.2373 64.4913 27.5289 64.9629 26.6871 64.9629Z" fill="black"/>
<path d="M51.9859 62.389C51.745 61.7828 51.3082 61.2478 50.7372 60.8352C50.1112 60.3819 49.3226 60.0743 48.4536 59.9781C48.261 59.9564 48.0657 59.9459 47.867 59.9459C47.2226 59.9459 46.6116 60.061 46.0617 60.2668C45.1574 60.606 44.4218 61.1922 43.9815 61.9197C43.6964 62.3918 43.5352 62.9246 43.5352 63.4869C43.5352 63.6159 43.5433 63.7422 43.5603 63.8684C43.7924 65.6442 45.6317 67.0274 47.867 67.0274C50.1003 67.0274 51.939 65.6464 52.1744 63.8734C52.1907 63.7466 52.1996 63.6182 52.1996 63.4875C52.1996 63.1037 52.1247 62.735 51.9859 62.389ZM47.8663 64.9629C47.0328 64.9629 46.3305 64.5008 46.123 63.8712C46.0828 63.7488 46.0611 63.6204 46.0611 63.4875C46.0611 62.6727 46.8695 62.012 47.8663 62.012C48.0718 62.012 48.2692 62.0403 48.4529 62.0921C49.1613 62.2906 49.6709 62.8406 49.6709 63.4875C49.6709 63.6215 49.6485 63.7505 49.6083 63.8734C49.4008 64.5013 48.6992 64.9629 47.8663 64.9629Z" fill="black"/>
<path d="M53.1796 62.0389C53.1034 61.8469 53.0112 61.6607 52.9055 61.4812H61.7887C61.8476 61.4812 61.8935 61.5009 61.9207 61.5232C61.9473 61.5448 61.9496 61.5618 61.9497 61.5672V62.3796C61.9497 62.3846 61.9478 62.4015 61.921 62.4235C61.8937 62.4458 61.8477 62.4655 61.7887 62.4655H53.3226C53.2835 62.3219 53.236 62.1795 53.1796 62.0389Z" fill="#AE6845" stroke="black" stroke-width="0.5"/>
<path d="M42.8598 61.4249L42.8599 61.4248C43.4365 60.4724 44.3955 59.7149 45.5521 59.2813M42.8598 61.4249L45.6398 59.5154M42.8598 61.4249C42.6595 61.7564 42.5102 62.1026 42.4121 62.4597L32.1391 62.449C32.041 62.0958 31.893 61.7533 31.6946 61.425L31.6723 61.3881L31.6711 61.3871C30.7017 59.8191 28.7879 58.8694 26.6867 58.8694C24.5683 58.8694 22.6415 59.8341 21.6802 61.425L21.6802 61.425C21.5737 61.6013 21.4823 61.7819 21.4053 61.9656L42.8598 61.4249ZM45.5521 59.2813L45.6398 59.5154M45.5521 59.2813C45.5521 59.2813 45.5521 59.2813 45.5521 59.2813L45.6398 59.5154M45.5521 59.2813C46.2828 59.0073 47.0618 58.8694 47.867 58.8694C48.1201 58.8694 48.3729 58.8832 48.6191 58.911M45.6398 59.5154C46.3414 59.2523 47.0906 59.1194 47.867 59.1194C48.1113 59.1194 48.3549 59.1328 48.5917 59.1595M48.6191 58.911C48.6191 58.911 48.6191 58.911 48.6191 58.911L48.5917 59.1595M48.6191 58.911C48.6193 58.911 48.6195 58.911 48.6197 58.911L48.5917 59.1595M48.6191 58.911L48.5917 59.1595M41.6108 42.3247H41.905L41.8232 42.1928L41.6108 42.3247ZM41.6108 42.3247V42.5747H41.7659L41.6108 42.3247ZM48.455 53.3526H48.205V52.9498L48.455 53.3526ZM48.455 53.3526L48.6674 53.2208L48.455 52.8786V53.3526ZM50.4879 59.6801C50.5725 59.7191 50.6559 59.7601 50.7379 59.8029V59.5225C50.6557 59.4818 50.5724 59.443 50.4879 59.4059V59.6801ZM41.6489 56.9446H41.8989V56.6946V55.4733C41.8989 55.3027 41.9743 55.1263 42.1282 54.9797L42.8765 54.2685L43.0666 54.0879L42.8771 53.9067L41.5291 52.6175L41.3693 52.4647L41.1981 52.6046L40.338 53.3076L40.3367 53.3087C40.2911 53.3464 40.2216 53.3713 40.143 53.3713C40.0649 53.3713 39.995 53.3465 39.9474 53.3076C39.9026 53.271 39.8927 53.2353 39.8927 53.2122C39.8927 53.1892 39.9026 53.1535 39.9474 53.1169L42.2998 51.1942C42.403 51.1099 42.5871 51.1099 42.6904 51.1942C42.7349 51.2306 42.745 51.2665 42.745 51.2901C42.745 51.3138 42.7349 51.3497 42.6904 51.3861L41.9085 52.0251L41.6896 52.2039L41.8939 52.3993L43.1922 53.6412L43.3644 53.8059L43.5372 53.6419L44.8484 52.3972L44.9961 52.257L44.8887 52.084L40.5054 45.0219C40.5054 45.0219 40.5054 45.0218 40.5054 45.0218C40.2282 44.5731 39.6857 44.3143 39.1203 44.3143H28.2157C27.4004 44.3143 26.6504 44.8625 26.6504 45.6393V48.2466V48.4966H26.9004H28.1912C28.5023 48.4966 28.7204 48.6712 28.7697 48.8482L28.7699 48.8488L30.3989 54.6378L30.4502 54.8201H30.6396H32.27L36.1894 56.9151L36.2446 56.9446H36.3072H41.6489Z" fill="#AE6845" stroke="black" stroke-width="0.5"/>
<path d="M59.4198 56.0493L59.42 56.0491C59.512 55.9738 59.565 55.864 59.565 55.7495V51.9082H62.113V59.5907H60.8773H60.8728H57.4758H54.0744H54.0699H52.8341V51.9082H55.3776V55.7455C55.3776 55.9859 55.5898 56.1429 55.8066 56.1429C55.9403 56.1429 56.0623 56.0874 56.1421 55.9947L56.6835 55.4523L57.1361 55.9898L57.1361 55.9898L57.1381 55.992C57.2811 56.1552 57.5335 56.191 57.7174 56.0722C57.7649 56.0433 57.7995 56.0049 57.823 55.9741L58.2526 55.4521L58.8325 56.0196C58.9851 56.1726 59.247 56.1903 59.4198 56.0493ZM56.9994 54.5516L56.9995 54.5515L56.9947 54.5476C56.8247 54.4089 56.5613 54.4173 56.4057 54.5789L56.2445 54.7403V51.9082H58.7161V54.7502L58.5346 54.5726L58.5347 54.5725L58.5292 54.5676L58.5278 54.5664C58.5146 54.5546 58.4945 54.5368 58.4677 54.519L58.4678 54.5189L58.462 54.5154C58.2783 54.4048 58.0241 54.4342 57.8826 54.6036L57.8816 54.6048L57.4743 55.1031L57.0553 54.6034L57.0482 54.5949L57.0399 54.5875L57.0197 54.5696L56.9994 54.5516Z" fill="#E2AB65" stroke="black" stroke-width="0.3"/>
<path d="M57.8823 44.724H57.7323V47.767C57.7323 47.8213 57.7086 47.8755 57.6648 47.9139C57.5804 47.9873 57.4488 47.9777 57.3746 47.8979M57.8823 44.724V47.767C57.8823 47.8643 57.8401 47.9599 57.7635 48.0268L57.7633 48.027C57.6166 48.1547 57.3936 48.1376 57.2656 48.0009M57.8823 44.724V44.574H59.7183V44.724M57.8823 44.724H59.7183M57.2656 48.0009L57.2663 48.0017L57.3746 47.8979M57.2656 48.0009C57.2653 48.0007 57.265 48.0004 57.2647 48.0001L57.3746 47.8979M57.2656 48.0009L56.8638 47.5815M57.3746 47.8979L56.9565 47.4614L56.8638 47.5815M56.8638 47.5815L56.7589 47.472L56.45 47.8724M56.8638 47.5815L56.5705 47.9617M56.5705 47.9617C56.5712 47.9607 56.5719 47.9597 56.5726 47.9587L56.45 47.8724M56.5705 47.9617L56.5687 47.964L56.45 47.8724M56.5705 47.9617C56.552 47.9876 56.5233 48.0218 56.4827 48.0482M56.45 47.8724C56.4365 47.8915 56.4196 47.9107 56.3994 47.9234M56.3994 47.9234L56.4855 48.0463C56.4845 48.0469 56.4836 48.0476 56.4827 48.0482M56.3994 47.9234C56.3082 47.9873 56.18 47.9681 56.1092 47.8819L55.7847 47.471L55.6811 47.5817M56.3994 47.9234L56.4794 48.0503C56.4805 48.0496 56.4816 48.0489 56.4827 48.0482M56.4827 48.0482C56.3258 48.156 56.1118 48.1214 55.9933 47.9772L55.9914 47.9749L55.9914 47.9749L55.6811 47.5817M55.6811 47.5817L55.5871 47.4627L55.1947 47.8819M55.6811 47.5817L55.3083 47.9801M55.3083 47.9801C55.31 47.978 55.3116 47.9759 55.3132 47.9738L55.1947 47.8819M55.3083 47.9801L55.3042 47.9844L55.1947 47.8819M55.3083 47.9801C55.2422 48.0614 55.1398 48.1118 55.026 48.1118C54.8379 48.1118 54.6667 47.9676 54.6667 47.7638V44.724M55.1947 47.8819C55.1576 47.9298 55.0968 47.9618 55.026 47.9618C54.9112 47.9618 54.8167 47.8755 54.8167 47.7638V44.724H54.6667M54.6667 44.724H52.8341M54.6667 44.724V44.574H52.8341V44.724M52.8341 44.724H52.6841V50.81H52.8341M52.8341 44.724V50.81M52.8341 50.81V50.96H53.7234H53.7268H56.2779H58.8256H58.829H59.7183V50.81M52.8341 50.81H53.7234H53.7268H56.2779H58.8256H58.829H59.7183M59.7183 50.81H59.8683V44.724H59.7183M59.7183 50.81V44.724M55.949 46.7895L55.9491 46.7894L55.9444 46.7854C55.8007 46.6602 55.5761 46.6682 55.4452 46.813L55.3919 46.87V44.724H57.1706V46.8795L57.1016 46.8075L57.1017 46.8074L57.0964 46.8023L57.0952 46.8012C57.0852 46.7917 57.0686 46.776 57.0463 46.7602L57.0464 46.7601L57.0406 46.7563C56.8847 46.6562 56.6691 46.6841 56.5512 46.8348L56.5512 46.8348L56.5502 46.836L56.2764 47.1935L55.9942 46.8345L55.9874 46.8259L55.9794 46.8183L55.9642 46.8039L55.949 46.7895Z" fill="#E2AB65" stroke="black" stroke-width="0.3"/>
</svg>
