<svg width="100" height="100" viewBox="0 0 100 100" fill="none" xmlns="http://www.w3.org/2000/svg">
<path d="M67.2239 60.327C67.4105 60.3228 67.5462 60.3256 67.6467 60.3349C67.6191 60.6849 67.4257 61.2898 67.0817 61.8483C66.904 62.1368 66.7192 62.3571 66.5571 62.4937C66.4713 62.5659 66.4129 62.5978 66.3814 62.6117C66.3662 62.6006 66.3445 62.5826 66.3162 62.5541C66.2075 62.4445 66.0757 62.249 65.9478 61.9637C65.7034 61.4186 65.5674 60.7603 65.5532 60.3262C65.5618 60.3264 65.5705 60.3266 65.5795 60.3268C65.6313 60.3282 65.6968 60.3308 65.7712 60.3338C65.9428 60.3406 66.1616 60.3493 66.3674 60.3493C66.5588 60.3493 66.7784 60.3416 66.9667 60.335C67.0633 60.3317 67.1517 60.3286 67.2239 60.327ZM66.409 62.6281C66.409 62.6283 66.4073 62.6277 66.4038 62.626C66.4073 62.627 66.409 62.6279 66.409 62.6281ZM67.7988 60.3608C67.8002 60.3613 67.8009 60.3616 67.8008 60.3616C67.8008 60.3616 67.8001 60.3614 67.7988 60.3608Z" stroke="#FFC946" stroke-width="2"/>
<path d="M56.603 38.2941C57.5292 38.2941 58.8931 36.0833 58.8931 35.1327C58.8931 34.1822 58.1422 33.4117 57.216 33.4117C56.2897 33.4117 55.5388 34.1822 55.5388 35.1327C55.5388 36.0833 55.6767 38.2941 56.603 38.2941Z" fill="#FFC946"/>
<path d="M68.7414 43.6205C68.7414 43.9775 68.5765 44.8022 68.2703 45.5522C68.1396 45.8723 68.0036 46.1268 67.8797 46.3C67.7559 46.1268 67.6198 45.8723 67.4891 45.5522C67.1829 44.8022 67.0181 43.9775 67.0181 43.6205C67.0181 43.0932 67.4281 42.7101 67.8797 42.7101C68.3314 42.7101 68.7414 43.0932 68.7414 43.6205ZM67.7132 46.4871C67.7132 46.4868 67.7157 46.4849 67.7208 46.482C67.7157 46.4859 67.7132 46.4873 67.7132 46.4871ZM68.0386 46.482C68.0438 46.4849 68.0463 46.4868 68.0463 46.4871C68.0463 46.4873 68.0437 46.4859 68.0386 46.482Z" stroke="#FFC946" stroke-width="2"/>
<path d="M56.2133 51.4154C56.2133 51.7478 55.9787 52.1674 55.3255 52.5629C54.692 52.9465 53.879 53.1618 53.2464 53.1618C52.747 53.1618 52.4359 52.9707 52.2184 52.6741C51.9742 52.3415 51.8052 51.8067 51.8052 51.1103C51.8052 50.4636 51.9984 49.9567 52.2754 49.6293C52.5389 49.3178 52.9186 49.116 53.446 49.116C53.9699 49.116 54.6929 49.3953 55.3027 49.904C55.9214 50.4199 56.2133 50.99 56.2133 51.4154Z" stroke="#FFC946" stroke-width="2"/>
<path d="M50.4154 78.2112C50.4154 78.5436 50.1808 78.9631 49.5276 79.3587C48.8941 79.7423 48.0811 79.9575 47.4485 79.9575C46.9491 79.9575 46.6381 79.7664 46.4205 79.4699C46.1764 79.1372 46.0073 78.6025 46.0073 77.906C46.0073 77.2593 46.2006 76.7524 46.4776 76.425C46.741 76.1136 47.1207 75.9118 47.6481 75.9118C48.1721 75.9118 48.895 76.1911 49.5049 76.6997C50.1235 77.2157 50.4154 77.7858 50.4154 78.2112Z" stroke="#FFC946" stroke-width="2"/>
<path d="M89.0883 62.7377C88.4659 62.4416 87.7897 62.2832 87.1038 62.2727C86.4178 62.2623 85.7374 62.4 85.1066 62.6769C85.016 62.7229 84.9115 62.7307 84.8153 62.6988C84.32 62.4367 81.6689 61.1043 80.687 60.4655C81.8041 56.3343 82.0468 52.0057 81.3989 47.7702C82.5458 47.2909 83.6849 46.8584 84.6871 46.5415C84.8044 46.5329 84.9206 46.5684 85.0144 46.6411C85.6201 47.0313 86.3073 47.2687 87.0196 47.3338C87.7319 47.3989 88.4492 47.29 89.1126 47.0158C89.7439 46.7532 90.3104 46.3499 90.7713 45.8351C91.2321 45.3203 91.5757 44.7068 91.7773 44.0391C92.0408 43.2166 92.0711 42.3343 91.8648 41.4948C91.6585 40.6553 91.224 39.8933 90.612 39.2974C89.9957 38.6834 89.2264 38.2556 88.3886 38.061C87.5509 37.8664 86.6771 37.9125 85.8632 38.1942C84.8322 38.5702 83.9665 39.3126 83.4227 40.287C83.3781 40.386 83.2987 40.4639 83.2003 40.5053C82.1263 40.7315 80.8599 40.9168 79.5683 41.0633C79.3896 40.6109 78.7613 39.1778 78.7225 39.0981C77.0156 35.5312 74.6326 32.3495 71.7128 29.7393C72.4815 28.0899 73.3377 26.485 74.2776 24.9319C75.0087 24.8723 75.7178 24.6466 76.3534 24.271C76.989 23.8954 77.5352 23.3794 77.9523 22.7603C78.4348 22.0503 78.7354 21.2271 78.8265 20.3665C78.9175 19.5059 78.796 18.6356 78.4732 17.8359C78.1504 17.0362 77.6366 16.3326 76.9793 15.7902C76.3219 15.2477 75.5421 14.8837 74.7117 14.7318C73.8812 14.5798 73.0269 14.6447 72.2273 14.9206C71.4278 15.1965 70.7087 15.6744 70.1364 16.3103C69.5642 16.9463 69.157 17.7198 68.9526 18.5596C68.7481 19.3995 68.7529 20.2786 68.9665 21.116C67.8321 22.6118 66.6183 24.0424 65.3306 25.4012C61.0332 23.2294 56.2819 22.1734 51.4939 22.3258C50.9453 20.7174 50.4548 19.1109 50.1344 17.7307C50.131 17.6234 50.1679 17.5189 50.2373 17.4387C50.7163 16.7928 51.0423 16.0415 51.1896 15.2441C51.3368 14.4466 51.3012 13.625 51.0855 12.8441C50.8699 12.0632 50.4801 11.3446 49.9471 10.745C49.4141 10.1454 48.7524 9.68125 48.0144 9.38937C47.1328 9.01492 46.165 8.90762 45.2258 9.08018C44.2866 9.25274 43.4152 9.69793 42.7149 10.363C41.9951 11.0316 41.4706 11.8924 41.2 12.8492C40.9294 13.806 40.9233 14.8212 41.1825 15.7814C41.5333 17.0079 42.3063 18.0619 43.3578 18.7472C43.4971 18.8243 43.6015 18.9541 43.6492 19.1089C43.8434 20.4204 43.9764 21.9661 44.0619 23.5446C40.5756 24.5926 37.3125 26.3043 34.4429 28.5903C32.5315 28.6191 30.6494 29.077 28.9288 29.9317L27.0943 28.2674C27.0294 28.1888 26.9948 28.0884 26.9972 27.9854C26.9596 26.7475 26.4479 25.5749 25.573 24.7219C24.6981 23.8688 23.5307 23.4043 22.3242 23.429C21.6968 23.4265 21.0757 23.5563 20.4993 23.8104C19.9229 24.0646 19.4036 24.4377 18.9737 24.9065C18.5437 25.3752 18.2123 25.9297 18 26.5355C17.7877 27.1413 17.699 27.7854 17.7395 28.4278C17.7723 29.052 17.9262 29.6632 18.192 30.2257C18.4578 30.7881 18.8302 31.2906 19.2874 31.7036C19.7472 32.1267 20.2864 32.4489 20.8719 32.6504C21.4574 32.852 22.0768 32.9286 22.6922 32.8755C22.8126 32.8534 22.9366 32.8795 23.0389 32.9483C23.3798 33.3011 23.7459 33.6977 24.0615 34.0445C22.4464 36.2459 21.5289 38.9032 21.4332 41.6571C21.3375 44.411 22.0682 47.1286 23.5264 49.4425C23.4342 50.3982 23.4002 51.3609 23.3963 52.3216C21.6968 52.5797 18.6562 53.0301 16.9946 53.2185C16.9248 53.2011 16.8611 53.1638 16.8111 53.1109C15.9997 52.3219 14.9352 51.8646 13.818 51.8253C13.1762 51.8097 12.538 51.9291 11.9427 52.1761C11.3475 52.4231 10.8077 52.7924 10.3567 53.2614C9.90573 53.7303 9.553 54.289 9.32023 54.9031C9.08745 55.5172 8.97956 56.1736 9.00319 56.832C9.03614 57.4556 9.18863 58.0663 9.45192 58.6292C9.71521 59.1922 10.0841 59.6963 10.5376 60.1128C11.3803 60.8963 12.4769 61.3301 13.6141 61.3296C13.7035 61.3296 13.7928 61.3296 13.8831 61.3216C14.5008 61.2899 15.1056 61.129 15.6606 60.8488C16.2155 60.5686 16.7088 60.175 17.1102 59.6922C17.1736 59.5995 17.2685 59.5345 17.3763 59.5098C19.6477 59.5597 24.717 59.8467 24.7675 59.8497C25.1539 59.8716 25.5329 59.7351 25.8212 59.4703C26.1095 59.2055 26.2834 58.834 26.3048 58.4375C26.3262 58.0411 26.1932 57.6521 25.9352 57.3563C25.6771 57.0604 25.3151 56.8819 24.9287 56.8599C24.718 56.848 19.7604 56.568 17.4384 56.5161C16.9531 56.5104 16.4727 56.6173 16.0333 56.8288C15.5939 57.0404 15.2067 57.3512 14.9008 57.7379C14.7544 57.915 14.5742 58.0594 14.3712 58.1623C14.1683 58.2651 13.947 58.3242 13.7209 58.3359C13.4968 58.3483 13.2726 58.3152 13.061 58.2386C12.8493 58.162 12.6545 58.0434 12.4876 57.8894C12.2347 57.6417 12.0605 57.3216 11.9874 56.9707C11.9144 56.6199 11.946 56.2547 12.0782 55.9226C12.2104 55.5904 12.4369 55.3069 12.7284 55.1088C13.0198 54.9107 13.3626 54.8073 13.7122 54.812C14.1233 54.826 14.5153 54.9936 14.8144 55.2834C15.1422 55.6116 15.5356 55.8627 15.9675 56.0193C16.3993 56.1759 16.8591 56.2343 17.3151 56.1903C19.7507 55.9162 24.8549 55.1229 25.0695 55.094C25.4365 55.0315 25.7668 54.8289 25.9942 54.5269C26.2217 54.2249 26.3295 53.8458 26.2961 53.4656C26.2825 53.2574 23.8774 45.1689 23.6471 43.7868C23.3419 41.9559 23.8892 41.238 25.1618 36.7684C26.7761 33.4118 28.8346 32.1912 30.9706 31.4448C32.8015 30.5067 33.7169 30.4331 33.7169 30.4331L35.8529 29.6576C35.8529 29.6576 40.1279 28.365 40.8882 27.9873C41.9492 27.4652 43.0429 27.0161 44.1619 26.643C44.1813 28.0073 44.1687 29.2998 44.1221 30.3701C44.105 30.7659 44.2416 31.1524 44.502 31.4448C44.7624 31.7373 45.1252 31.9117 45.5108 31.9298C45.5341 31.9298 45.5555 31.9298 45.5778 31.9298C45.953 31.9302 46.3138 31.782 46.5852 31.5162C46.8566 31.2503 47.0175 30.8873 47.0345 30.5027C47.1054 28.8723 47.1074 26.7586 47.0248 24.611V24.5721C46.9603 22.5944 46.795 20.6215 46.5295 18.6615C46.4499 18.1588 46.2647 17.68 45.9867 17.2582C45.7086 16.8364 45.3444 16.4817 44.9194 16.2189C44.4626 15.9243 44.1266 15.4685 43.9745 14.9373C43.8697 14.5135 43.8801 14.0683 44.0045 13.6501C44.129 13.2319 44.3628 12.8568 44.6805 12.5654C44.9795 12.2783 45.3543 12.088 45.7581 12.0181C46.1619 11.9483 46.5768 12.0021 46.951 12.1728C47.2693 12.2966 47.555 12.495 47.7854 12.7522C48.0157 13.0095 48.1842 13.3184 48.2775 13.6543C48.3708 13.9903 48.3863 14.3439 48.3227 14.6871C48.2592 15.0303 48.1183 15.3535 47.9114 15.6309C47.6131 16.0215 47.4034 16.4754 47.2974 16.9596C47.1914 17.4439 47.1918 17.9462 47.2987 18.4302C48.2941 22.2796 49.6056 26.0355 51.2191 29.6576C51.3814 30.0174 51.6763 30.2964 52.039 30.4331C52.4017 30.5698 52.8024 30.5531 53.1531 30.3866C53.5038 30.2201 53.7756 29.9174 53.9088 29.5452C54.0421 29.173 54.0258 28.7618 53.8635 28.4019C53.4614 27.511 53.0176 26.4357 52.5748 25.2896C56.7325 25.3196 60.8248 26.3548 64.5197 28.3112C65.9472 29.0577 67.3028 29.9409 68.5683 30.9491C71.8267 33.5222 74.4497 36.8455 76.2257 40.6507C76.2257 40.6507 76.452 41.149 76.5258 41.3244C75.6148 41.3822 74.7544 41.4181 74.0251 41.4241C73.6388 41.4261 73.269 41.5855 72.9972 41.8672C72.7254 42.1489 72.5738 42.53 72.5757 42.9264C72.5776 43.3229 72.733 43.7023 73.0075 43.9812C73.282 44.2602 73.6533 44.4158 74.0397 44.4138H74.0552C77.3208 44.3611 80.5764 44.0307 83.7888 43.4262C84.2444 43.3253 84.6736 43.125 85.0471 42.8389C85.4206 42.5528 85.7297 42.1875 85.9535 41.7679C86.1519 41.4145 86.4666 41.1453 86.8411 41.0085C87.1454 40.9131 87.4691 40.9038 87.7781 40.9815C88.0872 41.0592 88.37 41.221 88.5969 41.45C88.8196 41.6612 88.9762 41.9356 89.0469 42.2382C89.1176 42.5409 89.0992 42.8582 88.9941 43.1501C88.9215 43.3909 88.7986 43.6126 88.6339 43.7995C88.4691 43.9864 88.2666 44.1342 88.0404 44.2324C87.8007 44.3345 87.5405 44.3758 87.2818 44.3529C87.0232 44.33 86.7738 44.2436 86.5546 44.1009C86.158 43.833 85.7095 43.6568 85.24 43.5843C84.7705 43.5119 84.2912 43.545 83.8354 43.6813C80.7405 44.7295 77.735 46.0378 74.8496 47.5929C74.6807 47.6851 74.5313 47.8106 74.4097 47.9622C74.2881 48.1137 74.1968 48.2883 74.1409 48.4761C74.0851 48.6639 74.0659 48.8611 74.0843 49.0565C74.1028 49.2519 74.1585 49.4416 74.2485 49.6149C74.3384 49.7882 74.4607 49.9416 74.6083 50.0663C74.756 50.1911 74.9262 50.2848 75.1092 50.3421C75.2921 50.3994 75.4843 50.4191 75.6747 50.4002C75.8651 50.3813 76.05 50.324 76.2189 50.2318C76.9084 49.8561 77.7445 49.4345 78.638 49.008C79.127 52.9182 78.7773 56.8909 77.6134 60.6479C77.2012 61.9716 76.6945 63.2623 76.0975 64.5096C74.0642 68.7144 71.0016 72.3053 67.2097 74.9307C66.3357 72.1403 65.5705 69.2134 65.1266 67.0768C65.0459 66.689 64.8184 66.3501 64.4941 66.1345C64.1698 65.9189 63.7754 65.8444 63.3976 65.9272C63.0197 66.0101 62.6894 66.2436 62.4793 66.5764C62.2693 66.9091 62.1966 67.3139 62.2774 67.7016C63.2573 72.3212 64.6219 76.846 66.3561 81.2261C66.5676 81.708 66.8826 82.1347 67.2775 82.4741C67.6723 82.8136 68.1368 83.057 68.6363 83.1863C69.033 83.2931 69.4021 83.4874 69.7179 83.7557C70.0338 84.0241 70.2887 84.36 70.4649 84.74C70.6772 85.1912 70.7759 85.6898 70.752 86.1903C70.728 86.6908 70.5822 87.1771 70.3279 87.6048C70.0735 88.0325 69.7188 88.388 69.296 88.6387C68.8733 88.8895 68.396 89.0274 67.9079 89.04C67.4198 89.0527 66.9363 88.9395 66.5018 88.7109C66.0673 88.4824 65.6955 88.1457 65.4205 87.7316C65.1455 87.3176 64.9761 86.8394 64.9276 86.3408C64.8791 85.8422 64.9533 85.3391 65.1432 84.8775C65.3446 84.4063 65.4402 83.8946 65.4229 83.3804C65.4056 82.8662 65.2758 82.3625 65.0431 81.9067C62.779 77.7782 60.1726 73.8575 57.2527 70.1881C57.1326 70.0322 56.9833 69.9026 56.8138 69.8066C56.6442 69.7107 56.4577 69.6504 56.2651 69.6293C56.0726 69.6082 55.8778 69.6267 55.6923 69.6837C55.5068 69.7407 55.3343 69.8351 55.1848 69.9614C55.0352 70.0877 54.9118 70.2433 54.8215 70.4191C54.7313 70.595 54.6761 70.7875 54.6593 70.9854C54.6424 71.1834 54.6642 71.3828 54.7233 71.5721C54.7824 71.7613 54.8777 71.9365 55.0036 72.0875C56.3389 73.7518 58.0617 76.1396 59.6271 78.5383C58.5026 78.8758 57.3573 79.1362 56.1991 79.3176C55.8353 79.3726 55.5053 79.5666 55.2752 79.8608C55.0451 80.1551 54.9319 80.5277 54.9583 80.904C54.9847 81.2803 55.1488 81.6324 55.4177 81.8897C55.6865 82.147 56.0402 82.2905 56.4079 82.2914C56.479 82.2913 56.55 82.2863 56.6205 82.2764C58.1964 82.0379 59.7508 81.6683 61.2683 81.1712C61.7092 81.9157 62.1249 82.6422 62.4706 83.3099C62.4987 83.3713 62.5133 83.4383 62.5133 83.5062C62.5133 83.5741 62.4987 83.6411 62.4706 83.7025C62.1642 84.4327 62.0046 85.2189 62.0013 86.0139C61.9981 86.8089 62.1512 87.5964 62.4516 88.3292C62.7521 89.062 63.1936 89.725 63.7497 90.2786C64.3058 90.8321 64.965 91.2647 65.688 91.5505C66.4009 91.8459 67.1624 91.9985 67.9313 92C68.7756 92.0026 69.6097 91.8102 70.3717 91.4369C71.442 90.9128 72.3305 90.0654 72.918 89.0083C73.5055 87.9512 73.7639 86.735 73.6585 85.5229C73.5531 84.3107 73.089 83.1607 72.3285 82.227C71.5679 81.2933 70.5473 80.6206 69.4035 80.2993C69.3276 80.2833 69.2557 80.2515 69.1922 80.2059C69.1288 80.1603 69.0751 80.1019 69.0345 80.0342C68.7625 79.3924 68.4906 78.6719 68.2197 77.9244C72.1892 75.1727 75.5075 71.5433 77.931 67.303C79.0109 67.6269 80.7035 68.1571 82.1301 68.7042C82.2447 68.747 82.3117 68.9284 82.3302 68.9842C82.715 70.1454 83.4986 71.1232 84.5346 71.7347C85.2713 72.1683 86.1064 72.3948 86.9557 72.3915C87.4765 72.3913 87.9942 72.3096 88.491 72.1493C89.4425 71.8473 90.2823 71.256 90.8993 70.4537C91.5164 69.6515 91.8817 68.6759 91.9469 67.6561C92.0122 66.6362 91.7743 65.62 91.2647 64.7418C90.7552 63.8637 89.998 63.1648 89.0931 62.7377H89.0883ZM22.465 29.8958C22.2396 29.9163 22.0126 29.8888 21.7982 29.8149C21.5837 29.7409 21.3865 29.6222 21.219 29.4663C21.05 29.3136 20.9124 29.1279 20.8142 28.9199C20.716 28.712 20.6591 28.4861 20.647 28.2554C20.6292 28.0171 20.6605 27.7775 20.7387 27.5524C20.8169 27.3272 20.9404 27.1214 21.101 26.9483C21.2617 26.7752 21.4561 26.6387 21.6715 26.5477C21.8869 26.4566 22.1185 26.413 22.3513 26.4197H22.3688C22.8116 26.4071 23.2411 26.5753 23.5632 26.8873C23.8853 27.1993 24.0736 27.6297 24.0868 28.084C24.0937 28.542 24.1928 28.9936 24.3778 29.4105C24.5628 29.8274 24.8297 30.2006 25.1618 30.5067L26.3563 31.5909C26.2592 31.6756 26.1553 31.7653 26.0552 31.853C25.7552 31.5242 25.423 31.1664 25.1074 30.8405C24.762 30.493 24.346 30.228 23.8892 30.0647C23.4324 29.9014 22.946 29.8437 22.465 29.8958ZM69.3773 27.8478C68.9189 27.5156 68.4508 27.1964 67.973 26.8901C69.2253 25.5405 70.4016 24.1187 71.4963 22.6318C71.7129 22.3195 71.8542 21.959 71.9088 21.5797C71.9633 21.2005 71.9294 20.8135 71.81 20.4503C71.7233 20.1709 71.694 19.876 71.7241 19.5844C71.7542 19.2928 71.843 19.0107 71.9848 18.7561C72.1247 18.5002 72.3139 18.2761 72.5407 18.0974C72.7676 17.9187 73.0274 17.7891 73.3045 17.7165C73.5816 17.6438 73.8702 17.6297 74.1528 17.6748C74.4353 17.72 74.7061 17.8236 74.9485 17.9793C75.1909 18.1349 75.4 18.3395 75.5632 18.5806C75.7263 18.8216 75.8401 19.0941 75.8975 19.3816C75.955 19.6691 75.9551 19.9656 75.8976 20.2531C75.8402 20.5406 75.7265 20.8131 75.5634 21.0542C75.3773 21.3281 75.1307 21.5528 74.8438 21.7101C74.5568 21.8674 74.2377 21.9527 73.9124 21.9591C73.5387 21.9633 73.1716 22.0605 72.8424 22.2422C72.5133 22.4239 72.232 22.6848 72.0226 23.0025C71.0508 24.5641 70.1675 26.1819 69.3773 27.8478ZM88.862 68.2228C88.7327 68.4776 88.5556 68.7037 88.341 68.8881C88.1263 69.0725 87.8782 69.2115 87.6111 69.2973C87.3439 69.383 87.0628 69.4137 86.784 69.3877C86.5053 69.3617 86.2342 69.2794 85.9865 69.1456C85.5622 68.8968 85.2414 68.4974 85.0843 68.0225C84.9343 67.5434 84.6821 67.1045 84.3462 66.7378C84.0102 66.3712 83.5989 66.0859 83.142 65.9028C81.8262 65.3986 80.3452 64.9222 79.2449 64.5854C79.4168 64.1867 79.5877 63.7881 79.7421 63.3745C80.5919 63.8907 81.3581 64.2844 82.1399 64.6701C82.5633 64.8813 82.9983 65.0976 83.4674 65.3467C83.8966 65.5708 84.3691 65.6936 84.8505 65.7062C85.3319 65.7188 85.8099 65.6208 86.2497 65.4195C86.5043 65.3064 86.7794 65.2501 87.0569 65.2544C87.3343 65.2587 87.6076 65.3235 87.8588 65.4444C88.1027 65.5599 88.3218 65.7237 88.5038 65.9263C88.6858 66.129 88.827 66.3665 88.9193 66.6253C89.0136 66.8822 89.0571 67.1557 89.0472 67.43C89.0374 67.7043 88.9744 67.9738 88.862 68.2228Z" fill="#D75E5E"/>
<path d="M62.8946 55.3824C63.5749 54.2943 64.5757 53.4471 65.7575 52.9589C65.6779 52.8446 65.6098 52.7188 65.5303 52.5931C65.3997 52.3852 65.2298 52.2052 65.0301 52.0634C64.8304 51.9215 64.6049 51.8207 64.3665 51.7665C64.1281 51.7124 63.8814 51.706 63.6406 51.7478C63.3997 51.7896 63.1694 51.8787 62.9628 52.0101C62.7562 52.1414 62.5773 52.3125 62.4363 52.5134C62.2954 52.7143 62.1952 52.9412 62.1414 53.1811C62.0876 53.421 62.0812 53.6692 62.1228 53.9116C62.1643 54.1539 62.2529 54.3857 62.3834 54.5936C62.5424 54.8451 62.7015 55.108 62.8946 55.3824Z" fill="#D75E5E"/>
<path d="M54.284 44.9906C54.6446 44.8398 55.0185 44.7233 55.4009 44.6427C54.9534 44.1299 54.678 43.4895 54.6136 42.8119C54.0062 42.9601 53.4183 43.1793 52.8621 43.4649C53.1187 44.1396 53.629 44.6872 54.284 44.9906Z" fill="#D75E5E"/>
<path d="M57.2559 44.539C57.7833 44.0685 58.109 43.4127 58.1652 42.7081C57.1713 42.5189 56.1505 42.5189 55.1565 42.7081C55.2127 43.4127 55.5384 44.0685 56.0658 44.539C56.4617 44.5024 56.8601 44.5024 57.2559 44.539Z" fill="#D75E5E"/>
<path d="M59.038 44.9906C59.693 44.6872 60.2033 44.1396 60.46 43.4649C59.9024 43.1761 59.3123 42.9548 58.7023 42.8058C58.64 43.4828 58.3668 44.1232 57.9211 44.6366C58.3037 44.7192 58.6777 44.8377 59.038 44.9906Z" fill="#D75E5E"/>
<path d="M59.6543 45.2958C59.7947 45.3751 59.9411 45.4605 60.0815 45.5521C60.3033 45.6929 60.5719 45.7399 60.8282 45.6826C61.0846 45.6254 61.3077 45.4687 61.4486 45.2469C61.5894 45.0252 61.6363 44.7566 61.5791 44.5002C61.5219 44.2438 61.3652 44.0207 61.1434 43.8799L60.942 43.7639C60.6841 44.3969 60.2336 44.9328 59.6543 45.2958Z" fill="#D75E5E"/>
<path d="M53.2463 45.5338C53.3867 45.4422 53.527 45.3568 53.6735 45.2774C53.0919 44.914 52.6376 44.3786 52.3736 43.7456L52.1783 43.8616C51.9565 44.0032 51.8001 44.2271 51.7435 44.4841C51.6868 44.741 51.7346 45.0099 51.8762 45.2317C52.0178 45.4534 52.2417 45.6098 52.4987 45.6665C52.7556 45.7231 53.0246 45.6754 53.2463 45.5338Z" fill="#D75E5E"/>
<path d="M48.0492 62.3099C48.5545 62.0321 49.0881 61.7829 49.6428 61.5654C48.8505 61.2298 48.2864 60.7077 48.03 60.0727C47.1536 60.4378 46.3232 60.8648 45.5561 61.3448C46.1002 61.9071 46.9949 62.2535 48.0492 62.3099Z" fill="#D75E5E"/>
<path d="M52.4015 60.7893C53.0819 60.14 53.4159 59.3842 53.3342 58.679C51.7982 58.8569 50.2668 59.2285 48.8201 59.7742C49.0705 60.4384 49.7138 60.9571 50.616 61.2224C51.2013 61.0428 51.799 60.8978 52.4015 60.7893Z" fill="#D75E5E"/>
<path d="M55.1815 60.5796C56.0926 60.0463 56.7292 59.3284 56.9552 58.5792C56.0505 58.5015 55.1131 58.5013 54.1627 58.5785C54.2289 59.2591 53.97 59.9809 53.4224 60.6421C54.0159 60.583 54.6048 60.5621 55.1815 60.5796Z" fill="#D75E5E"/>
<path d="M56.1785 60.6517C56.4078 60.6777 56.6477 60.7074 56.8799 60.7453C57.2458 60.8014 57.6599 60.7493 58.031 60.6004C58.4022 60.4514 58.7 60.2179 58.859 59.9512C59.018 59.6844 59.0251 59.4063 58.8788 59.178C58.7325 58.9496 58.4448 58.7898 58.0789 58.7337L57.7494 58.6943C57.5116 59.4034 56.9621 60.0882 56.1785 60.6517Z" fill="#D75E5E"/>
<path d="M46.6206 63.2154C46.8097 63.0754 47.0001 62.9413 47.2012 62.8108C46.2428 62.6693 45.435 62.3144 44.8897 61.7953L44.624 61.9791C44.3247 62.1975 44.1429 62.472 44.1184 62.7423C44.094 63.0126 44.229 63.2566 44.4938 63.4206C44.7586 63.5845 45.1314 63.655 45.5303 63.6165C45.9291 63.5781 46.3213 63.4338 46.6206 63.2154Z" fill="#D75E5E"/>
<path d="M58.379 67.5151C58.7481 67.3867 59.1042 67.2237 59.4427 67.0284C59.4519 67.7091 59.6745 68.3696 60.0789 68.9171C59.5277 69.2123 58.9437 69.4416 58.3389 69.6003C58.0795 68.9267 58.0939 68.1783 58.379 67.5151Z" fill="#D75E5E"/>
<path d="M60.8931 65.8671C61.5999 65.8653 62.2802 66.1361 62.7925 66.6231C62.1788 67.4276 61.4188 68.1091 60.5525 68.6318C60.1239 68.0697 59.9286 67.3641 60.0071 66.6616C60.3263 66.4246 60.6229 66.1586 60.8931 65.8671Z" fill="#D75E5E"/>
<path d="M61.9185 64.3411C62.6087 64.1297 63.3542 64.1967 63.9958 64.5277C63.7734 65.115 63.4819 65.6736 63.1272 66.1918C62.6289 65.7294 61.9979 65.435 61.3233 65.3503C61.553 65.0334 61.7523 64.6955 61.9185 64.3411Z" fill="#D75E5E"/>
<path d="M62.1736 63.7024C62.2251 63.5496 62.2771 63.3882 62.3205 63.2263C62.3916 62.9735 62.5602 62.7592 62.7893 62.6306C63.0184 62.5021 63.2891 62.4698 63.542 62.5408C63.7949 62.6119 64.0092 62.7805 64.1378 63.0096C64.2663 63.2387 64.2986 63.5095 64.2275 63.7623L64.155 63.9831C63.5403 63.6841 62.8472 63.5858 62.1736 63.7024Z" fill="#D75E5E"/>
<path d="M57.2441 67.8033C57.4097 67.7778 57.5713 67.7477 57.7333 67.709C57.5429 68.3679 57.5621 69.0697 57.7882 69.7173L57.5654 69.7613C57.3057 69.8039 57.0398 69.7417 56.8261 69.5882C56.6124 69.4347 56.4684 69.2026 56.4258 68.943C56.3832 68.6833 56.4454 68.4174 56.5989 68.2037C56.7524 67.99 56.9845 67.8459 57.2441 67.8033Z" fill="#D75E5E"/>
<path d="M28.5555 59.9413C28.8956 60.1337 29.2532 60.2936 29.6233 60.4188C29.1183 60.8752 28.7691 61.4784 28.625 62.1437C28.0393 61.9246 27.4815 61.6375 26.963 61.288C27.2977 60.6484 27.8692 60.1651 28.5555 59.9413Z" fill="#FFC946"/>
<path d="M31.4528 60.7413C31.9209 61.271 32.1667 61.9607 32.1392 62.6669C31.1298 62.7372 30.1162 62.6165 29.1516 62.311C29.2907 61.618 29.6917 61.0054 30.2711 60.6005C30.6599 60.6837 31.0554 60.7308 31.4528 60.7413Z" fill="#FFC946"/>
<path d="M33.2754 60.5037C33.89 60.8825 34.3319 61.4866 34.5069 62.187C33.9191 62.4078 33.307 62.5577 32.6836 62.6335C32.7019 61.9539 32.5064 61.2856 32.1246 60.7231C32.5143 60.6864 32.8996 60.6129 33.2754 60.5037Z" fill="#FFC946"/>
<path d="M33.9244 60.2736C34.0732 60.2115 34.2287 60.144 34.3789 60.0697C34.6158 59.9561 34.8881 59.9412 35.1359 60.0284C35.3837 60.1155 35.5867 60.2976 35.7003 60.5344C35.8139 60.7713 35.8287 61.0435 35.7416 61.2913C35.6544 61.5391 35.4724 61.7422 35.2355 61.8558L35.0218 61.9471C34.8406 61.288 34.4567 60.7026 33.9244 60.2736Z" fill="#FFC946"/>
<path d="M27.589 59.2792C27.7175 59.3867 27.8468 59.4881 27.9829 59.5842C27.3623 59.8763 26.8479 60.3542 26.5108 60.9515L26.3306 60.8133C26.1272 60.6464 25.9984 60.4055 25.9725 60.1437C25.9467 59.8819 26.0259 59.6205 26.1928 59.417C26.3596 59.2136 26.6005 59.0848 26.8623 59.0589C27.1242 59.0331 27.3856 59.1123 27.589 59.2792Z" fill="#FFC946"/>
<path d="M48.3751 66.5262C49.3559 66.9077 49.1379 64.2376 48.3751 64.5646C47.8847 64.7281 47.5032 65.273 47.4487 65.5999C47.4487 65.8179 47.7757 66.3083 48.3751 66.5262Z" fill="#FFC946"/>
<path d="M49.5958 30.5189C50.5766 30.9003 50.3586 28.2303 49.5958 28.5572C49.1054 28.7207 48.7239 29.2656 48.6694 29.5925C48.6694 29.8105 48.9964 30.3009 49.5958 30.5189Z" fill="#FFC946"/>
<path d="M43.2458 40.2256C42.5374 40.2256 41.938 41.152 41.938 42.2963C41.938 43.3861 42.5374 44.3669 43.2458 44.3669C43.9541 44.3669 44.5535 43.4406 44.5535 42.2963C44.5535 41.152 43.9541 40.2256 43.2458 40.2256Z" fill="#FFC946"/>
<path d="M39.051 49.489C38.5061 49.5435 37.5797 50.8513 37.9612 51.3417C38.5061 52.1046 40.5767 51.5597 40.8492 50.6333C40.9037 50.4698 40.8492 50.3609 40.7947 50.3064C40.3588 49.816 39.5414 49.489 39.051 49.489Z" fill="#FFC946"/>
<path d="M37.6428 68.1985C37.0979 68.253 36.1715 69.5608 36.553 70.0512C37.0979 70.8141 39.1685 70.2692 39.441 69.3428C39.4955 69.1794 39.441 69.0704 39.3865 69.0159C38.9506 68.5255 38.1332 68.1985 37.6428 68.1985Z" fill="#FFC946"/>
<path d="M35.1816 28.5649C27.6074 28.5649 21.45 34.7223 21.45 42.2965C21.45 49.8707 27.6074 56.0281 35.1816 56.0281C42.7558 56.0281 48.9132 49.8707 48.9132 42.2965C48.9132 34.7223 42.7558 28.5649 35.1816 28.5649ZM37.6336 31.9433C39.9767 31.017 40.7396 36.0301 38.1785 36.0301C38.0151 36.0301 37.7971 35.9756 37.6336 35.9211C36.5983 35.5397 35.9444 34.6678 36.0534 33.8505C36.1079 33.0876 36.8163 32.2703 37.6336 31.9433ZM35.9444 39.5175C36.1079 39.463 37.1432 38.9726 37.1432 37.5558C37.1432 37.2289 37.3612 37.0109 37.6881 37.0109C38.0151 37.0109 38.233 37.2289 38.233 37.5558C38.233 39.245 37.1432 40.1714 36.3804 40.4983C36.3804 40.7708 36.4893 41.2612 36.8163 41.6426C37.0342 41.9151 37.3067 42.0241 37.6336 42.0241C37.9061 42.0241 38.1785 42.242 38.233 42.5145C38.233 42.8414 38.0696 43.1139 37.5792 43.1139C36.2714 43.1139 35.454 41.9696 35.345 40.7708C35.2361 39.7355 35.781 39.5175 35.9444 39.5175ZM30.1139 38.8636C30.1139 38.5367 30.3319 38.3187 30.6589 38.3187C30.9858 38.3187 31.2038 38.5367 31.2038 38.8636V39.1361C31.2038 39.463 30.9858 39.681 30.6589 39.681C30.3319 39.681 30.1139 39.463 30.1139 39.1361V38.8636ZM25.8637 36.7385C25.8637 36.4115 26.0816 36.1936 26.4086 36.1936C26.7355 36.1936 26.9535 36.4115 26.9535 36.7385V37.0109C26.9535 37.3379 26.7355 37.5558 26.4086 37.5558C26.0816 37.5558 25.8637 37.3379 25.8637 37.0109V36.7385ZM27.4984 47.3096C27.4984 47.6366 27.2804 47.8545 26.9535 47.8545C26.6266 47.8545 26.4086 47.6366 26.4086 47.3096V47.0372C26.4086 46.7102 26.6266 46.4923 26.9535 46.4923C27.2804 46.4923 27.4984 46.7102 27.4984 47.0372V47.3096ZM30.005 51.3964H29.9505C29.678 51.3964 29.4601 51.1785 29.4056 50.906L29.3511 50.6336C29.2966 50.3611 29.5146 50.0342 29.8415 50.0342C30.1139 49.9797 30.4409 50.1976 30.4409 50.5246L30.4954 50.797C30.4954 51.124 30.2774 51.3964 30.005 51.3964ZM30.6589 44.4761C31.0403 43.4408 29.9505 42.4055 28.9696 42.8414C28.6427 43.0049 28.4247 43.2229 28.3158 43.5498C27.5529 45.5115 24.8284 45.5659 23.9565 43.6588C23.6841 43.0594 23.6841 42.46 23.902 41.8606C24.011 41.5881 24.338 41.4247 24.6104 41.5336C24.8829 41.6426 25.0463 41.9696 24.9373 42.242C24.8284 42.569 24.8284 42.8959 24.9918 43.2229C25.3733 44.0947 26.681 44.3672 27.3349 43.1139C27.5529 42.569 27.9888 42.133 28.5337 41.8606C29.7325 41.3157 31.0948 41.8606 31.6397 43.0594C31.9121 43.6588 31.9121 44.2582 31.6942 44.8576C31.5852 45.0755 31.4217 45.1845 31.2038 45.1845C31.1493 45.1845 31.0948 45.1845 30.9858 45.13C30.7133 45.021 30.5499 44.7486 30.6589 44.4761ZM32.0756 46.2743C32.0756 46.6013 31.8576 46.8192 31.5307 46.8192C31.2038 46.8192 30.9858 46.6013 30.9858 46.2743V46.0019C30.9858 45.6749 31.2038 45.457 31.5307 45.457C31.8576 45.457 32.0756 45.6749 32.0756 46.0019V46.2743ZM32.457 35.6487C32.457 35.9756 32.2391 36.1936 31.9121 36.1936C31.5852 36.1936 31.3672 35.9756 31.3672 35.6487V35.3762C31.3672 35.0493 31.5852 34.8313 31.9121 34.8313C32.2391 34.8313 32.457 35.0493 32.457 35.3762V35.6487ZM34.0373 52.5407H33.9828C33.7103 52.5407 33.4924 52.3228 33.4379 52.0503L33.3834 51.7779C33.3289 51.5054 33.5469 51.1785 33.8738 51.1785C34.1462 51.124 34.4732 51.3419 34.4732 51.6689L34.5277 51.9413C34.5277 52.2138 34.3097 52.4862 34.0373 52.5407ZM36.2714 46.8737C36.1079 47.0372 35.8899 47.0917 35.7265 47.0372C35.2905 47.7456 34.8001 49.8707 33.6013 49.3258C33.3289 49.2168 33.2199 48.8899 33.3289 48.6174C33.4379 48.3995 33.6558 48.236 33.9283 48.2905C34.3642 47.7456 34.6367 46.1108 35.5085 45.8929C35.672 45.8384 35.9444 45.8384 36.2714 46.1109C36.4349 46.2743 36.4893 46.6558 36.2714 46.8737ZM41.8839 50.9605C41.6659 51.7234 40.8486 52.3773 39.7588 52.6497C37.6881 53.1946 36.4349 51.8868 36.8163 50.5791C37.1432 49.4893 38.0151 48.3995 39.1049 48.3995C39.9767 48.3995 41.0121 48.8899 41.6115 49.5982C41.9384 49.9797 42.0474 50.4701 41.8839 50.9605ZM45.8617 42.8414H45.5893C45.5348 43.3318 45.3713 43.7678 45.2078 44.1492L45.5348 44.6396C45.6982 44.9121 45.6438 45.239 45.4258 45.4025C45.1533 45.5659 44.8264 45.5115 44.6629 45.2935L44.4995 45.021C44.2815 45.1845 44.0635 45.2935 43.7911 45.4025V46.0019C43.7911 46.3288 43.5731 46.5468 43.2462 46.5468C42.9192 46.5468 42.7013 46.3288 42.7013 46.0019V45.4025C42.4288 45.348 42.2108 45.1845 41.9929 45.021L41.8294 45.239C41.6659 45.5115 41.339 45.5659 41.0665 45.348C40.7941 45.1845 40.7396 44.8576 40.9576 44.5851L41.2845 44.0947C41.0665 43.7133 40.9576 43.2773 40.9031 42.7869H40.6306C40.3037 42.7869 40.0857 42.569 40.0857 42.242C40.0857 41.9151 40.3037 41.6971 40.6306 41.6971H40.9031C40.9576 41.2067 41.121 40.7708 41.2845 40.3893L40.9576 39.8989C40.7941 39.6265 40.8486 39.2995 41.0665 39.1361C41.339 38.9726 41.6659 39.0271 41.8294 39.245L41.9929 39.463C42.2108 39.2995 42.4288 39.1906 42.7013 39.0816V38.4822C42.7013 38.1552 42.9192 37.9373 43.2462 37.9373C43.5731 37.9373 43.7911 38.1552 43.7911 38.4822V39.0816C44.0635 39.1361 44.2815 39.2995 44.4995 39.463L44.6629 39.245C44.8264 38.9726 45.1533 38.9181 45.4258 39.1361C45.6982 39.2995 45.7527 39.6265 45.5348 39.8989L45.2078 40.3893C45.4258 40.7708 45.5348 41.2067 45.5893 41.6971H45.8617C46.1887 41.6971 46.4066 41.9151 46.4066 42.242C46.4066 42.569 46.1342 42.8414 45.8617 42.8414Z" fill="#D75E5E"/>
</svg>
